<svg width="98" height="69" viewBox="0 0 98 69" fill="none" xmlns="http://www.w3.org/2000/svg">
<path d="M84.5912 41.2387L89.0377 45.2406L95.2318 42.1436C96.6273 41.4458 97.255 39.7948 96.6756 38.3461L87.2917 14.8864C86.6657 13.3215 84.8737 12.5792 83.3245 13.2432L82.7811 13.4761L75.8948 16.3755C74.5807 16.9289 73.8376 18.3307 74.1172 19.7288L74.5257 21.7714C74.5746 22.0156 74.6536 22.2528 74.7611 22.4774L79.8934 33.2086L83.9833 40.4796C84.1433 40.764 84.3486 41.0204 84.5912 41.2387Z" fill="#F65510"/>
<path d="M92.6542 40.408C91.1588 40.8423 88.6273 42.3011 87.0736 43.2744C81.9111 36.3103 76.5625 26.2256 74.9495 17.7087C77.4449 17.0199 82.8297 14.7181 85.2968 13.5695C87.6754 19.152 89.1668 23.8888 90.7798 27.0585C91.0505 27.5907 91.7035 27.8066 92.2417 27.5339C92.7766 27.2615 92.9896 26.607 92.7171 26.0721C91.2387 23.1689 87.7051 13.1999 86.8253 11.5692C86.8205 11.5604 86.8118 11.5557 86.8068 11.547C86.3851 10.5999 85.2912 10.6099 84.853 11.3794C82.5408 12.5021 75.6563 15.4182 73.9896 15.7125C73.1713 15.4517 72.4804 16.1479 72.5941 16.8993C72.6915 17.5394 72.8132 18.1894 72.952 18.8456C62.5356 21.8449 58.2155 15.5416 51.4494 16.762C50.1018 17.006 48.7658 17.4471 47.475 17.9755C39.7879 13.1378 28.894 19.2509 23.0776 15.9349C21.2485 14.8775 19.3571 13.8646 17.452 12.8391C17.6092 12.0175 17.7461 11.426 17.6772 11.1343C17.4646 10.2265 6.3401 5.29908 6.10469 5.31528C6.09319 5.31316 6.08443 5.30555 6.07276 5.30378C5.48124 5.21392 4.92651 5.62714 4.83877 6.22078C4.25297 10.1985 1.01292 19.4677 0.030896 23.5001C-0.110616 24.0832 0.24741 24.6711 0.83044 24.8134C1.42814 24.9554 2.00457 24.5849 2.14367 24.0138C3.10671 20.0475 5.71174 12.7211 6.73725 7.88735C8.83904 8.90951 13.5555 11.0591 15.4049 11.9721C14.4968 16.7642 12.0013 29.1826 8.89646 38.4131C7.84654 37.7881 6.52397 36.9885 5.61214 36.452C4.55073 35.8295 3.41251 37.186 4.27794 38.1177C4.38523 38.6512 4.47456 39.2129 4.6158 39.6929C6.01607 40.7246 7.8904 41.874 9.49461 42.5459C9.84406 42.3527 10.1059 41.6534 10.1935 41.2638C11.5854 42.1605 12.9742 43.4103 14.3661 44.3069C13.2343 45.5031 13.3797 48.9815 15.8747 51.416C16.9421 52.4576 18.5219 53.0496 19.965 52.6733C19.3292 56.8564 23.214 59.6489 26.7946 58.7239C26.7439 62.5635 30.5316 65.4816 34.2738 64.2074C34.8023 66.1518 36.3413 67.9797 38.254 68.6137C40.1666 69.2478 42.3858 68.8609 43.9711 67.6172C44.2015 67.4364 44.4187 67.2848 44.6376 67.1303C47.5337 67.9423 50.4813 67.5239 53.0571 66.3484C56.2334 67.7274 59.7282 65.4234 60.1918 62.531C63.4554 64.12 67.1444 61.5523 67.4867 58.6788C68.9857 59.0938 70.6779 58.7316 71.8759 57.7396C73.0738 56.7475 73.9728 54.7961 73.8445 53.246C78.1365 50.8115 82.2343 48.4854 86.6243 45.9951C86.6425 46.0021 86.6621 46.0019 86.6807 46.0079C87.4086 46.9438 87.5112 46.934 87.8568 46.8387C89.2118 46.506 92.0611 45.24 93.2484 44.5074C93.5745 43.7013 93.6004 43.5755 93.7337 42.1859C94.5152 41.3558 93.686 40.0998 92.6542 40.408ZM50.1163 63.4059C50.3459 63.6063 50.6055 63.8314 50.8892 64.0581C49.4095 64.7732 48.0584 64.841 47.2401 64.6208C46.1149 64.317 44.5515 63.3311 43.8354 62.3017C44.1451 61.317 44.6344 60.469 44.8238 59.2659C46.9698 60.9226 48.5078 62.003 50.1163 63.4059ZM42.7159 58.4254C42.7478 59.0339 42.5008 59.7096 42.1824 60.5063C41.492 62.2388 41.5343 62.6774 41.4706 63.4497C41.4453 64.0035 41.4131 64.7667 41.7139 65.4043C39.5905 66.1778 37.1187 64.2164 36.3526 62.2742C37.911 60.477 39.3422 58.5563 40.631 56.5543C40.6346 56.5542 40.6377 56.5561 40.6414 56.556C41.6362 56.4972 42.6636 57.4319 42.7159 58.4254ZM39.1598 54.8647C38.5873 55.6984 37.3981 57.752 34.7146 60.8462C34.6198 60.8818 34.5186 60.899 34.4353 60.9613C33.7023 61.5075 32.6693 61.6709 31.8039 61.3766C30.9386 61.0815 30.2204 60.3223 29.9735 59.4421C29.7653 58.701 29.766 57.5261 29.8707 56.681C30.6227 55.7519 30.2485 55.748 34.0816 51.4311L34.7912 50.6294C34.8326 50.5825 34.8494 50.525 34.8813 50.4735C35.8269 50.4144 36.5845 50.5023 37.2104 50.7611C38.4776 51.2846 39.3854 53.1413 39.1527 54.734C39.1461 54.779 39.1608 54.8203 39.1598 54.8647ZM28.092 55.5147C26.7375 56.0816 25.0373 55.8164 23.9514 54.8317C22.8229 53.8075 22.3967 52.047 22.9158 50.6151C25.5847 48.1878 27.6759 44.9936 30.5438 46.4364C31.9369 47.139 32.7591 48.7459 32.7245 49.3523C32.7188 49.4528 32.7453 49.545 32.7657 49.6389C31.6076 50.9456 28.9147 53.9479 28.092 55.5147ZM22.4341 48.0648C21.9899 48.5172 21.5614 48.9332 21.1512 49.2786C19.8679 49.7077 18.2444 49.1268 17.5954 47.9358C16.9159 46.6893 17.3722 44.907 18.5396 44.1052C21.3431 43.8693 23.1291 46.5987 22.4341 48.0648ZM51.8357 18.901C57.4211 17.8941 62.6862 24.0146 73.4642 20.9598C75.4926 28.5324 79.8399 36.7582 84.1612 42.9475C79.7511 44.4104 76.2666 46.3352 72.1075 49.5824C71.3555 47.8514 70.2762 46.7703 68.7358 45.2718C63.342 40.0126 57.0037 32.4767 50.4254 28.7932C50.6009 28.7725 50.7722 28.7568 50.9229 28.7608C51.5251 28.8054 52.0232 28.3073 52.0416 27.7073C52.06 27.1073 51.588 26.6063 50.988 26.5886C48.8455 26.5044 45.6509 27.904 44.1042 29.5342C41.5624 32.1871 40.1027 36.1919 36.9422 37.3563C36.0026 37.7037 34.7601 37.6351 34.3165 36.9247C33.9507 36.3254 33.7738 35.0433 33.9379 34.1765C34.4488 31.3972 35.6064 29.6566 37.3144 27.3174C38.5625 25.6009 40.6201 23.9275 43.2593 22.4791C45.8816 21.0548 48.854 19.4409 51.8357 18.901ZM21.995 17.8198C28.2337 21.3745 38.0322 16.2754 44.9785 19.1176C41.4865 20.8644 37.8655 22.866 35.5575 26.0367C33.732 28.538 32.3933 30.5581 31.8011 33.7775C31.5718 34.9895 31.7247 36.8483 32.4669 38.066C33.5327 39.7732 35.8738 40.0719 37.6951 39.3948C40.331 38.4257 41.9847 36.0929 43.4313 33.9749C45.0192 31.6456 45.6791 30.6949 47.5152 29.7583C54.2869 32.7873 60.5962 40.2243 66.0173 45.6454C67.4043 47.0324 67.8296 47.3799 68.8278 48.477C71.9474 51.9034 70.3348 55.438 67.7204 55.0807C65.8264 54.8282 64.2469 52.9878 62.7689 51.6066C60.1035 49.1181 57.3193 46.4301 55.0084 43.6317C54.6277 43.1682 53.9414 43.1031 53.4786 43.4859C53.0159 43.868 52.9501 44.5529 53.3329 45.0157C55.7216 47.9089 58.5667 50.657 61.2859 53.1958C62.367 54.2061 63.5503 55.499 65.0069 56.3592C64.3777 58.7932 61.839 60.1064 59.5347 59.3247C57.841 58.748 57.1059 57.7734 49.8312 50.3889C49.4116 49.9622 48.7224 49.9566 48.2943 50.3776C47.867 50.7985 47.8613 51.487 48.283 51.9144C55.1196 58.8456 55.8818 59.7765 57.452 60.7235C57.0146 62.7095 55.5971 63.4609 54.4317 63.3889C53.4617 63.3719 52.5128 62.6127 51.5456 61.7686C49.0995 59.6342 46.3458 57.8481 43.9853 55.7876C43.8634 55.6811 43.7239 55.6124 43.5784 55.5695C42.963 54.9804 42.1861 54.5622 41.3419 54.4275C41.402 52.2733 40.2609 49.669 38.0411 48.7516C37.0975 48.3619 36.0239 48.2284 34.7306 48.3101C34.3213 46.9164 33.1617 45.3222 31.523 44.4963C28.7183 43.0805 26.4036 44.3693 24.535 46.0107C23.7363 43.459 21.1483 41.5811 18.303 41.9547C18.2234 41.9654 18.1573 42.0037 18.0848 42.0299C17.929 42.0283 17.7768 42.0588 17.6286 42.127C15.2775 40.2896 13.8466 39.5617 11.259 38.1736C13.7912 30.3816 15.888 20.7253 17.0154 15.0747C18.6853 15.9731 20.356 16.872 21.995 17.8198Z" fill="#221F1A"/>
<path d="M9.94349 15.7479C11.0042 15.3354 11.2704 14.0344 10.472 13.2361C9.51236 12.2764 7.91849 12.8975 7.85901 14.2528C7.83566 14.7856 8.07057 15.2809 8.48591 15.5788C8.91246 15.8855 9.46186 15.9348 9.94349 15.7479Z" fill="#221F1A"/>
<path d="M77.0362 19.8977C76.2574 22.0337 78.0165 24.5763 80.4551 23.916C81.9332 23.519 82.7561 22.186 82.4561 20.6746C81.8688 17.7137 77.958 17.3689 77.0362 19.8977ZM79.8912 21.8173C79.6322 21.8831 79.4568 21.8421 79.3011 21.673C78.9766 21.3194 78.8504 20.4595 79.4384 20.3824C79.9148 20.3206 80.2421 20.6823 80.3242 21.0985C80.4381 21.6702 80.0263 21.7805 79.8912 21.8173Z" fill="#221F1A"/>
<path d="M40.8034 11.852C41.1083 12.3662 41.7735 12.5395 42.2928 12.2334C42.8093 11.927 42.9798 11.2605 42.6742 10.744L39.0868 4.68586C38.7812 4.16863 38.1153 3.99881 37.5981 4.30377C37.0816 4.60944 36.9104 5.27596 37.216 5.79248L40.8034 11.852Z" fill="#221F1A"/>
<path d="M47.3247 11.8303C47.8518 11.8303 48.3153 11.4454 48.3973 10.9083L49.8776 1.25223C49.9688 0.658586 49.5613 0.103858 48.9683 0.0132903C48.3775 -0.0801078 47.82 0.328862 47.7294 0.922506L46.2492 10.5786C46.148 11.2365 46.6566 11.8303 47.3247 11.8303Z" fill="#221F1A"/>
<path d="M55.6398 10.6946L58.7247 6.06932C59.058 5.56978 58.9229 4.89547 58.4233 4.56221C57.9238 4.22895 57.2495 4.36409 56.9162 4.86363L53.8313 9.48896C53.498 9.9885 53.6331 10.6628 54.1327 10.9961C54.6303 11.3285 55.3063 11.1949 55.6398 10.6946Z" fill="#221F1A"/>
</svg>
