<svg width="78" height="70" viewBox="0 0 78 70" fill="none" xmlns="http://www.w3.org/2000/svg">
<path d="M60.3137 0.010469C56.6721 0.58068 52.9234 0.778159 49.4559 1.21287C48.6697 1.31184 48.3858 2.31572 49.0158 2.80688C50.3768 5.11952 51.739 8.58023 52.7721 12.3781C52.8725 12.7471 53.2096 13.0658 53.7188 13.0184C54.3384 13.102 54.7381 13.057 55.4893 13.0616C55.629 13.0625 55.7379 12.9753 55.8311 12.8712C56.3496 12.2923 57.0037 11.5239 57.5749 11.0033C64.6485 14.501 70.4654 23.7266 69.67 33.714C69.5938 34.6636 70.6719 35.3389 71.3223 34.6477C72.9426 32.9213 74.6058 31.4297 76.2597 29.4878C76.4992 29.3385 76.6735 29.092 76.6905 28.7887C76.6954 28.7011 76.6904 28.6136 76.6944 28.5261C76.8737 28.2828 77.1051 27.9544 77.4359 27.4502C78.5188 11.5162 61.5265 2.88078 61.3984 3.12136C61.5463 2.84383 61.7119 2.47648 61.8598 2.19881C61.6633 1.87659 61.4668 1.55437 61.2702 1.23215C61.5418 0.564088 60.9948 -0.0911448 60.3137 0.010469ZM71.5354 31.8654C71.5384 21.8929 65.472 11.9276 56.1737 8.42964C55.8373 8.3049 55.1649 8.43277 54.8941 8.77318C54.5716 9.17866 54.2585 9.59582 53.957 10.0212C53.3082 7.9152 52.3398 5.20307 51.088 2.83595C53.8388 2.53911 56.0748 2.37053 58.4593 2.07875C58.0207 2.60808 57.3406 3.3665 56.9653 4.01498C56.717 4.44383 56.8631 4.99303 57.2919 5.24192C57.7156 5.48703 58.2673 5.34795 58.5183 4.91474C58.5581 4.84609 58.6145 4.7659 58.6679 4.68775C58.7912 4.80717 75.611 10.5505 74.9035 28.3128C73.9227 29.4669 72.7789 30.6201 71.5354 31.8654Z" fill="white"/>
<path d="M13.3562 66.1951C12.9097 66.7574 12.3688 67.5932 11.9973 67.9394C12.3279 68.481 12.5025 68.6849 12.74 69.015C12.6799 69.6094 13.1282 70 13.6146 70C13.6304 70 13.6455 70 13.6613 69.9989C17.3496 69.8055 21.1431 69.9943 24.5846 69.9171C25.3298 69.9013 25.7741 68.9985 25.2052 68.4185C24.0809 65.9777 23.0731 62.3761 22.4316 58.4703C22.3238 57.8193 21.5596 57.4918 21.0162 57.8919C20.4104 57.8054 19.8046 57.7189 19.1988 57.6323C18.9158 57.9155 18.4247 58.274 18.1416 58.5571C11.5367 53.492 7.66646 44.9593 8.5462 36.6824C8.23399 36.2966 8.05119 35.8603 7.80938 35.447C7.92022 34.4047 6.90467 33.8605 6.26285 34.4163C4.46735 35.9714 2.68679 37.2611 0.8242 39.04C0.570121 39.1643 0.370085 39.3934 0.322103 39.6934C-1.36839 50.2556 3.68569 60.9118 13.3562 66.1951ZM2.05056 40.3501C3.16943 39.2786 4.39839 38.2773 5.76469 37.1624C4.74167 47.0612 9.73685 57.608 18.6433 62.0483C19.0116 62.2325 19.6624 62.133 19.9509 61.8391C20.3131 61.4687 20.6672 61.0866 21.0107 60.6928C21.4404 62.8543 22.1254 65.6511 23.1278 68.1345C20.0764 68.1472 18.0487 68.08 15.5105 68.1363C15.8973 67.6805 16.2852 67.2131 16.5698 66.7527C16.8303 66.3309 16.6995 65.7782 16.2776 65.5176C15.9379 65.3071 15.9456 65.4975 15.4772 65.2781C6.24527 60.9427 0.524095 50.9856 2.05056 40.3501Z" fill="white"/>
<path d="M12.6982 45.8363C12.3546 46.1483 12.3056 46.6694 12.5837 47.0398C13.8802 48.7672 15.028 50.7485 16.1628 52.6674C16.3562 52.9934 16.7366 53.1582 17.107 53.0904C19.2111 52.6769 21.4614 52.4158 23.6355 52.0154C26.0473 54.7112 29.384 56.6215 32.9265 57.3638C33.4165 59.4717 34.097 61.6586 34.955 63.87C35.0893 64.2159 35.4218 64.4426 35.7916 64.4426H35.8132C36.5866 64.4239 42.669 64.3345 42.6788 64.3316H42.6812C42.8866 64.3266 43.0751 64.2486 43.2264 64.1242C44.6861 63.447 46.3967 61.852 47.3721 60.7203C47.4015 59.6585 47.5406 58.5576 47.57 57.4959C51.0137 55.9162 52.6459 54.8412 55.0125 52.3088C55.1874 52.1217 55.2987 51.8883 55.3586 51.6418C57.8191 52.3462 59.0717 52.6312 60.8253 53.1769C61.2448 53.3089 61.6965 53.1161 61.8934 52.7247C62.3941 51.7326 62.9351 50.6973 63.4767 49.662C64.0224 48.6185 64.5681 47.575 65.0717 46.5759C65.3907 45.9449 65.4589 44.0261 65.4655 43.906C64.2977 42.8709 62.7801 41.2326 61.5583 40.4377C62.4735 37.1878 62.2517 33.6457 61.1291 30.4542C62.2533 29.7712 63.3473 29.1178 64.505 28.4018C64.6048 27.6027 64.7045 26.8035 64.8042 26.0042C65.0704 25.7575 65.1632 25.3767 65.0373 25.0355C64.1679 22.6786 62.7557 20.5495 61.6229 18.958C61.3857 18.625 60.9533 18.4918 60.5735 18.639C58.923 19.2653 56.9646 19.6977 54.5966 19.9583C51.7495 17.1877 48.1867 15.179 44.6764 14.3576C44.4012 12.3758 43.9356 10.4173 43.2888 8.52784C43.1452 8.10542 42.7201 7.87902 42.295 7.94913C42.097 7.95377 35.0843 8.11831 35.3598 8.11184C35.136 8.11712 34.8934 8.36676 34.6479 8.76668C33.721 10.2769 32.7533 13.9301 32.601 14.6614C29.0218 15.5121 25.6611 17.5114 23.223 20.2399C21.3972 19.575 19.4148 19.0387 17.0439 18.5677C16.6741 18.4953 16.2978 18.6601 16.1021 18.9814C14.833 21.0637 13.5634 23.2553 12.2734 25.3697C12.0654 25.7121 12.1087 26.1503 12.3798 26.4447C13.8948 28.0912 15.3957 29.5284 17.0603 30.9236C15.5306 34.3399 16.0895 38.1073 16.8155 41.6869C15.4301 43.1385 14.0254 44.6318 12.6982 45.8363ZM18.4339 42.5913C18.6395 42.3786 18.7266 42.0783 18.6676 41.7897C17.9463 38.2529 17.2081 34.3386 18.9673 31.1141C19.1747 30.7343 19.0818 30.2611 18.7464 29.9888C17.0977 28.6439 15.6265 27.2767 14.1594 25.7226C15.2229 23.9616 16.2765 22.1611 17.308 20.4537C19.558 20.9258 21.434 21.4657 23.1704 22.1376C23.5292 22.2754 23.9382 22.1714 24.1853 21.8735C26.5212 19.0503 29.935 17.016 33.5516 16.2903C33.9191 16.2167 34.2024 15.9222 34.2614 15.5518C34.6147 13.3376 35.8517 10.5635 35.9002 9.895L41.7937 9.75668C42.3546 11.5314 42.758 13.3592 42.9762 15.2071C43.0218 15.595 43.3134 15.9094 43.6972 15.983C47.1917 16.6572 50.8117 18.6776 53.629 21.5264C53.8195 21.7204 54.0842 21.8209 54.3558 21.7882C56.7636 21.5486 58.7986 21.1432 60.5507 20.5531C61.4406 21.8373 62.4356 23.4124 63.1373 25.1056C61.7064 26.464 60.3648 27.982 58.9849 29.338C58.7419 29.5752 58.6548 29.9304 58.7588 30.2529C59.8689 33.7 59.672 37.548 58.219 40.8105C58.0711 41.1423 58.1378 41.5303 58.3884 41.7932C59.9235 43.4074 61.6377 44.7932 63.1793 46.3387C62.3873 47.8893 61.4725 49.6041 60.6331 51.2442C58.637 50.653 56.7081 50.2066 54.7233 49.5896C54.4084 49.4867 54.0643 49.5732 53.8277 49.8057C51.0454 52.5424 47.4879 54.5522 44.0682 55.3211C43.7066 55.4018 43.4325 55.6974 43.3776 56.0631C43.0575 58.2039 42.5562 60.5304 41.983 62.5507C40.2439 62.5851 38.3527 62.5969 36.4045 62.6337C35.6672 60.6624 35.0759 58.7168 34.6459 56.8425C34.5158 56.2758 34.2914 55.8036 33.7759 55.7137C30.2692 55.1038 26.9477 53.1886 24.6638 50.4613C24.4535 50.2112 24.1228 50.0979 23.8032 50.1563C15.0131 51.8837 18.4429 52.1815 14.496 46.6168C15.6422 45.5295 16.8198 44.2824 18.4339 42.5913Z" fill="white"/>
<path d="M38.7726 47.9289C45.2374 47.9289 50.4969 42.6694 50.4969 36.2052C50.4969 29.7409 45.2374 24.4814 38.7726 24.4814C32.3083 24.4814 27.0488 29.7409 27.0488 36.2052C27.0488 42.6694 32.3083 47.9289 38.7726 47.9289ZM38.7726 26.2763C39.6514 26.2763 40.4994 26.4023 41.3114 26.6176C43.773 27.8328 45.6743 30.1937 46.1918 32.8997C47.2797 38.5894 42.6908 44.0218 36.0439 43.4777C34.5487 43.3553 32.5175 42.7369 30.9193 42.2572C29.6234 40.5797 28.8437 38.4841 28.8437 36.2052C28.8437 30.7307 33.2975 26.2763 38.7726 26.2763Z" fill="white"/>
</svg>
