<svg width="95" height="70" viewBox="0 0 95 70" fill="none" xmlns="http://www.w3.org/2000/svg">
<path d="M8.35257 7.64396C8.78785 8.75165 9.99991 9.40056 11.1417 9.16689C12.2981 8.93562 13.1548 7.87232 13.1345 6.69121C13.1078 5.33022 11.914 4.28776 10.6173 4.69117C9.43444 3.79198 7.62598 5.80245 8.35257 7.64396Z" fill="#15CF92"/>
<path d="M20.9716 9.0854C23.1973 8.64082 23.661 5.62667 21.8247 4.71441C21.4014 4.50349 20.9047 4.46568 20.4479 4.60822C19.2523 3.69755 17.4588 5.72042 18.1824 7.56246C18.6161 8.66429 19.8161 9.31218 20.9716 9.0854Z" fill="#15CF92"/>
<path d="M31.0464 8.92098C33.2705 8.47643 33.7364 5.4629 31.8959 4.54853C31.4762 4.34052 30.981 4.30271 30.522 4.44525C29.316 3.5322 27.5351 5.56759 28.2565 7.39658C28.6909 8.50573 29.9034 9.15489 31.0464 8.92098Z" fill="#15CF92"/>
<path d="M93.3944 40.7746C88.7022 40.8565 83.7311 40.876 78.4043 40.8984C78.6138 27.5524 79.1516 14.1134 78.5905 1.06911C78.5649 0.484279 78.1916 0 77.1861 0C52.8019 0.869151 28.7361 0 4.47196 0C3.91782 0 3.16657 0.532085 3.16657 1.57912C2.32019 2.41641 1.4739 3.25352 0.627522 4.09099C-0.632326 31.7053 0.352008 64.199 0.604433 64.6816C1.60851 66.6016 52.5407 66.1297 63.2657 65.5682C63.2558 65.7918 63.2466 66.0158 63.2367 66.2394C63.0561 70.3162 64.3748 69.8859 66.8518 69.9275C71.438 70.0042 84.368 70.0886 91.6144 69.7879C92.0773 69.0273 92.3362 68.6413 92.5008 68.4104C93.2271 68.2822 93.647 67.5228 93.3154 66.8384C93.8843 59.4869 94.136 49.5638 94.7755 42.1113C94.8512 41.2352 93.8482 40.734 93.3944 40.7746ZM92.4659 43.0201C91.8727 50.54 91.6464 59.177 91.1183 66.246C83.0925 66.5002 74.5541 66.0048 66.5156 66.2762L67.3243 43.2277C76.0701 43.0923 83.7141 43.1545 92.4659 43.0201ZM66.2346 41.0059C65.6883 41.015 65.2619 41.4226 65.1738 41.9426C64.7217 42.3444 64.3805 42.5641 63.7798 43.2099C63.8872 48.9866 63.7182 54.7618 63.4831 60.5335H5.43207C6.01928 44.9983 5.6629 29.2009 5.48416 13.5708C29.0541 13.5686 53.0314 13.4683 76.5861 13.4668C76.5948 23.0485 76.3217 31.2822 76.1692 40.9102C72.8493 40.927 69.5324 40.9495 66.2346 41.0059ZM76.3881 2.25568C76.5022 5.22683 76.5575 8.22343 76.5781 11.2326C53.0726 11.234 29.0105 11.3344 5.45698 11.3366C5.42625 8.29961 5.40907 5.25828 5.40525 2.23677C29.5616 2.25824 52.0724 3.0746 76.3881 2.25568Z" fill="#15CF92"/>
<path d="M71.5659 53.1003C72.1392 53.1933 72.7395 52.7886 72.8299 52.1534L72.9494 51.319C79.3615 51.4567 78.6422 49.5668 77.8347 59.755C77.3854 59.9101 77.0624 60.3281 77.0766 60.8284C77.0933 61.4335 77.59 61.9135 78.1922 61.9135H78.2249L80.0686 61.8612C80.6854 61.8437 81.1705 61.3288 81.153 60.7121C81.137 60.1244 80.6537 59.6864 80.0822 59.6422C80.2959 56.8756 80.445 54.0879 80.5117 51.3219C82.1134 51.289 83.7111 51.2366 85.3036 51.1621L85.4702 51.8435C85.617 52.4464 86.2244 52.8094 86.8207 52.6639C87.42 52.517 87.7873 51.9134 87.6404 51.3141L87.3044 49.9395C87.1937 49.4844 86.5824 48.8797 85.9655 48.9009C81.3959 49.1351 76.7587 49.1948 72.1812 49.074C71.6804 49.0579 70.9512 49.5154 70.8604 50.1504L70.619 51.8363C70.531 52.4472 70.955 53.013 71.5659 53.1003Z" fill="#15CF92"/>
<path d="M29.5217 22.5894H14.9062C14.2894 22.5894 13.7891 23.0897 13.7891 23.7065V41.3941C13.7891 42.0108 14.2894 42.5112 14.9062 42.5112H29.5217C30.1385 42.5112 30.6388 42.0108 30.6388 41.3941V23.7065C30.6388 23.0897 30.1385 22.5894 29.5217 22.5894ZM28.4046 40.277H16.0233V24.8236H28.4046V40.277Z" fill="#15CF92"/>
<path d="M67.5692 25.6616H37.9941C37.3773 25.6616 36.877 26.162 36.877 26.7787C36.877 27.3955 37.3773 27.8958 37.9941 27.8958H67.5692C68.1859 27.8958 68.6863 27.3955 68.6863 26.7787C68.6863 26.162 68.1859 25.6616 67.5692 25.6616Z" fill="#15CF92"/>
<path d="M59.3176 37.2979H38.5507C37.934 37.2979 37.4336 37.7982 37.4336 38.415C37.4336 39.0317 37.934 39.5321 38.5507 39.5321H59.3176C59.9344 39.5321 60.4348 39.0317 60.4348 38.415C60.4348 37.7982 59.9344 37.2979 59.3176 37.2979Z" fill="#15CF92"/>
<path d="M55.6082 47.5381H37.9941C37.3773 47.5381 36.877 48.0385 36.877 48.6552C36.877 49.2719 37.3773 49.7723 37.9941 49.7723H55.6082C56.225 49.7723 56.7253 49.2719 56.7253 48.6552C56.7253 48.0385 56.225 47.5381 55.6082 47.5381Z" fill="#15CF92"/>
</svg>
