<svg width="96" height="22" viewBox="0 0 96 22" fill="none" xmlns="http://www.w3.org/2000/svg">
<path fill-rule="evenodd" clip-rule="evenodd" d="M77.7714 6.62806C78.1354 7.25604 78.2545 7.97053 78.2938 8.77376L78.3455 9.84436V17.3307L78.3983 18.4024C78.5039 20.1527 79.7947 21.4469 81.5584 21.557L82.6245 21.6098V9.84436L82.6773 8.77376C82.7211 7.97951 82.8391 7.25155 83.2087 6.61907C83.5853 5.97035 84.126 5.43212 84.7764 5.05842C85.4268 4.68473 86.1641 4.48873 86.9142 4.4901C87.6643 4.49146 88.4009 4.69015 89.0499 5.06621C89.699 5.44227 90.2377 5.98246 90.6119 6.63255C90.9759 7.26054 91.0894 7.9885 91.1332 8.77376L91.186 9.84099V17.3307L91.2388 18.4024C91.3489 20.1617 92.6295 21.4559 94.3989 21.557L95.465 21.6098V8.77376C95.465 6.504 94.5636 4.32716 92.9589 2.72188C91.3543 1.11661 89.1778 0.214325 86.9081 0.213431C85.6932 0.21215 84.4921 0.470134 83.3849 0.970148C82.2778 1.47016 81.2901 2.20069 80.4878 3.11293C79.6852 2.20105 78.6974 1.4707 77.5904 0.970536C76.4833 0.470374 75.2824 0.21189 74.0676 0.212308C72.2903 0.212308 70.6412 0.751541 69.2751 1.68284C68.4416 0.752664 66.5767 0.212308 65.5061 0.212308V21.6098L66.5767 21.557C68.3674 21.439 69.6616 20.1797 69.7312 18.4024L69.7885 17.3307V9.84436L69.8413 8.77376C69.8863 7.96603 69.9986 7.25604 70.3637 6.62357C70.7406 5.97524 71.2811 5.43714 71.931 5.06299C72.5809 4.68884 73.3176 4.49173 74.0676 4.49135C74.8181 4.49151 75.5554 4.68901 76.2054 5.06404C76.8555 5.43907 77.3956 5.97844 77.7714 6.62806ZM4.5222 21.5581L5.59281 21.6098H21.6406L21.5878 20.5425C21.4429 18.7833 20.197 17.4981 18.4322 17.3835L17.3616 17.3307H7.73401L20.57 4.49023L20.5172 3.42412C20.4341 1.64689 19.1354 0.362844 17.3616 0.265108L16.291 0.216801L0.243164 0.212308L0.295964 1.28291C0.436389 3.02531 1.70022 4.33744 3.45048 4.43855L4.5222 4.49135H14.1498L1.31377 17.3318L1.36657 18.4024C1.47217 20.1662 2.74498 21.4435 4.5222 21.557V21.5581ZM61.3057 3.34435C62.2994 4.3378 63.0876 5.51726 63.6254 6.81537C64.1632 8.11348 64.4399 9.50481 64.4399 10.9099C64.4399 12.315 64.1632 13.7063 63.6254 15.0044C63.0876 16.3026 62.2994 17.482 61.3057 18.4755C59.2982 20.4814 56.5764 21.6081 53.7385 21.6081C50.9006 21.6081 48.1788 20.4814 46.1712 18.4755C41.9933 14.2975 41.9933 7.52229 46.1712 3.34435C47.164 2.35124 48.3426 1.56339 49.6399 1.0258C50.9371 0.488211 52.3275 0.211403 53.7317 0.211184C55.1382 0.210208 56.5311 0.486528 57.8307 1.02434C59.1304 1.56215 60.3112 2.3509 61.3057 3.34548V3.34435ZM58.2781 6.37417C59.4815 7.57848 60.1575 9.21133 60.1575 10.9138C60.1575 12.6164 59.4815 14.2492 58.2781 15.4535C57.0738 16.6569 55.441 17.3329 53.7385 17.3329C52.036 17.3329 50.4031 16.6569 49.1988 15.4535C47.9954 14.2492 47.3194 12.6164 47.3194 10.9138C47.3194 9.21133 47.9954 7.57848 49.1988 6.37417C50.4031 5.17077 52.036 4.49478 53.7385 4.49478C55.441 4.49478 57.0738 5.17077 58.2781 6.37417ZM31.2772 0.211184C32.6815 0.211551 34.0719 0.488536 35.3692 1.02632C36.6664 1.56411 37.845 2.35216 38.8377 3.34548C43.0167 7.52229 43.0167 14.2987 38.8377 18.4755C36.8301 20.4814 34.1083 21.6081 31.2704 21.6081C28.4325 21.6081 25.7107 20.4814 23.7032 18.4755C19.5252 14.2975 19.5252 7.52229 23.7032 3.34435C24.6959 2.35124 25.8746 1.56339 27.1718 1.0258C28.469 0.488211 29.8595 0.211403 31.2637 0.211184H31.2772ZM35.8101 6.37192C37.0138 7.57628 37.69 9.20937 37.69 10.9122C37.69 12.6149 37.0138 14.248 35.8101 15.4524C34.6058 16.6558 32.9729 17.3318 31.2704 17.3318C29.5679 17.3318 27.9351 16.6558 26.7307 15.4524C25.5273 14.2481 24.8514 12.6152 24.8514 10.9127C24.8514 9.21021 25.5273 7.57736 26.7307 6.37305C27.9351 5.16965 29.5679 4.49366 31.2704 4.49366C32.9729 4.49366 34.6058 5.16965 35.8101 6.37305V6.37192Z" fill="#2D8CFF"/>
</svg>
