<svg width="35" height="40" viewBox="0 0 35 40" fill="none" xmlns="http://www.w3.org/2000/svg">
<path d="M0.144836 23.4609C0.16977 23.4847 0.200638 23.4977 0.229402 23.5149C0.391663 23.8461 0.696058 24.1059 1.0537 24.1977C3.95547 23.171 7.11004 23.0237 10.1127 23.6896C10.1746 24.0486 10.1721 24.1387 10.269 24.2657C8.85801 24.9253 8.46161 26.8995 9.80986 27.9533C9.53699 28.1831 9.231 28.9801 9.37535 29.751C9.58319 30.8693 10.4484 31.2261 10.5374 31.3074C11.096 31.9014 11.7152 32.4621 12.2527 32.9153C12.9919 33.5386 13.8077 34.1258 14.7537 34.3188C15.6997 34.5117 16.8035 34.2153 17.3118 33.3914C18.8307 34.0113 20.4384 32.6879 20.1441 31.077C20.4412 31.0305 20.7349 30.9708 21.0265 30.9049C22.3786 33.2899 23.0283 36.0412 22.8651 38.7682C22.858 38.8884 22.9018 39.0015 22.9765 39.0904C22.9725 39.0939 22.9688 39.0978 22.9648 39.1014C23.0561 39.165 22.7302 38.9378 23.7219 39.6298C28.5912 36.023 31.4014 29.8142 30.9096 23.7756C34.3718 18.6532 35.1642 12.1536 34.6406 5.94591C34.5116 4.41695 34.0964 2.02761 33.3897 0.893995C32.6889 -0.904267 29.2472 0.455362 27.4026 1.12697C21.9372 3.01546 16.8987 6.1421 13.5314 10.7579C7.68402 12.041 2.13654 17.0537 0.027073 22.9707C-0.0348116 23.1431 0.011452 23.3354 0.144836 23.4609ZM15.1523 32.7011C14.8152 32.7846 14.4758 32.7335 14.1958 32.5545L10.8149 30.3891C10.5349 30.21 10.3457 29.9234 10.282 29.5822C10.1789 29.027 10.4333 28.6797 10.5194 28.4798C12.1828 29.7171 14.0118 30.8714 16.067 31.9783C16.0121 32.0398 15.7875 32.5406 15.1523 32.7011ZM18.5939 31.0362C18.2436 31.5577 17.6007 31.7536 17.099 31.491C14.5238 30.1457 12.3122 28.7404 10.3379 27.1963C9.43991 26.4946 10.0375 24.9852 11.1622 24.9852C11.3383 24.9852 11.5143 25.0255 11.6789 25.1108C13.9687 26.298 16.2254 27.7466 18.3866 29.4163C18.8648 29.7859 18.9562 30.4972 18.5939 31.0362ZM23.812 37.7624C23.7819 35.2915 23.1292 32.842 21.94 30.6635C24.9132 29.7716 27.5523 27.8955 29.6041 25.4931C29.3415 30.0172 27.1989 34.6264 23.812 37.7624ZM27.7042 1.99937C28.7336 1.62585 32.3405 0.256789 32.5583 1.31202C32.8341 2.64766 33.06 4.53847 33.1783 6.49837C33.6068 13.5892 31.929 18.9805 29.3132 22.8072C27.2666 25.8009 23.4221 28.3344 19.4777 29.305C19.3485 29.0698 19.1736 28.8576 18.9513 28.6857C16.7463 26.9824 14.4421 25.5037 12.1031 24.2913C11.779 24.1238 11.4301 24.0585 11.086 24.0711C11.0963 24.0149 11.0979 23.956 11.0859 23.8965C9.53935 16.2864 14.6775 6.50106 27.7042 1.99937ZM12.7487 11.9118C10.6308 15.2669 9.77512 18.8172 9.9244 21.9808C7.07076 21.2572 4.048 21.374 1.27259 22.3224C3.36854 17.4394 7.88008 13.3508 12.7487 11.9118Z" fill="#010D09"/>
<path d="M26.7095 12.2599C29.617 12.2599 31.346 9.18467 29.9167 6.91917C29.1849 5.75716 27.779 5.03857 26.4073 5.11548C25.1432 5.19239 24.1248 5.91759 23.5395 7.15709C22.5426 9.27063 23.9792 12.2599 26.7095 12.2599Z" fill="#15CF92"/>
<path d="M9.42965 32.5368C9.62011 32.3673 9.63754 32.0759 9.4681 31.8855C9.29867 31.695 9.00727 31.6788 8.81681 31.847C7.82003 32.7326 6.90858 33.721 6.10707 34.7857C5.87719 35.0913 6.0989 35.5247 6.47538 35.5247C6.61537 35.5247 6.75416 35.461 6.84489 35.3408C7.60914 34.3248 8.47854 33.3815 9.42965 32.5368Z" fill="#010D09"/>
<path d="M8.0478 39.3828C8.26204 39.5177 8.54758 39.4549 8.68408 39.238L11.2184 35.2052C11.3542 34.9895 11.2893 34.7041 11.0736 34.5689C10.8573 34.4319 10.5725 34.4986 10.4373 34.7137L7.90301 38.7465C7.76722 38.9628 7.83211 39.2476 8.0478 39.3828Z" fill="#010D09"/>
<path d="M13.3387 35.6125L12.7054 39.4632C12.664 39.715 12.8346 39.9523 13.0857 39.9938C13.3369 40.0347 13.5748 39.8652 13.6163 39.6135L14.2496 35.7628C14.291 35.511 14.1204 35.2737 13.8692 35.2322C13.6109 35.189 13.3802 35.362 13.3387 35.6125Z" fill="#010D09"/>
</svg>
