<svg width="98" height="101" viewBox="0 0 98 101" fill="none" xmlns="http://www.w3.org/2000/svg">
<path d="M43.4473 46.0371H67.6842C68.33 46.0371 68.8541 45.5131 68.8541 44.8672C68.8541 44.2213 68.33 43.6973 67.6842 43.6973H43.4473C42.8014 43.6973 42.2773 44.2213 42.2773 44.8672C42.2773 45.5131 42.8014 46.0371 43.4473 46.0371Z" fill="#0A102F"/>
<path d="M28.2246 48.267H34.4421C35.0537 48.267 35.5625 47.7963 35.6089 47.1855L36.0606 41.2475C36.1113 40.5724 35.5782 39.9893 34.8937 39.9893H28.2246C27.5787 39.9893 27.0547 40.5133 27.0547 41.1592V47.0971C27.0547 47.743 27.5787 48.267 28.2246 48.267ZM29.3945 42.3291H33.6317L33.3575 45.9272H29.3945V42.3291Z" fill="#0A102F"/>
<path d="M35.1494 54.5283C35.1494 55.1742 35.6734 55.6982 36.3193 55.6982H53.8978C54.5437 55.6982 55.0677 55.1742 55.0677 54.5283C55.0677 53.8824 54.5437 53.3584 53.8978 53.3584H36.3193C35.6734 53.3584 35.1494 53.8824 35.1494 54.5283Z" fill="#0A102F"/>
<path d="M48.7599 60.2666H44.4131C43.7672 60.2666 43.2432 60.7906 43.2432 61.4365C43.2432 62.0824 43.7672 62.6064 44.4131 62.6064H48.7599C49.4058 62.6064 49.9298 62.0824 49.9298 61.4365C49.9298 60.7906 49.4058 60.2666 48.7599 60.2666Z" fill="#0A102F"/>
<path d="M91.6022 95.8131C92.5782 94.9177 93.0014 93.7917 92.9838 92.6387C92.1149 38.4665 92.3131 43.8296 92.1771 43.1607C92.2038 42.8452 92.1115 42.5214 91.8794 42.2699C80.3787 29.8148 65.0971 12.7197 52.1259 1.29394C50.2987 -0.316219 47.639 -0.435039 45.6602 1.00146C31.0768 11.6226 17.2933 24.0111 2.08053 37.9317C1.50987 38.2056 0.967296 38.6158 0.614142 38.9745C0.138484 39.4575 0.0309937 39.6088 0.0309937 40.1839C0.0309937 94.4089 -0.151033 91.4236 0.367173 93.3291C0.6567 94.3937 1.41855 95.6122 2.4328 96.0462C2.51773 96.0825 2.60684 96.109 2.6932 96.1426C2.81068 96.2056 2.92674 96.2695 3.0507 96.318C4.20712 97.4612 6.04563 97.8869 7.6999 98.2867C12.3281 99.4053 9.85662 99.045 97.2182 101.009C96.3893 98.4817 94.1247 96.7074 91.6022 95.8131ZM20.9899 28.6702C49.0921 29.2399 52.0646 29.3222 55.9213 29.9873C58.8252 30.4867 60.585 35.9217 63.2249 38.0564C63.7685 38.4966 64.2365 38.2358 64.4028 38.219C64.4461 38.2013 64.4832 38.1766 64.5245 38.1536C64.622 38.1108 64.7215 38.073 64.8076 38.0015C65.4773 37.4465 66.6126 36.662 66.9494 36.4599C69.5897 34.7709 70.488 34.6508 71.9474 34.1201C72.2975 34.0525 72.9595 33.9738 73.2583 34.1795C74.5798 35.0905 75.477 36.4005 76.1686 38.4266C76.9395 40.4575 77.9712 45.0292 77.9676 48.7425C77.9673 48.982 77.9677 49.2328 77.9703 49.497L48.6185 66.2212C47.3206 66.96 45.6822 66.8975 44.4476 66.0582L21.3043 50.3741C21.3574 43.0782 21.235 36.9437 20.9899 28.6702ZM4.02021 94.1633C13.7839 85.3264 25.8472 74.4134 36.9971 64.3066C39.3363 66.012 41.5186 67.536 42.4772 68.1386C44.7519 69.5682 47.52 70.4077 50.1493 69.8555C52.6196 69.3366 54.481 67.8118 57.8239 65.6331C69.6593 77.3945 78.3185 85.214 88.4796 94.5981C0.756124 94.1702 4.45106 94.2783 4.02021 94.1633ZM59.8415 64.3396C68.8674 58.6366 78.4212 53.6566 87.3257 46.8585L89.925 45.3775C90.6351 95.9001 90.7642 92.6006 90.5283 93.3036C79.7177 83.3204 71.6029 76.013 59.8415 64.3396ZM35.0757 62.8895C25.588 71.4908 17.5279 78.7825 3.24426 91.7104L3.63157 41.2249C15.8572 49.6161 25.8865 56.0338 35.0757 62.8895ZM47.0372 2.89343C48.1234 2.10435 49.5797 2.16985 50.5797 3.04881C63.1564 14.1274 78.06 30.7318 89.3719 43.0004L80.3059 48.166C80.2729 44.1716 78.7004 38.2369 78.3835 37.671C77.8465 36.0989 76.8693 33.8276 74.5889 32.2556C74.2376 32.0121 73.8174 31.8766 73.378 31.7956C71.1699 30.4963 67.9745 29.4692 65.5258 29.0091C65.0202 28.9141 60.5114 28.2291 57.1028 27.8999C53.8194 26.7615 39.9066 26.6994 20.3181 26.3146C20.3105 26.3146 20.3029 26.3146 20.2945 26.3146C20.1945 26.3146 20.1047 26.3472 20.012 26.3709C19.9249 26.349 19.84 26.3175 19.7499 26.3146C19.104 26.3344 18.596 26.8736 18.6158 27.5195C18.8657 35.7933 18.9997 41.8511 18.9724 48.7938L4.44141 38.9463C19.2905 25.3661 32.8037 13.2599 47.0372 2.89343Z" fill="#0A102F"/>
<path d="M78.7915 19.4093C78.8928 19.4368 78.9941 19.4489 79.0939 19.4489C79.611 19.4489 80.084 19.1047 80.2234 18.5806L82.3058 10.7827C82.4726 10.1597 82.1017 9.51838 81.4779 9.35081C80.8495 9.1802 80.212 9.55494 80.0452 10.1795L77.9628 17.9774C77.796 18.602 78.1669 19.2433 78.7915 19.4093Z" fill="#0A102F"/>
<path d="M84.3868 23.4644L90.3704 16.71C90.7985 16.2271 90.7543 15.4868 90.2706 15.0587C89.7847 14.6307 89.0474 14.6748 88.6186 15.1592L82.635 21.9137C82.2069 22.3966 82.2511 23.1369 82.7347 23.565C83.2209 23.993 83.9589 23.9487 84.3868 23.4644Z" fill="#0A102F"/>
<path d="M95.9798 22.7193L87.667 27.1521C87.0973 27.4568 86.8818 28.1652 87.1857 28.7349C87.4896 29.3075 88.1991 29.5197 88.7684 29.2178L97.0812 24.7849C97.6509 24.4802 97.8665 23.7719 97.5626 23.2022C97.2587 22.6294 96.548 22.4161 95.9798 22.7193Z" fill="#0A102F"/>
</svg>
