<svg width="60" height="60" viewBox="0 0 60 60" fill="none" xmlns="http://www.w3.org/2000/svg">
<path d="M42.8555 13.3353H45.7336L44.3012 9.54004L42.8555 13.3353Z" fill="#A259FF"/>
<path d="M56.6675 0H31.9056C31.0219 0.00106863 30.1746 0.352601 29.5498 0.977491C28.9249 1.60238 28.5733 2.44961 28.5723 3.33333V20.4762C28.5733 21.3599 28.9249 22.2071 29.5498 22.832C30.1746 23.4569 31.0219 23.8085 31.9056 23.8095H34.2866V30C34.2874 30.2688 34.3639 30.5319 34.5074 30.7592C34.6508 30.9865 34.8554 31.1688 35.0977 31.2852C35.34 31.4016 35.6102 31.4474 35.8773 31.4173C36.1444 31.3872 36.3976 31.2825 36.608 31.1151L45.7402 23.8095H56.6675C57.5512 23.8085 58.3985 23.4569 59.0233 22.832C59.6482 22.2071 59.9998 21.3599 60.0008 20.4762V3.33333C59.9998 2.44961 59.6482 1.60238 59.0233 0.977491C58.3985 0.352601 57.5512 0.00106863 56.6675 0ZM49.3814 18.9555C49.0269 19.0887 48.6341 19.0759 48.289 18.9199C47.944 18.7638 47.6749 18.4773 47.5408 18.1232L46.8121 16.1924H41.7676L41.0304 18.1278C40.9636 18.3031 40.8629 18.4635 40.7341 18.5999C40.6053 18.7362 40.4509 18.8459 40.2798 18.9226C40.1086 18.9993 39.924 19.0415 39.7365 19.0468C39.549 19.0522 39.3623 19.0205 39.187 18.9537C39.0118 18.8869 38.8514 18.7862 38.715 18.6575C38.5787 18.5287 38.469 18.3743 38.3923 18.2031C38.3156 18.0319 38.2734 17.8473 38.2681 17.6598C38.2627 17.4723 38.2943 17.2856 38.3611 17.1104L42.7278 5.64551C42.8495 5.32992 43.063 5.05804 43.3408 4.86496C43.6185 4.67187 43.9477 4.56642 44.2859 4.56222C44.6242 4.55801 44.9559 4.65525 45.2383 4.84138C45.5208 5.02751 45.741 5.29399 45.8705 5.60646L50.2139 17.115C50.2801 17.2905 50.3112 17.4774 50.3052 17.6649C50.2992 17.8524 50.2564 18.0369 50.1791 18.2078C50.1018 18.3787 49.9915 18.5328 49.8547 18.6611C49.7178 18.7894 49.557 18.8894 49.3814 18.9555Z" fill="#A259FF"/>
<path d="M57.1429 30.0001C57.1429 28.9931 57.0877 27.9868 56.9773 26.9858C56.9347 26.6099 56.7448 26.2662 56.4492 26.0301C56.1536 25.794 55.7764 25.6848 55.4003 25.7264C55.0243 25.768 54.6801 25.9571 54.4433 26.2521C54.2064 26.5471 54.0963 26.924 54.1369 27.3002C54.2361 28.1967 54.2857 29.0981 54.2857 30.0001C54.2862 32.0896 54.0165 34.1703 53.4833 36.1906H42.6206C42.7266 34.7964 42.8015 33.3785 42.8349 31.9383C42.8437 31.5595 42.7017 31.1926 42.4401 30.9184C42.1785 30.6442 41.8186 30.4852 41.4398 30.4763C41.2522 30.4719 41.0655 30.5045 40.8905 30.5722C40.7155 30.64 40.5556 30.7415 40.4198 30.871C40.1456 31.1327 39.9866 31.4925 39.9777 31.8714C39.9438 33.3378 39.8667 34.7785 39.7561 36.1906H25.7143V30.9525C25.7141 30.6912 25.6422 30.4351 25.5066 30.2118C25.3709 29.9885 25.1767 29.8067 24.945 29.6861C24.7132 29.5655 24.4529 29.5107 24.1922 29.5277C23.9315 29.5447 23.6805 29.6328 23.4663 29.7825L20.0317 32.1867C19.9521 29.3925 20.0243 26.596 20.248 23.8096H25.2381C25.617 23.8096 25.9803 23.6591 26.2483 23.3912C26.5162 23.1233 26.6667 22.7599 26.6667 22.3811C26.6667 22.0022 26.5162 21.6388 26.2483 21.3709C25.9803 21.103 25.617 20.9525 25.2381 20.9525H20.529C21.0096 15.9254 22.3031 11.0096 24.359 6.39705C24.7392 6.30666 25.1136 6.20276 25.5013 6.13012C25.8738 6.06031 26.2033 5.8454 26.4173 5.53266C26.6313 5.21993 26.7123 4.83498 26.6425 4.46251C26.5727 4.09005 26.3578 3.76057 26.045 3.54655C25.7323 3.33254 25.3474 3.25153 24.9749 3.32133C21.3737 4.00113 17.9473 5.40286 14.9022 7.44208C11.8571 9.48131 9.25629 12.1158 7.25645 15.1869C5.2566 18.258 3.89911 21.7022 3.26574 25.3119C2.63237 28.9215 2.73624 32.6221 3.57108 36.1906H3.33333C2.44961 36.1916 1.60238 36.5432 0.977491 37.1681C0.352601 37.793 0.00106863 38.6402 0 39.5239V56.6668C0.00106863 57.5505 0.352601 58.3977 0.977491 59.0226C1.60238 59.6475 2.44961 59.999 3.33333 60.0001H28.0952C28.9006 59.9976 29.6777 59.7032 30.2825 59.1713C30.8873 58.6394 31.2786 57.9063 31.384 57.1078C38.3312 56.7448 44.8748 53.7315 49.6668 48.6885C54.4589 43.6455 57.1346 36.9568 57.1429 30.0001ZM31.4286 54.2404V39.5239C31.4241 39.3642 31.408 39.2051 31.3804 39.0477H39.476C39.0007 44.0821 37.7029 49.0045 35.6345 53.6188C34.2535 53.9492 32.8461 54.1571 31.4286 54.2404ZM20.7317 7.56295C19.1372 11.8768 18.0985 16.3762 17.6407 20.9525H7.48088C8.68622 17.9505 10.4793 15.2196 12.7548 12.9203C15.0303 10.6209 17.7424 8.79949 20.7317 7.56295ZM5.71429 30.0001C5.71545 27.9105 5.98634 25.8298 6.52024 23.8096H17.3758C17.1147 27.2442 17.0736 30.692 17.2529 34.1318L14.3118 36.1906H6.52756C5.99168 34.1706 5.71834 32.09 5.71429 30.0001ZM28.5714 56.6668C28.5712 56.793 28.5209 56.914 28.4317 57.0032C28.3424 57.0925 28.2215 57.1427 28.0952 57.143H3.33333C3.20712 57.1427 3.08614 57.0925 2.99689 57.0032C2.90765 56.914 2.8574 56.793 2.85714 56.6668V39.5239C2.8574 39.3977 2.90765 39.2767 2.99689 39.1875C3.08614 39.0982 3.20712 39.048 3.33333 39.0477H14.7619C15.0551 39.0477 15.3412 38.9575 15.5813 38.7892L22.8571 33.6962V37.6191C22.8572 37.998 23.0078 38.3613 23.2757 38.6292C23.5436 38.8971 23.9069 39.0476 24.2857 39.0477H28.0952C28.2215 39.048 28.3424 39.0982 28.4317 39.1875C28.5209 39.2767 28.5712 39.3977 28.5714 39.5239V56.6668ZM39.2625 52.4459C40.8508 48.1273 41.8887 43.6258 42.3517 39.0477H52.5308C51.3177 42.049 49.52 44.7792 47.2422 47.0793C44.9643 49.3795 42.2519 51.2037 39.2625 52.4459Z" fill="#0A102F"/>
<path d="M23.3336 42.8569H18.0955V42.3807C18.0955 42.0018 17.945 41.6385 17.677 41.3706C17.4091 41.1027 17.0458 40.9521 16.6669 40.9521C16.288 40.9521 15.9247 41.1027 15.6567 41.3706C15.3888 41.6385 15.2383 42.0018 15.2383 42.3807V42.8569H10.0002C9.62135 42.8569 9.25798 43.0074 8.99008 43.2753C8.72217 43.5432 8.57166 43.9066 8.57166 44.2855C8.57166 44.6644 8.72217 45.0277 8.99008 45.2956C9.25798 45.5635 9.62135 45.7141 10.0002 45.7141H19.3866C18.582 47.4762 17.3156 48.9878 15.7216 50.0886C14.9127 49.5334 14.1807 48.8737 13.5447 48.1266C13.3005 47.837 12.9512 47.6563 12.5738 47.6242C12.1963 47.5921 11.8216 47.7113 11.532 47.9555C11.2424 48.1997 11.0617 48.5489 11.0296 48.9264C10.9975 49.3038 11.1167 49.6786 11.3609 49.9682C11.8469 50.5426 12.3795 51.0759 12.9532 51.5627C11.9552 51.9607 10.9133 52.2382 9.84953 52.3891C9.66297 52.4087 9.48209 52.4649 9.31723 52.5544C9.15237 52.6439 9.00675 52.765 8.88869 52.9107C8.65026 53.2052 8.53855 53.5822 8.57814 53.959C8.61773 54.3358 8.80537 54.6814 9.09979 54.9199C9.39421 55.1583 9.77129 55.27 10.1481 55.2304C12.1014 54.9618 13.9925 54.3528 15.7356 53.4312C17.4661 54.3472 19.3423 54.956 21.2809 55.2305C21.4678 55.2503 21.6567 55.2331 21.8369 55.1798C22.0171 55.1266 22.185 55.0383 22.331 54.9201C22.477 54.8018 22.5983 54.6559 22.6878 54.4908C22.7774 54.3256 22.8335 54.1444 22.853 53.9575C22.8724 53.7706 22.8548 53.5817 22.8012 53.4017C22.7475 53.2216 22.6589 53.0539 22.5403 52.9081C22.4218 52.7624 22.2756 52.6414 22.1103 52.5522C21.9449 52.463 21.7636 52.4072 21.5767 52.3882C20.5233 52.2351 19.4918 51.958 18.5035 51.5628C20.331 50.0065 21.7046 47.9859 22.4793 45.7141H23.3336C23.7124 45.7141 24.0758 45.5635 24.3437 45.2956C24.6116 45.0277 24.7621 44.6644 24.7621 44.2855C24.7621 43.9066 24.6116 43.5432 24.3437 43.2753C24.0758 43.0074 23.7124 42.8569 23.3336 42.8569Z" fill="#0A102F"/>
</svg>
