<svg width="78" height="70" viewBox="0 0 78 70" fill="none" xmlns="http://www.w3.org/2000/svg">
<path d="M64.8881 6.81821C65.3851 6.81704 65.7859 6.41267 65.7848 5.91454C65.7789 4.3041 66.0719 2.72531 66.6533 1.22505C66.8326 0.760903 66.6029 0.239328 66.1399 0.0599994C65.6711 -0.116985 65.1542 0.110399 64.9749 0.57337C64.3115 2.28461 63.9786 4.08375 63.9845 5.92157C63.9856 6.41736 64.3888 6.81821 64.8846 6.81821H64.8881Z" fill="#15CF92"/>
<path d="M73.5342 1.07703C72.0457 2.94533 70.3637 4.66711 68.5341 6.19316C67.8927 6.72833 68.2689 7.78484 69.1108 7.78484C69.3147 7.78484 69.5187 7.71686 69.6875 7.57621C71.6108 5.97164 73.3783 4.16195 74.9431 2.19754C75.2525 1.80958 75.188 1.24229 74.7989 0.932866C74.4133 0.626953 73.846 0.686729 73.5342 1.07703Z" fill="#15CF92"/>
<path d="M76.8367 10.508C74.8781 10.447 72.8962 10.5045 70.9434 10.6767C70.4489 10.7201 70.0832 11.1573 70.1265 11.6531C70.1697 12.1449 70.6029 12.5135 71.1029 12.47C72.9817 12.3036 74.8934 12.2497 76.7804 12.3083C78.0168 12.2863 77.9881 10.546 76.8367 10.508Z" fill="#15CF92"/>
<path d="M27.9834 8.51683C18.9294 8.51683 12.6554 8.17857 5.58844 8.48753C4.98423 8.51361 4.43394 8.74187 3.9832 9.10024C2.64139 9.71968 1.46667 10.9061 1.01257 12.1643C0.354409 13.9883 0.506627 14.9149 0.672222 27.0128C0.695664 28.7244 0.733244 30.4992 1.46924 32.0402C2.06531 33.2882 3.26083 34.3216 4.57481 34.5036C4.92731 34.6853 5.31673 34.7981 5.73143 34.8113C13.402 35.0527 20.3797 35.2457 28.2295 34.4936C29.7532 34.3471 30.8925 32.9559 30.821 31.3279C30.5455 24.8638 30.6276 18.9999 30.8514 11.6346C30.9004 9.95106 29.6222 8.51683 27.9834 8.51683ZM29.023 31.4052C29.0511 32.0663 28.6175 32.6476 28.0572 32.7015C20.08 33.4646 12.8131 33.2325 5.78769 33.011C5.20868 32.9934 4.74454 32.4366 4.75392 31.7709C4.8432 25.3143 4.54784 17.9143 4.6414 11.4728C4.65077 10.8422 5.11023 10.3101 5.66579 10.2855C13.1874 9.96112 20.3782 10.3687 27.9775 10.3171H27.9834C28.5613 10.3171 29.0742 10.8689 29.0511 11.5806C28.8273 18.9859 28.744 24.8861 29.023 31.4052Z" fill="#15CF92"/>
<path d="M64.7859 8.51625C55.3397 8.51625 49.2749 8.18592 42.391 8.48695C41.7427 8.51508 41.1589 8.77762 40.692 9.18257C39.4318 9.82429 38.3493 10.9662 37.9171 12.1638C37.3999 13.5972 37.4144 15.1631 37.4354 16.6889C37.6006 28.7593 37.4333 30.0705 38.3738 32.0396C38.9501 33.2463 40.0864 34.2548 41.3486 34.4854C41.7085 34.6765 42.1069 34.7972 42.5328 34.8107C50.2034 35.0521 57.1811 35.2451 65.0309 34.493C66.5534 34.3465 67.6927 32.9565 67.6235 31.3273C67.3469 24.8503 67.4301 18.99 67.6528 11.6352C67.7039 9.95871 66.432 8.51625 64.7859 8.51625ZM65.8256 31.4046C65.8537 32.0657 65.4189 32.647 64.8586 32.7009C56.8814 33.464 49.6157 33.2319 42.5891 33.0104C42.0101 32.9928 41.5459 32.4361 41.5553 31.7703C41.6439 25.358 41.3503 17.8295 41.4428 11.4722C41.4522 10.8417 41.9116 10.3095 42.4684 10.2849C50.0884 9.95629 57.5991 10.3796 64.7801 10.3166C65.494 10.3738 65.8727 10.9599 65.8525 11.5801C65.6287 18.9759 65.5466 24.8714 65.8256 31.4046Z" fill="#15CF92"/>
<path d="M27.6881 43.4915C18.4681 43.4915 12.2009 43.1639 5.29085 43.461C4.83828 43.4806 4.41992 43.6201 4.04588 43.834C2.46533 44.3377 1.00382 45.697 0.483712 47.1384C-0.176026 48.967 -0.0220878 49.9124 0.143443 61.9869C0.166884 63.6984 0.204391 65.4732 0.940384 67.0142C1.58188 68.3574 2.91526 69.468 4.34615 69.5175C4.67983 69.6775 5.04713 69.7724 5.43384 69.7847C13.0868 70.0256 20.0674 70.2196 27.9307 69.4683C29.4556 69.3229 30.5949 67.9317 30.5234 66.3025C30.2479 59.8373 30.33 53.9745 30.5539 46.6092C30.6025 44.9355 29.3356 43.4915 27.6881 43.4915ZM28.7254 66.3798C28.7535 67.0409 28.321 67.6222 27.7596 67.675C19.7824 68.438 12.5167 68.2059 5.4901 67.9844C4.9111 67.9668 4.44695 67.4101 4.45633 66.7432C4.54322 60.304 4.25099 52.8498 4.34381 46.4451C4.35202 45.8157 4.81147 45.2836 5.36821 45.2589C9.97015 45.0624 14.4193 45.1368 18.9866 45.2144C26.003 45.3336 27.8071 45.2918 27.6869 45.2918C28.2685 45.2918 28.7765 45.8459 28.7535 46.5553C28.5297 53.9605 28.4465 59.8595 28.7254 66.3798Z" fill="#15CF92"/>
<path d="M67.3284 66.3024C67.0518 59.8396 67.1338 53.9757 67.3577 46.6091C67.4057 44.9543 66.1932 43.5281 64.472 43.4914C57.1809 43.5529 49.7887 43.13 42.0958 43.4609C41.6469 43.4803 41.2314 43.618 40.8594 43.829C39.271 44.3274 37.7991 45.6908 37.2768 47.1383C36.6169 48.9669 36.7709 49.9124 36.9364 61.9868C36.9599 63.6984 36.9974 65.4732 37.7334 67.0142C38.3774 68.3626 39.7186 69.4782 41.1558 69.5198C41.488 69.678 41.8531 69.7724 42.2377 69.7847C49.8906 70.0256 56.8712 70.2196 64.7346 69.4682C66.2583 69.3229 67.3975 67.9328 67.3284 66.3024ZM42.2939 67.9844C41.7149 67.9668 41.2508 67.41 41.2601 66.7443C41.3494 60.2884 41.0541 52.8868 41.1476 46.4462C41.157 45.8156 41.6165 45.2835 42.1732 45.2589C46.7643 45.0628 51.193 45.1362 55.7916 45.2144C62.808 45.3336 64.6109 45.2917 64.4908 45.2917C65.0723 45.2917 65.5803 45.8459 65.5574 46.5552C65.3335 53.9616 65.2503 59.8618 65.5304 66.3798C65.5585 67.0408 65.1249 67.6222 64.5634 67.6749C56.5863 68.438 49.3194 68.2059 42.2939 67.9844Z" fill="#15CF92"/>
</svg>
