<svg width="60" height="61" viewBox="0 0 60 61" fill="none" xmlns="http://www.w3.org/2000/svg">
<path d="M30.5461 54.2198C25.5228 54.2198 20.8348 52.7057 16.9185 50.1289L7.39625 53.1712L10.4829 43.9699C7.51294 39.8929 5.7662 34.87 5.7662 29.4539C5.7662 15.7972 16.875 4.6884 30.5317 4.6884C44.1885 4.6884 55.2972 15.7972 55.2972 29.4539C55.2972 43.1103 44.1885 54.2194 30.5317 54.2194H30.5461V54.2198ZM30.5461 0C14.2826 0 1.09218 13.1916 1.09218 29.4543C1.09218 35.0159 2.63553 40.2282 5.3142 44.6688L0 60.466L16.3071 55.2393C20.6657 57.6494 25.5655 58.9119 30.5461 58.9082C46.8092 58.9082 60 45.7174 60 29.4543C59.9996 13.1916 46.8092 0 30.5461 0Z" fill="#FEFEFE"/>
<path d="M30.5468 4.68848C16.89 4.68848 5.78125 15.7972 5.78125 29.454C5.78125 34.8701 7.52841 39.893 10.4984 43.9699L7.41171 53.1713L16.9336 50.129C20.8499 52.7205 25.5235 54.2199 30.5611 54.2199C44.2179 54.2199 55.3267 43.1107 55.3267 29.4544C55.3267 15.7976 44.2179 4.68889 30.5611 4.68889H30.5468V4.68848Z" fill="url(#paint0_linear_1_13208)"/>
<path d="M23.6301 17.2676C23.1498 16.1175 22.7857 16.074 22.058 16.0444C21.7817 16.0266 21.5049 16.017 21.228 16.0156C20.2813 16.0156 19.2914 16.2922 18.6943 16.9036C17.9666 17.6461 16.1611 19.3785 16.1611 22.9311C16.1611 26.4838 18.7527 29.9197 19.102 30.4005C19.466 30.8804 24.1544 38.2767 31.434 41.2911C37.1266 43.6496 38.8158 43.431 40.1114 43.1545C42.004 42.7469 44.3774 41.3486 44.9744 39.6602C45.5715 37.971 45.5715 36.5295 45.3964 36.2238C45.2218 35.9181 44.7411 35.7439 44.0133 35.3794C43.2856 35.0154 39.7474 33.2682 39.0776 33.0352C38.4222 32.7878 37.7964 32.8754 37.3017 33.5743C36.6027 34.5498 35.9186 35.5401 35.3651 36.1367C34.9283 36.6027 34.2146 36.661 33.6179 36.4132C32.8171 36.0788 30.5752 35.2919 27.8086 32.8314C25.6682 30.9244 24.2124 28.5514 23.7904 27.8381C23.368 27.1104 23.7468 26.6876 24.0813 26.2948C24.4453 25.8432 24.7946 25.5231 25.1587 25.1007C25.5227 24.6787 25.7265 24.4601 25.9595 23.9649C26.2073 23.4846 26.0322 22.9895 25.8576 22.6254C25.683 22.2613 24.2272 18.7087 23.6301 17.2676Z" fill="#FEFEFE"/>
<defs>
<linearGradient id="paint0_linear_1_13208" x1="-180.376" y1="-78.286" x2="-180.376" y2="-76.4687" gradientUnits="userSpaceOnUse">
<stop stop-color="#6EBF61"/>
<stop offset="0.231" stop-color="#50A557"/>
<stop offset="0.522" stop-color="#2A904F"/>
<stop offset="0.812" stop-color="#50A557"/>
<stop offset="1" stop-color="#6EBF63"/>
</linearGradient>
</defs>
</svg>
