<svg width="98" height="96" viewBox="0 0 98 96" fill="none" xmlns="http://www.w3.org/2000/svg">
<path d="M40.4723 71.5173C40.4495 78.4595 40.4322 85.4725 40.4322 92.6972C40.4322 92.7334 40.4494 92.7636 40.4527 92.7987C40.4301 93.2917 40.7148 93.761 41.2062 93.9261C52.9217 97.8535 79.6026 95.1027 91.9261 93.8744C93.1915 93.5301 97.2503 94.831 97.3166 87.8052C97.5159 66.6493 97.5007 45.8088 97.7 24.6532C97.1122 23.8431 95.015 21.3187 93.8825 21.4351C79.9664 22.9059 70.0344 22.8974 57.5436 22.5337C57.4658 16.3444 57.4036 9.28115 57.3258 3.0945C57.3214 2.74887 57.1724 2.42724 56.8989 2.21528C55.2942 0.973389 54.3691 -0.109812 53.4525 0.00892774C34.4516 1.96221 22.772 1.23876 2.03834 0.604179C1.10697 0.602316 0.178724 0.898759 0.178724 1.83752C0.178724 24.9065 0 46.2608 0 69.3272C0 69.363 0.0170785 69.3929 0.0203095 69.428C0.00203089 69.9206 0.290149 70.3877 0.782101 70.5487C10.4471 73.7143 26.5309 72.6699 40.4723 71.5173ZM2.26941 68.6056C2.27251 49.5071 2.39324 32.1014 2.43419 12.7426C2.91986 13.0077 52.2856 12.8891 52.582 12.8261C52.5619 15.9988 52.5319 19.187 52.4955 22.376C49.8543 22.2892 45.9452 22.1552 42.472 22.0466C41.5288 22.0614 40.6109 22.344 40.6109 23.2829C40.6109 38.6259 40.5388 52.321 40.4798 69.2408C27.9242 70.2826 11.4323 71.3325 2.26941 68.6056ZM42.7016 91.9919C42.7047 72.295 42.8251 54.5006 42.8665 34.4716C43.1591 34.6314 92.4484 34.8008 93.0106 34.3815C92.8896 54.158 92.565 72.9526 92.5527 91.5325C80.6387 92.7408 54.1395 95.4748 42.7016 91.9919ZM93.0501 23.7984C93.0479 26.6997 93.0384 29.6372 93.0223 32.6024C92.4574 32.169 43.1471 32.3522 42.8711 32.5008C42.8757 29.8041 42.8782 27.0782 42.8788 24.3305C62.727 24.9459 74.4176 25.6942 93.0501 23.7984ZM52.6173 2.36889C52.6155 5.10662 52.6062 7.87241 52.5918 10.6522C52.34 10.5961 2.89047 10.5286 2.43899 10.7719C2.44361 8.16929 2.44591 5.53866 2.44656 2.88771C22.2463 3.4877 33.973 4.21272 52.6173 2.36889Z" fill="#0A102F"/>
<path d="M25.6768 19.5298C25.172 18.7186 24.0858 18.8903 23.7108 19.6022L15.4784 35.2339C15.1867 35.7892 15.3994 36.4746 15.9533 36.767C16.506 37.0567 17.1929 36.8473 17.4858 36.2914L20.0154 31.488C20.0269 31.4873 20.0384 31.4877 20.0499 31.4866C28.8482 30.6874 28.5283 30.886 29.0013 30.5981C29.7667 32.248 30.4877 33.8631 31.1345 35.3727C31.3812 35.9487 32.0481 36.2161 32.6241 35.9694C33.2002 35.7228 33.4668 35.0551 33.2201 34.4806C31.2859 29.9637 28.8768 24.6567 25.6768 19.5298ZM21.2694 29.107L24.7832 22.4352C25.9794 24.475 27.0442 26.5266 28.0227 28.5339L21.2694 29.107Z" fill="#0A102F"/>
<path d="M63.0745 67.7401C66.8762 68.081 70.105 67.367 72.2162 64.224C73.954 61.6377 73.6948 58.0499 71.5996 55.6925C71.0783 55.1076 70.458 54.6091 69.7725 54.2044C70.6751 53.6405 71.4388 52.9515 71.9777 52.1609C73.7708 49.4933 73.6084 46.0296 71.5796 43.7372C69.5873 41.5046 65.7984 40.4367 62.7767 41.176C62.6062 41.0733 62.4178 40.9987 62.2047 40.9987C62.2011 40.9987 62.1974 40.9987 62.1944 40.9987C61.5674 41.0047 61.0645 41.5172 61.0704 42.1435L61.303 66.8369C61.311 67.6807 62.2527 68.3144 63.0745 67.7401ZM70.333 62.9596C69.3645 64.4034 67.778 65.8 63.5593 65.4965L63.4651 55.499C65.7263 54.8329 68.4304 55.5455 69.9039 57.2006C71.3226 58.7958 71.5028 61.2182 70.333 62.9596ZM69.884 45.2438C71.2251 46.7607 71.3123 49.0842 70.0989 50.8891C68.1297 53.777 65.5625 52.7375 63.4433 53.1863L63.3508 43.3668C65.5499 42.8403 68.4676 43.656 69.884 45.2438Z" fill="#0A102F"/>
<path d="M28.5333 46.7827H7.30137C6.6751 46.7827 6.16699 47.2908 6.16699 47.9171C6.16699 48.5434 6.6751 49.0515 7.30137 49.0515H28.5333C29.1596 49.0515 29.6677 48.5434 29.6677 47.9171C29.6677 47.2908 29.1596 46.7827 28.5333 46.7827Z" fill="#0A102F"/>
<path d="M22.9346 55.9453H8.35313C7.72686 55.9453 7.21875 56.4534 7.21875 57.0797C7.21875 57.706 7.72686 58.2141 8.35313 58.2141H22.9346C23.5609 58.2141 24.069 57.706 24.069 57.0797C24.069 56.4534 23.5609 55.9453 22.9346 55.9453Z" fill="#0A102F"/>
<path d="M73.091 74.5708H52.0621C51.4358 74.5708 50.9277 75.0789 50.9277 75.7052C50.9277 76.3315 51.4358 76.8396 52.0621 76.8396H73.091C73.7172 76.8396 74.2253 76.3315 74.2253 75.7052C74.2253 75.0789 73.7172 74.5708 73.091 74.5708Z" fill="#0A102F"/>
<path d="M65.4308 83.1318H51.4615C50.8353 83.1318 50.3271 83.6399 50.3271 84.2662C50.3271 84.8925 50.8353 85.4006 51.4615 85.4006H65.4308C66.0571 85.4006 66.5652 84.8925 66.5652 84.2662C66.5652 83.6399 66.0571 83.1318 65.4308 83.1318Z" fill="#0A102F"/>
<path d="M6.93732 8.49739C8.59798 7.92825 8.42447 5.67677 6.71576 5.32467C6.25876 4.8494 5.49659 4.86056 5.05481 5.35126C3.7482 6.79949 5.03304 9.15068 6.93732 8.49739Z" fill="#0A102F"/>
<path d="M15.5278 7.95999C15.7405 7.3928 15.6238 6.73403 15.2228 6.24069C14.3329 5.14188 12.6935 5.44336 12.2295 6.75619C12.0168 7.35587 12.1276 8.01612 12.519 8.47991C13.3539 9.46885 15.0634 9.19092 15.5278 7.95999Z" fill="#0A102F"/>
<path d="M20.0563 8.80351C21.4245 9.68005 23.2529 8.16246 22.6345 6.64848C22.4842 6.2795 22.2037 6.08061 21.8487 5.96904C21.1376 5.09863 19.6703 5.66652 19.3525 6.88333C19.1545 7.63959 19.4374 8.41209 20.0563 8.80351Z" fill="#0A102F"/>
<path d="M48.1589 27.6194C47.1911 27.3716 46.3091 28.4125 46.574 29.5189C46.9655 31.1609 49.1218 31.2133 49.6168 29.6194C49.9519 28.5385 49.1431 27.4347 48.1589 27.6194Z" fill="#0A102F"/>
<path d="M54.9423 30.7598C55.5375 30.919 56.2002 30.7273 56.6557 30.2251C57.5689 29.2199 57.1123 27.568 55.6764 27.7008C55.2651 27.3921 54.6794 27.3936 54.268 27.7407C53.2254 28.6144 53.6238 30.4114 54.9423 30.7598Z" fill="#0A102F"/>
<path d="M63.6744 30.2619C64.0968 29.5292 63.9144 28.5765 63.2815 28.0404C62.9799 27.3527 62.1231 27.1499 61.5474 27.5943C60.9492 28.0566 60.738 28.8764 61.0201 29.6326C61.4525 30.7888 63.0687 31.3183 63.6744 30.2619Z" fill="#0A102F"/>
</svg>
