<svg width="73" height="70" viewBox="0 0 73 70" fill="none" xmlns="http://www.w3.org/2000/svg">
<path d="M33.7036 15.5557C29.6015 15.5557 25.5915 16.7721 22.1807 19.0511C18.7699 21.3301 16.1115 24.5694 14.5417 28.3593C12.9719 32.1491 12.5611 36.3194 13.3614 40.3427C14.1617 44.366 16.1371 48.0617 19.0377 50.9623C21.9384 53.863 25.634 55.8383 29.6573 56.6386C33.6806 57.4389 37.8509 57.0282 41.6408 55.4584C45.4307 53.8885 48.6699 51.2301 50.9489 47.8193C53.228 44.4085 54.4444 40.3985 54.4444 36.2964C54.4368 30.7979 52.2492 25.5268 48.3612 21.6388C44.4732 17.7508 39.2021 15.5632 33.7036 15.5557ZM33.7036 46.6668C31.6526 46.6668 29.6476 46.0586 27.9422 44.9191C26.2368 43.7795 24.9076 42.1599 24.1227 40.265C23.3378 38.37 23.1324 36.2849 23.5325 34.2732C23.9327 32.2616 24.9204 30.4138 26.3707 28.9634C27.821 27.5131 29.6688 26.5254 31.6805 26.1253C33.6921 25.7252 35.7773 25.9305 37.6722 26.7154C39.5671 27.5003 41.1868 28.8295 42.3263 30.5349C43.4658 32.2403 44.074 34.2453 44.074 36.2964C44.074 39.0468 42.9814 41.6845 41.0366 43.6294C39.0918 45.5742 36.454 46.6668 33.7036 46.6668Z" fill="#FF9966"/>
<path d="M33.7037 70.0002C27.0378 70.0002 20.5215 68.0235 14.9789 64.3201C9.4364 60.6167 5.11651 55.3529 2.56556 49.1943C0.0146033 43.0358 -0.652843 36.2591 0.647622 29.7212C1.94809 23.1833 5.15805 17.1779 9.8716 12.4644C14.5851 7.75083 20.5906 4.54086 27.1285 3.2404C33.6663 1.93993 40.443 2.60738 46.6016 5.15833C52.7601 7.70928 58.0239 12.0292 61.7273 17.5717C65.4307 23.1143 67.4074 29.6305 67.4074 36.2965C67.3971 45.2321 63.8429 53.7988 57.5245 60.1172C51.206 66.4357 42.6393 69.9899 33.7037 70.0002ZM33.7037 7.77797C28.0633 7.77797 22.5495 9.45056 17.8597 12.5842C13.1698 15.7179 9.51454 20.1719 7.35604 25.3829C5.19754 30.594 4.63278 36.3281 5.73318 41.8602C6.83357 47.3922 9.5497 52.4737 13.5381 56.4621C17.5265 60.4505 22.608 63.1666 28.14 64.267C33.6721 65.3674 39.4062 64.8027 44.6173 62.6442C49.8284 60.4857 54.2823 56.8304 57.416 52.1405C60.5497 47.4507 62.2222 41.9369 62.2222 36.2965C62.2133 28.7356 59.2058 21.487 53.8595 16.1407C48.5132 10.7944 41.2646 7.78689 33.7037 7.77797Z" fill="#1B1C1D"/>
<path d="M69.9992 7.77778H64.814V2.59259C64.814 1.90499 64.5409 1.24556 64.0547 0.759353C63.5684 0.273147 62.909 0 62.2214 0C61.5338 0 60.8744 0.273147 60.3882 0.759353C59.902 1.24556 59.6288 1.90499 59.6288 2.59259V9.22444L35.2585 31.3704C34.2184 31.0458 33.1024 31.0581 32.0697 31.4056C31.0371 31.7531 30.1407 32.4179 29.5084 33.3052C28.8761 34.1925 28.5403 35.2569 28.549 36.3464C28.5577 37.4359 28.9103 38.4948 29.5566 39.3719C30.2029 40.249 31.1098 40.8995 32.1479 41.2306C33.1859 41.5616 34.3019 41.5562 35.3367 41.2151C36.3715 40.8741 37.272 40.2148 37.9098 39.3314C38.5476 38.4481 38.89 37.3858 38.8881 36.2963C38.886 35.9266 38.8451 35.5582 38.7662 35.197L63.2247 12.963H69.9992C70.6868 12.963 71.3462 12.6898 71.8324 12.2036C72.3186 11.7174 72.5918 11.058 72.5918 10.3704C72.5918 9.68277 72.3186 9.02334 71.8324 8.53713C71.3462 8.05093 70.6868 7.77778 69.9992 7.77778Z" fill="#1B1C1D"/>
</svg>
