<svg width="189" height="57" viewBox="0 0 189 57" fill="none" xmlns="http://www.w3.org/2000/svg">
<rect x="0.728516" width="187.761" height="56.7" rx="3.41075" fill="black"/>
<path d="M73.9573 41.3646H72.3094L72.1217 39.2809C71.7601 39.9338 71.1691 40.4964 70.3486 40.9687C69.5282 41.441 68.5408 41.6772 67.3866 41.6772C66.1211 41.6772 64.953 41.3924 63.8822 40.8228C62.8114 40.2394 61.9284 39.3503 61.2331 38.1556C60.5516 36.961 60.2109 35.5648 60.2109 33.9673C60.2109 32.3698 60.5725 30.9737 61.2956 29.779C62.0188 28.5843 62.9227 27.7022 64.0074 27.1327C65.106 26.5631 66.281 26.2783 67.5326 26.2783C69.1179 26.2783 70.4947 26.6881 71.6628 27.5077C72.8448 28.3134 73.6514 29.39 74.0825 30.7375L72.226 31.5293C71.8922 30.4597 71.3082 29.6331 70.4738 29.0497C69.6533 28.4524 68.6729 28.1537 67.5326 28.1537C66.1003 28.1537 64.8696 28.6607 63.8405 29.6748C62.8114 30.6889 62.2969 32.1197 62.2969 33.9673C62.2969 35.8288 62.7975 37.2735 63.7988 38.3015C64.8139 39.3156 66.0307 39.8226 67.4492 39.8226C68.2279 39.8226 68.9163 39.6976 69.5143 39.4476C70.1261 39.1975 70.599 38.8711 70.9327 38.4682C71.2804 38.0514 71.5376 37.6347 71.7045 37.2179C71.8853 36.8012 71.9896 36.3845 72.0174 35.9677H66.886V34.134H73.9573V41.3646ZM78.9562 38.9891C79.5681 39.6143 80.3121 39.9268 81.1882 39.9268C82.0643 39.9268 82.8013 39.6143 83.3993 38.9891C84.0112 38.3501 84.3171 37.468 84.3171 36.3428C84.3171 35.2315 84.0112 34.3632 83.3993 33.7381C82.8013 33.0991 82.0643 32.7796 81.1882 32.7796C80.3121 32.7796 79.5681 33.0991 78.9562 33.7381C78.3583 34.3632 78.0593 35.2315 78.0593 36.3428C78.0593 37.468 78.3583 38.3501 78.9562 38.9891ZM77.4961 32.5504C78.4695 31.5363 79.7002 31.0292 81.1882 31.0292C82.6762 31.0292 83.8999 31.5363 84.8595 32.5504C85.8329 33.5506 86.3196 34.8147 86.3196 36.3428C86.3196 37.8847 85.8399 39.1628 84.8803 40.1769C83.9208 41.1771 82.6901 41.6772 81.1882 41.6772C79.6863 41.6772 78.4556 41.1771 77.4961 40.1769C76.5366 39.1628 76.0568 37.8847 76.0568 36.3428C76.0568 34.8147 76.5366 33.5506 77.4961 32.5504ZM90.8934 38.9891C91.5053 39.6143 92.2493 39.9268 93.1254 39.9268C94.0015 39.9268 94.7385 39.6143 95.3365 38.9891C95.9484 38.3501 96.2543 37.468 96.2543 36.3428C96.2543 35.2315 95.9484 34.3632 95.3365 33.7381C94.7385 33.0991 94.0015 32.7796 93.1254 32.7796C92.2493 32.7796 91.5053 33.0991 90.8934 33.7381C90.2955 34.3632 89.9965 35.2315 89.9965 36.3428C89.9965 37.468 90.2955 38.3501 90.8934 38.9891ZM89.4333 32.5504C90.4067 31.5363 91.6374 31.0292 93.1254 31.0292C94.6134 31.0292 95.8371 31.5363 96.7966 32.5504C97.7701 33.5506 98.2568 34.8147 98.2568 36.3428C98.2568 37.8847 97.7771 39.1628 96.8175 40.1769C95.858 41.1771 94.6273 41.6772 93.1254 41.6772C91.6235 41.6772 90.3928 41.1771 89.4333 40.1769C88.4737 39.1628 87.994 37.8847 87.994 36.3428C87.994 34.8147 88.4737 33.5506 89.4333 32.5504ZM100.035 41.9064L101.934 41.4688C102.003 42.1772 102.288 42.7607 102.789 43.2191C103.29 43.6914 103.915 43.9276 104.666 43.9276C106.71 43.9276 107.733 42.844 107.733 40.677V39.2392C107.482 39.7254 107.086 40.1213 106.544 40.4269C106.015 40.7325 105.389 40.8853 104.666 40.8853C103.331 40.8853 102.226 40.4339 101.35 39.5309C100.487 38.6141 100.056 37.4472 100.056 36.0302C100.056 34.655 100.487 33.502 101.35 32.5712C102.212 31.6266 103.317 31.1543 104.666 31.1543C106.196 31.1543 107.225 31.6822 107.753 32.7379V31.3418H109.694V40.6144C109.694 41.2812 109.603 41.8994 109.422 42.469C109.256 43.0524 108.984 43.5872 108.609 44.0735C108.233 44.5597 107.705 44.9417 107.023 45.2195C106.356 45.4973 105.57 45.6363 104.666 45.6363C103.429 45.6363 102.379 45.282 101.516 44.5736C100.654 43.879 100.161 42.9899 100.035 41.9064ZM104.958 39.2392C105.807 39.2392 106.495 38.9475 107.023 38.364C107.552 37.7667 107.816 36.9887 107.816 36.0302C107.816 35.0717 107.552 34.3007 107.023 33.7173C106.495 33.1199 105.807 32.8213 104.958 32.8213C104.096 32.8213 103.394 33.113 102.851 33.6964C102.323 34.2799 102.059 35.0578 102.059 36.0302C102.059 37.0165 102.316 37.8014 102.831 38.3848C103.359 38.9544 104.068 39.2392 104.958 39.2392ZM114.785 41.3646H112.824V26.2783H114.785V41.3646ZM119.393 35.3217H124.879C124.851 34.5716 124.601 33.9604 124.128 33.4881C123.655 33.0019 122.988 32.7587 122.126 32.7587C121.347 32.7587 120.707 33.0157 120.207 33.5297C119.706 34.0298 119.435 34.6272 119.393 35.3217ZM125.171 37.9264L126.861 38.5099C126.569 39.4406 126.027 40.2046 125.234 40.802C124.441 41.3854 123.482 41.6772 122.355 41.6772C120.951 41.6772 119.755 41.1979 118.767 40.2394C117.794 39.267 117.307 37.9612 117.307 36.3219C117.307 34.7939 117.78 33.5297 118.726 32.5295C119.671 31.5293 120.798 31.0292 122.105 31.0292C123.621 31.0292 124.803 31.5085 125.651 32.467C126.499 33.4117 126.923 34.6827 126.923 36.2803C126.923 36.5303 126.91 36.7387 126.882 36.9054H119.331C119.345 37.7945 119.637 38.5238 120.207 39.0933C120.791 39.6629 121.507 39.9476 122.355 39.9476C123.788 39.9476 124.726 39.2739 125.171 37.9264ZM136.894 33.4881H139.856C140.732 33.4881 141.428 33.2658 141.942 32.8213C142.457 32.3628 142.714 31.7516 142.714 30.9876C142.714 30.2096 142.457 29.5915 141.942 29.133C141.428 28.6607 140.732 28.4246 139.856 28.4246H136.894V33.4881ZM140.232 35.3217H136.894V41.3646H134.85V26.5909H140.232C141.581 26.5909 142.679 27.0076 143.528 27.8411C144.376 28.6746 144.8 29.7165 144.8 30.9667C144.8 32.2309 144.376 33.2727 143.528 34.0923C142.679 34.9119 141.581 35.3217 140.232 35.3217ZM148.845 41.3646H146.884V26.2783H148.845V41.3646ZM151.555 38.6766C151.555 37.8153 151.833 37.1277 152.389 36.6137C152.945 36.0858 153.682 35.7593 154.6 35.6343L157.312 35.2384C157.826 35.1689 158.084 34.9189 158.084 34.4883C158.084 33.9604 157.903 33.5297 157.541 33.1963C157.18 32.8629 156.637 32.6962 155.914 32.6962C155.247 32.6962 154.718 32.8838 154.329 33.2588C153.939 33.62 153.71 34.1062 153.64 34.7175L151.763 34.2799C151.86 33.3214 152.299 32.5434 153.077 31.9461C153.856 31.3349 154.788 31.0292 155.872 31.0292C157.291 31.0292 158.341 31.3765 159.022 32.0711C159.704 32.7518 160.044 33.627 160.044 34.6966V39.7184C160.044 40.3158 160.086 40.8645 160.169 41.3646H158.25C158.181 40.9478 158.146 40.4964 158.146 40.0102C157.868 40.4547 157.458 40.8437 156.915 41.1771C156.387 41.5105 155.719 41.6772 154.913 41.6772C153.926 41.6772 153.119 41.3854 152.493 40.802C151.867 40.2046 151.555 39.4962 151.555 38.6766ZM155.184 40.031C156.06 40.031 156.762 39.7948 157.291 39.3225C157.819 38.8502 158.084 38.1001 158.084 37.0721V36.6137L155.017 37.0721C154.572 37.1415 154.218 37.3013 153.953 37.5514C153.689 37.8014 153.557 38.1417 153.557 38.5724C153.557 38.9613 153.703 39.3017 153.995 39.5934C154.301 39.8851 154.697 40.031 155.184 40.031ZM165.399 45.5529H163.251L165.754 40.2602L161.436 31.3418H163.689L166.818 38.2598L169.821 31.3418H171.928L165.399 45.5529Z" fill="white"/>
<path opacity="0.6" d="M66.0106 18.5426V15.6134H63.1975V16.566H64.9775C64.914 16.9629 64.5087 17.6614 63.4677 17.6614C62.5221 17.6614 61.6877 17.0026 61.6877 15.7325C61.6877 14.3989 62.6095 13.8194 63.4598 13.8194C64.3736 13.8194 64.8424 14.3989 64.9855 14.899L66.0344 14.5259C65.7563 13.6607 64.9378 12.7954 63.4598 12.7954C61.934 12.7954 60.5752 13.9147 60.5752 15.7325C60.5752 17.5503 61.8705 18.6616 63.3882 18.6616C64.2385 18.6616 64.7948 18.2806 65.0491 17.8996L65.1206 18.5426H66.0106ZM72.1353 18.5426V17.5106H69.7037V16.2088H71.9049V15.2324H69.7037V13.9464H72.1353V12.9145H68.6071V18.5426H72.1353ZM78.9633 13.9544V12.9145H74.2987V13.9544H76.0787V18.5426H77.1833V13.9544H78.9633ZM85.791 18.5426V12.9145H84.6785V18.5426H85.791ZM92.7145 13.9544V12.9145H88.0499V13.9544H89.8299V18.5426H90.9345V13.9544H92.7145ZM99.2322 15.7246C99.2322 14.4545 100.122 13.8512 100.988 13.8512C101.862 13.8512 102.752 14.4545 102.752 15.7246C102.752 16.9946 101.862 17.5979 100.988 17.5979C100.122 17.5979 99.2322 16.9946 99.2322 15.7246ZM98.0958 15.7325C98.0958 17.5424 99.4626 18.6616 100.988 18.6616C102.522 18.6616 103.889 17.5424 103.889 15.7325C103.889 13.9147 102.522 12.7954 100.988 12.7954C99.4626 12.7954 98.0958 13.9147 98.0958 15.7325ZM111.138 18.5426V12.9145H110.041V16.6374L107.696 12.9145H106.33V18.5426H107.426V14.5497L109.985 18.5426H111.138Z" fill="white"/>
<path d="M47.0638 26.4523L42.4327 23.7775L37.6914 28.5187L42.4323 33.2596L47.0796 30.5759C47.8042 30.1356 48.2367 29.3665 48.2367 28.5187C48.2367 27.671 47.8039 26.9018 47.0638 26.4523Z" fill="#FFCE00"/>
<path d="M37.6918 28.5186L24.7776 15.5115C24.3284 15.9606 24.0557 16.5701 24.0557 17.2439V39.7537C24.0557 40.4275 24.3284 41.037 24.7776 41.4865L37.6918 28.5186Z" fill="url(#paint0_linear_1_12959)"/>
<path d="M37.6915 28.5188L42.4328 23.7775L42.4403 23.77L36.0876 20.1124L27.7134 15.1906C26.9593 14.7254 26.0449 14.7093 25.2747 15.1424C25.0983 15.2546 24.9377 15.367 24.7773 15.5113L37.6915 28.5188Z" fill="#00F076"/>
<path d="M24.7773 41.4862C24.9377 41.6304 25.0983 41.7429 25.2747 41.855C25.6596 42.0635 26.0609 42.176 26.4619 42.176C26.895 42.176 27.312 42.0478 27.6973 41.8232L36.0873 36.9251L42.44 33.2674L42.4324 33.2599L37.6915 28.5187L24.7773 41.4862Z" fill="#F63448"/>
<defs>
<linearGradient id="paint0_linear_1_12959" x1="18.2841" y1="34.9926" x2="31.2715" y2="22.005" gradientUnits="userSpaceOnUse">
<stop stop-color="#00E2FF"/>
<stop offset="1" stop-color="#00C5FF"/>
</linearGradient>
</defs>
</svg>
