<svg width="40" height="39" viewBox="0 0 40 39" fill="none" xmlns="http://www.w3.org/2000/svg">
<path d="M0.120323 36.1267C0.0244303 36.3464 -0.0151405 36.5866 0.00519482 36.8255C0.0255301 37.0643 0.105129 37.2944 0.236783 37.4947C0.368436 37.695 0.547986 37.8594 0.759172 37.9728C0.970357 38.0863 1.20651 38.1453 1.44623 38.1444C1.63924 38.1423 1.83006 38.1032 2.0083 38.0291L9.18263 34.9608L3.19009 28.9683L0.120323 36.1267Z" fill="white"/>
<path d="M4.94641 26.6318L16.5847 14.9936L23.1384 21.5474L11.5002 33.1856L4.94641 26.6318Z" fill="#E9FF97"/>
<path d="M38.6604 8.57499L37.6156 7.48255C38.0869 6.66542 38.2741 5.71509 38.1479 4.78023C38.0217 3.84537 37.5892 2.97872 36.918 2.31583L35.8371 1.22051C35.0106 0.436835 33.915 0 32.776 0C31.637 0 30.5414 0.436835 29.7149 1.22051L18.3192 12.6305L25.5253 19.8366L35.7002 9.64869L36.6038 10.5927C36.9326 10.9225 37.1173 11.3693 37.1173 11.835C37.1173 12.3007 36.9326 12.7475 36.6038 13.0773L29.8215 19.8596C29.6786 19.9912 29.5637 20.1503 29.4838 20.3274C29.4039 20.5045 29.3606 20.696 29.3566 20.8902C29.3526 21.0845 29.3879 21.2775 29.4604 21.4578C29.5329 21.638 29.6411 21.8018 29.7784 21.9391C29.9158 22.0765 30.0796 22.1847 30.2598 22.2572C30.4401 22.3297 30.6331 22.365 30.8274 22.361C31.0216 22.3569 31.213 22.3137 31.3901 22.2338C31.5672 22.1539 31.7264 22.039 31.8579 21.8961L38.6403 15.1137C39.5073 14.2479 39.9961 13.0739 39.9999 11.8485C40.0037 10.6232 39.5221 9.44621 38.6604 8.57499Z" fill="#E9FF97"/>
</svg>
