<svg width="80" height="80" viewBox="0 0 80 80" fill="none" xmlns="http://www.w3.org/2000/svg">
<path d="M18.7666 13.9808H19.599C19.6044 13.9808 19.6089 13.9839 19.6143 13.9839C19.6196 13.9839 19.6241 13.9809 19.6295 13.9808H23.7593C24.2809 13.9808 24.7042 13.5576 24.7042 13.0359C24.7042 12.5141 24.281 12.0909 23.7593 12.0909H20.5592V8.49962C20.5592 7.97804 20.136 7.55469 19.6143 7.55469C19.0925 7.55469 18.6693 7.97788 18.6693 8.49962V12.1008C16.3787 12.1538 14.5293 14.0257 14.5293 16.3295C14.5293 18.6666 16.4302 20.5674 18.7666 20.5674H20.4669C21.7613 20.5674 22.8144 21.6206 22.8144 22.9155C22.8144 24.2103 21.7612 25.2635 20.4669 25.2635H15.4742C14.9527 25.2635 14.5293 25.6867 14.5293 26.2085C14.5293 26.7302 14.9525 27.1534 15.4742 27.1534H18.6695V30.7441C18.6695 31.2657 19.0927 31.689 19.6144 31.689C20.1361 31.689 20.5593 31.2658 20.5593 30.7441V27.144C22.8522 27.0936 24.7044 25.2209 24.7044 22.9155C24.7044 20.5784 22.8035 18.6775 20.4671 18.6775H18.7668C17.4724 18.6775 16.4193 17.6243 16.4193 16.3295C16.4193 15.0346 17.4724 13.9808 18.7666 13.9808Z" fill="#F6F9F0"/>
<path d="M65.6634 60.5364C66.7972 59.6796 67.5531 58.3316 67.5531 56.7946C67.5531 54.1992 65.449 52.0953 62.8664 52.0953H61.8459V49.0465C61.8459 48.5174 61.4176 48.1016 60.901 48.1016C60.3845 48.1016 59.9561 48.5174 59.9561 49.0465V52.0953H58.2427V49.0465C58.2427 48.5174 57.8269 48.1016 57.2978 48.1016C56.7812 48.1016 56.3529 48.5174 56.3529 49.0465V52.0953H54.1481C53.6315 52.0953 53.2031 52.5237 53.2031 53.0403C53.2031 53.5695 53.6315 53.9852 54.1481 53.9852H56.3529V67.0877H54.1481C53.6315 67.0877 53.2031 67.5161 53.2031 68.0326C53.2031 68.5617 53.6315 68.9776 54.1481 68.9776H56.3529V71.724C56.3529 72.2531 56.7812 72.669 57.2978 72.669C57.8269 72.669 58.2427 72.2531 58.2427 71.724V68.9776H59.9561V71.724C59.9561 72.2531 60.3845 72.669 60.901 72.669C61.4176 72.669 61.8459 72.2531 61.8459 71.724V68.9776H62.8664C65.449 68.9776 67.5531 66.8737 67.5531 64.2909C67.5532 62.7537 66.7972 61.3931 65.6634 60.5364ZM58.2427 53.9851H62.8664C64.4035 53.9851 65.6634 55.2449 65.6634 56.7946C65.6634 58.3316 64.4035 59.5914 62.8664 59.5914H58.2427V53.9851ZM62.8665 67.0877H58.2429V61.4813H62.8665C64.4037 61.4813 65.6635 62.7412 65.6635 64.2907C65.6634 65.8404 64.4035 67.0877 62.8665 67.0877Z" fill="#F6F9F0"/>
<path d="M19.616 0C8.79378 0 0 8.80649 0 19.616C0 30.4382 8.79378 39.2445 19.616 39.2445C30.4382 39.2445 39.232 30.4382 39.232 19.616C39.232 8.80649 30.4382 0 19.616 0ZM19.616 37.3548C9.83945 37.3548 1.88972 29.3925 1.88972 19.616C1.88972 9.83945 9.83945 1.88987 19.616 1.88987C29.3924 1.88987 37.3421 9.83961 37.3421 19.6161C37.3421 29.3927 29.3925 37.3548 19.616 37.3548Z" fill="#F6F9F0"/>
<path d="M75.1136 35.0994C74.9876 35.4899 74.6223 35.7545 74.219 35.7545C73.8032 35.7545 73.4379 35.4899 73.3119 35.0994C71.2584 28.5859 65.4503 24.1135 58.6975 23.7229V30.6647C58.6975 31.0427 58.4708 31.3954 58.1306 31.534C57.7779 31.6851 57.3748 31.6096 57.0976 31.3576L43.3777 18.2299C43.2013 18.0535 43.0879 17.8015 43.0879 17.5496C43.0879 17.2851 43.2013 17.0456 43.3777 16.8694L57.0976 3.74167C57.3748 3.48983 57.7779 3.41419 58.1306 3.5653C58.4708 3.70386 58.6975 4.0566 58.6975 4.43461V11.4269C70.5278 12.0314 78.7042 23.7102 75.1136 35.0994Z" fill="#F6F9F0"/>
<path d="M60.3718 40.769C49.5622 40.769 40.7559 49.5628 40.7559 60.3725C40.7559 71.1947 49.5622 80.0012 60.3718 80.0012C71.1941 80.0012 80.0005 71.1948 80.0005 60.3725C80.0005 49.5628 71.1941 40.769 60.3718 40.769ZM60.3718 78.1111C50.5953 78.1111 42.6456 70.1614 42.6456 60.3723C42.6456 50.6083 50.5953 42.6588 60.3718 42.6588C70.1484 42.6588 78.1107 50.6085 78.1107 60.3723C78.1107 70.1615 70.1484 78.1111 60.3718 78.1111Z" fill="#F6F9F0"/>
<path d="M36.9138 62.4637C36.9138 62.7155 36.8003 62.9675 36.6114 63.1439L22.8915 76.2589C22.7151 76.4353 22.4756 76.5235 22.2489 76.5235C22.1229 76.5235 21.9969 76.4982 21.8709 76.4478C21.5182 76.2967 21.304 75.9565 21.304 75.5785V68.5737C9.48661 67.9691 1.27232 56.3029 4.88825 44.9138C5.01425 44.5106 5.37954 44.2461 5.78266 44.2461C6.19848 44.2461 6.56377 44.5106 6.68978 44.9138C8.74331 51.4273 14.5513 55.8998 21.3041 56.2776V49.3358C21.3041 48.9577 21.5183 48.6176 21.8711 48.4665C22.2238 48.3153 22.6269 48.3908 22.8915 48.6555L36.6114 61.7706C36.8003 61.9596 36.9138 62.1989 36.9138 62.4637Z" fill="#F6F9F0"/>
</svg>
