<svg width="61" height="61" viewBox="0 0 61 61" fill="none" xmlns="http://www.w3.org/2000/svg">
<circle cx="30.1202" cy="30.1207" r="26.3555" fill="#1ED760"/>
<path d="M42.1017 40.7059C41.6514 41.4203 40.6908 41.6204 39.9404 41.1917C34.0268 37.7623 26.6122 36.9906 17.8469 38.8768C17.0064 39.0483 16.1658 38.5625 15.9857 37.7623C15.8056 36.9621 16.3159 36.1619 17.1564 35.9904C26.7323 33.9042 34.9573 34.7901 41.5614 38.6482C42.3118 39.0769 42.552 39.9914 42.1017 40.7059ZM45.1636 34.1899C44.5932 35.0759 43.3925 35.3331 42.4619 34.8187C35.7078 30.8463 25.4115 29.7031 17.4266 32.018C16.376 32.3038 15.2953 31.7608 14.9951 30.7891C14.6949 29.7889 15.2653 28.76 16.3159 28.4742C25.4415 25.845 36.7884 27.1025 44.5632 31.6465C45.4337 32.1609 45.7339 33.304 45.1636 34.1899ZM45.4337 27.3883C37.3288 22.8157 23.9706 22.387 16.2259 24.6161C14.9951 24.9877 13.6743 24.3304 13.2841 23.1301C12.8938 21.9583 13.6143 20.7009 14.845 20.3294C23.7305 17.7573 38.4995 18.2717 47.8052 23.5302C48.9159 24.1589 49.2761 25.5307 48.6157 26.5881C47.9853 27.674 46.5444 28.0456 45.4337 27.3883Z" fill="white"/>
</svg>
