<svg width="131" height="18" viewBox="0 0 131 18" fill="none" xmlns="http://www.w3.org/2000/svg">
<path d="M24.5317 2.7793H26.3067V11.7892C26.3067 14.1762 25.2623 15.8236 22.8148 15.8236C22.091 15.8344 21.3708 15.7208 20.6855 15.4874V13.7615C21.27 13.9882 21.8921 14.1023 22.5189 14.0977C24.0183 14.0977 24.5361 13.2012 24.5361 11.908L24.5317 2.7793Z" fill="#253858"/>
<path d="M29.5407 2.08678C29.699 2.07553 29.8579 2.09829 30.0067 2.15376C30.1554 2.20922 30.2904 2.29609 30.4026 2.40833C30.5149 2.52057 30.6016 2.65557 30.6572 2.80431C30.7125 2.95304 30.7354 3.11185 30.7241 3.27027C30.7241 3.5841 30.5994 3.8851 30.3775 4.10697C30.1555 4.32896 29.8545 4.45363 29.5407 4.45363C29.2269 4.45363 28.9259 4.32896 28.704 4.10697C28.482 3.8851 28.3573 3.5841 28.3573 3.27027C28.346 3.11185 28.3688 2.95304 28.4243 2.80431C28.4798 2.65557 28.5666 2.52057 28.6787 2.40833C28.791 2.29609 28.9261 2.20922 29.0747 2.15376C29.2235 2.09829 29.3824 2.07553 29.5407 2.08678ZM28.6734 5.87455H30.3699V15.7362H28.6734V5.87455Z" fill="#253858"/>
<path d="M32.9326 5.87143H34.589V7.60618C35.1605 6.44297 36.1579 5.61373 38.0809 5.73251V7.38877C35.9113 7.16468 34.589 7.8236 34.589 9.91246V15.7398H32.9326V5.87143Z" fill="#253858"/>
<path d="M46.0255 13.9586C45.3933 15.2607 44.21 15.9309 42.6927 15.9309C40.0703 15.9309 38.748 13.7031 38.748 10.8028C38.748 8.02138 40.1287 5.6748 42.8899 5.6748C44.3288 5.6748 45.4338 6.3247 46.0277 7.60682V5.87207H47.7244V15.7336H46.0277L46.0255 13.9586ZM43.1454 14.353C44.665 14.353 46.0255 13.387 46.0255 11.1973V10.3995C46.0255 8.20975 44.7837 7.24368 43.3359 7.24368C41.4219 7.24368 40.4357 8.50553 40.4357 10.7939C40.4446 13.1696 41.3905 14.353 43.1476 14.353H43.1454Z" fill="#253858"/>
<path d="M57.7632 15.9299C55.2575 15.9299 54.0943 15.4367 53.0879 14.9236V13.1103C54.2915 13.7424 56.1451 14.1952 57.8597 14.1952C59.8118 14.1952 60.5491 13.4264 60.5491 12.2811C60.5491 11.1358 59.8386 10.5262 57.3733 9.93451C54.4596 9.22405 53.1529 8.21768 53.1529 6.0884C53.1529 4.07135 54.6904 2.57861 57.7095 2.57861C59.5832 2.57861 60.7867 3.02692 61.6742 3.52441V5.29958C60.4404 4.6196 59.0482 4.27935 57.64 4.31336C55.9433 4.31336 54.937 4.90504 54.937 6.0884C54.937 7.15297 55.7663 7.68644 58.0523 8.25798C60.7935 8.94829 62.3332 9.82685 62.3332 12.1623C62.3198 14.4104 60.9795 15.9299 57.7632 15.9299Z" fill="#253858"/>
<path d="M63.8184 10.7826C63.8184 7.82424 65.5526 5.6748 68.5111 5.6748C71.4698 5.6748 73.1666 7.82424 73.1666 10.7826C73.1666 13.7412 71.4495 15.9376 68.5111 15.9376C65.5729 15.9376 63.8184 13.7412 63.8184 10.7826ZM65.4745 10.7826C65.4745 12.6563 66.4022 14.353 68.5111 14.353C70.6201 14.353 71.5105 12.6563 71.5105 10.7826C71.5105 8.90896 70.6023 7.2616 68.5111 7.2616C66.42 7.2616 65.4834 8.90896 65.4834 10.7826H65.4745Z" fill="#253858"/>
<path d="M77.4866 5.87195H80.0304V7.44082H77.4866V15.7335H75.8303V7.44082H74.2256V5.87195H75.8234V4.79612C75.8234 2.96274 76.8503 1.71881 78.961 1.71881C79.3478 1.71672 79.7327 1.76957 80.1041 1.87579V3.44466C79.7536 3.37795 79.3967 3.34485 79.0397 3.34603C77.9952 3.34603 77.4706 3.95785 77.4706 4.84544L77.4866 5.87195Z" fill="#253858"/>
<path d="M85.7683 14.0773C86.1265 14.0665 86.4834 14.02 86.8327 13.9382V15.5744C86.4611 15.6808 86.0764 15.7336 85.6896 15.7313C83.5782 15.7313 82.552 14.4896 82.552 12.654V7.44975H80.9473V5.88088H82.545V3.78076H84.2018V5.87198H86.8238V7.44085H84.2018V12.6181C84.2107 13.4856 84.7238 14.0773 85.7683 14.0773Z" fill="#253858"/>
<path d="M87.3096 5.87207H89.1835L92.0234 14.2342L94.9007 5.87207H96.5194L99.3992 14.2342L102.241 5.87207H104.115L100.486 15.7336H98.3165L96.6204 10.962L95.7236 7.92509L94.827 10.962L93.108 15.7336H90.9381L87.3096 5.87207Z" fill="#253858"/>
<path d="M111.862 13.9586C111.231 15.2607 110.047 15.9309 108.53 15.9309C105.907 15.9309 104.585 13.7031 104.585 10.8028C104.585 8.02138 105.965 5.6748 108.727 5.6748C110.166 5.6748 111.271 6.3247 111.865 7.60682V5.87207H113.561V15.7336H111.865L111.862 13.9586ZM108.982 14.353C110.502 14.353 111.862 13.387 111.862 11.1973V10.3995C111.862 8.20975 110.621 7.24368 109.173 7.24368C107.268 7.2616 106.275 8.51455 106.275 10.8028C106.275 13.1696 107.227 14.353 108.984 14.353H108.982Z" fill="#253858"/>
<path d="M116.124 5.87143H117.781V7.60618C118.352 6.44297 119.349 5.61373 121.273 5.73251V7.38877C119.103 7.16468 117.781 7.8236 117.781 9.91246V15.7398H116.124V5.87143Z" fill="#253858"/>
<path d="M127.245 15.9304C123.556 15.9304 121.939 13.8011 121.939 10.7753C121.939 7.79677 123.596 5.66748 126.594 5.66748C129.632 5.66748 130.853 7.77885 130.853 10.7753V11.5441H123.656C123.893 13.2206 124.979 14.3054 127.305 14.3054C128.328 14.3045 129.343 14.1239 130.304 13.772V15.3409C129.494 15.778 128.251 15.9304 127.245 15.9304ZM123.636 10.103H129.134C129.035 8.26966 128.206 7.22301 126.512 7.22301C124.721 7.21398 123.813 8.38164 123.636 10.0918V10.103Z" fill="#253858"/>
<path d="M16.2653 8.77653L8.95874 1.46995L8.25049 0.761719L2.75041 6.26186L0.235703 8.77653C0.109788 8.90264 0.0390625 9.07361 0.0390625 9.25165C0.0390625 9.42983 0.109788 9.6008 0.235703 9.72691L5.26063 14.7518L8.25049 17.7417L13.7506 12.2416L13.8358 12.1564L16.2653 9.72691C16.3913 9.6008 16.4619 9.42983 16.4619 9.25165C16.4619 9.07361 16.3913 8.90264 16.2653 8.77653ZM8.25049 11.762L5.74027 9.25165L8.25049 6.74143L10.7608 9.25165L8.25049 11.762Z" fill="#2684FF"/>
<path d="M8.25156 6.74166C7.46203 5.95219 7.017 4.88225 7.01364 3.76561C7.01027 2.6491 7.44888 1.57654 8.23359 0.782227L2.74023 6.27334L5.7301 9.26313L8.25156 6.74166Z" fill="url(#paint0_linear_1_15595)"/>
<path d="M10.7669 9.24463L8.25 11.7615C8.64277 12.1541 8.95438 12.6202 9.16693 13.1333C9.37953 13.6462 9.48894 14.196 9.48894 14.7514C9.48894 15.3068 9.37953 15.8566 9.16693 16.3696C8.95438 16.8826 8.64277 17.3487 8.25 17.7412L13.7568 12.2344L10.7669 9.24463Z" fill="url(#paint1_linear_1_15595)"/>
<defs>
<linearGradient id="paint0_linear_1_15595" x1="7.8033" y1="4.2024" x2="4.29792" y2="7.70774" gradientUnits="userSpaceOnUse">
<stop offset="0.18" stop-color="#0052CC"/>
<stop offset="1" stop-color="#2684FF"/>
</linearGradient>
<linearGradient id="paint1_linear_1_15595" x1="221.805" y1="521.423" x2="342.872" y2="442.958" gradientUnits="userSpaceOnUse">
<stop offset="0.18" stop-color="#0052CC"/>
<stop offset="1" stop-color="#2684FF"/>
</linearGradient>
</defs>
</svg>
