<svg width="102" height="30" viewBox="0 0 102 30" fill="none" xmlns="http://www.w3.org/2000/svg">
<path d="M0.211914 5.90332H3.75542V13.776H11.2289V5.90332H14.777V25.2282H11.2289V17.1903H3.75542V25.2282H0.211914V5.90332ZM26.0028 18.9338C26.0028 20.5515 24.6848 21.8679 23.0674 21.8679C21.4495 21.8679 20.1323 20.5515 20.1323 18.9338V10.6138H16.7718V18.9338C16.7718 22.4049 19.5962 25.2282 23.0674 25.2282C26.5379 25.2282 29.3621 22.4049 29.3621 18.9338V10.6138H26.0028V18.9338ZM38.7433 10.7112C37.0763 10.7112 35.9127 11.195 34.7891 12.298V5.90332H31.4177V17.7544C31.4177 22.1903 34.6249 25.2282 38.2282 25.2282C42.234 25.2282 45.7437 22.1361 45.7437 17.9699C45.7437 13.8566 42.5073 10.7112 38.7433 10.7112ZM38.827 22.1093C36.5426 22.1093 34.7956 20.2014 34.7956 17.9699C34.7956 15.7381 36.5426 13.8296 38.827 13.8296C40.7627 13.8296 42.5107 15.7381 42.5107 17.9699C42.5107 20.2014 40.7627 22.1093 38.827 22.1093ZM51.4062 11.5606C51.4062 9.86584 52.5354 9.32852 53.7716 9.32852C54.7668 9.32852 56.0839 10.0812 56.9433 10.9955L59.1472 8.41486C58.0458 6.93648 55.8149 5.91463 53.9868 5.91463C50.3303 5.91463 47.6957 8.03851 47.6957 11.5606C47.6957 18.093 55.7341 16.0223 55.7341 19.6794C55.7341 20.8072 54.6323 21.8028 53.3694 21.8028C51.3794 21.8028 50.7339 20.835 49.8202 19.8131L47.3734 22.3398C48.9335 24.2487 50.8684 25.2169 53.1807 25.2169C56.6484 25.2169 59.4443 23.0663 59.4443 19.7054C59.4443 12.4473 51.4062 14.7057 51.4062 11.5606ZM68.3198 10.5219C64.7169 10.5219 61.5093 13.558 61.5093 17.9949V29.8766H64.8805V23.4515C66.0044 24.5538 67.1673 25.0383 68.8349 25.0383C72.5987 25.0383 75.8355 21.8934 75.8355 17.78C75.8355 13.6132 72.3248 10.5219 68.3198 10.5219ZM68.9188 21.9204C66.6346 21.9204 64.8874 20.0099 64.8874 17.78C64.8874 15.5481 66.6346 13.6396 68.9188 13.6396C70.8541 13.6396 72.6023 15.5481 72.6023 17.78C72.6023 20.0099 70.8541 21.9204 68.9188 21.9204ZM100.651 22.1093C98.6629 22.1093 98.0984 21.2494 98.0984 19.9316V14.0983H101.189V11.1416H98.0984V7.24315L94.6853 8.77512V20.6575C94.6853 23.6957 96.7814 25.2282 99.6565 25.2282C100.087 25.2282 100.679 25.2005 101.002 25.1209L101.835 22.0565C101.459 22.0825 101.029 22.1093 100.651 22.1093Z" fill="#0C1523"/>
<path d="M91.7606 14.2703C91.1144 13.1583 90.2052 12.2669 89.0687 11.5958C88.2193 11.1013 87.3386 10.7875 86.3461 10.6527V7.11954C87.3386 6.69814 87.9545 5.76542 87.9545 4.67728C87.9545 3.19413 86.7652 1.99226 85.2832 1.99226C83.8001 1.99226 82.5898 3.19413 82.5898 4.67728C82.5898 5.76542 83.1702 6.69814 84.1627 7.11954V10.6543C83.3687 10.769 82.5454 11.0166 81.7935 11.3969C80.2577 10.2305 75.222 6.40417 72.2761 4.16933C72.346 3.91744 72.3998 3.65781 72.3998 3.38389C72.3998 1.74116 71.0695 0.409668 69.4262 0.409668C67.7828 0.409668 66.4531 1.74116 66.4531 3.38389C66.4531 5.02643 67.7842 6.35832 69.4276 6.35832C69.9881 6.35832 70.5066 6.19436 70.954 5.92481L71.5756 6.39643L80.118 12.5513C79.6664 12.966 79.2458 13.4376 78.9094 13.9668C78.2276 15.0456 77.8109 16.2326 77.8109 17.5273V17.7975C77.8109 18.7064 77.9836 19.5645 78.2778 20.3706C78.5368 21.0744 78.9155 21.7144 79.3846 22.293L76.5495 25.135C76.1386 24.9821 75.6924 24.9507 75.2642 25.0446C74.8359 25.1385 74.4438 25.3538 74.1346 25.6646C73.9206 25.8776 73.7509 26.131 73.6355 26.41C73.52 26.6891 73.4611 26.9883 73.4621 27.2902C73.4623 27.9042 73.7015 28.4812 74.1358 28.9153C74.3487 29.1295 74.602 29.2994 74.8809 29.415C75.1599 29.5307 75.4591 29.5898 75.7611 29.589C76.0632 29.5898 76.3624 29.5306 76.6415 29.415C76.9206 29.2994 77.1739 29.1295 77.3869 28.9153C77.6009 28.7023 77.7705 28.449 77.886 28.1701C78.0015 27.8912 78.0606 27.5921 78.0598 27.2902C78.0598 27.0526 78.0231 26.8208 77.954 26.6005L80.8844 23.6697C81.2861 23.9472 81.7201 24.1808 82.1865 24.3823C83.1065 24.7801 84.122 25.0225 85.2334 25.0225H85.437C86.6657 25.0225 87.8247 24.7338 88.9142 24.1435C90.0623 23.5197 90.9609 22.6665 91.6398 21.5774C92.3222 20.4853 92.6979 19.2787 92.6979 17.9511V17.8848C92.6979 16.5789 92.3956 15.3741 91.7606 14.2703ZM88.1802 20.4182C87.3849 21.3021 86.4706 21.8466 85.437 21.8466H85.2667C84.6764 21.8466 84.099 21.6834 83.5337 21.3867C82.8965 21.0599 82.4122 20.5939 82.0158 20.0037C81.6061 19.4245 81.3838 18.7921 81.3838 18.1216V17.918C81.3838 17.2588 81.5102 16.6337 81.829 16.0434C82.1698 15.3981 82.6301 14.8963 83.2423 14.4973C83.8433 14.1011 84.4853 13.9068 85.2002 13.9068H85.2667C85.915 13.9068 86.5288 14.0347 87.108 14.331C87.6981 14.647 88.1802 15.0787 88.554 15.6466C88.917 16.2147 89.133 16.8275 89.2025 17.495C89.2134 17.6337 89.2189 17.7759 89.2189 17.9116C89.2189 18.8176 88.8728 19.6566 88.1802 20.4182Z" fill="#F8761F"/>
</svg>
