<svg width="38" height="40" viewBox="0 0 38 40" fill="none" xmlns="http://www.w3.org/2000/svg">
<path d="M32.8571 40H4.28571C3.14907 40 2.05898 39.5485 1.25526 38.7447C0.451529 37.941 0 36.8509 0 35.7143V4.28571C0 3.14907 0.451529 2.05898 1.25526 1.25526C2.05898 0.451529 3.14907 0 4.28571 0H32.8571C33.9938 0 35.0839 0.451529 35.8876 1.25526C36.6913 2.05898 37.1429 3.14907 37.1429 4.28571V35.7143C37.1429 36.8509 36.6913 37.941 35.8876 38.7447C35.0839 39.5485 33.9938 40 32.8571 40ZM4.28571 2.85714C3.90683 2.85714 3.54347 3.00765 3.27556 3.27556C3.00765 3.54347 2.85714 3.90683 2.85714 4.28571V35.7143C2.85714 36.0932 3.00765 36.4565 3.27556 36.7244C3.54347 36.9923 3.90683 37.1429 4.28571 37.1429H32.8571C33.236 37.1429 33.5994 36.9923 33.8673 36.7244C34.1352 36.4565 34.2857 36.0932 34.2857 35.7143V4.28571C34.2857 3.90683 34.1352 3.54347 33.8673 3.27556C33.5994 3.00765 33.236 2.85714 32.8571 2.85714H4.28571Z" fill="white"/>
<path d="M27.142 7.14307H9.99916C8.4212 7.14307 7.14201 8.42225 7.14201 10.0002V18.5716C7.14201 20.1496 8.4212 21.4288 9.99916 21.4288H27.142C28.72 21.4288 29.9992 20.1496 29.9992 18.5716V10.0002C29.9992 8.42225 28.72 7.14307 27.142 7.14307Z" fill="#E9FF97"/>
<path d="M27.1434 27.1428H10.0006C9.62168 27.1428 9.25832 26.9923 8.99041 26.7244C8.7225 26.4565 8.57199 26.0931 8.57199 25.7142C8.57199 25.3353 8.7225 24.972 8.99041 24.7041C9.25832 24.4362 9.62168 24.2856 10.0006 24.2856H27.1434C27.5223 24.2856 27.8857 24.4362 28.1536 24.7041C28.4215 24.972 28.572 25.3353 28.572 25.7142C28.572 26.0931 28.4215 26.4565 28.1536 26.7244C27.8857 26.9923 27.5223 27.1428 27.1434 27.1428Z" fill="white"/>
<path d="M27.1434 32.8571H10.0006C9.62168 32.8571 9.25832 32.7066 8.99041 32.4387C8.7225 32.1708 8.57199 31.8075 8.57199 31.4286C8.57199 31.0497 8.7225 30.6863 8.99041 30.4184C9.25832 30.1505 9.62168 30 10.0006 30H27.1434C27.5223 30 27.8857 30.1505 28.1536 30.4184C28.4215 30.6863 28.572 31.0497 28.572 31.4286C28.572 31.8075 28.4215 32.1708 28.1536 32.4387C27.8857 32.7066 27.5223 32.8571 27.1434 32.8571Z" fill="white"/>
</svg>
