<svg width="124" height="38" viewBox="0 0 124 38" fill="none" xmlns="http://www.w3.org/2000/svg">
<path d="M120.987 22.3934C120.917 22.7432 120.795 23.0405 120.628 23.3027C120.463 23.5647 120.244 23.7749 119.964 23.9406C119.693 24.0983 119.353 24.1854 118.95 24.1854C118.557 24.1854 118.216 24.1069 117.945 23.9406C117.675 23.7825 117.445 23.5642 117.272 23.3027C117.106 23.0407 116.983 22.7432 116.905 22.3934C116.828 22.0462 116.79 21.6915 116.791 21.3358C116.791 20.9687 116.827 20.6014 116.896 20.261C116.966 19.9112 117.089 19.6053 117.255 19.343C117.421 19.0717 117.639 18.8622 117.919 18.6876C118.19 18.5213 118.531 18.434 118.933 18.434C119.326 18.434 119.658 18.5213 119.929 18.6876C120.201 18.8555 120.431 19.0825 120.602 19.3517C120.777 19.6225 120.9 19.9371 120.978 20.2783C121.057 20.6278 121.092 20.9774 121.092 21.3358C121.092 21.6943 121.057 22.0438 120.987 22.3934ZM123.312 19.5702C123.146 18.9846 122.901 18.4777 122.569 18.0319C122.228 17.595 121.808 17.2363 121.302 16.9743C120.794 16.7121 120.183 16.5722 119.475 16.5722C118.915 16.5722 118.408 16.6859 117.945 16.9045C117.481 17.1231 117.097 17.4813 116.8 17.9621H116.765V16.8169H114.422V28.9406H116.887V24.6834H116.922C117.213 25.1111 117.611 25.4548 118.076 25.6801C118.548 25.9073 119.055 26.021 119.614 26.021C120.27 26.021 120.847 25.89 121.345 25.6364C121.826 25.3901 122.247 25.0409 122.578 24.6136C122.91 24.1854 123.154 23.6957 123.312 23.1364C123.478 22.5769 123.557 22.0004 123.557 21.397C123.557 20.7591 123.478 20.1473 123.312 19.5614V19.5702ZM111.153 22.3934C111.084 22.7432 110.961 23.0405 110.795 23.3027C110.629 23.5649 110.41 23.7749 110.131 23.9406C109.86 24.0983 109.519 24.1854 109.117 24.1854C108.723 24.1854 108.391 24.1069 108.111 23.9406C107.841 23.7823 107.611 23.5641 107.438 23.3027C107.272 23.0407 107.15 22.7432 107.072 22.3934C106.994 22.0462 106.956 21.6915 106.958 21.3358C106.958 20.9687 106.993 20.6014 107.062 20.261C107.133 19.9112 107.255 19.6053 107.421 19.343C107.587 19.0717 107.806 18.8622 108.085 18.6876C108.356 18.5213 108.697 18.434 109.099 18.434C109.493 18.434 109.824 18.5213 110.096 18.6876C110.367 18.8555 110.597 19.0825 110.769 19.3517C110.943 19.6225 111.066 19.9371 111.145 20.2783C111.223 20.6278 111.258 20.9774 111.258 21.3358C111.258 21.6943 111.223 22.0438 111.153 22.3934ZM112.735 18.0319C112.403 17.595 111.975 17.2363 111.468 16.9743C110.961 16.7121 110.349 16.5722 109.641 16.5722C109.081 16.5722 108.575 16.6859 108.111 16.9045C107.648 17.1231 107.264 17.4813 106.966 17.9621H106.931V16.8169H104.588V28.9406H107.053V24.6834H107.089C107.379 25.1111 107.777 25.4548 108.243 25.6801C108.714 25.9073 109.221 26.021 109.781 26.021C110.445 26.021 111.013 25.89 111.512 25.6364C111.992 25.3899 112.413 25.0407 112.744 24.6136C113.076 24.1854 113.321 23.6957 113.487 23.1364C113.649 22.5706 113.731 21.9853 113.732 21.397C113.732 20.7591 113.653 20.1473 113.487 19.5614C113.321 18.976 113.076 18.4688 112.735 18.0232V18.0319ZM96.5117 21.0038L98.1288 16.4496H98.1638L99.7286 21.0038H96.5117ZM96.774 13.3904L92.0802 25.7935H94.8249L95.7953 23.0316H100.437L101.372 25.7935H104.204L99.5626 13.3904H96.7653H96.774ZM91.8791 21.8603C91.7128 21.5805 91.5032 21.3358 91.2323 21.1436C90.9701 20.9515 90.6639 20.8025 90.323 20.6804C89.9776 20.5669 89.6277 20.4678 89.2741 20.3833C88.9245 20.3044 88.5836 20.2257 88.2513 20.1559C87.919 20.0861 87.6131 20.0071 87.3597 19.9198C87.0977 19.8325 86.8878 19.719 86.7304 19.5789C86.5641 19.439 86.4857 19.2644 86.4857 19.0371C86.4857 18.8536 86.5294 18.7049 86.6253 18.5911C86.7215 18.4777 86.8353 18.399 86.9663 18.3378C87.0975 18.2766 87.246 18.2416 87.4123 18.2243C87.5632 18.2076 87.7149 18.1989 87.8667 18.1981C88.3038 18.1981 88.6884 18.2855 89.0121 18.4515C89.3355 18.6175 89.519 18.9409 89.5452 19.4129H91.8878C91.8438 18.8534 91.6956 18.399 91.4595 18.0316C91.2234 17.6643 90.9264 17.3762 90.568 17.1576C90.2095 16.939 89.7988 16.7819 89.3441 16.6857C88.8897 16.5895 88.4175 16.5458 87.9281 16.5458C87.4389 16.5458 86.9668 16.5897 86.5035 16.6768C86.0402 16.7641 85.6208 16.9129 85.2537 17.1315C84.878 17.35 84.5805 17.6387 84.3622 18.0055C84.1347 18.3726 84.0213 18.8536 84.0213 19.4301C84.0213 19.8236 84.0997 20.1556 84.266 20.4265C84.4234 20.6979 84.6417 20.9248 84.9039 21.1084C85.175 21.2833 85.4723 21.432 85.8132 21.5455C86.1541 21.659 86.5037 21.7554 86.8622 21.8339C87.7451 22.0174 88.4269 22.201 88.925 22.3845C89.4144 22.568 89.6594 22.8478 89.6594 23.2149C89.6594 23.4334 89.6068 23.617 89.502 23.7655C89.3994 23.9106 89.2647 24.0302 89.1085 24.115C88.9511 24.2024 88.7762 24.2638 88.5841 24.3072C88.4034 24.3483 88.2187 24.3688 88.0334 24.3684C87.7887 24.3684 87.5526 24.3425 87.3341 24.2811C87.1069 24.2199 86.9058 24.1321 86.7312 24.01C86.5563 23.8876 86.4164 23.7302 86.3029 23.538C86.1892 23.3459 86.1366 23.1184 86.1366 22.8562H83.7941C83.8202 23.4591 83.9517 23.9574 84.205 24.3595C84.4498 24.7619 84.7732 25.0764 85.1578 25.3211C85.5424 25.5658 85.9881 25.7405 86.4864 25.8453C86.9848 25.9504 87.4915 26.003 88.0159 26.003C88.5231 26.003 89.0298 25.9504 89.5195 25.854C90.0089 25.758 90.4461 25.5831 90.8307 25.3384C91.2153 25.0937 91.5212 24.7703 91.7573 24.3768C91.9931 23.9749 92.1154 23.4855 92.1154 22.891C92.1154 22.4716 92.037 22.122 91.8707 21.842L91.8791 21.8603ZM81.6782 14.1248H79.2132V16.8169H77.7183V18.4688H79.2132V23.766C79.2132 24.2206 79.2917 24.5791 79.4404 24.8586C79.5892 25.1386 79.7989 25.348 80.0611 25.5056C80.3234 25.6542 80.6209 25.759 80.9615 25.8115C81.3204 25.8649 81.6827 25.8912 82.0455 25.89C82.2902 25.89 82.5349 25.8814 82.7972 25.8727C83.0286 25.8649 83.2593 25.8415 83.4877 25.8027V23.8883C83.367 23.9156 83.2443 23.933 83.1208 23.9406C82.987 23.9511 82.8529 23.9569 82.7187 23.9582C82.2991 23.9582 82.028 23.8883 81.8884 23.7482C81.7485 23.6086 81.6784 23.3286 81.6784 22.9181V18.4688H83.4877V16.8169H81.6784V14.1248H81.6782ZM74.6065 22.3236C74.6065 22.4632 74.5892 22.647 74.5629 22.8831C74.5334 23.1245 74.4529 23.357 74.3268 23.5649C74.1958 23.7924 74.0034 23.9845 73.7325 24.1508C73.4705 24.3166 73.0857 24.3955 72.6051 24.3955C72.4127 24.3955 72.2203 24.3778 72.0281 24.343C71.8446 24.3077 71.6785 24.2465 71.5387 24.1594C71.3988 24.0719 71.2939 23.9584 71.2064 23.801C71.1279 23.6525 71.084 23.469 71.084 23.2415C71.084 23.0054 71.1279 22.8219 71.2064 22.6647C71.2851 22.5157 71.3985 22.3934 71.53 22.2888C71.661 22.1926 71.8184 22.1141 72.002 22.053C72.1855 21.9918 72.3604 21.9479 72.5526 21.9128C72.7499 21.8789 72.9481 21.8498 73.1468 21.8255C73.3479 21.7994 73.5317 21.773 73.7152 21.7382C73.8988 21.7034 74.0648 21.6595 74.2222 21.6072C74.3796 21.5549 74.5106 21.4848 74.6157 21.3886V22.3066L74.6065 22.3236ZM77.0715 23.8008V19.1242C77.0715 18.5825 76.9491 18.1454 76.7046 17.8133C76.4599 17.481 76.1449 17.2277 75.7692 17.0441C75.3846 16.8606 74.965 16.7382 74.5017 16.6684C74.0469 16.6063 73.5886 16.5741 73.1296 16.5722C72.631 16.5722 72.1329 16.6248 71.6435 16.721C71.1543 16.8172 70.7083 16.9829 70.3148 17.2193C69.9275 17.4497 69.5961 17.7632 69.3446 18.1372C69.0912 18.5218 68.9425 19.0024 68.9077 19.5794H71.3726C71.4163 19.0902 71.5823 18.7493 71.8618 18.5393C72.1418 18.3294 72.5175 18.2248 73.0072 18.2248C73.2258 18.2248 73.4352 18.2421 73.6279 18.2685C73.8069 18.292 73.9794 18.3515 74.1348 18.4434C74.2836 18.5307 74.3971 18.653 74.4847 18.8104C74.572 18.9678 74.6157 19.1773 74.6157 19.4484C74.6243 19.7017 74.5545 19.8944 74.3882 20.034C74.2222 20.165 74.0036 20.2701 73.7241 20.3399C73.4446 20.4097 73.1298 20.4623 72.7714 20.4973C72.4129 20.5323 72.0459 20.576 71.6788 20.6372C71.3117 20.6984 70.9444 20.7768 70.5773 20.873C70.2102 20.9692 69.8866 21.1177 69.6068 21.319C69.3184 21.5199 69.0912 21.7821 68.9077 22.1055C68.7242 22.4378 68.6366 22.8574 68.6366 23.3644C68.6366 23.8277 68.715 24.2298 68.8727 24.5618C69.0202 24.8855 69.2418 25.17 69.5195 25.3924C69.8081 25.6169 70.1377 25.7831 70.4897 25.8819C70.8568 25.9867 71.2589 26.039 71.6872 26.039C72.2467 26.039 72.7887 25.9605 73.3218 25.7943C73.849 25.6333 74.3271 25.3418 74.7116 24.9466C74.7202 25.0952 74.7466 25.2434 74.7728 25.3924C74.7989 25.532 74.8426 25.6808 74.8865 25.8207H77.3865C77.2728 25.6371 77.1854 25.3571 77.1418 24.9901C77.0955 24.6043 77.0721 24.2162 77.0717 23.8277V23.8008H77.0715ZM66.9147 17.5947C66.67 17.2802 66.3377 17.0266 65.9183 16.8517C65.4987 16.6682 64.9569 16.5806 64.2923 16.5806C63.8291 16.5806 63.3571 16.703 62.8677 16.939C62.3783 17.1751 61.9848 17.5597 61.6703 18.0753H61.6177V13.399H59.1528V25.8024H61.6177V21.0911C61.6177 20.1732 61.7665 19.5177 62.0724 19.1156C62.3696 18.7135 62.8591 18.5213 63.532 18.5213C64.1177 18.5213 64.5373 18.7049 64.7645 19.0717C64.992 19.4388 65.1143 19.9896 65.1143 20.7324V25.8024H67.5793V20.2783C67.5793 19.7188 67.5267 19.2121 67.4305 18.7574C67.3343 18.3027 67.1594 17.9095 66.9147 17.5947ZM53.8817 21.9479H53.8467L51.7316 13.3993H49.179L47.0286 21.843H46.9936L45.0267 13.3993H42.2998L45.5862 25.8027H48.3484L50.4113 17.3587H50.4463L52.5442 25.8027H55.2538L56.7396 20.2958L58.5928 13.3993H55.9179L53.8817 21.9479Z" fill="#0C1523"/>
<path d="M19.1796 33.2675C16.1638 33.2675 13.3493 32.3584 10.9981 30.8114L5.28127 32.6379L7.13441 27.1138C5.35133 24.6661 4.30264 21.6506 4.30264 18.3989C4.30264 10.1999 10.9719 3.53057 19.171 3.53057C27.37 3.53057 34.0393 10.1999 34.0393 18.3989C34.0393 26.5977 27.37 33.2673 19.171 33.2673H19.1796V33.2675ZM19.1796 0.71582C9.41557 0.71582 1.49653 8.6356 1.49653 18.3992C1.49653 21.7381 2.4231 24.8674 4.03128 27.5334L0.84082 37.0175L10.631 33.8795C13.2478 35.3265 16.1894 36.0845 19.1796 36.0823C28.9434 36.0823 36.8627 28.163 36.8627 18.3992C36.8625 8.6356 28.9434 0.71582 19.1796 0.71582Z" fill="#FEFEFE"/>
<path d="M19.1799 3.53052C10.9808 3.53052 4.31152 10.1998 4.31152 18.3989C4.31152 21.6505 5.36046 24.6661 7.14354 27.1137L5.2904 32.6379L11.007 30.8114C13.3582 32.3673 16.1641 33.2674 19.1885 33.2674C27.3875 33.2674 34.0568 26.5979 34.0568 18.3991C34.0568 10.2001 27.3875 3.53076 19.1885 3.53076H19.1799V3.53052Z" fill="url(#paint0_linear_1_15545)"/>
<path d="M15.0271 11.083C14.7387 10.3925 14.5201 10.3663 14.0832 10.3486C13.9173 10.3379 13.7512 10.3321 13.5849 10.3313C13.0165 10.3313 12.4223 10.4973 12.0638 10.8644C11.6269 11.3102 10.543 12.3502 10.543 14.4831C10.543 16.616 12.0989 18.6788 12.3085 18.9675C12.5271 19.2556 15.3419 23.6961 19.7122 25.5058C23.1299 26.9218 24.1441 26.7906 24.9219 26.6245C26.0581 26.3798 27.483 25.5403 27.8415 24.5267C28.1999 23.5125 28.1999 22.6471 28.0948 22.4636C27.99 22.28 27.7013 22.1755 27.2645 21.9566C26.8276 21.7381 24.7033 20.6891 24.3012 20.5493C23.9077 20.4008 23.532 20.4533 23.235 20.8729C22.8154 21.4586 22.4046 22.0531 22.0723 22.4113C21.8101 22.691 21.3816 22.7261 21.0234 22.5773C20.5426 22.3765 19.1967 21.9041 17.5357 20.4269C16.2507 19.282 15.3766 17.8574 15.1233 17.4291C14.8697 16.9922 15.0971 16.7384 15.2979 16.5025C15.5165 16.2314 15.7262 16.0392 15.9448 15.7856C16.1633 15.5323 16.2857 15.4011 16.4256 15.1038C16.5743 14.8154 16.4692 14.5181 16.3644 14.2996C16.2596 14.081 15.3855 11.9481 15.0271 11.083Z" fill="#FEFEFE"/>
<defs>
<linearGradient id="paint0_linear_1_15545" x1="-107.451" y1="-46.2844" x2="-107.451" y2="-45.1934" gradientUnits="userSpaceOnUse">
<stop stop-color="#6EBF61"/>
<stop offset="0.231" stop-color="#50A557"/>
<stop offset="0.522" stop-color="#2A904F"/>
<stop offset="0.812" stop-color="#50A557"/>
<stop offset="1" stop-color="#6EBF63"/>
</linearGradient>
</defs>
</svg>
