<svg width="35" height="35" viewBox="0 0 35 35" fill="none" xmlns="http://www.w3.org/2000/svg">
<path d="M27.7222 6C28.4279 6 29 6.57209 29 7.27778V27.7222C29 28.4279 28.4279 29 27.7222 29H7.27778C6.57209 29 6 28.4279 6 27.7222V7.27778C6 6.57209 6.57209 6 7.27778 6H27.7222ZM16.2222 18.7778H8.55556V26.4444H16.2222V18.7778ZM18.7778 26.4444H26.4444V8.55556H18.7778V26.4444ZM16.2222 8.55556H8.55556V16.2222H16.2222V8.55556Z" fill="#7949F6"/>
<path d="M27.5 26.25V29.75H7C6.03351 29.75 5.25 28.9665 5.25 28V8.75H0V5.25H5.25V0H8.75V26.25H27.5ZM26.25 35V8.75H7V5.25H28C28.9665 5.25 29.75 6.03351 29.75 7V26.25H35V29.75H29.75V35H26.25Z" fill="#7949F6"/>
</svg>
