<svg width="58" height="41" viewBox="0 0 58 41" fill="none" xmlns="http://www.w3.org/2000/svg">
<path d="M27.9297 7.01172V24.5117H13.6797L27.9297 7.01172Z" fill="#03363D"/>
<path d="M27.9297 0.761719C27.9297 2.68454 27.179 4.52861 25.8428 5.88824C24.5066 7.24788 22.6944 8.01172 20.8047 8.01172C18.915 8.01172 17.1028 7.24788 15.7666 5.88824C14.4304 4.52861 13.6797 2.68454 13.6797 0.761719H27.9297Z" fill="#03363D"/>
<path d="M30.1797 24.5117C30.1797 22.5226 30.9567 20.6149 32.3398 19.2084C33.7229 17.8019 35.5987 17.0117 37.5547 17.0117C39.5107 17.0117 41.3865 17.8019 42.7696 19.2084C44.1527 20.6149 44.9297 22.5226 44.9297 24.5117H30.1797Z" fill="#03363D"/>
<path d="M30.1797 18.2617V0.761719H44.9297L30.1797 18.2617Z" fill="#03363D"/>
<path d="M38.3066 39.3011C39.0323 39.3176 39.7349 39.0421 40.2613 38.5348L41.2304 39.5969C40.5904 40.2652 39.7029 40.7618 38.3232 40.7618C35.9579 40.7618 34.4304 39.1693 34.4304 37.0128C34.4208 36.5189 34.5093 36.0281 34.6906 35.5696C34.8719 35.1112 35.1422 34.6946 35.4855 34.3445C35.8288 33.9945 36.238 33.7183 36.6887 33.5323C37.1395 33.3464 37.6225 33.2545 38.1089 33.2622C40.4576 33.2622 41.7889 35.077 41.6727 37.5937H36.121C36.3172 38.639 37.0402 39.3057 38.3051 39.3057L38.3066 39.3011ZM39.9972 36.3936C39.8463 35.4172 39.2742 34.6984 38.124 34.6984C37.0568 34.6984 36.3127 35.3115 36.121 36.3936H39.9972Z" fill="#03363D"/>
<path d="M0.679688 39.2917L5.25019 34.7014H0.787888V33.2617H7.36839V34.7317L2.79789 39.3204H7.42969V40.7617H0.679688V39.2917Z" fill="#03363D"/>
<path d="M12.4577 39.3011C13.2584 39.3176 14.0337 39.0421 14.6146 38.5348L15.6839 39.5969C14.9777 40.2652 13.9984 40.7618 12.476 40.7618C9.86597 40.7618 8.18047 39.1693 8.18047 37.0128C8.16987 36.5189 8.26747 36.0281 8.46757 35.5696C8.66757 35.1112 8.96587 34.6946 9.34467 34.3445C9.72347 33.9945 10.1751 33.7183 10.6724 33.5323C11.1698 33.3464 11.7027 33.2545 12.2395 33.2622C14.8311 33.2622 16.3002 35.077 16.1719 37.5937H10.0459C10.2625 38.639 11.0603 39.3057 12.456 39.3057L12.4577 39.3011ZM14.3231 36.3936C14.1566 35.4172 13.5253 34.6984 12.2562 34.6984C11.0786 34.6984 10.2575 35.3115 10.0459 36.3936H14.3231Z" fill="#03363D"/>
<path d="M25.1797 36.9851C25.1797 34.6663 26.9465 33.207 28.8911 33.207C29.358 33.2009 29.8207 33.2953 30.2466 33.4836C30.6725 33.6718 31.0513 33.9494 31.3564 34.2968V30.0117H32.9297V40.6178H31.3564V39.6146C31.0571 39.9763 30.6789 40.2672 30.2497 40.4657C29.8205 40.6643 29.3513 40.7654 28.8769 40.7616C26.989 40.7616 25.1797 39.2946 25.1797 36.9851ZM31.4445 36.9712C31.4321 36.5178 31.284 36.078 31.0186 35.7069C30.7532 35.3358 30.3823 35.0498 29.9523 34.8848C29.5224 34.7197 29.0524 34.6828 28.6013 34.7788C28.1501 34.8748 27.7378 35.0993 27.4158 35.4244C27.0939 35.7494 26.8766 36.1605 26.7912 36.6062C26.7058 37.052 26.756 37.5126 26.9356 37.9304C27.1152 38.3482 27.4162 38.7047 27.801 38.9553C28.1857 39.206 28.6371 39.3396 29.0987 39.3394C30.4502 39.3394 31.4445 38.279 31.4445 36.9712Z" fill="#03363D"/>
<path d="M42.6797 39.0919L44.1042 38.372C44.2926 38.6991 44.569 38.9698 44.9038 39.155C45.2385 39.3402 45.6188 39.4328 46.0036 39.4228C46.8935 39.4228 47.3542 38.977 47.3542 38.4731C47.3542 37.8971 46.4942 37.7669 45.5586 37.58C44.3008 37.3212 42.991 36.9168 42.991 35.4355C42.991 34.2974 44.1027 33.2465 45.8542 33.2619C47.2332 33.2619 48.2583 33.7949 48.8417 34.6573L47.5209 35.3635C47.3384 35.1002 47.0901 34.8866 46.7992 34.743C46.5084 34.5993 46.1848 34.5303 45.8589 34.5425C45.013 34.5425 44.5822 34.9453 44.5822 35.4064C44.5822 35.9241 45.2646 36.0681 46.3338 36.2994C47.5508 36.5583 48.9297 36.9474 48.9297 38.444C48.9297 39.4366 48.0398 40.7754 45.9328 40.7616C44.3904 40.7616 43.3071 40.1565 42.6828 39.0919" fill="#03363D"/>
<path d="M53.29 37.4933L52.025 38.8486V40.7617H50.4297V30.0117H52.025V37.0515L55.4117 33.3992H57.3547L54.4178 36.5501L57.4297 40.7617H55.6239L53.29 37.4933Z" fill="#03363D"/>
<path d="M20.6827 33.2617C18.9125 33.2617 17.4297 34.4679 17.4297 36.4673V40.7617H18.9468V36.666C18.9468 35.4598 19.6063 34.7385 20.7333 34.7385C21.8603 34.7385 22.4201 35.4598 22.4201 36.666V40.7617H23.9297V36.4673C23.9297 34.4679 22.4409 33.2617 20.6767 33.2617" fill="#03363D"/>
</svg>
