<svg width="60" height="60" viewBox="0 0 60 60" fill="none" xmlns="http://www.w3.org/2000/svg">
<circle cx="29.999" cy="30" r="26.25" fill="#4087FC"/>
<path d="M15.5 18.75C14.1883 18.75 13.125 19.9492 13.125 21.4286V34.4196C13.125 38.1919 15.8365 41.25 19.1813 41.25L33.25 41.1161C34.5617 41.1161 35.625 39.9169 35.625 38.4375V25.3125C35.625 21.5402 32.4073 18.75 29.0625 18.75L15.5 18.75Z" fill="white"/>
<path d="M38.8354 23.8642C37.9867 24.7034 37.5 25.9146 37.5 27.1875V32.6237C37.5 33.8967 37.9867 35.1078 38.8354 35.947L44.1165 40.5984C45.1911 41.6609 46.875 40.8003 46.875 39.1885V20.8784C46.875 19.2666 45.1911 18.406 44.1165 19.4685L38.8354 23.8642Z" fill="white"/>
</svg>
