<svg width="60" height="60" viewBox="0 0 60 60" fill="none" xmlns="http://www.w3.org/2000/svg">
<rect width="60" height="60" rx="30" fill="#00B7F0"/>
<path d="M32.7578 23.1844C32.7578 25.7011 31.7536 28.1147 29.9662 29.8943C28.1787 31.6738 25.7544 32.6736 23.2266 32.6736C20.6987 32.6736 18.2744 31.6738 16.4869 29.8943C14.6995 28.1147 13.6953 25.7011 13.6953 23.1844C13.6953 20.6678 14.6995 18.2542 16.4869 16.4746C18.2744 14.6951 20.6987 13.6953 23.2266 13.6953C25.7544 13.6953 28.1787 14.6951 29.9662 16.4746C31.7536 18.2542 32.7578 20.6678 32.7578 23.1844Z" fill="white"/>
<path d="M46.0407 36.8117C46.0407 38.0583 45.7941 39.2926 45.3149 40.4443C44.8358 41.596 44.1335 42.6424 43.2481 43.5239C42.3627 44.4053 41.3117 45.1045 40.1549 45.5816C38.9981 46.0586 37.7583 46.3041 36.5062 46.3041C33.9775 46.3041 31.5523 45.304 29.7643 43.5239C27.9762 41.7437 26.9717 39.3293 26.9717 36.8117C26.9717 34.2942 27.9762 31.8798 29.7643 30.0996C31.5523 28.3194 33.9775 27.3193 36.5062 27.3193C37.7583 27.3193 38.9981 27.5649 40.1549 28.0419C41.3117 28.5189 42.3627 29.2181 43.2481 30.0996C44.1335 30.981 44.8358 32.0275 45.3149 33.1791C45.7941 34.3308 46.0407 35.5652 46.0407 36.8117Z" fill="white"/>
<path opacity="0.05" fill-rule="evenodd" clip-rule="evenodd" d="M13.7295 23.9958C13.8775 25.7887 14.5311 27.503 15.6146 28.9401C16.698 30.3772 18.167 31.4781 19.8511 32.1155C21.5353 32.7528 23.3658 32.9004 25.1305 32.5411C26.8953 32.1819 28.5219 31.3305 29.8221 30.0856C31.1223 28.8407 32.0427 27.2533 32.4767 25.5074C32.9107 23.7614 32.8405 21.9283 32.2743 20.2205C31.7081 18.5128 30.6691 17.0002 29.2776 15.8581C27.8861 14.716 26.199 13.9912 24.412 13.7676C21.9856 14.5784 19.7691 15.9161 17.922 17.6846C16.075 19.4532 14.6431 21.6086 13.7295 23.9958Z" fill="white"/>
<path opacity="0.05" fill-rule="evenodd" clip-rule="evenodd" d="M46.0152 36.1292C45.8908 34.3144 45.2485 32.5732 44.1645 31.1116C43.0806 29.65 41.6002 28.529 39.8985 27.8814C38.1968 27.2337 36.345 27.0865 34.5621 27.457C32.7793 27.8275 31.14 28.7004 29.8381 29.9723C28.5362 31.2442 27.6263 32.8619 27.2159 34.6341C26.8056 36.4064 26.9119 38.2589 27.5224 39.9726C28.1329 41.6864 29.222 43.1896 30.6609 44.3045C32.0997 45.4195 33.8282 46.0994 35.6418 46.2639C38.0019 45.4245 40.1516 44.0836 41.9425 42.3336C43.7335 40.5837 45.123 38.4665 46.0152 36.1281V36.1292Z" fill="white"/>
<path opacity="0.1" fill-rule="evenodd" clip-rule="evenodd" d="M14.1758 26.1656C14.6764 27.6954 15.5573 29.0733 16.736 30.1706C17.9147 31.2679 19.3528 32.0486 20.9157 32.4398C22.4786 32.8309 24.1153 32.8197 25.6727 32.4073C27.2301 31.9948 28.6573 31.1945 29.8209 30.0813C30.9845 28.968 31.8464 27.5782 32.3261 26.0417C32.8057 24.5053 32.8874 22.8724 32.5635 21.2958C32.2397 19.7192 31.5208 18.2505 30.4741 17.0269C29.4274 15.8033 28.0872 14.8648 26.5787 14.2993C23.606 14.9179 20.8671 16.3584 18.6742 18.4564C16.4813 20.5544 14.9226 23.2257 14.1758 26.1656Z" fill="white"/>
<path opacity="0.1" fill-rule="evenodd" clip-rule="evenodd" d="M45.583 33.8986C45.0897 32.3508 44.2081 30.9547 43.0221 29.8434C41.8361 28.732 40.3851 27.9423 38.8072 27.5493C37.2293 27.1564 35.577 27.1733 34.0074 27.5985C32.4379 28.0236 31.0034 28.8429 29.8405 29.9783C28.6775 31.1137 27.8247 32.5275 27.3633 34.0852C26.9019 35.6428 26.8472 37.2925 27.2044 38.8772C27.5616 40.4619 28.3189 41.929 29.4041 43.1388C30.4893 44.3486 31.8663 45.2609 33.4042 45.7889C36.3389 45.131 39.0323 43.6704 41.1832 41.5705C43.3341 39.4705 44.8575 36.8142 45.583 33.8986Z" fill="white"/>
<path opacity="0.1" fill-rule="evenodd" clip-rule="evenodd" d="M14.5264 27.066C15.1465 28.4618 16.0939 29.688 17.2885 30.6409C18.4831 31.5939 19.8898 32.2456 21.3897 32.541C22.8896 32.8364 24.4387 32.7669 25.906 32.3382C27.3733 31.9095 28.7157 31.1343 29.8199 30.0781C30.9241 29.0219 31.7575 27.7158 32.2497 26.27C32.742 24.8242 32.8786 23.2814 32.648 21.7717C32.4174 20.2621 31.8265 18.8301 30.9251 17.5967C30.0236 16.3633 28.8382 15.3648 27.469 14.6855C24.3025 15.1779 21.3635 16.629 19.0489 18.843C16.7344 21.0571 15.1558 23.9272 14.5264 27.066Z" fill="white"/>
<path opacity="0.1" fill-rule="evenodd" clip-rule="evenodd" d="M45.2311 32.9812C44.6141 31.5692 43.6632 30.3279 42.4601 29.364C41.2569 28.4001 39.8375 27.7423 38.3237 27.4472C36.8099 27.1521 35.2471 27.2285 33.7694 27.6698C32.2917 28.1111 30.9433 28.9042 29.8401 29.9809C28.7369 31.0575 27.9119 32.3856 27.4358 33.851C26.9598 35.3164 26.8471 36.8754 27.1073 38.3939C27.3674 39.9124 27.9928 41.3452 28.9296 42.5691C29.8664 43.793 31.0866 44.7714 32.4854 45.4203C35.6242 44.8876 38.5258 43.4115 40.803 41.189C43.0803 38.9665 44.625 36.1033 45.2311 32.9812Z" fill="white"/>
<path d="M44.9667 30.0709C44.9667 32.0445 44.5762 33.9989 43.8175 35.8223C43.0589 37.6458 41.9469 39.3026 40.5451 40.6982C39.1433 42.0938 37.4791 43.2009 35.6476 43.9562C33.816 44.7115 31.853 45.1002 29.8705 45.1002C27.8881 45.1002 25.925 44.7115 24.0935 43.9562C22.262 43.2009 20.5978 42.0938 19.196 40.6982C17.7942 39.3026 16.6822 37.6458 15.9235 35.8223C15.1649 33.9989 14.7744 32.0445 14.7744 30.0709C14.7744 28.0972 15.1649 26.1428 15.9235 24.3194C16.6822 22.4959 17.7942 20.8391 19.196 19.4435C20.5978 18.0479 22.262 16.9408 24.0935 16.1855C25.925 15.4302 27.8881 15.0415 29.8705 15.0415C31.853 15.0415 33.816 15.4302 35.6476 16.1855C37.4791 16.9408 39.1433 18.0479 40.5451 19.4435C41.9469 20.8391 43.0589 22.4959 43.8175 24.3194C44.5762 26.1428 44.9667 28.0972 44.9667 30.0709Z" fill="white"/>
<path fill-rule="evenodd" clip-rule="evenodd" d="M25.6246 29.5484C25.0145 29.1473 24.5055 28.6109 24.1371 27.981C23.7814 27.3155 23.6059 26.5687 23.6278 25.8147C23.6008 24.8577 23.9278 23.9243 24.5462 23.1929C25.1889 22.4584 26.0149 21.9071 26.9402 21.5951C27.9465 21.24 29.0068 21.0616 30.0741 21.0679C30.7724 21.0613 31.4699 21.1148 32.159 21.2277C32.6523 21.3038 33.1367 21.4287 33.6052 21.6005C34.0354 21.746 34.4238 21.9937 34.7369 22.3223C34.9676 22.5926 35.0918 22.9377 35.0862 23.2929C35.0944 23.4775 35.0662 23.6618 35.0031 23.8354C34.9399 24.0091 34.8432 24.1686 34.7184 24.3049C34.6003 24.4305 34.4569 24.5297 34.2977 24.596C34.1385 24.6623 33.967 24.6942 33.7945 24.6897C33.5573 24.6877 33.3231 24.6351 33.1079 24.5353C32.5774 24.2981 32.0309 24.0984 31.4724 23.9375C30.9583 23.8021 30.4284 23.7363 29.8967 23.7418C29.2038 23.7164 28.5183 23.8915 27.9228 24.2462C27.6715 24.3987 27.4658 24.6159 27.3272 24.875C27.1886 25.134 27.1222 25.4255 27.135 25.719C27.1313 26.1043 27.2781 26.4759 27.5441 26.7549C27.8603 27.0826 28.2339 27.3497 28.6464 27.5429C29.1085 27.7719 29.7977 28.0755 30.7139 28.4538C30.8154 28.4859 30.9143 28.5255 31.0099 28.5723C31.9041 28.9256 32.7613 29.3657 33.5693 29.8864C34.2074 30.302 34.7455 30.8536 35.145 31.5016C35.5382 32.1827 35.7352 32.9591 35.7141 33.7451C35.7471 34.7074 35.471 35.6551 34.9262 36.4494C34.3715 37.2016 33.604 37.7706 32.7227 38.0831C31.6605 38.4622 30.5381 38.6449 29.4103 38.6223C27.8606 38.6764 26.3183 38.385 24.8955 37.769C24.5318 37.6072 24.2129 37.3595 23.9662 37.0473C23.7615 36.7611 23.6553 36.4163 23.6637 36.0647C23.6536 35.8792 23.6838 35.6937 23.7524 35.5211C23.8209 35.3484 23.9262 35.1927 24.0609 35.0647C24.3433 34.8177 24.7098 34.6885 25.0849 34.7038C25.5027 34.7095 25.9131 34.815 26.2818 35.0114C26.7403 35.2404 27.102 35.4121 27.3667 35.5266C27.6691 35.6531 27.9824 35.752 28.3026 35.8223C28.6974 35.9088 29.1008 35.9504 29.505 35.9462C30.2198 35.9972 30.9311 35.8078 31.5257 35.4081C31.7483 35.2342 31.9262 35.0097 32.0446 34.7534C32.1631 34.4971 32.2187 34.2163 32.2069 33.9342C32.2076 33.5343 32.055 33.1492 31.7803 32.8581C31.4175 32.4839 30.9926 32.175 30.5246 31.9451C29.9711 31.6538 29.1927 31.2987 28.1894 30.8799C27.2921 30.5227 26.4329 30.0766 25.6246 29.5484Z" fill="#00B7F0"/>
</svg>
