<svg width="62" height="41" viewBox="0 0 62 41" fill="none" xmlns="http://www.w3.org/2000/svg">
<path d="M6.08768 38.7489C4.07748 38.7489 2.44818 37.0758 2.44818 35.0116C2.44818 32.9476 4.07748 31.2742 6.08788 31.2742C8.09808 31.2742 9.72717 32.9476 9.72717 35.0116C9.72717 37.0758 8.09788 38.7489 6.08768 38.7489ZM9.73887 39.2229C9.73887 39.5652 10.3227 40.5266 11.038 40.5266H11.5012C11.6809 40.5266 11.8276 40.3789 11.8276 40.1987V29.9708H11.826C11.8215 29.8872 11.7853 29.8085 11.7249 29.7508C11.6646 29.6931 11.5845 29.6608 11.5012 29.6605H10.0658C9.89207 29.6605 9.75027 29.7986 9.74047 29.9708H9.73887V30.8019C8.85957 29.7137 7.47277 29.2619 6.08217 29.2619C2.92137 29.2619 0.359375 31.8361 0.359375 35.0118C0.359375 38.1876 2.92137 40.7617 6.08217 40.7617C7.47277 40.7617 8.98827 40.2197 9.73887 39.2217V39.2229ZM15.2575 37.7583C16.2156 38.425 17.2616 38.7489 18.2667 38.7489C19.2246 38.7489 20.2142 38.25 20.2142 37.382C20.2142 36.2234 18.057 36.0429 16.7019 35.5801C15.3461 35.1174 14.1785 34.1606 14.1785 32.6112C14.1785 30.2408 16.2811 29.2617 18.2436 29.2617C19.487 29.2617 20.7696 29.6734 21.6015 30.2638C21.8881 30.4816 21.7134 30.7323 21.7134 30.7323L20.9195 31.8713C20.8304 31.9996 20.6455 32.1021 20.4503 31.9716C19.9154 31.6163 19.3197 31.274 18.2434 31.274C16.9111 31.274 16.3252 31.8296 16.3252 32.5181C16.3252 33.344 17.2624 33.6035 18.3601 33.885C20.2735 34.4028 22.3609 35.0259 22.3609 37.3822C22.3609 39.4709 20.416 40.7617 18.2667 40.7617C16.6381 40.7617 15.2513 40.2951 14.0882 39.4379C13.8461 39.1942 14.0153 38.968 14.0153 38.968L14.8052 37.8347C14.966 37.6226 15.1686 37.6968 15.2575 37.7583ZM33.1262 39.2231C33.1262 39.5652 33.7097 40.5266 34.4248 40.5266H34.8883C35.0679 40.5266 35.2149 40.3789 35.2149 40.1987V29.9708H35.213C35.2084 29.8872 35.1722 29.8086 35.1119 29.7509C35.0515 29.6933 34.9715 29.6609 34.8883 29.6605H33.4529C33.2789 29.6605 33.1374 29.7986 33.1278 29.9708H33.1262V30.8019C32.2467 29.7137 30.8599 29.2619 29.4695 29.2619C26.3087 29.2619 23.7462 31.8361 23.7462 35.0116C23.7462 38.1871 26.3087 40.7615 29.4695 40.7615C30.8599 40.7615 32.3753 40.2195 33.1259 39.2215L33.1262 39.2231ZM29.475 38.7492C27.4646 38.7492 25.8352 37.0758 25.8352 35.0116C25.8352 32.9476 27.4646 31.2742 29.475 31.2742C31.4849 31.2742 33.1145 32.9476 33.1145 35.0116C33.1145 37.0758 31.4849 38.7492 29.475 38.7492ZM48.0759 39.5746L48.0755 34.2824C48.0755 31.2991 46.2021 29.2864 43.2145 29.2864C41.7886 29.2864 40.622 30.1149 40.2091 30.8266V30.8165L40.2067 30.8247C40.2057 30.1046 39.6243 29.6852 38.9076 29.6852H38.4467C38.2668 29.6852 38.1201 29.8331 38.1201 30.0136V40.2417H38.122C38.1313 40.4141 38.2733 40.5522 38.4467 40.5522H39.8822C39.9041 40.5522 39.9258 40.5496 39.9465 40.5458C39.956 40.5436 39.9648 40.5398 39.9741 40.5372C39.9851 40.534 39.9961 40.5314 40.0061 40.5271C40.0192 40.5218 40.0306 40.5147 40.0425 40.5079C40.0482 40.5044 40.0544 40.502 40.0602 40.4984C40.0742 40.4887 40.0876 40.4779 40.1002 40.4663C40.1023 40.4641 40.105 40.4627 40.1069 40.4608C40.1669 40.4034 40.2027 40.3249 40.2069 40.2417H40.2091V34.2003C40.2091 32.5981 41.502 31.2989 43.097 31.2989C44.6919 31.2989 45.985 32.5981 45.985 34.2003L45.986 39.2504L45.9864 39.2485C45.9864 39.2531 45.9874 39.2579 45.9874 39.2624V40.2417H45.9893C45.9988 40.4141 46.1404 40.5522 46.3141 40.5522H47.7495C47.7717 40.5522 47.7929 40.5496 47.8138 40.5458C47.8224 40.5439 47.8303 40.5403 47.8384 40.5384C47.8503 40.5348 47.8622 40.5316 47.8736 40.5271C47.8853 40.5223 47.896 40.5154 47.907 40.5091C47.9139 40.5056 47.9211 40.5027 47.9275 40.4984C47.9408 40.4893 47.953 40.479 47.9649 40.4684C47.968 40.4661 47.9713 40.4637 47.9744 40.4605C47.9878 40.4476 47.9997 40.4333 48.0109 40.4184C48.0486 40.3673 48.0707 40.3062 48.0743 40.2427L48.0745 40.2417H48.0762L48.0759 39.5746ZM59.2706 39.2231C59.2706 39.5652 59.8537 40.5266 60.5693 40.5266H61.0327C61.2121 40.5266 61.3594 40.3789 61.3594 40.1987V29.9708H61.3577C61.3531 29.8872 61.3168 29.8086 61.2564 29.7509C61.196 29.6933 61.116 29.6609 61.0327 29.6605H59.5975C59.5142 29.6608 59.4341 29.693 59.3736 29.7507C59.3132 29.8084 59.277 29.8871 59.2725 29.9708H59.2706V30.8019C58.3907 29.7137 57.0043 29.2619 55.6135 29.2619C52.4532 29.2619 49.8907 31.8361 49.8907 35.0116C49.8907 38.1871 52.4532 40.7615 55.6135 40.7615C57.0043 40.7615 58.5196 40.2195 59.2699 39.2215L59.2706 39.2231ZM55.6197 38.7492C53.6093 38.7492 51.9799 37.0758 51.9799 35.0116C51.9799 32.9476 53.6093 31.2742 55.6197 31.2742C57.6291 31.2742 59.2585 32.9476 59.2585 35.0116C59.2585 37.0758 57.6291 38.7492 55.6197 38.7492Z" fill="#283343"/>
<path d="M37.4119 12.0116C34.679 12.0116 32.4639 14.25 32.4639 17.0113C32.4639 19.7728 34.679 22.0117 37.4119 22.0117C40.1443 22.0117 42.3594 19.7728 42.3594 17.0113C42.3594 14.25 40.1443 12.0116 37.4119 12.0116ZM24.5571 12.0118C21.8247 12.012 19.6094 14.25 19.6094 17.0115C19.6094 19.7728 21.8247 22.0115 24.5571 22.0115C27.2898 22.0115 29.5051 19.7728 29.5051 17.0115C29.5051 14.25 27.29 12.0118 24.5571 12.0118ZM35.9321 5.76166C35.9321 8.52294 33.7171 10.7621 30.9846 10.7621C28.2517 10.7621 26.0367 8.52294 26.0367 5.76166C26.0367 3.00039 28.2517 0.761719 30.9846 0.761719C33.7171 0.761719 35.9321 3.00039 35.9321 5.76166Z" fill="url(#paint0_radial_1_15590)"/>
<defs>
<radialGradient id="paint0_radial_1_15590" cx="0" cy="0" r="1" gradientUnits="userSpaceOnUse" gradientTransform="translate(30.9844 12.3752) scale(15.0748 14.0809)">
<stop stop-color="#FFB900"/>
<stop offset="0.6" stop-color="#F95D8F"/>
<stop offset="0.9991" stop-color="#F95353"/>
</radialGradient>
</defs>
</svg>
