<svg width="80" height="80" viewBox="0 0 80 80" fill="none" xmlns="http://www.w3.org/2000/svg">
<path d="M39.9875 0C17.9344 0 0 17.9346 0 39.9874C0 62.0403 17.9344 79.9749 39.9875 79.9749C62.0529 79.9749 80 62.0403 80 39.9874C80 17.9346 62.0529 0 39.9875 0ZM39.9875 78.0856C18.9799 78.0856 1.8891 60.995 1.8891 39.9874C1.8891 18.9799 18.9799 1.88925 39.9875 1.88925C61.0077 1.88925 78.1109 18.9799 78.1109 39.9874C78.1109 60.995 61.0075 78.0856 39.9875 78.0856Z" fill="black"/>
<path d="M39.9473 11.2939C24.1537 11.2939 11.2949 24.1529 11.2949 39.9463C11.2949 55.7525 24.1539 68.5987 39.9473 68.5987C55.7534 68.5987 68.6123 55.7523 68.6123 39.9463C68.6123 24.1529 55.7533 11.2939 39.9473 11.2939ZM39.9473 66.7096C25.1865 66.7096 13.184 54.7071 13.184 39.9463C13.184 25.1856 25.1865 13.183 39.9473 13.183C54.7206 13.183 66.7232 25.1856 66.7232 39.9463C66.7232 54.707 54.7206 66.7096 39.9473 66.7096Z" fill="black"/>
<path d="M47.6842 47.5444L40.8328 59.9751C40.669 60.2774 40.3542 60.4663 40.0016 60.4663C39.6615 60.4663 39.3467 60.2772 39.1829 59.9751L32.3189 47.5444C32.0922 47.1539 32.1929 46.6628 32.533 46.3605C32.8729 46.0708 33.3768 46.0708 33.7294 46.348L40.0016 51.3478L46.2736 46.3478C46.6136 46.0708 47.1173 46.0708 47.4701 46.3604C47.81 46.6501 47.8984 47.1539 47.6842 47.5444Z" fill="black"/>
<path d="M51.3587 40.7305L40.5904 49.3325C40.414 49.4711 40.2125 49.5341 39.9985 49.5341C39.7969 49.5341 39.5828 49.4711 39.4065 49.3325L28.6382 40.7305C28.2856 40.4409 28.1849 39.9371 28.3988 39.5341L39.1671 20.0002C39.4947 19.4082 40.4895 19.4082 40.817 20.0002L51.5853 39.5341C51.8122 39.9371 51.7114 40.4408 51.3587 40.7305Z" fill="black"/>
</svg>
