<svg width="60" height="70" viewBox="0 0 60 70" fill="none" xmlns="http://www.w3.org/2000/svg">
<path d="M0.138441 24.7919C1.03847 35.6714 2.47112 47.0155 9.09068 55.6653C13.9273 61.985 19.5084 65.3934 26.2519 69.0453C27.0306 69.5426 27.8282 70.0926 28.4895 69.9868C36.4826 68.71 44.2994 63.0021 49.3011 56.7107C54.4532 50.23 56.9323 43.3214 58.2449 35.1713C59.5086 27.3241 59.6342 19.0207 58.9705 11.0774C58.8959 10.1848 58.3482 9.39801 57.5339 9.02481C57.1061 8.8287 56.5154 8.56107 55.6768 8.07502C55.592 7.96658 55.5444 7.84792 55.2114 7.78192C55.2093 7.76899 55.1969 7.75817 55.1392 7.75711C55.1528 7.76556 55.163 7.77084 55.1765 7.77928C53.8605 7.57267 43.7834 10.704 28.8771 0.14963C28.5872 -0.0551856 28.2003 -0.0499068 27.9179 0.166522C19.9179 6.24554 10.6463 8.61253 1.10762 7.01518C0.631741 6.92788 0.1661 7.30167 0.162723 7.80805C0.144248 10.2775 0.109408 12.8018 0.0745681 15.3261C0.00189851 20.5641 -0.072799 22.2357 0.138441 24.7919ZM1.77644 8.75928C10.8819 10.0494 19.7187 7.88116 27.4898 2.47044V10.5023C27.4898 10.95 27.853 11.3131 28.3006 11.3131C28.7483 11.3131 29.1114 10.95 29.1114 10.5023V2.27301C37.654 8.03029 45.9074 10.3995 54.2726 9.47931C54.6632 20.9518 55.4839 33.356 51.4485 44.0351C48.0385 53.0584 40.7274 60.9686 31.4452 65.8812C30.0778 66.5102 28.681 67.0461 27.2686 67.4554V57.6765C27.2686 57.2288 26.9054 56.8657 26.4578 56.8657C26.0102 56.8657 25.647 57.2288 25.647 57.6765V66.8668C19.6896 63.5773 14.6941 60.3185 10.3787 54.6792C4.02572 46.3789 2.63477 35.2977 1.7548 24.6589C1.5039 21.635 1.67078 20.5074 1.77644 8.75928Z" fill="black"/>
<path d="M12.202 39.5037C12.5505 39.6713 12.3739 39.6301 16.2093 38.9694C17.1504 39.9918 17.2304 40.0354 18.2478 41.1345L16.6191 44.4683C16.5788 44.5059 16.5324 44.5348 16.4995 44.5817C16.2726 44.9059 16.3069 45.3623 16.6844 45.6966C16.6901 45.7008 16.6927 45.7074 16.6985 45.7114C16.7458 45.7446 16.8227 45.812 16.8568 45.8286C16.8694 45.8347 16.8831 45.8323 16.8958 45.8376C18.9745 47.2483 21.2808 47.995 21.6779 47.995C21.861 47.995 22.0348 47.9303 22.1754 47.8205C22.4156 47.7161 22.4855 47.5914 22.5662 47.4808C22.6747 47.4647 24.0064 47.2667 24.1579 47.2412C24.5132 46.5309 24.5809 46.3724 25.6413 44.4815C25.7875 44.5187 27.3256 44.9079 27.4338 44.9353L28.7361 48.2779C28.8607 48.5978 29.1674 48.7942 29.4915 48.7942C29.6002 48.7942 32.6363 48.265 34.3285 47.6561C34.6738 47.5315 34.8702 47.1966 34.8507 46.8479C35.0438 46.6081 35.2782 46.2506 35.5745 45.6562C35.33 44.8463 35.0954 43.7881 34.9218 42.8667C35.6212 42.3761 36.1329 41.9674 37.0004 41.3146C39.6843 42.5924 40.0401 42.8028 40.2987 42.8028C40.5838 42.8028 40.8535 42.6476 41.0008 42.3863C42.4335 40.7504 43.4104 38.9031 43.5308 38.5106C43.647 38.1978 43.5587 37.8598 43.3193 37.6415C43.3666 37.3419 43.3922 37.0346 43.382 36.7056C42.3266 35.9652 41.2744 35.1658 40.4114 34.5064C40.7292 33.7598 40.9273 33.0701 41.0216 32.4221C42.3033 32.0945 43.5519 31.6435 44.7366 31.0618C45.1658 30.852 45.3755 30.2672 44.9803 29.8123C44.5098 28.3047 43.9417 26.8134 43.2849 25.3797C43.1411 25.0662 42.8228 24.8921 42.4971 24.913C42.4845 24.9123 42.4738 24.9057 42.4609 24.9057C42.4577 24.9057 42.4551 24.9057 42.4519 24.9057C41.3243 24.9189 40.1976 25.0543 39.0899 25.2763L37.8837 23.3675C38.473 22.2278 38.8919 21.0157 39.1146 19.7514C39.1181 19.7465 39.1241 19.7449 39.1274 19.7399C39.3749 19.3662 39.2731 18.8636 38.8999 18.6155C37.4545 17.6559 35.8862 16.8778 34.2387 16.3024C34.1998 16.2889 34.1606 16.2938 34.1213 16.2866C33.815 16.1736 33.4596 16.2495 33.2321 16.5104C32.3937 17.4719 31.6726 18.5271 31.0408 19.6296C29.986 19.2326 28.8696 18.9802 27.744 18.8842L26.6373 15.6299C26.4932 15.2055 26.0324 14.9774 25.6085 15.1231C25.5555 15.1412 25.5159 15.177 25.4694 15.2041C20.9645 16.6435 21.1206 16.4958 20.8643 16.7686C20.6705 16.9517 20.56 17.216 20.6127 17.4975L21.2174 20.736L18.8826 23.1078L15.3761 20.8896C14.8844 20.5773 14.2351 20.8722 14.1426 21.4452C13.2511 22.7259 12.2102 24.6653 11.5385 25.5698C11.3862 25.7751 11.3567 26.0251 11.4161 26.2543C11.5168 26.792 11.7935 26.7502 15.1841 29.0171L14.9451 31.7948C13.9274 32.453 12.7905 32.9529 11.6118 33.2559C11.0178 33.1837 10.6192 33.6997 10.7155 34.2037L11.6097 38.8807C11.6704 39.1974 11.91 39.4265 12.202 39.5037ZM15.2388 22.7215L18.3088 24.6634C18.3347 24.699 18.3495 24.7398 18.3819 24.7716C18.5397 24.9279 18.7456 25.0049 18.9509 25.0049C19.5517 25.0049 19.5153 24.6586 22.4914 21.7532C22.6069 21.6362 22.6646 21.4905 22.6944 21.3404C23.0962 20.8283 22.7239 20.4432 22.3353 17.8877L25.369 16.9358L26.2574 19.5483C26.2543 19.5731 26.2416 19.594 26.2409 19.6196C26.2277 20.0672 26.5803 20.4399 27.0279 20.4536C28.3798 20.4927 29.747 20.7988 30.9817 21.3394C31.2458 21.4556 31.5459 21.4266 31.7968 21.2343C32.3813 20.9503 32.1561 20.3997 34.1284 17.9966C35.2993 18.4369 36.4216 18.9886 37.4803 19.6429C36.9258 22.522 35.9544 22.81 36.2755 23.5959C36.2716 24.0659 36.4109 23.9712 37.9893 26.5706C38.1456 26.8171 38.426 26.9799 38.7793 26.9342C39.2636 26.9825 39.7313 26.6443 42.0209 26.556C42.5016 27.6497 42.9297 28.7719 43.2988 29.91C42.3797 30.3109 41.432 30.6428 40.4559 30.8817C40.4011 30.8691 40.3499 30.8471 40.2913 30.8464C40.2882 30.8464 40.2845 30.8464 40.2813 30.8464C39.8379 30.8464 39.4763 31.2033 39.4705 31.6467C39.4594 32.5451 39.1179 33.6083 38.4264 34.8973C38.2141 35.2922 38.3625 35.7831 38.7573 35.9953C38.8019 36.0193 38.8508 36.0156 38.8974 36.0304C39.9094 36.7636 40.8626 37.5774 41.7571 38.4432C41.2807 39.3426 40.7134 40.1915 40.0625 40.9803L37.2344 39.6292C36.9084 39.4736 36.5389 39.563 36.3039 39.8111C35.5707 40.3819 34.1539 41.4499 33.3725 41.9541C32.9997 42.0577 32.7374 42.4025 32.7776 42.8007L33.1313 46.3446C32.1256 46.6576 31.3592 46.774 29.9953 47.0428L28.941 44.3369C28.9663 43.9783 28.7587 43.6503 28.4159 43.5273C28.3201 43.4742 24.6691 42.562 24.5628 42.5357C24.1932 42.44 23.8377 42.627 23.6538 42.9369C23.381 43.3899 22.3433 45.0098 21.4453 46.2564C20.3246 45.9006 19.2603 45.4102 18.2661 44.7908L19.9961 41.2498C20.1888 40.855 20.0468 40.3271 19.5429 40.1446C18.5323 39.0431 18.072 38.6178 17.2619 37.722C17.132 37.4725 16.8862 37.305 16.5276 37.2926C16.2437 37.2945 15.6764 37.4295 13.0674 37.8682L12.4614 34.6985C13.7996 34.303 15.088 33.7001 16.2202 32.9062C16.4924 32.7148 16.6098 32.3865 16.5478 32.0801C16.8135 28.6149 16.9396 28.6549 16.7223 28.2794C16.6633 28.1268 16.5714 27.9856 16.424 27.8893L13.309 25.8554C13.9368 24.885 14.3672 24.0422 15.2388 22.7215Z" fill="black"/>
<path d="M19.9354 34.5218C21.1217 37.8914 24.8057 40.3005 28.4928 40.0191C32.1547 39.7394 35.427 36.8508 36.1059 33.3014C36.8169 29.6495 34.9794 25.8647 31.7366 24.3022C31.617 24.2469 31.6398 24.2663 30.4449 23.8841C27.4767 23.1736 25.5135 23.466 23.2019 24.9641C20.0378 27.0024 18.7809 31.148 19.9354 34.5218ZM24.0819 26.326C26.0181 25.0718 27.5284 24.8522 30.0094 25.4455L31.0821 25.7876C33.6006 27.0313 35.0744 30.1183 34.5138 32.9931C34.5138 32.9942 34.5138 32.9952 34.5133 32.9963C33.8048 36.7064 29.5298 39.6766 25.2506 37.8601C25.1292 37.7792 23.7347 37.249 22.6857 36.0178C21.8064 35.0319 21.2577 33.8556 21.1733 32.5318C21.1707 32.4916 21.1649 32.4526 21.1559 32.4125C20.9959 30.1158 22.0108 27.6608 24.0819 26.326Z" fill="black"/>
</svg>
