<svg width="71" height="70" viewBox="0 0 71 70" fill="none" xmlns="http://www.w3.org/2000/svg">
<path d="M63.1447 44.7421H50.5158V37.1648C50.5158 35.1551 49.7174 33.2278 48.2964 31.8068C46.8754 30.3857 44.948 29.5874 42.9384 29.5874H27.7837C25.774 29.5874 23.8467 30.3857 22.4257 31.8068C21.0046 33.2278 20.2063 35.1551 20.2063 37.1648V47.2679H7.57736C5.56772 47.2679 3.64039 48.0662 2.21936 49.4873C0.798327 50.9083 0 52.8356 0 54.8453V62.4226C0 64.4323 0.798327 66.3596 2.21936 67.7806C3.64039 69.2017 5.56772 70 7.57736 70H63.1447C65.1543 70 67.0817 69.2017 68.5027 67.7806C69.9237 66.3596 70.7221 64.4323 70.7221 62.4226V52.3195C70.7221 50.3098 69.9237 48.3825 68.5027 46.9615C67.0817 45.5405 65.1543 44.7421 63.1447 44.7421ZM5.05158 62.4226V54.8453C5.05158 54.1754 5.31768 53.533 5.79136 53.0593C6.26504 52.5856 6.90748 52.3195 7.57736 52.3195H20.2063V64.9484H7.57736C6.90748 64.9484 6.26504 64.6823 5.79136 64.2086C5.31768 63.735 5.05158 63.0925 5.05158 62.4226ZM25.2579 37.1648C25.2579 36.4949 25.524 35.8524 25.9977 35.3788C26.4713 34.9051 27.1138 34.639 27.7837 34.639H42.9384C43.6083 34.639 44.2507 34.9051 44.7244 35.3788C45.1981 35.8524 45.4642 36.4949 45.4642 37.1648V64.9484H25.2579V37.1648ZM65.6705 62.4226C65.6705 63.0925 65.4044 63.735 64.9307 64.2086C64.457 64.6823 63.8146 64.9484 63.1447 64.9484H50.5158V49.7937H63.1447C63.8146 49.7937 64.457 50.0598 64.9307 50.5335C65.4044 51.0072 65.6705 51.6496 65.6705 52.3195V62.4226Z" fill="#1B1C1D"/>
<path d="M47.2597 8.91887C47.1477 8.58934 46.947 8.29708 46.6796 8.07426C46.4123 7.85145 46.0886 7.70671 45.7443 7.65598L39.7632 6.74417L37.0758 1.00053C36.9041 0.696853 36.6548 0.444207 36.3535 0.268418C36.0522 0.0926287 35.7096 0 35.3607 0C35.0119 0 34.6693 0.0926287 34.368 0.268418C34.0667 0.444207 33.8174 0.696853 33.6457 1.00053L30.9532 6.73659L24.9722 7.6484C24.6279 7.70088 24.3047 7.84725 24.0382 8.07142C23.7717 8.29559 23.5722 8.58889 23.4615 8.91909C23.3508 9.24929 23.3333 9.60361 23.4109 9.94312C23.4885 10.2826 23.6581 10.5942 23.9012 10.8435L28.2885 15.3369L27.2504 21.7044C27.1954 22.054 27.2391 22.412 27.3769 22.7379C27.5146 23.0639 27.7408 23.3449 28.0298 23.549C28.3188 23.7532 28.6592 23.8724 29.0125 23.8933C29.3657 23.9141 29.7178 23.8357 30.0288 23.667L35.3607 20.7244L40.6851 23.667C40.9961 23.8357 41.3482 23.9141 41.7014 23.8933C42.0547 23.8724 42.3951 23.7532 42.6841 23.549C42.9732 23.3449 43.1993 23.0639 43.337 22.7379C43.4748 22.412 43.5186 22.054 43.4635 21.7044L42.4329 15.3369L46.8177 10.8435C47.0615 10.5945 47.2318 10.2831 47.3098 9.94345C47.3878 9.60383 47.3705 9.24927 47.2597 8.91887Z" fill="#FF9966"/>
</svg>
