<svg width="52" height="59" viewBox="0 0 52 59" fill="none" xmlns="http://www.w3.org/2000/svg">
<path d="M23.9837 1.91177C24.4082 1.91177 24.6204 2.1238 25.0449 2.33584C22.498 3.396 19.951 6.15243 18.6776 12.0893L14.0082 13.3615C15.4939 9.12089 18.4653 1.91177 23.9837 1.91177ZM26.3184 4.0321C26.7429 5.3043 27.1673 6.78853 27.1673 9.12089C27.1673 9.33292 27.1673 9.33292 27.1673 9.54496L21.0122 11.2412C22.2857 6.78853 24.4082 4.88023 26.3184 4.0321ZM31.8367 7.84869L29.0775 8.69682C29.0775 8.48479 29.0775 8.27276 29.0775 8.06073C29.0775 6.15243 28.8653 4.6682 28.4408 3.396C29.9265 3.82007 31.2 5.72836 31.8367 7.84869ZM45.6327 11.2412C45.6327 11.0292 45.4204 10.8172 45.2082 10.8172C44.7837 10.8172 40.3265 10.3931 40.3265 10.3931C40.3265 10.3931 37.1429 7.21259 36.7184 7.00056C36.2939 6.57649 35.6571 6.78853 35.4449 6.78853C35.4449 6.78853 34.8082 7.00056 33.7469 7.42463C32.6857 4.45617 30.7755 1.69974 27.5918 1.69974H27.3796C26.5306 0.427541 25.2571 0.0034758 24.1959 0.0034758C16.5551 -0.208557 12.9469 9.33292 11.6735 14.2097C9.97551 14.6337 8.27755 15.2698 6.36735 15.9059C4.66939 16.33 4.66939 16.542 4.45714 18.0263C4.2449 19.0864 0 52.5876 0 52.5876L33.7469 58.9486L52 54.92C52 54.92 45.6327 11.6653 45.6327 11.2412Z" fill="#8DB849"/>
<path d="M44.9951 10.8167C44.7828 10.8167 40.3257 10.3926 40.3257 10.3926C40.3257 10.3926 37.142 7.21215 36.7175 7.00012C36.5053 6.78809 36.5053 6.78809 36.293 6.78809L33.7461 58.9482L51.9992 54.9195C51.9992 54.9195 45.6318 11.6648 45.6318 11.2408C45.6318 11.0287 45.2073 10.8167 44.9951 10.8167Z" fill="#5A863E"/>
<path d="M27.5913 20.9943L25.2566 27.7794C25.2566 27.7794 23.3464 26.7192 20.7995 26.7192C17.1913 26.7192 16.9791 28.8395 16.9791 29.4756C16.9791 32.4441 25.0444 33.7163 25.0444 40.9254C25.0444 46.6503 21.4362 50.2549 16.5546 50.2549C10.824 50.2549 7.85254 46.6503 7.85254 46.6503L9.33825 41.5615C9.33825 41.5615 12.3097 44.1059 14.8566 44.1059C16.5546 44.1059 17.1913 42.8337 17.1913 41.7736C17.1913 37.7449 10.6117 37.5329 10.6117 30.9599C10.6117 25.447 14.6444 20.1462 22.4974 20.1462C26.1056 19.9342 27.5913 20.9943 27.5913 20.9943Z" fill="#FFFFFE"/>
</svg>
