<svg width="99" height="31" viewBox="0 0 99 31" fill="none" xmlns="http://www.w3.org/2000/svg">
<path d="M69.0158 7.88086H66.9229L66.9324 23.6429H75.4101V21.6933H69.0255L69.0158 7.88086Z" fill="#0A102F"/>
<path d="M83.5636 20.8438C83.2265 21.1938 82.8219 21.4719 82.3741 21.6609C81.9265 21.8499 81.445 21.9461 80.9591 21.9434C79.3579 21.9434 78.7115 21.1525 78.7115 20.1203C78.7115 18.5673 79.7919 17.8245 82.0878 17.8245C82.585 17.8265 83.0816 17.8651 83.5731 17.9403V20.8438H83.5636ZM81.3835 11.3423C79.7488 11.3372 78.1643 11.9076 76.9077 12.9532L77.6505 14.2458C78.5089 13.7442 79.5604 13.2426 81.0749 13.2426C82.8015 13.2426 83.5636 14.13 83.5636 15.6155V16.3776C83.0817 16.302 82.5947 16.2634 82.107 16.2619C78.4221 16.2619 76.5508 17.5544 76.5508 20.2554C76.5508 22.6766 78.0363 23.8919 80.2838 23.8919C81.7983 23.8919 83.2549 23.1974 83.7565 22.0689L84.1423 23.6025H85.6278V15.577C85.6182 13.04 84.5185 11.3423 81.3835 11.3423Z" fill="#0A102F"/>
<path d="M92.4125 22.0142C91.6215 22.0142 90.927 21.9177 90.4061 21.6765V14.4323C91.1199 13.8342 92.0073 13.4001 93.136 13.4001C95.1713 13.4001 95.9527 14.8374 95.9527 17.1622C95.9527 20.4612 94.6889 22.0142 92.4125 22.0142ZM93.2999 11.3455C92.7542 11.3422 92.214 11.4549 91.7151 11.676C91.2162 11.8972 90.77 12.2219 90.4061 12.6285V10.6009L90.3964 7.91919H88.3418L88.3515 23.2084C89.3836 23.6424 90.7919 23.8739 92.3257 23.8739C96.2517 23.8739 98.1423 21.3659 98.1423 17.0349C98.1327 13.6105 96.3867 11.3436 93.2999 11.3436" fill="#0A102F"/>
<path d="M46.1383 9.61919C48 9.61919 49.2058 10.2366 49.9871 10.8635L50.8938 9.29122C49.6687 8.21091 48.0097 7.63208 46.2348 7.63208C41.759 7.63208 38.624 10.3619 38.624 15.8699C38.624 21.6382 42.0097 23.8858 45.8778 23.8858C47.4782 23.8895 49.064 23.5816 50.5466 22.9791L50.4983 16.8152V14.8763H44.7551V16.8152H48.4206L48.4688 21.4936C47.9866 21.7347 47.157 21.9277 46.0283 21.9277C42.9223 21.9277 40.8387 19.9695 40.8387 15.8507C40.8291 11.6546 42.9802 9.61919 46.1344 9.61919" fill="#0A102F"/>
<path d="M60.9471 7.91626H58.8926L58.9022 10.5496V19.6459C58.9022 22.1829 60.0019 23.8805 63.1368 23.8805C63.5608 23.8816 63.9838 23.843 64.4004 23.7649V21.9224C64.0845 21.9703 63.7651 21.9929 63.4455 21.99C61.7188 21.99 60.9568 21.1025 60.9568 19.617V13.347H64.4004V11.63H60.9597L60.95 7.91626H60.9471Z" fill="#0A102F"/>
<path d="M53.8887 23.643H55.7074V11.5183H53.8887V23.643Z" fill="#0A102F"/>
<path d="M53.8887 10.0027H55.7074V7.88086H53.8887V10.0027Z" fill="#0A102F"/>
<path d="M32.5055 17.914L30.6815 12.3076L27.0718 1.1876C27.0304 1.06354 26.9508 0.955677 26.8446 0.879255C26.7384 0.802833 26.611 0.761719 26.4802 0.761719C26.3492 0.761719 26.2218 0.802833 26.1156 0.879255C26.0094 0.955677 25.9298 1.06354 25.8884 1.1876L22.2807 12.301H10.2866L6.67708 1.1876C6.6355 1.06354 6.55608 0.955677 6.44987 0.879255C6.34366 0.802833 6.2161 0.761719 6.08528 0.761719C5.95445 0.761719 5.8269 0.802833 5.72069 0.879255C5.61448 0.955677 5.53506 1.06354 5.49347 1.1876L1.89063 12.301L0.0656073 17.914C-0.0152763 18.1632 -0.0153603 18.4317 0.0653656 18.681C0.146079 18.9301 0.303493 19.1476 0.515117 19.3021L16.2827 30.7617L32.0502 19.3021C32.2628 19.1482 32.4212 18.9312 32.5031 18.6819C32.5848 18.4326 32.5856 18.1638 32.5055 17.914Z" fill="#FC6D26"/>
<path d="M16.2851 30.7507L22.2793 12.2996H10.2891L16.2851 30.7507Z" fill="#E24329"/>
<path d="M16.2808 30.7517L10.2848 12.2996H1.89258L16.2808 30.7517Z" fill="#FC6D26"/>
<path d="M1.88576 12.3069L0.0607244 17.9132C-0.0201591 18.1625 -0.0202431 18.4308 0.0604828 18.6801C0.141209 18.9294 0.29861 19.1468 0.510234 19.3012L16.2778 30.7618L1.88576 12.3069Z" fill="#FCA326"/>
<path d="M1.8877 12.3067H10.2904L6.67414 1.19347C6.63256 1.06941 6.55314 0.961536 6.44693 0.885115C6.34072 0.808693 6.21316 0.767578 6.08234 0.767578C5.95151 0.767578 5.82396 0.808693 5.71775 0.885115C5.61166 0.961536 5.53212 1.06941 5.49053 1.19347L1.8877 12.3067Z" fill="#E24329"/>
<path d="M16.2852 30.7517L22.2793 12.2996H30.6811L16.2852 30.7517Z" fill="#FC6D26"/>
<path d="M30.6772 12.3069L32.5032 17.9132C32.5841 18.1625 32.5842 18.4308 32.5035 18.6801C32.4228 18.9294 32.2653 19.1468 32.0537 19.3012L16.2852 30.7513L30.6772 12.3069Z" fill="#FCA326"/>
<path d="M30.683 12.3067H22.2793L25.8889 1.19347C25.9304 1.06941 26.0099 0.961536 26.1161 0.885115C26.2224 0.808693 26.3498 0.767578 26.4806 0.767578C26.6114 0.767578 26.739 0.808693 26.8452 0.885115C26.9514 0.961536 27.0309 1.06941 27.0724 1.19347L30.683 12.3067Z" fill="#E24329"/>
</svg>
