<svg width="40" height="44" viewBox="0 0 40 44" fill="none" xmlns="http://www.w3.org/2000/svg">
<path d="M29.2314 0H10.7698C9.54688 0.00365245 8.37506 0.491088 7.5103 1.35585C6.64554 2.22061 6.1581 3.39243 6.15445 4.61538V24.9231L15.7391 31.3077C16.9968 32.16 18.4813 32.6155 20.0006 32.6155C21.5199 32.6155 23.0044 32.16 24.2621 31.3077L33.8468 24.9231V4.61538C33.8431 3.39243 33.3557 2.22061 32.4909 1.35585C31.6261 0.491088 30.4543 0.00365245 29.2314 0ZM13.8468 6.15384H26.1544C26.5625 6.15384 26.9538 6.31593 27.2423 6.60445C27.5308 6.89297 27.6929 7.28428 27.6929 7.69231C27.6929 8.10033 27.5308 8.49164 27.2423 8.78016C26.9538 9.06868 26.5625 9.23077 26.1544 9.23077H13.8468C13.4387 9.23077 13.0474 9.06868 12.7589 8.78016C12.4704 8.49164 12.3083 8.10033 12.3083 7.69231C12.3083 7.28428 12.4704 6.89297 12.7589 6.60445C13.0474 6.31593 13.4387 6.15384 13.8468 6.15384ZM13.8468 12.3077H26.1544C26.5625 12.3077 26.9538 12.4698 27.2423 12.7583C27.5308 13.0468 27.6929 13.4381 27.6929 13.8462C27.6929 14.2542 27.5308 14.6455 27.2423 14.934C26.9538 15.2225 26.5625 15.3846 26.1544 15.3846H13.8468C13.4387 15.3846 13.0474 15.2225 12.7589 14.934C12.4704 14.6455 12.3083 14.2542 12.3083 13.8462C12.3083 13.4381 12.4704 13.0468 12.7589 12.7583C13.0474 12.4698 13.4387 12.3077 13.8468 12.3077ZM13.8468 18.4615H21.5391C21.9471 18.4615 22.3384 18.6236 22.6269 18.9121C22.9154 19.2007 23.0775 19.592 23.0775 20C23.0775 20.408 22.9154 20.7993 22.6269 21.0879C22.3384 21.3764 21.9471 21.5385 21.5391 21.5385H13.8468C13.4387 21.5385 13.0474 21.3764 12.7589 21.0879C12.4704 20.7993 12.3083 20.408 12.3083 20C12.3083 19.592 12.4704 19.2007 12.7589 18.9121C13.0474 18.6236 13.4387 18.4615 13.8468 18.4615Z" fill="#E9FF97"/>
<path d="M39.6615 19.0462L33.8461 11.7847V16.6924L36.2154 19.6462L33.8461 21.2308L22.5538 28.7539C21.7975 29.258 20.9089 29.527 20 29.527C19.0911 29.527 18.2025 29.258 17.4462 28.7539L6.15385 21.2308L3.78462 19.6462L6.15385 16.6924V11.7847L0.338466 19.0462C0.118772 19.3155 -0.000833595 19.6525 4.3734e-06 20.0001V38.4616C0.00365682 39.6845 0.491092 40.8564 1.35585 41.7211C2.22062 42.5859 3.39244 43.0733 4.61539 43.077H35.3846C36.6076 43.0733 37.7794 42.5859 38.6441 41.7211C39.5089 40.8564 39.9963 39.6845 40 38.4616V20.0001C40.0008 19.6525 39.8812 19.3155 39.6615 19.0462ZM36.9231 38.4616C36.9231 38.8696 36.761 39.2609 36.4725 39.5494C36.184 39.838 35.7926 40 35.3846 40H4.61539C4.20736 40 3.81605 39.838 3.52753 39.5494C3.23901 39.2609 3.07693 38.8696 3.07693 38.4616V22.877L6.15385 24.9231L15.7385 31.3077C16.9962 32.16 18.4807 32.6156 20 32.6156C21.5193 32.6156 23.0038 32.16 24.2615 31.3077L33.8461 24.9231L36.9231 22.877V38.4616Z" fill="white"/>
</svg>
