<svg width="36" height="35" viewBox="0 0 36 35" fill="none" xmlns="http://www.w3.org/2000/svg">
<path d="M23.7944 18.6954L35.6304 25.5994L30.5779 27.0453L34.189 33.3004L31.2454 35L27.6341 28.7449L23.8554 32.3978L23.7944 18.6954ZM20.3952 6.79833H23.7944V10.1975H32.2923C33.231 10.1975 33.9919 10.9584 33.9919 11.8971V18.6954H30.5927V13.5967H13.5969V30.5925H20.3952V33.9916H11.8973C10.9587 33.9916 10.1977 33.2307 10.1977 32.2921V23.7941H6.79857V20.395H10.1977V11.8971C10.1977 10.9584 10.9587 10.1975 11.8973 10.1975H20.3952V6.79833ZM3.39941 20.395V23.7941H0.000244141V20.395H3.39941ZM3.39941 13.5967V16.9958H0.000244141V13.5967H3.39941ZM3.39941 6.79833V10.1975H0.000244141V6.79833H3.39941ZM3.39941 0V3.39916H0.000244141V0H3.39941ZM10.1977 0V3.39916H6.79857V0H10.1977ZM16.9961 0V3.39916H13.5969V0H16.9961ZM23.7944 0V3.39916H20.3952V0H23.7944Z" fill="#7949F6"/>
</svg>
