<svg width="75" height="70" viewBox="0 0 75 70" fill="none" xmlns="http://www.w3.org/2000/svg">
<path d="M56.5267 42.0171V44.0951C56.5267 44.1582 56.5499 44.2135 56.5626 44.2728C55.6209 44.4697 54.7656 44.8648 54.0783 45.4528C52.315 46.9616 51.9628 49.7258 53.3251 51.3664C55.161 53.5812 58.7103 52.8407 60.1238 54.4011C60.7827 55.1282 60.8372 56.3939 60.2476 57.2823C59.0887 59.0252 56.2003 59.1865 54.2726 56.971C53.9556 56.6075 53.4057 56.57 53.041 56.887C52.6786 57.2039 52.64 57.755 52.9569 58.1185C53.9501 59.2572 55.2631 59.9889 56.6256 60.2392V61.7133C56.6256 62.195 57.0164 62.5859 57.4981 62.5859C57.9798 62.5859 58.3707 62.195 58.3707 61.7133V60.2921C62.2088 59.6994 63.5141 55.5443 61.4167 53.2286C59.5175 51.1308 55.9842 51.8383 54.668 50.253C53.8329 49.2464 54.2669 47.5887 55.2133 46.7787C56.1995 45.9345 57.8071 45.655 59.4057 46.0538C59.8727 46.172 60.3464 45.8868 60.4635 45.4187C60.5805 44.9506 60.2953 44.478 59.8284 44.361C59.302 44.2294 58.7774 44.1563 58.2638 44.1349C58.2775 43.8368 58.2698 42.5914 58.2718 42.0171C58.2718 41.5354 57.881 41.1445 57.3993 41.1445C56.9175 41.1445 56.5267 41.5354 56.5267 42.0171Z" fill="black"/>
<path d="M1.55068 9.23146C0.481712 21.3328 -0.185702 33.4819 0.0458584 45.628C0.22443 54.9994 2.52876 58.7648 13.9287 60.9664C23.2996 62.7763 31.8777 63.0555 42.0825 61.207C43.2481 63.327 45.0259 65.2454 46.8746 66.6841C48.9148 68.272 50.8009 69.2344 53.3456 69.6906C58.7783 70.6645 64.7063 69.3424 68.8346 65.6791C72.3028 62.6019 74.7162 57.5476 74.4233 52.887C75.1336 42.408 66.211 34.1152 56.0143 35.2736C56.0168 -2.44729 55.601 15.1937 56.0109 10.5017C56.3528 6.84129 53.9561 5.09567 50.5699 3.59164C36.6706 -2.45726 10.211 -0.360914 3.38918 6.1207C2.73035 6.68743 1.94087 7.77712 1.71699 8.87798L1.55068 9.23146ZM54.2692 25.1179C37.1784 32.4171 19.1996 32.4036 3.58005 25.0401V13.2651C7.58191 16.832 17.5049 19.175 29.0161 19.175C39.7833 19.175 49.97 16.4039 54.2374 12.5774C54.2969 15.6455 54.2563 18.9613 54.2692 25.1179ZM40.4709 56.1835C40.4681 56.1838 40.4655 56.1845 40.4627 56.1849C28.957 58.0698 12.8317 57.4142 7.16345 53.4366C5.43765 52.2221 3.58005 49.943 3.58005 47.807V41.8905C11.4565 44.617 19.7239 46.0017 28.0288 46.0017C32.7435 46.0017 37.4702 45.5449 42.1402 44.6546C40.3856 48.1906 39.8338 52.2777 40.4709 56.1835ZM43.3107 42.666C30.5732 45.4024 16.6215 44.6685 3.66413 40.0812C3.63643 40.0713 3.6081 40.0761 3.58005 40.0693V26.9448C11.4493 30.5254 19.8727 32.3304 28.4753 32.3304C37.0293 32.3304 45.7526 30.5392 54.2692 27.0019V35.569C49.3915 36.603 45.5306 39.4538 43.3107 42.666ZM72.5384 49.3817C73.8506 57.479 68.3369 65.1355 60.2464 66.4477C54.418 67.3964 48.4044 64.6663 45.2675 59.6661C42.4714 55.2079 42.0329 49.4874 44.1484 45.0905C46.1935 40.8402 50.3256 37.9237 55.4849 37.0875C63.6089 35.7697 71.2244 41.2866 72.5384 49.3817ZM4.56168 7.4125C10.815 1.47424 36.5535 -0.604428 49.8677 5.18906C52.1061 6.18319 54.2947 7.3616 54.2999 9.78704C52.3718 13.4829 41.7738 17.4299 29.0161 17.4299C17.5115 17.4299 7.04189 14.8679 4.11063 11.3231C3.71495 10.8658 3.38463 10.2344 3.38463 9.62343C3.38463 8.81519 3.99988 7.90363 4.56168 7.4125Z" fill="black"/>
<path d="M62.7711 19.0989C62.3348 18.9068 61.8167 19.1034 61.6213 19.5465L59.1798 25.0943C58.9855 25.5363 59.1854 26.0509 59.6263 26.2452C60.0733 26.4399 60.5838 26.2356 60.7772 25.7987L63.2187 20.2486C63.413 19.8078 63.2119 19.2931 62.7711 19.0989Z" fill="black"/>
<path d="M63.6513 28.0382L68.3811 23.6322C68.7333 23.3039 68.7526 22.7517 68.4243 22.3983C68.0936 22.045 67.5415 22.0268 67.1904 22.3552L62.4629 26.7611C62.1096 27.0895 62.0903 27.6417 62.4186 27.9939C62.75 28.3516 63.3058 28.3625 63.6513 28.0382Z" fill="black"/>
<path d="M65.5929 31.6838L69.9966 31.1941C70.4761 31.1407 70.8203 30.709 70.7669 30.2307C70.7147 29.7512 70.2932 29.4138 69.8035 29.4603L65.3998 29.95C64.9203 30.0034 64.5761 30.4352 64.6295 30.9135C64.6801 31.3757 65.0917 31.7356 65.5929 31.6838Z" fill="black"/>
</svg>
