<svg width="40" height="40" viewBox="0 0 40 40" fill="none" xmlns="http://www.w3.org/2000/svg">
<path d="M35.7143 40H4.28571C3.14907 40 2.05898 39.5485 1.25526 38.7447C0.451529 37.941 0 36.8509 0 35.7143V4.28571C0 3.14907 0.451529 2.05898 1.25526 1.25526C2.05898 0.451529 3.14907 0 4.28571 0H35.7143C36.8509 0 37.941 0.451529 38.7447 1.25526C39.5485 2.05898 40 3.14907 40 4.28571V35.7143C40 36.8509 39.5485 37.941 38.7447 38.7447C37.941 39.5485 36.8509 40 35.7143 40ZM4.28571 2.85714C3.90683 2.85714 3.54347 3.00765 3.27556 3.27556C3.00765 3.54347 2.85714 3.90683 2.85714 4.28571V35.7143C2.85714 36.0932 3.00765 36.4565 3.27556 36.7244C3.54347 36.9923 3.90683 37.1429 4.28571 37.1429H35.7143C36.0932 37.1429 36.4565 36.9923 36.7244 36.7244C36.9923 36.4565 37.1429 36.0932 37.1429 35.7143V4.28571C37.1429 3.90683 36.9923 3.54347 36.7244 3.27556C36.4565 3.00765 36.0932 2.85714 35.7143 2.85714H4.28571Z" fill="white"/>
<path d="M30.0008 8.57129H10.0008C9.62196 8.57129 9.25859 8.7218 8.99068 8.98971C8.72278 9.25762 8.57227 9.62098 8.57227 9.99986V12.857C8.57227 13.2359 8.72278 13.5992 8.99068 13.8672C9.25859 14.1351 9.62196 14.2856 10.0008 14.2856C10.3797 14.2856 10.7431 14.1351 11.011 13.8672C11.2789 13.5992 11.4294 13.2359 11.4294 12.857V11.4284H18.5723V28.5713H17.1437C16.7648 28.5713 16.4015 28.7218 16.1335 28.9897C15.8656 29.2576 15.7151 29.621 15.7151 29.9999C15.7151 30.3787 15.8656 30.7421 16.1335 31.01C16.4015 31.2779 16.7648 31.4284 17.1437 31.4284H22.858C23.2369 31.4284 23.6002 31.2779 23.8681 31.01C24.136 30.7421 24.2866 30.3787 24.2866 29.9999C24.2866 29.621 24.136 29.2576 23.8681 28.9897C23.6002 28.7218 23.2369 28.5713 22.858 28.5713H21.4294V11.4284H28.5723V12.857C28.5723 13.2359 28.7228 13.5992 28.9907 13.8672C29.2586 14.1351 29.622 14.2856 30.0008 14.2856C30.3797 14.2856 30.7431 14.1351 31.011 13.8672C31.2789 13.5992 31.4294 13.2359 31.4294 12.857V9.99986C31.4294 9.62098 31.2789 9.25762 31.011 8.98971C30.7431 8.7218 30.3797 8.57129 30.0008 8.57129Z" fill="#E9FF97"/>
</svg>
