<svg width="37" height="35" viewBox="0 0 37 35" fill="none" xmlns="http://www.w3.org/2000/svg">
<path fill-rule="evenodd" clip-rule="evenodd" d="M13.842 0.196531C11.767 0.445533 11.8222 0.334862 11.8222 4.29123V7.83259L9.83028 7.03026C5.51425 5.34258 4.85013 5.75758 2.24945 11.872C1.08744 14.5833 1.05983 14.528 3.96485 15.9943L6.34423 17.184C6.34423 17.184 0.866184 21.5277 0.949185 21.4447C0.312847 22.0257 0.202206 22.9664 0.70021 23.658C4.85024 29.6341 8.80661 31.2941 11.9053 28.3891L12.6799 27.6697L12.7353 29.1638C12.763 29.9938 12.7629 31.3218 12.7076 32.0965C12.5693 34.9185 15.5849 35.5548 24.3 34.5588C26.9284 34.2545 26.7624 34.4758 26.5687 31.3218L26.4027 28.5274L27.205 28.9424C30.0547 30.4088 31.106 29.9108 34.2324 25.7884C37.4141 21.583 37.3034 21.998 35.588 20.5594C33.5684 18.844 31.2168 17.018 30.8294 16.8797C32.3511 15.2196 35.1455 12.0933 35.1455 12.0933C35.5328 11.706 35.7264 11.1803 35.7264 10.6546C35.7264 10.1289 35.4774 9.60328 35.0901 9.24361C30.4697 5.01057 27.8414 4.04223 25.5727 5.78525L24.3 6.75359C24.3 6.75359 24.217 1.93954 24.1894 1.63521C24.0787 0.390198 18.6284 -0.384474 13.842 0.196531ZM22.5846 11.789C23.8296 11.5953 25.2961 10.7929 26.8454 9.4096C28.4778 7.94326 28.4501 7.94326 30.0271 9.24361C30.7188 9.82461 31.4103 10.3779 31.5763 10.4886C31.77 10.627 31.5764 10.959 31.0507 11.4293C25.9323 15.8837 24.5767 17.8757 26.624 17.8757C26.9837 17.8757 31.7978 21.7767 31.7978 21.7767L28.5884 26.4247L27.7307 25.8991C22.2526 22.5514 20.731 23.077 22.0037 27.8911C23.0551 31.8751 23.1103 32.5115 22.225 32.5115C21.8653 32.5115 17.411 32.8711 17.411 32.8711L17.245 29.5788C17.079 26.0097 17.3279 19.176 10.8262 24.8754C8.94483 26.5354 8.69589 26.9227 7.83821 26.0097C7.58921 25.7331 5.43114 23.1047 5.43114 23.1047C5.43114 23.1047 8.69591 20.4487 9.38759 19.9507C12.6799 17.7097 12.2372 17.4607 8.39155 15.4687C6.92521 14.694 5.65258 14.0023 5.54192 13.8916C5.43125 13.781 7.92116 9.02227 7.92116 9.02227L10.5495 10.3779C14.2569 12.3146 16.3596 12.5913 15.9446 10.1843C15.6679 8.52427 15.6679 2.43755 15.6679 2.43755L20.2329 2.38221C20.2329 2.38221 19.7073 7.36226 19.9563 9.90761C20.1223 11.0143 20.3159 12.121 22.5846 11.789Z" fill="#FFD372"/>
</svg>
