<svg width="98" height="90" viewBox="0 0 98 90" fill="none" xmlns="http://www.w3.org/2000/svg">
<path d="M30.1767 26.6348L25.7969 31.0146C25.1183 31.6931 24.6914 32.5787 24.5832 33.5322C23.0059 47.4303 21.1902 61.4233 19.6304 75.3144C19.3874 77.4777 19.5072 79.9435 20.8362 81.6675C21.4754 82.4966 23.9484 83.3443 26.1376 83.5609C44.796 85.4069 63.8911 87.5633 82.5496 89.4094C84.2868 89.5813 86.0868 89.7466 87.7395 89.1844C90.5178 88.2394 93.0874 84.9275 92.5303 82.0462C91.3809 83.7596 88.6066 84.8752 86.5662 85.181C84.5257 85.4868 82.4478 85.223 80.4016 84.9591C61.7656 82.5554 43.1297 80.1518 24.4938 77.7482C25.8585 60.6616 27.8793 43.6211 30.1767 26.6348V26.6348Z" fill="#3147FF"/>
<path d="M3.25063 12.9751C1.83912 14.988 0.0710464 17.1068 0.0021915 19.5643C-0.118103 23.8577 4.74165 48.0751 7.75245 62.0147C8.14926 63.8518 8.6308 65.8204 10.0536 67.0485C12.0127 68.7395 14.9465 68.3962 17.4966 67.9551C19.4965 67.6093 21.7663 67.0774 22.7241 65.2879C23.5925 63.6654 23.0891 61.4391 24.3249 60.0754C20.7123 62.1322 16.4774 63.0786 12.3329 62.7552C9.2856 46.1771 6.29796 29.5532 3.25063 12.9751V12.9751Z" fill="#3147FF"/>
<path d="M60.7895 59.8256C57.2376 59.8256 53.9355 57.5756 52.9106 54.1762C52.3279 52.2415 52.5541 50.211 53.5465 48.456C54.5934 46.6053 56.3491 45.2865 58.4901 44.7443C62.7485 43.6671 67.2118 46.0852 68.4341 50.1373C69.0168 52.072 68.7907 54.1025 67.7975 55.8575C66.7506 57.7082 64.9949 59.0255 62.8532 59.5678C62.1658 59.7431 61.4732 59.8256 60.7895 59.8256V59.8256ZM60.5677 46.7482C60.0645 46.7482 59.5532 46.8087 59.0463 46.9368C57.5102 47.3273 56.2563 48.2615 55.5165 49.57C54.8306 50.7827 54.6752 52.1855 55.0782 53.522C55.9542 56.4336 59.1937 58.1591 62.2969 57.3752C63.8345 56.9847 65.0877 56.0505 65.8282 54.7435C66.5141 53.5308 66.6695 52.128 66.2665 50.7915C65.5327 48.3558 63.1456 46.7482 60.5677 46.7482V46.7482Z" fill="#3147FF"/>
<path d="M72.1437 78.2841C72.1061 78.2841 72.0678 78.2826 72.0295 78.2782L70.7018 78.1456L41.5654 75.3194C41.2324 75.2885 40.9311 75.1102 40.7417 74.8346C40.5524 74.5591 40.4949 74.2143 40.584 73.8916C41.7665 69.6184 44.0512 66.3266 47.5685 63.8319C50.9856 61.4036 54.9272 60.3486 58.9646 60.7774C59.3477 60.8216 59.7183 60.8746 60.0867 60.9468C63.4161 61.6025 66.4957 63.3987 68.7583 66.0083C70.1272 67.5864 71.1358 69.4519 71.9322 71.8773C72.3279 73.0812 72.6476 74.3381 72.9408 75.5213C72.9615 75.6038 72.9932 75.7011 73.0263 75.8057C73.1604 76.2256 73.3269 76.7472 73.2665 77.2792C73.2017 77.8568 72.7124 78.2841 72.1437 78.2841V78.2841ZM43.1737 73.202L70.6952 75.872C70.4256 74.7845 70.1316 73.6485 69.7824 72.5846C69.0729 70.4244 68.2293 68.8537 67.0483 67.4907C65.1143 65.2612 62.4878 63.7258 59.652 63.1689C59.3426 63.1084 59.0294 63.0642 58.7148 63.0274C55.2477 62.6605 51.8402 63.5741 48.8784 65.6768C46.1664 67.6012 44.2907 70.0722 43.1737 73.202V73.202Z" fill="#3147FF"/>
<path d="M14.6038 64.5878C13.8288 64.5878 13.0714 64.355 12.4172 63.9041C11.5574 63.3132 10.9827 62.4217 10.7978 61.3932L2.5358 15.5457C2.35161 14.5342 2.57337 13.5071 3.16204 12.6569C3.75218 11.8038 4.63997 11.2328 5.66037 11.0478L66.6018 0.0628303C67.6318 -0.122095 68.6691 0.104089 69.5215 0.70307C70.3673 1.29542 70.928 2.18247 71.1011 3.19993L76.0985 31.2732C76.2083 31.8892 75.7979 32.4771 75.1828 32.5861C74.5713 32.6952 73.9796 32.287 73.8706 31.6711L68.8717 3.5882C68.7988 3.16309 68.5689 2.79914 68.2219 2.55601C67.8675 2.30625 67.4336 2.20826 67.0033 2.29078L6.06264 13.2751C5.63827 13.3517 5.26916 13.5896 5.02308 13.9448C4.77922 14.2977 4.68638 14.7228 4.76301 15.142L13.0257 60.9924C13.1023 61.4227 13.3418 61.794 13.6991 62.0401C14.0572 62.2877 14.4889 62.3761 14.9155 62.295L25.8872 60.2395C26.5002 60.126 27.0926 60.5283 27.2082 61.1442C27.3232 61.7587 26.9187 62.3495 26.3042 62.4645L15.3362 64.5186C15.0916 64.5657 14.847 64.5878 14.6038 64.5878V64.5878Z" fill="#3147FF"/>
<path d="M5.49967 25.1205C4.96258 25.1205 4.4859 24.7366 4.38717 24.1899C4.27666 23.5747 4.68556 22.9861 5.30001 22.8748L71.2499 10.9821C71.8673 10.8746 72.4545 11.2798 72.565 11.895C72.6755 12.5102 72.2666 13.0988 71.6521 13.2101L5.70228 25.1028C5.63376 25.1146 5.56672 25.1205 5.49967 25.1205V25.1205Z" fill="#3147FF"/>
<path d="M9.78913 19.9C9.58874 19.9 9.3876 19.8668 9.19236 19.7976C8.45708 19.5375 7.97009 18.8265 7.95167 17.9874C7.93399 17.1475 8.39004 16.4159 9.11427 16.1241C9.30582 16.0475 9.50696 16.0232 9.70146 16.0541C9.90628 16.0246 10.1199 16.0327 10.3299 16.0799C10.8486 16.1948 11.3098 16.5352 11.564 16.9905C11.9434 17.675 11.838 18.5303 11.2958 19.1713C10.8972 19.6421 10.3454 19.9 9.78913 19.9Z" fill="#3147FF"/>
<path d="M16.8184 18.2734C16.6173 18.2734 16.4162 18.2402 16.2217 18.171C15.4849 17.9102 14.9986 17.1992 14.981 16.36C14.9633 15.5201 15.4201 14.79 16.1443 14.4983C16.3366 14.4202 16.5377 14.3995 16.73 14.4283C16.9363 14.4003 17.15 14.4076 17.3592 14.4541C17.8786 14.5697 18.3398 14.9108 18.5933 15.3669C18.972 16.0477 18.8673 16.903 18.3258 17.544C17.9272 18.0155 17.3754 18.2734 16.8184 18.2734V18.2734Z" fill="#3147FF"/>
<path d="M24.3165 16.628C24.1153 16.628 23.9142 16.5948 23.7197 16.5256C22.9822 16.2633 22.496 15.5523 22.479 14.7124C22.4613 13.874 22.9181 13.1431 23.6423 12.8521C23.8361 12.7733 24.0372 12.7541 24.2281 12.7821C24.4344 12.7527 24.648 12.7608 24.8573 12.8079C25.3767 12.9236 25.8379 13.2647 26.0913 13.7208C26.4707 14.4015 26.3654 15.2569 25.8239 15.8986C25.4253 16.3701 24.8727 16.628 24.3165 16.628Z" fill="#3147FF"/>
<path d="M88.7937 86.0318C88.6655 86.0318 88.5366 86.0259 88.4069 86.0127L26.9167 79.849C25.8793 79.7444 24.9466 79.2419 24.2901 78.4329C23.6337 77.624 23.3338 76.6087 23.4443 75.5743L28.3953 29.2531C28.6222 27.1246 30.5489 25.5656 32.667 25.8066L94.2295 32.3858H94.2302C95.2624 32.4963 96.19 33.0032 96.8406 33.8121C97.4919 34.6211 97.788 35.6349 97.6753 36.6663L92.6521 82.5735C92.4355 84.5509 90.7447 86.0318 88.7937 86.0318V86.0318ZM32.2537 28.0478C31.4374 28.0478 30.7345 28.6644 30.6454 29.4933L25.6944 75.816C25.6487 76.2462 25.7739 76.6691 26.0473 77.0066C26.3214 77.344 26.7104 77.5533 27.1428 77.5975L88.6324 83.7611C89.5194 83.8481 90.3056 83.2042 90.4021 82.3259L95.4253 36.4202C95.4724 35.9914 95.3486 35.5685 95.0775 35.2311C94.8064 34.8937 94.4196 34.683 93.9886 34.6373L32.4268 28.0566C32.3686 28.0507 32.3104 28.0478 32.2537 28.0478V28.0478Z" fill="#3147FF"/>
<path d="M95.5068 46.4343C95.4663 46.4343 95.4257 46.4329 95.3852 46.4284L28.7517 39.307C28.1298 39.2407 27.6804 38.6822 27.7467 38.0604C27.8123 37.4386 28.373 36.9803 28.9918 37.0554L95.6254 44.1769C96.2472 44.2432 96.6966 44.8017 96.6303 45.4235C96.5685 46.0041 96.0778 46.4343 95.5068 46.4343Z" fill="#3147FF"/>
<path d="M34.6547 35.5362C34.2752 35.5362 33.9039 35.4227 33.59 35.1943C32.9579 34.739 32.6905 33.9197 32.9093 33.1093C33.1288 32.2989 33.772 31.7257 34.55 31.6505C34.7519 31.627 34.953 31.6667 35.1284 31.7463C35.3347 31.7758 35.538 31.8436 35.7274 31.9482C36.193 32.2046 36.54 32.6614 36.6557 33.1683C36.8281 33.9315 36.4862 34.7228 35.7856 35.187C35.4327 35.4198 35.0392 35.5362 34.6547 35.5362V35.5362Z" fill="#3147FF"/>
<path d="M41.858 35.9517C41.4786 35.9517 41.1073 35.8382 40.7934 35.6099C40.162 35.156 39.8938 34.3382 40.1119 33.5278C40.33 32.7159 40.9732 32.1412 41.7505 32.0646C41.9582 32.041 42.1586 32.0808 42.3354 32.1618C42.541 32.1928 42.7443 32.2606 42.9329 32.3652C43.3986 32.6216 43.7441 33.0784 43.8591 33.5867C44.0307 34.3485 43.6896 35.1398 42.9882 35.6025C42.6353 35.8353 42.2426 35.9517 41.858 35.9517Z" fill="#3147FF"/>
<path d="M49.5133 36.4778C49.1346 36.4778 48.7655 36.3658 48.4517 36.1389C47.8166 35.6792 47.5491 34.8599 47.7694 34.0495C47.989 33.239 48.6329 32.6673 49.4094 32.5922C49.6157 32.5686 49.8154 32.6084 49.9915 32.6894C50.1963 32.7204 50.3989 32.7882 50.5875 32.8913C51.0524 33.1477 51.3994 33.603 51.5151 34.1099C51.6875 34.8732 51.3464 35.6644 50.6465 36.1271C50.2935 36.3614 49.8986 36.4778 49.5133 36.4778V36.4778Z" fill="#3147FF"/>
<path d="M10.0536 67.0486C12.0127 68.7398 14.9464 68.3963 17.4965 67.9553C18.5252 67.7774 19.6225 67.5466 20.5787 67.1244C20.2567 69.8566 19.935 72.5887 19.6289 75.3145C19.3859 77.4777 19.5057 79.9435 20.8348 81.6675C21.4739 82.4966 23.9469 83.3443 26.1361 83.5609C83.032 89.19 84.56 90.2654 87.738 89.1844C90.2408 88.3331 92.5518 85.5626 92.5828 82.9149C92.6952 82.3607 95.9019 52.8129 97.6765 36.6664C97.7892 35.635 97.4931 34.6212 96.8418 33.8122C96.1912 33.0033 95.2637 32.4964 94.2315 32.3859H94.2307L75.9502 30.4322L71.1025 3.20008C70.7431 1.08774 68.7291 -0.318712 66.6032 0.0629776L5.66176 11.048C4.64135 11.2329 3.75356 11.8039 3.16342 12.6571C2.90574 13.0292 2.73187 13.4387 2.61804 13.8624C1.36049 15.6129 0.0609471 17.4646 0.00219081 19.5645C-0.118084 23.8579 4.74164 48.0753 7.75239 62.0148C8.14922 63.8519 8.63079 65.8205 10.0536 67.0486V67.0486ZM90.4033 82.3261C90.3068 83.2043 89.5206 83.8482 88.6336 83.7613C23.7656 77.0808 26.8573 78.0025 26.0485 77.0067C25.2434 76.0128 25.708 77.3261 29.5881 39.3964L94.3435 46.3171L90.4033 82.3261ZM95.4265 36.4203L94.5898 44.0662L29.8288 37.1449L30.6466 29.4934C30.7357 28.6645 31.4386 28.0479 32.2549 28.0479C32.4354 28.0479 29.0241 27.6966 93.9898 34.6374C94.8889 34.7327 95.5233 35.5395 95.4265 36.4203ZM32.6682 25.8067C30.9696 25.6134 29.4103 26.5869 28.7358 28.0741C26.5183 30.543 24.8408 31.2487 24.5816 33.5322C23.5412 42.6995 22.4005 51.9068 21.2944 61.1003L14.9169 62.2952C14.4903 62.3762 14.0585 62.2878 13.7005 62.0403C13.3432 61.7942 13.1037 61.4229 13.0271 60.9926L6.53251 24.9536L70.6191 13.3969L73.6068 30.1818L32.6682 25.8067ZM5.02446 13.9449C5.27054 13.5898 5.63965 13.3518 6.06402 13.2752C70.4792 1.84313 67.1825 1.82263 68.2233 2.55616C69.1515 3.20651 68.749 3.70467 70.2223 11.168L6.13098 22.7256C4.92342 15.1892 4.36594 14.8979 5.02446 13.9449V13.9449Z" fill="#3147FF"/>
<path d="M67.7991 55.8573C71.141 49.9519 65.2849 43.0258 58.4916 44.7441C54.1038 45.8554 51.6955 50.1368 52.9122 54.176C54.9008 60.7724 64.3791 61.9031 67.7991 55.8573ZM59.0479 46.9367C64.0154 45.6803 68.1593 50.6247 65.8297 54.7433C63.4138 59.0078 56.5093 58.2735 55.0797 53.5218C54.237 50.727 55.9054 47.7355 59.0479 46.9367V46.9367Z" fill="#3147FF"/>
<path d="M71.9345 71.8774C66.5381 55.4436 44.9866 57.9902 40.5863 73.8917C40.3989 74.5699 40.8691 75.2546 41.5677 75.3195C41.7205 75.3344 71.9715 78.2842 72.1459 78.2842C72.7147 78.2842 73.2039 77.8569 73.2687 77.2793C73.3291 76.7473 73.1626 76.2257 73.0286 75.8058C72.7693 74.9878 72.5707 73.8133 71.9345 71.8774V71.8774ZM43.176 73.2021C46.8377 62.9415 59.8514 59.1918 67.0505 67.4908C69.1281 69.8885 69.9229 72.7485 70.6975 75.8721L43.176 73.2021Z" fill="#3147FF"/>
<path d="M11.2978 19.1716C12.4979 17.753 11.333 15.8199 9.70342 16.0544C8.94472 15.9337 7.92715 16.7296 7.95363 17.9876C7.97785 19.091 10.1113 20.573 11.2978 19.1716Z" fill="#3147FF"/>
<path d="M18.3278 17.5441C19.5244 16.1277 18.3736 14.2056 16.732 14.4284C15.9636 14.3136 14.9566 15.1098 14.9829 16.3602C15.0218 18.2065 17.1439 18.9446 18.3278 17.5441Z" fill="#3147FF"/>
<path d="M24.3165 16.6282C25.7289 16.6282 26.8062 15.0035 26.0913 13.7209C25.7382 13.0854 24.9832 12.6744 24.2281 12.7823C23.4545 12.6688 22.4528 13.467 22.479 14.7126C22.5013 15.8174 23.3221 16.6282 24.3165 16.6282V16.6282Z" fill="#3147FF"/>
<path d="M35.7875 35.187C37.3327 34.1633 36.773 31.981 35.1303 31.7463C34.9549 31.6667 34.7538 31.627 34.5519 31.6505C32.8435 31.8156 32.2055 34.1957 33.5919 35.1943C33.9058 35.4227 35.0718 35.6591 35.7875 35.187Z" fill="#3147FF"/>
<path d="M41.8572 35.9518C43.0545 35.9518 44.1377 34.8269 43.8582 33.5868C43.6976 32.8765 43.0941 32.2763 42.3346 32.1619C41.6266 31.8374 40.4367 32.3157 40.1111 33.5279C39.7636 34.8192 40.6542 35.9518 41.8572 35.9518V35.9518Z" fill="#3147FF"/>
<path d="M50.6465 36.1272C51.9163 35.2878 51.8244 33.5735 50.5875 32.8913C50.3989 32.7882 50.1963 32.7204 49.9915 32.6895C49.2806 32.3623 48.0951 32.8474 47.7694 34.0495C47.5491 34.8599 47.8166 35.6792 48.4517 36.139C49.1033 36.6101 49.972 36.5749 50.6465 36.1272V36.1272Z" fill="#3147FF"/>
</svg>
