<svg width="70" height="70" viewBox="0 0 70 70" fill="none" xmlns="http://www.w3.org/2000/svg">
<path d="M62.5 0H7.5C5.51088 0 3.60322 0.790177 2.1967 2.1967C0.790177 3.60322 0 5.51088 0 7.5V62.5C0 64.4891 0.790177 66.3968 2.1967 67.8033C3.60322 69.2098 5.51088 70 7.5 70H62.5C64.4891 70 66.3968 69.2098 67.8033 67.8033C69.2098 66.3968 70 64.4891 70 62.5V7.5C70 5.51088 69.2098 3.60322 67.8033 2.1967C66.3968 0.790177 64.4891 0 62.5 0ZM7.5 5H62.5C63.163 5 63.7989 5.26339 64.2678 5.73223C64.7366 6.20107 65 6.83696 65 7.5V20H5V7.5C5 6.83696 5.26339 6.20107 5.73223 5.73223C6.20107 5.26339 6.83696 5 7.5 5ZM62.5 65H7.5C6.83696 65 6.20107 64.7366 5.73223 64.2678C5.26339 63.7989 5 63.163 5 62.5V25H65V62.5C65 63.163 64.7366 63.7989 64.2678 64.2678C63.7989 64.7366 63.163 65 62.5 65Z" fill="#1B1C1D"/>
<path d="M12.5 15H15C15.663 15 16.2989 14.7366 16.7678 14.2678C17.2366 13.7989 17.5 13.163 17.5 12.5C17.5 11.837 17.2366 11.2011 16.7678 10.7322C16.2989 10.2634 15.663 10 15 10H12.5C11.837 10 11.2011 10.2634 10.7322 10.7322C10.2634 11.2011 10 11.837 10 12.5C10 13.163 10.2634 13.7989 10.7322 14.2678C11.2011 14.7366 11.837 15 12.5 15Z" fill="#1B1C1D"/>
<path d="M25 15H27.5C28.163 15 28.7989 14.7366 29.2678 14.2678C29.7366 13.7989 30 13.163 30 12.5C30 11.837 29.7366 11.2011 29.2678 10.7322C28.7989 10.2634 28.163 10 27.5 10H25C24.337 10 23.7011 10.2634 23.2322 10.7322C22.7634 11.2011 22.5 11.837 22.5 12.5C22.5 13.163 22.7634 13.7989 23.2322 14.2678C23.7011 14.7366 24.337 15 25 15Z" fill="#1B1C1D"/>
<path d="M59.5306 36.0399C59.299 35.7179 58.9941 35.4557 58.6411 35.2749C58.2881 35.094 57.8972 34.9998 57.5006 34.9999H50.0006C49.3549 34.9872 48.7298 35.227 48.2582 35.6681C47.7865 36.1091 47.5055 36.7168 47.4749 37.3618C47.4443 38.0069 47.6665 38.6384 48.0943 39.1222C48.5221 39.6059 49.1216 39.9038 49.7656 39.9524L40.2656 46.7249L29.2656 35.7249C28.7936 35.2565 28.1556 34.9937 27.4906 34.9937C26.8256 34.9937 26.1876 35.2565 25.7156 35.7249L10.7156 50.7249C10.2472 51.1969 9.98437 51.8349 9.98438 52.4999C9.98438 53.1648 10.2472 53.8028 10.7156 54.2749C11.1895 54.7396 11.8268 55 12.4906 55C13.1544 55 13.7917 54.7396 14.2656 54.2749L27.5006 41.0249L38.2256 51.7749C38.6464 52.1919 39.2016 52.4459 39.7922 52.4917C40.3828 52.5375 40.9706 52.3721 41.4506 52.0249L52.7006 43.9899L52.6281 44.2099C52.5243 44.5218 52.483 44.851 52.5065 45.1789C52.5301 45.5067 52.6179 45.8267 52.7651 46.1206C53.0623 46.7142 53.5832 47.1653 54.2131 47.3749C54.843 47.5844 55.5303 47.5351 56.1238 47.2379C56.7174 46.9406 57.1686 46.4198 57.3781 45.7899L59.8781 38.2899C60.0024 37.9141 60.0357 37.5142 59.9753 37.123C59.9149 36.7318 59.7625 36.3606 59.5306 36.0399Z" fill="#FF9966"/>
</svg>
