<svg width="54" height="50" viewBox="0 0 54 50" fill="none" xmlns="http://www.w3.org/2000/svg">
<path d="M2.95989 22.6005C2.13804 22.6005 1.40656 23.0589 1.04864 23.7979C1.00327 23.8916 0.986359 23.9908 0.955502 24.0875C0.131637 25.1767 -0.258588 26.5266 0.185968 28.0312C0.640305 29.569 1.70295 30.8319 2.73802 32.0451C7.22441 37.3035 11.7201 42.5718 16.6979 47.352C18.7094 49.2836 20.8567 50.8403 23.3714 49.4944C23.6852 49.3883 23.9763 49.2184 24.2108 48.9783C31.0942 41.9415 37.4008 33.9222 44.0769 26.3816C45.2917 25.011 44.3259 22.8539 42.4978 22.8539H32.2182C32.2553 16.842 32.6946 10.8635 32.7053 4.64612C32.7084 2.38554 31.0364 0.512663 28.8157 0.290543C24.4102 -0.14966 20.3479 -0.0900917 16.3972 0.472277C16.0396 0.523011 15.7047 0.632746 15.3823 0.766839C13.3912 1.24963 11.7314 2.02529 10.9635 4.35976C9.8594 7.71661 11.2971 10.7316 10.7964 22.6543C10.1265 22.6497 3.64797 22.6052 2.95989 22.6005ZM13.5899 24.224C14.0154 24.224 14.3622 23.8807 14.3653 23.4537C14.4079 17.2929 14.2733 10.8869 14.2673 4.75415C14.2663 3.37802 15.2755 2.19775 16.6152 2.00693C20.4418 1.46374 24.3819 1.4072 28.6617 1.83327C30.0848 1.97563 31.1566 3.18417 31.1545 4.6441C31.1445 10.9758 30.6649 17.4387 30.6649 23.6293C30.6649 24.0574 31.0122 24.4047 31.4403 24.4047H42.4978C42.9937 24.4047 43.2417 24.9859 42.9158 25.3538C36.2255 32.9107 29.9395 40.9023 23.1017 47.894C22.8395 48.1646 22.4626 48.0877 22.2722 47.8748C13.3198 37.9339 6.67132 30.2627 2.51262 25.0731C2.2134 24.6997 2.48151 24.1513 2.95938 24.1513C3.06345 24.152 13.7305 24.224 13.5899 24.224Z" fill="#191919"/>
<path d="M44.6983 20.0428L45.9689 15.6943C46.0885 15.2833 45.8528 14.8532 45.4414 14.7331C45.0335 14.614 44.5998 14.8492 44.4797 15.2601L43.2101 19.6086C43.0899 20.0196 43.3257 20.4497 43.7366 20.5698C44.1472 20.6896 44.578 20.4551 44.6983 20.0428Z" fill="#191919"/>
<path d="M51.6942 18.5452C52.0067 18.2524 52.0224 17.7617 51.7291 17.4497C51.4363 17.1357 50.9456 17.1216 50.6331 17.4144L46.7995 21.0097C46.2892 21.4886 46.6301 22.3505 47.3301 22.3505C47.8781 22.3505 47.7415 22.1489 51.6942 18.5452Z" fill="#191919"/>
<path d="M53.0137 26.7061C53.3949 26.7061 53.7275 26.4244 53.781 26.0367C53.8391 25.6127 53.5428 25.2209 53.1187 25.1624L47.8631 24.4385C47.4345 24.3779 47.0473 24.6767 46.9887 25.1008C46.9307 25.5248 47.227 25.9166 47.651 25.9751L52.9067 26.699C52.943 26.7041 52.9784 26.7061 53.0137 26.7061Z" fill="#191919"/>
</svg>
