<svg width="73" height="70" viewBox="0 0 73 70" fill="none" xmlns="http://www.w3.org/2000/svg">
<path d="M54.625 30.9163V14.583L47.625 16.333L41.7917 20.9997L39.4583 26.2497L38.875 32.083L41.2083 40.2497L47.625 46.6663L58.7083 47.833L66.2917 43.1663L54.625 30.9163Z" fill="#4B2AAD"/>
<path d="M12.1472 31.5148C12.1578 31.5184 12.1686 31.517 12.1793 31.5203C12.5075 33.936 13.2254 36.5758 14.8047 38.845C19.2321 45.2107 30.6589 47.2021 33.296 31.9586C36.5224 31.4483 36.6752 26.8281 34.7364 25.7299C37.3606 16.5876 29.1304 8.96878 21.4624 13.3318C21.5605 12.972 21.6964 12.623 21.8795 12.3032C22.1128 11.8964 21.9724 11.3768 21.5656 11.1447C21.1544 10.9092 20.6381 11.0529 20.4071 11.4586C20.1266 11.9481 19.9189 12.4712 19.7837 13.0128C19.6661 12.9134 19.5494 12.8125 19.4166 12.7332C19.0142 12.4945 18.4935 12.626 18.2525 13.0284C18.0127 13.4308 18.1442 13.9514 18.5477 14.1924C18.6238 14.2377 18.6759 14.3146 18.7403 14.377C14.5471 14.0446 10.4302 18.0093 11.4447 25.1513C10.1484 25.359 9.20334 26.6096 9.37579 28.2283C9.53719 29.714 10.94 31.0903 12.1472 31.5148ZM16.1975 37.8745C14.5768 35.5464 13.762 32.4593 13.6307 28.2255C14.333 26.9284 15.1431 25.3367 15.7288 23.686C20.3982 25.7035 25.1881 25.3563 29.9902 22.6436C30.0172 22.7594 31.5603 29.2678 31.5914 29.3828C31.4157 31.7743 31.1193 34.2531 30.1604 36.5015C27.1698 43.5058 19.9253 43.2342 16.1975 37.8745ZM15.1584 17.2766C16.4352 16.127 18.3034 15.7356 19.7018 16.316C20.0356 16.4586 20.4236 16.3679 20.6646 16.096C22.44 14.0885 25.7928 13.2406 28.3011 14.1615C32.693 15.7775 34.8419 21.3345 32.6952 26.4277C32.1729 24.2844 31.7646 22.9377 31.3996 21.1391C31.2797 20.5559 30.615 20.2721 30.1118 20.5919C25.1959 23.7137 20.312 24.1028 15.5973 21.7526C15.1156 21.513 14.5496 21.774 14.4034 22.2721C14.0997 23.3063 13.6642 24.3476 13.2006 25.3287C12.715 22.4087 12.9597 19.2603 15.1584 17.2766Z" fill="#0A102F"/>
<path d="M40.8489 57.1398C37.5369 48.9891 28.3293 43.9561 20.0156 45.3966C5.58733 47.8986 2.9977 58.8435 0.0766003 65.7479C-0.173442 66.3918 0.19684 67.2116 1.06777 67.3243L1.9008 69.0943C12.4742 69.9613 27.4986 70.0666 39.0954 69.9712C40.4077 69.9604 42.3018 68.9537 42.7835 67.7261C42.8 67.7084 42.8242 67.7013 42.8398 67.6825C43.0918 67.3774 43.1913 66.9816 43.1117 66.5936C42.4697 63.4771 42.0939 60.2048 40.8489 57.1398ZM24.3181 46.9047C24.0113 48.0745 22.4705 48.3816 21.7478 47.8839C21.2444 47.5376 21.0176 47.3016 20.9435 46.999C22.0616 46.8521 23.1904 46.8133 24.3181 46.9047ZM22.6797 51.3152C23.4281 53.3561 24.1285 55.3599 25.0376 57.3764C24.4402 58.2917 23.6453 59.3972 22.9174 60.4064C22.0971 59.5375 20.9773 58.2519 20.3185 57.3134C21.0746 55.4615 21.9033 53.2818 22.6797 51.3152ZM19.279 47.2811C19.5072 48.4146 20.5748 49.3244 21.5223 49.6453C20.3754 52.4965 19.5344 54.7631 18.5774 57.0845C18.4724 57.3388 18.4967 57.6262 18.6426 57.8594C19.5303 59.2755 21.6229 61.5682 22.4509 62.3498C22.8382 62.7181 23.4734 62.6388 23.7575 62.1762C23.7629 62.1674 26.0379 58.9822 26.7135 57.9081C26.8406 57.7069 26.8771 57.4615 26.8141 57.2316C26.5598 56.3859 27.3058 58.7707 23.8338 49.5711C25.028 49.147 25.7675 48.3324 25.9983 47.1167C32.2685 48.2703 37.2953 52.899 39.2747 57.7788C40.3889 60.5205 40.7818 63.5825 41.3541 66.4643C30.8785 67.0061 12.2086 66.9781 1.9238 65.7225C4.48439 59.3969 6.57543 50.2073 19.279 47.2811Z" fill="#0A102F"/>
<path d="M61.1278 14.8055V8.62941L65.7959 3.96137C66.7229 4.32007 67.6351 4.03357 68.1795 3.38295C68.8594 2.57155 68.7886 1.27154 68.0247 0.545259C66.5532 -0.855054 63.903 0.645415 64.6163 2.73985C59.6678 7.80864 59.4299 7.6413 59.4299 8.27787V14.2879C58.0994 13.957 56.7159 13.762 55.2844 13.762C51.3753 13.762 47.7784 15.0874 44.8861 17.2921L41.5074 13.4854C41.9208 12.686 41.7816 11.629 41.1225 11.0006C41.1225 11.0006 41.1214 11.0006 41.1214 10.9995C39.9117 9.84594 37.8197 10.6429 37.6028 12.2918C37.4036 13.7929 38.8221 14.8264 40.1566 14.5208L43.5873 18.3861C33.2083 28.0426 38.6428 45.2855 50.8235 48.6243C51.8035 48.8929 52.7936 49.0577 53.7844 49.1574V52.3433L49.605 56.5832C49.1386 56.3811 48.6023 56.3467 48.0891 56.5285C47.3131 56.8027 46.7659 57.4593 46.6631 58.2408C46.3927 60.2808 49.0473 61.3268 50.3365 59.7863C50.78 59.257 50.8983 58.5219 50.7189 57.8718C55.0885 53.3246 55.4823 53.3326 55.4823 52.6915V49.245C68.091 49.2929 76.7431 36.3107 71.3613 24.8922C69.5871 20.2141 65.8376 16.5143 61.1278 14.8055ZM66.1527 19.9235L55.3895 29.1616V15.4652C59.5782 15.4936 63.3754 17.19 66.1527 19.9235ZM66.2851 41.8827L65.45 41.0477C65.6964 40.7086 65.3784 41.7845 68.6264 23.1033C72.2553 29.2356 71.2258 36.9037 66.2851 41.8827ZM57.1243 29.9104C56.9598 30.7058 56.8255 31.5053 56.7114 32.3089L55.6113 31.209L57.1243 29.9104ZM58.2725 33.3008C58.6732 29.9952 59.2121 28.6192 59.265 28.073L62.0224 25.7064C61.322 29.1201 60.8003 32.5872 60.4642 36.0618L58.1004 33.6981C58.1862 33.5833 58.2541 33.4535 58.2725 33.3008ZM64.0596 23.9578L67.2226 21.2431L64.0625 39.6602L62.0178 37.6154C62.7487 28.6877 64.1561 24.6168 64.0596 23.9578ZM53.6915 15.5416V31.3386C53.6915 31.5641 53.781 31.7797 53.9402 31.9389L65.0212 43.0199C62.357 45.1762 58.971 46.4744 55.2844 46.4744C46.7338 46.4744 39.7772 39.5179 39.7772 30.9672C39.7772 22.9544 45.8864 16.3418 53.6915 15.5416Z" fill="#0A102F"/>
</svg>
