<svg width="60" height="60" viewBox="0 0 60 60" fill="none" xmlns="http://www.w3.org/2000/svg">
<g id="icon">
<circle id="bg" cx="30" cy="30" r="30" fill="#FFC900"/>
<g id="icon_2">
<path id="Vector" d="M18.1128 37.1217C10.3801 27.1283 11.5361 17.5972 20.7845 15.2594C23.6105 14.5401 27.2329 15.3622 29.2367 17.1605L30.2643 18.0854L31.78 17.1862C40.5403 11.894 51.3301 21.6563 46.7572 30.7249C42.5954 38.9714 29.0569 47.8345 26.2823 44.1351C25.4602 43.0304 25.8713 42.8763 28.0549 43.4158C30.1358 43.9296 39.7438 35.4005 42.133 30.9047C45.0103 25.5098 44.4452 22.5811 39.8466 18.8817C37.9456 17.366 34.9912 18.034 32.6791 20.5516C30.8551 22.504 28.954 22.6582 27.3869 20.1919C22.9426 13.2556 15.6466 18.7533 17.7275 27.4622C18.6009 31.0588 19.5515 32.8571 23.1738 37.6355C25.64 40.8724 25.717 41.0266 24.895 41.4633C23.3279 42.3111 20.8873 40.744 18.1128 37.1217Z" fill="#0A102F"/>
<path id="Vector_2" d="M37.2006 22.273C35.9418 22.0418 36.995 20.6288 38.1768 21.0398C39.153 21.3995 40.5146 21.9904 41.0541 23.5061C41.645 25.0989 40.4631 26.6403 39.7952 26.4604C39.2043 26.3063 39.0246 25.6384 39.1017 24.2768C39.1787 22.9152 38.4594 22.5042 37.2006 22.273Z" fill="#0A102F"/>
<path id="Vector_3" d="M40.0788 30.4167C38.4089 30.802 37.1501 29.5432 37.8951 28.6955C38.4603 28.0789 40.5925 28.0275 41.2091 28.6441C41.7229 29.1836 41.3889 30.1084 40.0788 30.4167Z" fill="#0A102F"/>
</g>
</g>
</svg>
