<svg width="80" height="71" viewBox="0 0 80 71" fill="none" xmlns="http://www.w3.org/2000/svg">
<path d="M53.5763 19.4859L53.5906 19.4731L53.6039 19.4592C53.9249 19.1225 54.0966 18.7395 54.1367 18.355C56.9566 17.0197 59.4675 17.1463 61.4642 18.0773C63.5405 19.0455 65.1059 20.9051 65.8832 23.0112C66.6609 25.1183 66.6331 27.4222 65.5984 29.2826C64.5749 31.1227 62.5181 32.6148 59.0573 33.0291C57.6608 33.0511 56.261 32.6536 54.9983 31.9916L54.9873 31.9858L54.9761 31.9806C54.0703 31.5617 52.9962 31.9563 52.5772 32.8621L52.5686 32.8806L52.5616 32.8997C52.3449 33.4899 52.3781 34.0262 52.641 34.4817C52.8888 34.9111 53.3037 35.2029 53.7184 35.4115C54.1385 35.6228 54.6137 35.7757 55.0454 35.8981C55.2449 35.9546 55.426 36.0025 55.5931 36.0466C55.8112 36.1043 56.0054 36.1556 56.1851 36.2116L56.1963 36.2151L56.2076 36.218C59.7327 37.1391 63.3503 35.9529 65.9107 33.6632C68.4713 31.3733 70.0258 27.9329 69.3577 24.2912C68.7588 20.5589 66.1836 17.5717 62.9811 16.0489C59.8495 14.5599 56.0675 14.4485 52.8876 16.4539C52.3238 16.2639 51.6601 16.3539 51.0917 16.8617L51.0836 16.8689L51.0759 16.8764C44.4539 23.3286 43.5968 31.9504 45.9966 40.0078C48.3929 48.0532 54.0491 55.6069 60.5821 60.056L60.5821 60.056L60.5844 60.0575C60.9679 60.3157 61.386 60.3767 61.7668 60.27C62.1343 60.167 62.4289 59.9193 62.6159 59.625C62.803 59.3306 62.9023 58.9579 62.8367 58.5803C62.7688 58.1892 62.5313 57.839 62.1321 57.6037C56.0972 54.0017 50.951 47.1338 48.8318 39.8099C46.7153 32.4952 47.638 24.8243 53.5763 19.4859Z" fill="#FF9966" stroke="#FF9966"/>
<path d="M35.7039 63.7825L35.7039 63.7825L35.6965 63.7787C26.9152 59.3787 19.683 50.2436 16.2819 40.0968C12.8866 29.9669 13.3391 18.9283 19.7565 10.6468C20.8337 9.69385 22.0317 8.89066 23.3311 8.31839L23.3435 8.31294L23.3555 8.30682C26.2099 6.86061 29.4684 7.23144 32.2076 8.75386C34.9507 10.2784 37.1128 12.9272 37.7692 15.9348L37.771 15.9433L37.7732 15.9517C38.7705 19.864 37.0746 23.9264 34.1149 26.5947C31.1583 29.2604 27.0344 30.453 23.2464 28.7623L23.2464 28.7623L23.2397 28.7594C21.3709 27.9576 20.0917 30.6317 21.94 31.5572L21.9487 31.5616L21.9575 31.5655C25.8549 33.3324 30.4648 32.803 34.0101 30.5963C46.509 23.4677 41.6103 4.58255 27.4953 3.77784L27.4826 3.77712L27.4698 3.77704C20.2558 3.73382 14.6652 9.21478 12.2104 15.4976C8.39109 24.9082 9.22073 35.918 13.3576 45.4432C17.4949 54.9695 24.9661 63.0702 34.5061 66.6234L34.5231 66.6297L34.5406 66.6348C36.4093 67.1796 37.3406 64.637 35.7039 63.7825Z" fill="#FF9966" stroke="#FF9966"/>
</svg>
