<svg width="40" height="40" viewBox="0 0 40 40" fill="none" xmlns="http://www.w3.org/2000/svg">
<path d="M10.6434 22.3455L27.2733 5.71408L34.2847 12.7255L17.6533 29.3554L9.76764 30.2312L10.6434 22.3455ZM36.409 10.5998L39.2747 7.73407C39.7386 7.26868 39.9991 6.63835 39.9991 5.98122C39.9991 5.32409 39.7386 4.69377 39.2747 4.22837L35.7704 0.722666C35.3045 0.259787 34.6743 0 34.0176 0C33.3608 0 32.7307 0.259787 32.2647 0.722666L29.3976 3.58837L36.409 10.5998Z" fill="#E9FF97"/>
<path d="M37.1427 21.4282C36.7639 21.4282 36.4005 21.5787 36.1326 21.8466C35.8647 22.1145 35.7142 22.4779 35.7142 22.8567V35.7138C35.7142 36.0927 35.5637 36.4561 35.2958 36.724C35.0279 36.9919 34.6645 37.1424 34.2856 37.1424H4.2857C3.90682 37.1424 3.54346 36.9919 3.27555 36.724C3.00764 36.4561 2.85713 36.0927 2.85713 35.7138V5.71392C2.85713 5.33504 3.00764 4.97168 3.27555 4.70378C3.54346 4.43587 3.90682 4.28536 4.2857 4.28536H17.1428C17.5217 4.28536 17.885 4.13485 18.153 3.86694C18.4209 3.59903 18.5714 3.23567 18.5714 2.85679C18.5714 2.47791 18.4209 2.11455 18.153 1.84664C17.885 1.57873 17.5217 1.42822 17.1428 1.42822H4.2857C3.14906 1.42822 2.05898 1.87975 1.25525 2.68348C0.451528 3.4872 0 4.57729 0 5.71392V35.7138C0 36.8505 0.451528 37.9406 1.25525 38.7443C2.05898 39.548 3.14906 39.9995 4.2857 39.9995H34.2856C35.4223 39.9995 36.5123 39.548 37.3161 38.7443C38.1198 37.9406 38.5713 36.8505 38.5713 35.7138V22.8567C38.5713 22.4779 38.4208 22.1145 38.1529 21.8466C37.885 21.5787 37.5216 21.4282 37.1427 21.4282Z" fill="white"/>
</svg>
