<svg width="40" height="40" viewBox="0 0 40 40" fill="none" xmlns="http://www.w3.org/2000/svg">
<path d="M35.7143 0H4.28571C3.14907 0 2.05898 0.451529 1.25526 1.25526C0.451529 2.05898 0 3.14907 0 4.28571V35.7143C0 36.8509 0.451529 37.941 1.25526 38.7447C2.05898 39.5485 3.14907 40 4.28571 40H35.7143C36.8509 40 37.941 39.5485 38.7447 38.7447C39.5485 37.941 40 36.8509 40 35.7143V4.28571C40 3.14907 39.5485 2.05898 38.7447 1.25526C37.941 0.451529 36.8509 0 35.7143 0ZM4.28571 2.85714H35.7143C36.0932 2.85714 36.4565 3.00765 36.7244 3.27556C36.9923 3.54347 37.1429 3.90683 37.1429 4.28571V11.4286H2.85714V4.28571C2.85714 3.90683 3.00765 3.54347 3.27556 3.27556C3.54347 3.00765 3.90683 2.85714 4.28571 2.85714ZM35.7143 37.1429H4.28571C3.90683 37.1429 3.54347 36.9923 3.27556 36.7244C3.00765 36.4565 2.85714 36.0932 2.85714 35.7143V14.2857H37.1429V35.7143C37.1429 36.0932 36.9923 36.4565 36.7244 36.7244C36.4565 36.9923 36.0932 37.1429 35.7143 37.1429Z" fill="white"/>
<path d="M7.14342 8.5715H8.57199C8.95087 8.5715 9.31423 8.42099 9.58214 8.15308C9.85005 7.88517 10.0006 7.52181 10.0006 7.14293C10.0006 6.76405 9.85005 6.40068 9.58214 6.13277C9.31423 5.86487 8.95087 5.71436 8.57199 5.71436H7.14342C6.76453 5.71436 6.40117 5.86487 6.13326 6.13277C5.86535 6.40068 5.71484 6.76405 5.71484 7.14293C5.71484 7.52181 5.86535 7.88517 6.13326 8.15308C6.40117 8.42099 6.76453 8.5715 7.14342 8.5715Z" fill="white"/>
<path d="M14.2858 8.5715H15.7144C16.0933 8.5715 16.4566 8.42099 16.7245 8.15308C16.9924 7.88517 17.143 7.52181 17.143 7.14293C17.143 6.76405 16.9924 6.40068 16.7245 6.13277C16.4566 5.86487 16.0933 5.71436 15.7144 5.71436H14.2858C13.9069 5.71436 13.5436 5.86487 13.2757 6.13277C13.0077 6.40068 12.8572 6.76405 12.8572 7.14293C12.8572 7.52181 13.0077 7.88517 13.2757 8.15308C13.5436 8.42099 13.9069 8.5715 14.2858 8.5715Z" fill="white"/>
<path d="M34.0171 20.5944C33.8847 20.4104 33.7105 20.2606 33.5088 20.1573C33.3071 20.0539 33.0837 20.0001 32.8571 20.0001H28.5714C28.2024 19.9929 27.8452 20.1299 27.5757 20.382C27.3062 20.634 27.1456 20.9812 27.1281 21.3498C27.1106 21.7184 27.2376 22.0793 27.482 22.3557C27.7265 22.6322 28.0691 22.8024 28.4371 22.8301L23.0085 26.7001L16.7228 20.4144C16.4531 20.1468 16.0885 19.9966 15.7085 19.9966C15.3285 19.9966 14.9639 20.1468 14.6942 20.4144L6.12279 28.9858C5.85514 29.2556 5.70496 29.6201 5.70496 30.0001C5.70496 30.3801 5.85514 30.7447 6.12279 31.0144C6.39359 31.28 6.75777 31.4288 7.13708 31.4288C7.51638 31.4288 7.88056 31.28 8.15136 31.0144L15.7142 23.443L21.8428 29.5858C22.0832 29.8241 22.4005 29.9693 22.738 29.9955C23.0755 30.0216 23.4114 29.9271 23.6856 29.7287L30.1142 25.1373L30.0728 25.263C30.0135 25.4412 29.9899 25.6294 30.0033 25.8167C30.0168 26.004 30.067 26.1869 30.1511 26.3549C30.3209 26.694 30.6186 26.9518 30.9785 27.0716C31.3384 27.1913 31.7312 27.1631 32.0704 26.9933C32.4095 26.8234 32.6673 26.5258 32.7871 26.1658L34.2156 21.8801C34.2867 21.6654 34.3057 21.4369 34.2712 21.2134C34.2367 20.9898 34.1496 20.7777 34.0171 20.5944Z" fill="#E9FF97"/>
</svg>
