<svg width="60" height="56" viewBox="0 0 60 56" fill="none" xmlns="http://www.w3.org/2000/svg">
<path fill-rule="evenodd" clip-rule="evenodd" d="M33.8017 1.4778C28.3244 2.97601 27.2087 2.99096 23.1559 1.59812C17.8828 -0.210895 17.9916 -0.198386 17.7114 0.894317C17.402 2.04982 15.7958 6.23244 15.3921 7.34402C9.61789 9.88889 9.61148 9.65652 8.82941 12.2355C8.50109 13.2675 4.0328 22.194 0.751215 30.8711C-0.0728421 33.0482 0.164035 34.3437 1.64236 36.2564C4.53197 39.8977 8.15317 40.2482 6.18039 36.6905C4.41911 33.4989 4.56334 32.534 7.88285 24.6775C8.96006 22.1214 10.3363 18.5961 10.9386 16.8126C13.3185 9.74127 14.3076 13.6049 13.9499 14.1262C13.0586 15.5456 13.2558 17.0903 15.779 20.3695C17.3055 22.3429 22.57 30.6469 25.0846 33.0428C28.7947 36.6461 31.9046 34.7321 45.6538 32.4653C48.1696 32.0711 49.9674 31.4949 51.2168 30.7013C54.3413 28.7558 47.9259 43.0058 43.3246 48.2002C40.2571 51.6632 39.8531 51.6277 28.2598 46.5657C16.3838 41.372 10.4429 39.5191 10.3301 40.4988C10.0545 42.8934 35.8668 55.5033 40.8882 55.4746C43.1195 55.4446 47.177 51.9081 48.5642 49.9171C50.623 46.9777 52.9534 42.0624 55.5113 35.2652C57.3623 30.3939 57.3743 29.1379 55.8516 25.5989C55.3216 24.3578 55.9763 22.7899 58.2278 20.0932C59.0982 19.0464 60.3997 17.3213 57.5421 15.9888C54.6846 14.6563 50.0121 12.7069 49.227 12.3408C48.4187 11.1228 44.9847 6.27198 44.5489 5.07483C44.0903 4.17282 40.8948 -0.452078 33.8017 1.4778ZM43.1872 7.99516C43.9327 9.18385 44.5336 10.1904 44.4897 10.2846C44.4604 10.3474 41.7306 9.15095 38.4334 7.61346C32.0275 4.62634 31.9313 4.50502 34.8051 4.16299C38.9598 3.61545 41.0009 4.56724 43.1872 7.99516ZM50.387 27.5618C49.5501 28.7007 47.9362 28.6363 47.3624 27.4894C46.9372 26.6795 46.3678 26.2611 43.8243 25.075C43.0393 24.709 29.5659 18.3497 23.1434 15.8901C17.5038 13.7191 19.4138 17.2476 22.127 18.9715C24.3985 20.413 44.2189 28.7379 43.5638 29.1588C43.229 29.385 34.9657 31.0368 29.3774 32.445C28.7346 31.61 16.6882 16.206 16.0916 15.9278C15.5578 15.6788 20.8624 3.31939 20.9085 3.30263C21.0612 3.22096 39.5396 11.2259 54.5181 18.2105C52.8534 23.0922 52.3893 24.8255 50.387 27.5618ZM37.2742 15.6745C34.3734 16.7303 36.1886 18.4943 43.5009 21.7511C50.0596 24.6566 50.6206 24.7653 50.0382 22.7351C49.5541 20.9038 38.9464 15.0398 37.2742 15.6745Z" fill="#0A102F"/>
</svg>
