<svg width="41" height="40" viewBox="0 0 41 40" fill="none" xmlns="http://www.w3.org/2000/svg">
<path d="M33.5483 0.0297647C33.3056 -0.060334 33.0337 0.060717 32.9415 0.303738L31.6204 3.80073C31.5284 4.04406 31.6513 4.31558 31.8943 4.40752C32.1407 4.49974 32.4103 4.3742 32.5011 4.13354L33.8223 0.636552C33.9142 0.393224 33.7913 0.121702 33.5483 0.0297647Z" fill="#010D09"/>
<path d="M34.6116 5.99027L37.8407 3.0875C38.0341 2.91373 38.0497 2.61616 37.876 2.42279C37.7016 2.22911 37.4043 2.21348 37.2113 2.38755L33.9821 5.29032C33.7888 5.46408 33.7731 5.76165 33.9469 5.95502C34.1198 6.14738 34.417 6.16498 34.6116 5.99027Z" fill="#010D09"/>
<path d="M36.4355 7.64534C36.4661 7.88284 36.6687 8.0563 36.9019 8.0563C36.9218 8.0563 36.942 8.05507 36.9623 8.05262C38.166 7.89847 39.3606 7.5013 40.4167 6.90432C40.6428 6.77653 40.7228 6.48938 40.5947 6.26291C40.4666 6.03582 40.1792 5.95645 39.9533 6.08486C39.0024 6.62238 37.9267 6.97971 36.8427 7.11854C36.5847 7.15164 36.4027 7.38761 36.4355 7.64534Z" fill="#010D09"/>
<path d="M21.4189 18.2745C24.3285 17.5867 26.1297 14.6707 25.442 11.7614C24.7543 8.85213 21.8381 7.05125 18.9285 7.73903C16.0189 8.42682 14.2177 11.3428 14.9054 14.2521C15.5931 17.1614 18.5093 18.9623 21.4189 18.2745Z" fill="#15CF92"/>
<path d="M13.7523 38.5977C14.9545 39.0603 16.3863 39.2582 17.6238 39.4733C24.5608 40.6791 31.3935 39.5693 33.3966 38.5846C34.0879 38.2448 33.88 37.1892 33.111 37.1431C31.5511 37.0495 29.9821 37.1322 28.4384 37.3757C34.6597 34.3231 38.8248 27.8971 39.1808 21.4093C39.8884 8.64167 28.0049 -0.126732 16.556 1.97748C0.654089 3.30071 -3.28026 22.0915 2.56397 30.6957C4.9092 34.1485 9.24374 37.4675 13.7523 38.5977ZM31.1957 34.5302C23.913 40.2622 14.3552 38.8112 8.46064 33.7342C7.87098 27.0652 13.1607 21.2831 19.8761 21.2831C26.9877 21.2831 32.3113 27.7088 31.1957 34.5302ZM6.02974 9.56564C16.4712 -4.26368 39.2008 4.03803 38.2406 21.3575C38.2209 21.4297 38.1609 28.2167 32.2388 33.6417C32.7581 26.3604 26.98 20.3416 19.8761 20.3416C13.0475 20.3416 7.4368 25.9067 7.47729 32.8204C1.25693 26.6062 1.0035 16.2235 6.02974 9.56564Z" fill="#010D09"/>
</svg>
