<svg width="75" height="58" viewBox="0 0 75 58" fill="none" xmlns="http://www.w3.org/2000/svg">
<path d="M17.6389 25.2822C19.4957 24.5859 20.8882 22.6131 20.8882 20.6402C20.7722 18.4353 19.0315 16.4625 16.8265 15.9983C12.0686 14.9539 8.93525 20.06 12.1846 23.8896C13.4611 25.3982 15.7821 25.9785 17.6389 25.2822Z" fill="#0E0E0E"/>
<path d="M68.2365 55.4552C69.2809 54.991 68.5846 56.3836 68.7007 14.258C68.7007 13.7938 68.3525 13.3296 67.7723 13.3296H66.0316V8.45558C66.0316 7.99138 65.6834 7.64324 65.2192 7.52719C27.0393 6.8309 29.2442 6.5988 28.78 7.063C24.9504 2.88525 24.9504 2.88525 24.4862 2.88525H3.5975C3.24936 2.88525 2.90121 3.11735 2.78516 3.58155V3.4655C1.62468 4.85808 0 5.67042 0 7.87534V54.1787C0 56.1515 1.62468 57.8922 3.71355 57.8922H65.2192C67.5402 58.0083 68.1204 55.6873 68.2365 55.4552ZM50.0169 53.8305L40.8491 40.2529L51.7576 32.8258C56.6316 39.5566 61.6217 46.5195 65.9155 53.8305H50.0169ZM47.812 53.8305H4.40984C4.75799 53.7145 3.24936 55.2231 29.5924 26.9073L47.812 53.8305ZM64.4069 9.38397V13.4457C61.9699 13.4457 58.9526 13.3296 53.2662 13.7938C48.1601 14.258 45.2589 14.142 44.0984 14.142C35.7429 14.258 35.0466 13.4457 30.4047 8.68768L64.4069 9.38397ZM24.1381 4.74203C25.0665 5.67042 25.9949 6.71485 26.9232 7.64324C34.3503 15.6506 34.8145 15.9987 45.0268 15.9987C49.4366 15.9987 51.4095 15.7666 53.3823 15.6506C59.4168 15.0703 62.4341 15.3024 67.076 15.3024V52.554C62.6662 45.1269 57.56 38.0479 52.686 31.2011C52.4539 30.8529 51.8737 30.7369 51.5255 30.969L39.9207 38.8603L30.5207 25.0505C30.1726 24.5863 29.5924 24.5863 29.1282 24.9345L4.29379 51.5096L4.52589 4.85808H24.1381V4.74203Z" fill="#0E0E0E"/>
<path d="M64.4067 0.680064C63.9425 2.30474 63.9425 4.16152 64.4067 5.7862C64.6388 6.94668 66.3796 6.48249 66.1475 5.322C65.7993 3.92942 65.7993 2.42079 66.1475 1.02821C66.3796 -0.0162278 64.7549 -0.480421 64.4067 0.680064Z" fill="#0E0E0E"/>
<path d="M71.3703 1.4923C71.0221 1.2602 70.4419 1.2602 70.2098 1.72439L67.0765 6.13424C66.3802 7.06262 67.7728 8.10706 68.4691 7.17867L71.6024 2.76883C71.8345 2.30464 71.8345 1.72439 71.3703 1.4923Z" fill="#0E0E0E"/>
<path d="M73.923 6.94644L69.5131 9.26741C68.7008 9.7316 69.0489 10.8921 69.8613 10.8921C70.2094 10.8921 70.0934 10.8921 74.6193 8.57111C75.1995 8.22297 74.9674 6.36619 73.923 6.94644Z" fill="#0E0E0E"/>
</svg>
