<svg width="81" height="80" viewBox="0 0 81 80" fill="none" xmlns="http://www.w3.org/2000/svg">
<path d="M64.3906 78.1103H62.1103V35.8048C62.1103 35.2757 61.6819 34.8599 61.1654 34.8599H51.2882C50.7591 34.8599 50.3433 35.2757 50.3433 35.8048V78.1103H46.4V47.6725C46.4 47.156 45.9843 46.7276 45.455 46.7276H35.5779C35.0614 46.7276 34.633 47.156 34.633 47.6725V78.1103H30.7023V56.29C30.7023 55.7734 30.274 55.345 29.7574 55.345H19.8676C19.351 55.345 18.9226 55.7734 18.9226 56.29V78.1105H14.992V66.3562C14.992 65.8396 14.5636 65.4113 14.0471 65.4113H4.17009C3.64083 65.4113 3.22517 65.8396 3.22517 66.3562V78.1105H0.944924C0.41566 78.1105 0 78.5388 0 79.0554C0 79.5845 0.41566 80.0003 0.944924 80.0003H64.3906C64.9071 80.0003 65.3355 79.5845 65.3355 79.0554C65.3355 78.5387 64.907 78.1103 64.3906 78.1103ZM28.8126 78.1103H20.8126V57.2347H28.8126V78.1103ZM60.2205 78.1103H52.233V36.7497H60.2205V78.1103Z" fill="#F6F9F0"/>
<path d="M9.67579 57.6136L42.7266 32.5546L41.5983 37.2833C41.4778 37.7914 41.7902 38.3007 42.2983 38.422C42.798 38.5428 43.3141 38.2353 43.4363 37.7227L45.1773 30.4275C45.2331 30.1914 45.1865 29.8684 45.0111 29.637C44.8333 29.4029 44.5303 29.2722 44.2951 29.2635L36.8013 28.9714C36.324 28.9615 35.8404 29.3564 35.8208 29.8788C35.7999 30.4004 36.2058 30.8397 36.7276 30.86L41.5846 31.0494L8.5341 56.1077C8.11828 56.4233 8.037 57.0156 8.35208 57.4316C8.6692 57.8495 9.26217 57.9273 9.67579 57.6136Z" fill="#F6F9F0"/>
<circle cx="64.1" cy="16.1" r="16.1" fill="#F6F9F0"/>
<path d="M63.8996 0C55.0177 0 47.7988 7.21889 47.7988 16.1009C47.7988 24.9702 55.0177 32.1891 63.8996 32.1891C72.7814 32.1891 80.0005 24.9702 80.0005 16.1009C80.0005 7.21889 72.7816 0 63.8996 0ZM63.8996 30.2992C56.0634 30.2992 49.6885 23.9244 49.6885 16.1009C49.6885 8.26471 56.0634 1.88985 63.8996 1.88985C71.7357 1.88985 78.1106 8.26471 78.1106 16.1009C78.1106 23.9244 71.7359 30.2992 63.8996 30.2992Z" fill="#F6F9F0"/>
<path d="M69.8724 13.2031C69.8724 11.011 68.0834 9.2346 65.9039 9.2346H65.6266V6.9542C65.6266 6.43765 65.2108 6.00928 64.6817 6.00928C64.1652 6.00928 63.7368 6.43765 63.7368 6.9542V9.23445H62.3637V6.9542C62.3637 6.43765 61.9478 6.00928 61.4187 6.00928C60.9022 6.00928 60.4738 6.43765 60.4738 6.9542V9.23445H58.8863C58.3572 9.23445 57.9414 9.66282 57.9414 10.1794C57.9414 10.6959 58.3572 11.1243 58.8863 11.1243H60.4738V21.3164H58.8863C58.3572 21.3164 57.9414 21.7447 57.9414 22.2613C57.9414 22.7778 58.3572 23.2062 58.8863 23.2062H60.4738V25.2344C60.4738 25.751 60.9022 26.1794 61.4187 26.1794C61.9478 26.1794 62.3637 25.751 62.3637 25.2344V23.206H63.7368V25.2344C63.7368 25.751 64.1652 26.1794 64.6817 26.1794C65.2108 26.1794 65.6266 25.751 65.6266 25.2344V23.206H65.9039C68.0834 23.206 69.8724 21.4296 69.8724 19.2376C69.8724 18.0281 69.3054 16.9446 68.4361 16.2266C69.3053 15.4959 69.8724 14.4125 69.8724 13.2031ZM65.9039 21.3164H62.3638V17.1715H65.9039C67.0503 17.1715 67.9825 18.0912 67.9825 19.2377C67.9825 20.3841 67.0503 21.3164 65.9039 21.3164ZM65.9039 15.2818H62.3638V11.1243H65.9039C67.0503 11.1243 67.9825 12.0565 67.9825 13.2031C67.9825 14.3495 67.0503 15.2818 65.9039 15.2818Z" fill="#F6F9F0"/>
</svg>
