<svg width="45" height="40" viewBox="0 0 45 40" fill="none" xmlns="http://www.w3.org/2000/svg">
<path d="M15.9807 4.86719C11.7465 4.89951 7.53578 4.66057 3.1938 4.85044C2.32714 4.88795 1.6373 5.6307 1.6239 6.54156C1.57037 10.2565 1.73919 14.4835 1.6882 18.1403C1.6748 19.078 2.38675 19.8642 3.27551 19.8924C7.65864 20.0303 11.6458 20.1406 16.1314 19.7109C17.002 19.6271 17.653 18.8322 17.6122 17.9019C17.4548 14.2082 17.5017 10.8574 17.6296 6.64872C17.6557 5.75254 17.0151 4.89271 15.9807 4.86719Z" fill="#15CF92"/>
<path d="M24.2233 4.85037C23.8528 4.86641 23.5192 5.01647 23.2524 5.24796C22.5323 5.61464 21.9137 6.26707 21.6668 6.95147C21.2907 7.99364 21.3777 8.5233 21.4723 15.436C21.4857 16.4141 21.5072 17.4283 21.9277 18.3088C22.257 18.9984 22.9064 19.5746 23.6276 19.7065C23.8333 19.8157 24.0609 19.8846 24.3043 19.8923C28.6874 20.0303 32.6746 20.1405 37.1602 19.7108C38.0302 19.6271 38.6812 18.8328 38.6417 17.9018C38.4836 14.2008 38.5311 10.852 38.6584 6.64933C38.686 5.74375 38.0368 4.89267 37.0101 4.86712C32.8565 4.90222 28.5876 4.65952 24.2233 4.85037ZM37.0168 5.89586C37.4165 5.93149 37.6415 6.25195 37.6297 6.61785C37.5017 10.844 37.4549 14.2128 37.6143 17.946C37.6303 18.3238 37.3819 18.6559 37.0617 18.6868C32.5034 19.1228 28.3516 18.9902 24.3364 18.8636C24.0056 18.8535 23.7404 18.5354 23.7457 18.155C23.7963 14.4908 23.6286 10.1889 23.6814 6.55623C23.6868 6.1959 23.9493 5.89184 24.2675 5.87777C28.616 5.69023 32.7703 5.92976 37.0168 5.89586Z" fill="#010D09"/>
<path d="M37.077 3.89662C37.3609 3.89595 37.59 3.66488 37.5893 3.38024C37.586 2.46 37.7534 1.55785 38.0856 0.700566C38.1881 0.435344 38.0568 0.137305 37.7923 0.0348332C37.5244 -0.0676387 37.229 0.0636325 37.1265 0.328184C36.7475 1.30602 36.5572 2.33409 36.5606 3.38426C36.5613 3.66756 36.7917 3.89662 37.075 3.89662H37.077Z" fill="#010D09"/>
<path d="M39.8222 4.33019C40.9213 3.4133 41.9313 2.3792 42.8254 1.2567C43.0022 1.03502 42.9654 0.710856 42.743 0.534042C42.5227 0.359236 42.1985 0.393394 42.0204 0.616421C41.1698 1.684 40.2087 2.66787 39.1632 3.53988C38.7967 3.84569 39.0116 4.4494 39.4927 4.4494C39.6092 4.4494 39.7258 4.41056 39.8222 4.33019Z" fill="#010D09"/>
<path d="M43.9047 6.0049C42.7849 5.97074 41.6523 6.00289 40.5372 6.10134C40.2545 6.12612 40.0456 6.37594 40.0704 6.65924C40.095 6.94025 40.3425 7.1509 40.6283 7.12606C41.7025 7.03095 42.7942 6.99948 43.8725 7.03363C44.1605 7.04971 44.3943 6.81998 44.403 6.53534C44.4117 6.25136 44.1887 6.01427 43.9047 6.0049Z" fill="#010D09"/>
<path d="M21.1052 35.4212C21.1185 36.3992 21.14 37.4134 21.5605 38.294C21.9286 39.0645 22.6949 39.7021 23.5162 39.7257C23.706 39.8162 23.9147 39.8702 24.1344 39.8771C28.5075 40.0148 32.4963 40.1256 36.9896 39.6963C37.8603 39.6132 38.5113 38.8189 38.4717 37.8873C38.3137 34.1943 38.3606 30.8435 38.4885 26.6341C38.5167 25.6635 37.7824 24.8541 36.8396 24.8526C32.5697 24.8852 28.4449 24.6463 24.0534 24.8352C23.7968 24.8463 23.5594 24.9249 23.3468 25.0455C22.4392 25.3303 21.5981 26.1094 21.2996 26.9366C20.9236 27.9786 21.0104 28.5084 21.1052 35.4212ZM23.5115 26.541C23.5169 26.1807 23.7794 25.8766 24.0976 25.8626C27.3529 25.7236 36.9195 25.8813 36.8503 25.8813C37.1826 25.8813 37.4729 26.198 37.4598 26.6033C37.3318 30.8355 37.2843 34.207 37.4443 37.9315C37.4604 38.3092 37.2126 38.6414 36.8918 38.6716C32.3335 39.1076 28.1817 38.975 24.1665 38.8484C23.8357 38.8383 23.5705 38.5202 23.5758 38.1398C23.6268 34.4507 23.4581 30.2213 23.5115 26.541Z" fill="#010D09"/>
<path d="M0.0817156 35.4208C0.0951106 36.3989 0.116543 37.4131 0.537104 38.2937C0.903667 39.0612 1.66559 39.6958 2.48323 39.7242C2.6739 39.8155 2.88379 39.8698 3.10476 39.8768C7.47783 40.0144 11.4667 40.1253 15.96 39.6959C16.8313 39.6129 17.4823 38.8179 17.4414 37.8869C17.2841 34.1926 17.3309 30.8425 17.4589 26.6338C17.4866 25.6774 16.7628 24.8523 15.8213 24.8523C10.5528 24.8523 6.97157 24.6651 3.02305 24.8348C2.76444 24.846 2.52539 24.9258 2.31165 25.048C1.40849 25.3357 0.573355 26.1126 0.276153 26.9363C-0.0998296 27.9783 -0.0130561 28.5081 0.0817156 35.4208ZM2.48189 26.54C2.48658 26.1804 2.74912 25.8763 3.06726 25.8622C6.32258 25.7232 15.8899 25.881 15.8207 25.881C16.1529 25.881 16.4432 26.1977 16.4301 26.603C16.3022 30.8345 16.2547 34.2053 16.4141 37.9312C16.4301 38.3089 16.183 38.6411 15.8622 38.6712C11.3039 39.1072 7.1514 38.9746 3.13691 38.848C2.80605 38.838 2.54083 38.5199 2.54619 38.1388C2.59584 34.4593 2.42885 30.1998 2.48189 26.54Z" fill="#010D09"/>
</svg>
