<svg width="115" height="35" viewBox="0 0 115 35" fill="none" xmlns="http://www.w3.org/2000/svg">
<path d="M17.6566 0.505127C8.18418 0.505127 0.504883 8.18421 0.504883 17.6566C0.504883 27.1301 8.18418 34.8088 17.6566 34.8088C27.1295 34.8088 34.8083 27.1301 34.8083 17.6566C34.8083 8.18482 27.1299 0.505946 17.6564 0.505946L17.6566 0.505127ZM25.5223 25.2425C25.2142 25.7478 24.556 25.9061 24.0523 25.5983C20.0247 23.1366 14.9551 22.5806 8.98478 23.9444C8.40946 24.0763 7.83598 23.7157 7.70491 23.1405C7.57321 22.5652 7.93224 21.9917 8.509 21.8607C15.0426 20.3669 20.6469 21.0099 25.1677 23.7724C25.6716 24.0817 25.8313 24.7391 25.5221 25.243L25.5223 25.2425ZM27.6216 20.573C27.2337 21.2024 26.4108 21.3998 25.7822 21.0133C21.1729 18.18 14.1442 17.3593 8.69109 19.0146C7.98386 19.2282 7.23691 18.8296 7.02226 18.1236C6.80925 17.4164 7.20803 16.6709 7.91402 16.4558C14.143 14.5658 21.8866 15.4813 27.1811 18.7348C27.8099 19.1219 28.0085 19.9453 27.6214 20.5732L27.6216 20.573ZM27.8019 15.7099C22.2731 12.4265 13.1536 12.1246 7.8757 13.7265C7.02819 13.9835 6.13193 13.5051 5.87509 12.6575C5.61825 11.8096 6.09629 10.914 6.94442 10.6563C13.003 8.81709 23.0748 9.17243 29.4391 12.9506C30.2015 13.4031 30.4515 14.3876 29.9997 15.1489C29.5491 15.9112 28.5619 16.1625 27.8021 15.7099H27.8019ZM47.1691 16.3391C44.2077 15.6329 43.6805 15.1372 43.6805 14.0957C43.6805 13.1118 44.6068 12.4497 45.9844 12.4497C47.3198 12.4497 48.6439 12.9525 50.0322 13.9876C50.0741 14.019 50.1268 14.0314 50.1786 14.0233C50.2304 14.0155 50.2763 13.987 50.3066 13.9442L51.7526 11.9059C51.812 11.8219 51.7958 11.7062 51.7157 11.6421C50.0635 10.3163 48.203 9.67177 46.0283 9.67177C42.8307 9.67177 40.5972 11.5907 40.5972 14.3362C40.5972 17.2804 42.5239 18.3229 45.8534 19.1276C48.6872 19.7804 49.1654 20.3272 49.1654 21.3048C49.1654 22.3881 48.1983 23.0615 46.6419 23.0615C44.9133 23.0615 43.5033 22.4792 41.926 21.1133C41.8869 21.0795 41.8333 21.0641 41.7837 21.067C41.7315 21.0713 41.6837 21.0955 41.6506 21.1354L40.0293 23.065C39.9613 23.145 39.9699 23.2647 40.0485 23.3339C41.8837 24.9722 44.1407 25.8375 46.5764 25.8375C50.0219 25.8375 52.2485 23.9549 52.2485 21.041C52.2546 18.5812 50.782 17.2192 47.1752 16.3418L47.1691 16.3391ZM60.0437 13.4184C58.5502 13.4184 57.3252 14.0067 56.315 15.212V13.8553C56.315 13.7482 56.2282 13.6609 56.1213 13.6609H53.4695C53.3624 13.6609 53.2758 13.7482 53.2758 13.8553V28.93C53.2758 29.0371 53.3624 29.1244 53.4695 29.1244H56.1213C56.2282 29.1244 56.315 29.0371 56.315 28.93V24.1716C57.3254 25.3054 58.5506 25.8594 60.0437 25.8594C62.8187 25.8594 65.6279 23.7232 65.6279 19.6397C65.632 15.5551 62.822 13.4182 60.0467 13.4182L60.0437 13.4184ZM62.5444 19.6397C62.5444 21.7191 61.2635 23.1702 59.4294 23.1702C57.6162 23.1702 56.2485 21.6532 56.2485 19.6397C56.2485 17.6263 57.6162 16.1091 59.4294 16.1091C61.2338 16.1089 62.5447 17.5934 62.5447 19.6394L62.5444 19.6397ZM72.8282 13.4184C69.2544 13.4184 66.4546 16.1703 66.4546 19.6841C66.4546 23.1596 69.2351 25.8826 72.7843 25.8826C76.3708 25.8826 79.1792 23.1399 79.1792 19.6396C79.1792 16.1515 76.3897 13.4188 72.8279 13.4188L72.8282 13.4184ZM72.8282 23.1909C70.9273 23.1909 69.4942 21.6636 69.4942 19.6386C69.4942 17.605 70.8777 16.1293 72.7843 16.1293C74.6975 16.1293 76.1402 17.6566 76.1402 19.6831C76.1402 21.7163 74.7475 23.1909 72.8283 23.1909H72.8282ZM86.8108 13.6609H83.8928V10.6776C83.8928 10.5707 83.8064 10.4835 83.6993 10.4835H81.048C80.9406 10.4835 80.8536 10.5707 80.8536 10.6776V13.6609H79.5786C79.4719 13.6609 79.3855 13.7482 79.3855 13.8553V16.1343C79.3855 16.2412 79.4719 16.3286 79.5786 16.3286H80.8536V22.2254C80.8536 24.6084 82.0397 25.8166 84.3788 25.8166C85.33 25.8166 86.1191 25.6202 86.8628 25.1985C86.9232 25.1647 86.9607 25.0996 86.9607 25.0304V22.8602C86.9607 22.7932 86.9259 22.7299 86.8686 22.6949C86.8108 22.6586 86.7389 22.6568 86.6797 22.6861C86.1689 22.9431 85.6751 23.0617 85.1231 23.0617C84.2723 23.0617 83.8928 22.6754 83.8928 21.8097V16.3297H86.8108C86.9179 16.3297 87.0041 16.2424 87.0041 16.1353V13.8565C87.0082 13.7494 86.9222 13.6622 86.8137 13.6622L86.8108 13.6609ZM96.9778 13.6726V13.3062C96.9778 12.2282 97.3911 11.7476 98.3181 11.7476C98.8709 11.7476 99.3149 11.8573 99.8122 12.0232C99.8734 12.0425 99.9373 12.0329 99.9871 11.9962C100.038 11.9595 100.067 11.9008 100.067 11.8385V9.60397C100.067 9.51856 100.012 9.44299 99.93 9.41779C99.4046 9.26151 98.7324 9.10115 97.726 9.10115C95.2768 9.10115 93.9822 10.4804 93.9822 13.0883V13.6495H92.7082C92.6013 13.6495 92.5136 13.7367 92.5136 13.8436V16.1343C92.5136 16.2412 92.6013 16.3286 92.7082 16.3286H93.9822V25.4242C93.9822 25.5313 94.0686 25.6186 94.1755 25.6186H96.8272C96.9344 25.6186 97.0216 25.5313 97.0216 25.4242V16.3293H99.4974L103.29 25.4226C102.859 26.378 102.436 26.5681 101.858 26.5681C101.391 26.5681 100.899 26.4286 100.396 26.1533C100.349 26.1273 100.292 26.123 100.241 26.1388C100.191 26.1566 100.148 26.1943 100.127 26.2435L99.2281 28.2152C99.1853 28.3084 99.2219 28.4178 99.3116 28.4661C100.25 28.9742 101.097 29.1911 102.144 29.1911C104.102 29.1911 105.184 28.2791 106.138 25.8254L110.738 13.938C110.761 13.8782 110.754 13.8106 110.718 13.7576C110.681 13.705 110.622 13.6732 110.558 13.6732H107.798C107.715 13.6732 107.641 13.7259 107.614 13.8035L104.786 21.8809L101.689 13.7982C101.66 13.723 101.588 13.6732 101.508 13.6732H96.9772L96.9778 13.6726ZM91.0832 13.6609H88.4315C88.3244 13.6609 88.2371 13.7482 88.2371 13.8553V25.4242C88.2371 25.5313 88.3244 25.6186 88.4315 25.6186H91.0832C91.1901 25.6186 91.2776 25.5313 91.2776 25.4242V13.8561C91.2776 13.8306 91.2726 13.8052 91.2629 13.7816C91.2531 13.758 91.2388 13.7365 91.2207 13.7185C91.2026 13.7004 91.1811 13.6861 91.1575 13.6764C91.1339 13.6666 91.1086 13.6617 91.083 13.6618L91.0832 13.6609ZM89.7724 8.39333C88.7219 8.39333 87.8695 9.24371 87.8695 10.2942C87.8695 11.3453 88.7221 12.1967 89.7724 12.1967C90.8225 12.1967 91.6741 11.3453 91.6741 10.2942C91.6741 9.24392 90.8221 8.39333 89.7735 8.39333H89.7724ZM113.002 17.3806C111.953 17.3806 111.136 16.5377 111.136 15.5143C111.136 14.4908 111.964 13.6384 113.012 13.6384C114.062 13.6384 114.878 14.481 114.878 15.5036C114.878 16.5271 114.051 17.3806 113.002 17.3806H113.002ZM113.013 13.824C112.057 13.824 111.334 14.5838 111.334 15.5143C111.334 16.4444 112.052 17.194 113.003 17.194C113.959 17.194 114.683 16.4347 114.683 15.5036C114.683 14.5736 113.964 13.824 113.013 13.824H113.013ZM113.426 15.6955L113.954 16.4345H113.509L113.034 15.7566H112.625V16.4345H112.253V14.4757H113.126C113.581 14.4757 113.881 14.7086 113.881 15.1006C113.883 15.4217 113.696 15.6179 113.428 15.6956H113.426V15.6955ZM113.111 14.8118H112.625V15.4314H113.111C113.353 15.4314 113.498 15.3128 113.498 15.1213C113.498 14.9197 113.353 14.8118 113.111 14.8118H113.111V14.8118Z" fill="#2EBD59"/>
</svg>
