<svg width="60" height="60" viewBox="0 0 60 60" fill="none" xmlns="http://www.w3.org/2000/svg">
<path fill-rule="evenodd" clip-rule="evenodd" d="M29.999 30C29.999 25.8579 33.3569 22.5 37.499 22.5C41.6412 22.5 44.999 25.8579 44.999 30C44.999 34.1421 41.6412 37.5 37.499 37.5C33.3569 37.5 29.999 34.1421 29.999 30Z" fill="#1ABCFE"/>
<path fill-rule="evenodd" clip-rule="evenodd" d="M14.999 44.9995C14.999 40.8574 18.3569 37.4995 22.499 37.4995H29.999V44.9995C29.999 49.1417 26.6412 52.4995 22.499 52.4995C18.3569 52.4995 14.999 49.1417 14.999 44.9995Z" fill="#0ACF83"/>
<path fill-rule="evenodd" clip-rule="evenodd" d="M29.999 7.49951V22.4995H37.499C41.6412 22.4995 44.999 19.1416 44.999 14.9995C44.999 10.8574 41.6412 7.49951 37.499 7.49951H29.999Z" fill="#FF7262"/>
<path fill-rule="evenodd" clip-rule="evenodd" d="M14.999 14.9995C14.999 19.1416 18.3569 22.4995 22.499 22.4995H29.999V7.49951H22.499C18.3569 7.49951 14.999 10.8574 14.999 14.9995Z" fill="#F24E1E"/>
<path fill-rule="evenodd" clip-rule="evenodd" d="M14.999 30C14.999 34.1421 18.3569 37.5 22.499 37.5H29.999V22.5H22.499C18.3569 22.5 14.999 25.8579 14.999 30Z" fill="#A259FF"/>
</svg>
