<svg width="40" height="40" viewBox="0 0 40 40" fill="none" xmlns="http://www.w3.org/2000/svg">
<path d="M37.1428 0H2.85714C1.27918 0 0 1.27918 0 2.85714V12.8571C0 14.4351 1.27918 15.7142 2.85714 15.7142H37.1428C38.7207 15.7142 39.9999 14.4351 39.9999 12.8571V2.85714C39.9999 1.27918 38.7207 0 37.1428 0Z" fill="#E9FF97"/>
<path d="M17.1428 20H2.85714C1.27918 20 0 21.2792 0 22.8571V37.1428C0 38.7208 1.27918 40 2.85714 40H17.1428C18.7208 40 20 38.7208 20 37.1428V22.8571C20 21.2792 18.7208 20 17.1428 20Z" fill="#E9FF97"/>
<path d="M38.5729 21.4287H25.7157C25.3369 21.4287 24.9735 21.5792 24.7056 21.8471C24.4377 22.115 24.2872 22.4784 24.2872 22.8573C24.2872 23.2362 24.4377 23.5995 24.7056 23.8674C24.9735 24.1353 25.3369 24.2858 25.7157 24.2858H38.5729C38.9517 24.2858 39.3151 24.1353 39.583 23.8674C39.8509 23.5995 40.0014 23.2362 40.0014 22.8573C40.0014 22.4784 39.8509 22.115 39.583 21.8471C39.3151 21.5792 38.9517 21.4287 38.5729 21.4287Z" fill="white"/>
<path d="M38.5729 28.5713H25.7157C25.3369 28.5713 24.9735 28.7218 24.7056 28.9897C24.4377 29.2576 24.2872 29.621 24.2872 29.9999C24.2872 30.3787 24.4377 30.7421 24.7056 31.01C24.9735 31.2779 25.3369 31.4284 25.7157 31.4284H38.5729C38.9517 31.4284 39.3151 31.2779 39.583 31.01C39.8509 30.7421 40.0014 30.3787 40.0014 29.9999C40.0014 29.621 39.8509 29.2576 39.583 28.9897C39.3151 28.7218 38.9517 28.5713 38.5729 28.5713Z" fill="white"/>
<path d="M38.5729 35.7144H25.7157C25.3369 35.7144 24.9735 35.8649 24.7056 36.1328C24.4377 36.4007 24.2872 36.764 24.2872 37.1429C24.2872 37.5218 24.4377 37.8852 24.7056 38.1531C24.9735 38.421 25.3369 38.5715 25.7157 38.5715H38.5729C38.9517 38.5715 39.3151 38.421 39.583 38.1531C39.8509 37.8852 40.0014 37.5218 40.0014 37.1429C40.0014 36.764 39.8509 36.4007 39.583 36.1328C39.3151 35.8649 38.9517 35.7144 38.5729 35.7144Z" fill="white"/>
</svg>
