<svg width="57" height="58" viewBox="0 0 57 58" fill="none" xmlns="http://www.w3.org/2000/svg">
<rect x="0.312087" y="0.312087" width="56.3758" height="56.8004" rx="28.1879" fill="white"/>
<rect x="0.312087" y="0.312087" width="56.3758" height="56.8004" rx="28.1879" stroke="#C4CFE3" stroke-width="0.624174"/>
<path d="M14.1285 41.196H19.4232V28.3374L11.8594 22.6646V38.9268C11.8594 40.1824 12.8767 41.196 14.1285 41.196Z" fill="#4285F4"/>
<path d="M37.5771 41.196H42.8718C44.1274 41.196 45.141 40.1786 45.141 38.9268V22.6646L37.5771 28.3374" fill="#34A853"/>
<path d="M37.5771 18.5041V28.3371L45.141 22.6642V19.6387C45.141 16.8325 41.9377 15.2327 39.695 16.9157" fill="#FBBC04"/>
<path d="M19.4238 28.3364V18.5034L28.5004 25.3109L37.577 18.5034V28.3364L28.5004 35.1439" fill="#EA4335"/>
<path d="M11.8594 19.6387V22.6642L19.4232 28.3371V18.5041L17.3053 16.9157C15.0589 15.2327 11.8594 16.8325 11.8594 19.6387Z" fill="#C5221F"/>
</svg>
