<svg width="124" height="26" viewBox="0 0 124 26" fill="none" xmlns="http://www.w3.org/2000/svg">
<path d="M41.7041 20.7938H31.0869C30.7296 20.7938 30.4641 20.5183 30.4641 20.1509V18.8236C30.454 18.4964 30.5559 18.3544 30.7597 18.0989L39.213 8.04275H30.9333C30.576 8.04275 30.3105 7.76724 30.3105 7.39989V6.45999C30.3105 6.10269 30.576 5.81713 30.9333 5.81713H41.6525C42.0098 5.81713 42.2752 6.09265 42.2752 6.45999V7.81747C42.2752 8.06284 42.1934 8.26661 42.0098 8.4919L33.5464 18.5782H41.7142C42.0715 18.5782 42.3369 18.8537 42.3369 19.2211V20.161C42.3269 20.5183 42.0614 20.7938 41.7041 20.7938ZM62.6229 21.0693C63.3892 21.0593 63.9503 20.8957 64.1641 20.6503C64.2358 20.5585 64.276 20.4566 64.266 20.3547C64.2559 20.2729 64.2559 20.2729 64.0522 19.2727L64.0421 19.2526C64.0019 18.9872 63.8168 18.8753 63.6647 18.8753H63.6446C63.6446 18.8753 63.4509 18.8652 63.2672 18.8652C62.7263 18.8451 62.2771 18.7633 62.2671 17.9569V0.936841C62.2671 0.651284 62.1035 0.365728 61.7777 0.354248H61.6859L60.205 0.741687C59.9496 0.771821 59.6942 0.955495 59.7042 1.29271V17.9942C59.7128 19.9773 60.7446 21.0693 62.6229 21.0693ZM92.5963 20.7938H91.269C90.9117 20.7938 90.6462 20.5183 90.6462 20.1509V9.92111C90.6261 8.18625 90.1153 7.70554 88.2986 7.68545C86.2467 7.68545 84.1645 8.21638 83.47 8.4101V20.161C83.47 20.5283 83.2246 20.8038 82.8774 20.8038H81.5299C81.1726 20.8038 80.9072 20.5283 80.9072 20.161V8.67557C80.8871 7.6137 80.989 6.879 82.4584 6.38825C83.8675 5.88745 86.5724 5.46987 88.3589 5.46987C91.7583 5.46987 93.2191 6.73551 93.2191 9.67574V20.161C93.2091 20.5183 92.9436 20.7938 92.5963 20.7938ZM105.878 8.10446C105.389 7.97244 104.01 7.65531 102.459 7.65531C99.6104 7.68545 98.4165 8.47181 98.385 13.332C98.4151 18.6614 99.9677 18.947 102.489 18.9771V19.0891V18.9671C104.062 18.9671 105.409 18.6299 105.888 18.4979V8.10446H105.878ZM106.583 20.6001L106.429 20.6403C105.593 20.8541 104.439 21.1611 102.417 21.1611H102.407C96.8438 21.1511 95.7403 18.2726 95.7403 13.3004C95.7504 7.60366 97.5068 5.47992 102.244 5.46987C103.918 5.46987 105.062 5.69516 105.888 5.89893L105.878 1.30419C105.868 1.10043 105.96 0.834959 106.429 0.753166L107.91 0.365728H107.992C108.329 0.375772 108.451 0.682853 108.451 0.948321V18.2023C108.471 19.2828 108.349 20.2112 106.583 20.6001ZM117.374 18.9355C113.729 18.9154 113.545 16.9955 113.515 13.3205C113.545 9.62551 113.719 7.69549 117.374 7.6754C121.019 7.69549 121.212 9.62551 121.232 13.3205C121.202 16.9955 121.019 18.9255 117.374 18.9355ZM117.374 5.45983C111.361 5.46987 110.85 9.52363 110.84 13.3205C110.84 17.1074 111.351 21.1411 117.374 21.1511C123.386 21.1411 123.897 17.1189 123.907 13.3205C123.897 9.35 123.388 5.46987 117.374 5.45983ZM75.6696 13.4023C75.0669 13.4124 72.1468 13.454 70.983 13.708L70.8912 13.7281C69.5839 14.0237 68.5536 14.269 68.5335 16.2493C68.5335 18.7504 70.4018 18.9757 72.3103 18.9857V19.0977V18.9857C73.5042 18.9857 74.6378 18.8121 75.6696 18.4649V13.4023ZM78.2525 9.75753V17.7C78.2826 19.6702 77.7833 20.303 75.8432 20.7622C74.9951 20.9459 73.6893 21.1497 72.2802 21.1597C70.2081 21.1497 65.8889 21.1497 65.8789 16.3713C65.8688 12.6145 68.0643 11.9501 70.7276 11.5426C72.4739 11.2571 74.2504 11.2154 75.1487 11.2154H75.6394V9.85798C75.6294 8.95969 75.6294 8.41871 74.8129 8.10159C74.3121 7.88778 73.5573 7.78446 72.4438 7.78446C70.6056 7.78446 68.9525 8.20347 67.8605 8.48903L67.4415 8.59091C67.4013 8.60095 67.3497 8.611 67.288 8.62104C67.0943 8.62104 66.879 8.49907 66.8087 8.24365L66.7987 8.22356L66.5533 6.94788V6.87613C66.5533 6.58053 66.7671 6.39686 66.9723 6.33515C67.8505 5.99794 70.178 5.467 72.6892 5.467C74.5173 5.467 75.8432 5.71238 76.7314 6.21175C78.2625 7.03254 78.2525 8.54355 78.2525 9.75753ZM54.0778 18.4763C53.046 18.8236 51.9138 18.9972 50.7185 18.9972V19.1091V18.9972C48.81 18.9771 46.9417 18.7619 46.9417 16.2608C46.9518 14.2705 47.9835 14.0351 49.2993 13.7395L49.3912 13.7194C50.5549 13.464 53.4751 13.4138 54.0778 13.4138V18.4763ZM55.1396 6.21462C54.2514 5.71382 52.9241 5.46987 51.0974 5.46987C48.5862 5.46987 46.2687 6.00081 45.3805 6.33802C45.1868 6.39973 44.9715 6.5834 44.9615 6.879V6.94071L45.2054 8.21638L45.2155 8.24652C45.2972 8.50194 45.501 8.62391 45.6947 8.62391C45.7564 8.62391 45.8067 8.61387 45.8483 8.59378L46.2673 8.4919C47.3593 8.21638 49.0138 7.78733 50.8505 7.78733C51.9626 7.78733 52.7189 7.88921 53.2297 8.10446C54.0462 8.42158 54.0462 8.96256 54.0562 9.86085V11.1982H53.5554C52.6571 11.1982 50.8807 11.2384 49.1343 11.5254C46.4696 11.9444 44.2641 12.5973 44.2856 16.3641C44.2856 21.1425 48.6034 21.1525 50.687 21.1525C52.0961 21.1525 53.3918 20.9387 54.25 20.755C56.19 20.2959 56.6793 19.663 56.6592 17.6928V9.75753C56.6506 8.54355 56.6506 7.03254 55.1396 6.21462Z" fill="#0C1523"/>
<path d="M22.9805 9.85935C21.2341 7.66387 18.8047 5.54156 15.6091 3.62159L15.599 3.61154C12.3934 1.73318 9.37133 0.641182 6.64634 0.19204C4.95166 -0.0935169 4.13517 0.232219 3.76782 0.457507C3.40047 0.671316 2.71599 1.23382 2.10327 2.87685C1.12319 5.52147 0.550642 8.74726 0.520508 12.5341V12.5442C0.540597 16.331 1.12319 19.5683 2.10327 22.2115C2.71599 23.866 3.40047 24.417 3.76782 24.6409C4.13517 24.8547 4.95166 25.1919 6.64634 24.9063C9.37276 24.4572 12.3833 23.3551 15.599 21.4768L15.6091 21.4667C18.8047 19.5468 21.2341 17.4244 22.9805 15.229C24.0624 13.8614 24.1959 12.9732 24.1959 12.5442C24.1959 12.1151 24.0725 11.2283 22.9805 9.85935Z" fill="#FF6900"/>
</svg>
