<svg width="60" height="60" viewBox="0 0 60 60" fill="none" xmlns="http://www.w3.org/2000/svg">
<rect width="60" height="60" rx="30" fill="#FFFC00"/>
<path d="M45.6453 39.5838C39.7871 36.748 38.8535 32.3696 38.8119 32.0449C38.7617 31.6515 38.7046 31.3422 39.1386 30.9421C39.5571 30.5554 41.4138 29.4062 41.929 29.0467C42.7805 28.4513 43.1555 27.8569 42.8791 27.1262C42.6858 26.6207 42.2151 26.4303 41.7192 26.4303C41.5628 26.4308 41.407 26.4483 41.2543 26.4825C40.3187 26.6855 39.4102 27.1542 38.8844 27.2808C38.8212 27.2971 38.7563 27.3059 38.6911 27.3069C38.4108 27.3069 38.3045 27.1823 38.3316 26.8449C38.3973 25.8223 38.5365 23.8265 38.375 21.962C38.1537 19.3968 37.3264 18.1259 36.3453 17.0018C35.8708 16.4567 33.6671 14.1147 29.4143 14.1147C25.1616 14.1147 22.9608 16.4567 22.4891 16.995C21.5052 18.1191 20.6788 19.3901 20.4594 21.9552C20.298 23.8197 20.443 25.8146 20.5029 26.8382C20.5222 27.1591 20.4237 27.3002 20.1434 27.3002C20.0781 27.299 20.0132 27.2903 19.9501 27.2741C19.4252 27.1475 18.5167 26.6787 17.5811 26.4757C17.4285 26.4415 17.2726 26.424 17.1162 26.4235C16.6184 26.4235 16.1497 26.6168 15.9563 27.1194C15.6799 27.8501 16.053 28.4445 16.9074 29.0399C17.4226 29.3995 19.2793 30.5477 19.6978 30.9353C20.1308 31.3354 20.0747 31.6447 20.0245 32.0381C19.9829 32.3677 19.0483 36.7461 13.1911 39.577C12.848 39.7433 12.2642 40.0951 13.2936 40.6634C14.9096 41.5565 15.9853 41.4608 16.8214 41.9992C17.5308 42.4563 17.1114 43.4422 17.6275 43.7979C18.2615 44.2357 20.1356 43.767 22.5568 44.5663C24.5865 45.2351 25.8198 47.1247 29.4192 47.1247C33.0185 47.1247 34.2876 45.2264 36.2815 44.5663C38.6979 43.767 40.5758 44.2357 41.2108 43.7979C41.726 43.4422 41.3075 42.4563 42.0169 41.9992C42.853 41.4608 43.9278 41.5565 45.5448 40.6634C46.5722 40.1019 45.9884 39.7501 45.6453 39.5838Z" fill="white"/>
<path d="M48.1942 39.2504C47.9313 38.5351 47.4307 38.1524 46.8604 37.8354C46.7531 37.7725 46.6546 37.7223 46.5705 37.6836C46.4004 37.5957 46.2264 37.5106 46.0534 37.4207C44.2759 36.4784 42.888 35.2895 41.9253 33.8803C41.6519 33.4836 41.4148 33.0631 41.2169 32.6238C41.1347 32.389 41.1386 32.2556 41.1975 32.1338C41.256 32.04 41.3333 31.9593 41.4247 31.897C41.7301 31.695 42.0452 31.4901 42.2588 31.3519C42.6396 31.1054 42.9411 30.9102 43.1354 30.772C43.8651 30.2616 44.3755 29.7194 44.6944 29.1134C44.917 28.6947 45.0467 28.233 45.0749 27.7597C45.1031 27.2864 45.029 26.8125 44.8578 26.3704C44.3745 25.0984 43.1731 24.3088 41.7175 24.3088C41.4105 24.3085 41.1043 24.3409 40.8041 24.4054C40.7239 24.4228 40.6437 24.4412 40.5654 24.4615C40.5789 23.5916 40.5596 22.6734 40.4823 21.7697C40.2078 18.5927 39.0953 16.9274 37.9355 15.5994C37.1928 14.7672 36.3179 14.0631 35.3461 13.5155C33.5861 12.5103 31.5902 12 29.4145 12C27.2389 12 25.2527 12.5103 23.4907 13.5155C22.5165 14.0633 21.6399 14.7687 20.8965 15.6032C19.7367 16.9312 18.6242 18.5995 18.3497 21.7736C18.2724 22.6773 18.2531 23.6003 18.2656 24.4653C18.1873 24.445 18.1081 24.4267 18.0279 24.4093C17.7277 24.3447 17.4215 24.3123 17.1145 24.3126C15.6579 24.3126 14.4546 25.1023 13.9733 26.3742C13.8012 26.8166 13.7264 27.2908 13.7539 27.7646C13.7814 28.2384 13.9106 28.7007 14.1327 29.1202C14.4527 29.7262 14.963 30.2684 15.6927 30.7787C15.886 30.914 16.1885 31.1093 16.5694 31.3586C16.7752 31.492 17.0758 31.6873 17.3706 31.8825C17.4738 31.9492 17.5614 32.0372 17.6277 32.1406C17.6896 32.2672 17.6915 32.4035 17.5997 32.6548C17.4044 33.0848 17.1712 33.4965 16.9028 33.8852C15.9614 35.2625 14.6141 36.43 12.8936 37.3647C11.9822 37.8479 11.035 38.1707 10.6349 39.2581C10.3333 40.0787 10.5305 41.0124 11.2969 41.7991C11.5782 42.0928 11.9045 42.3397 12.2635 42.5308C13.0104 42.9412 13.8046 43.259 14.6286 43.477C14.7986 43.5209 14.96 43.5931 15.106 43.6906C15.3854 43.9351 15.3457 44.3034 15.7178 44.8427C15.9046 45.1214 16.142 45.3627 16.4176 45.5541C17.1986 46.0934 18.0762 46.1272 19.006 46.163C19.8459 46.1949 20.7979 46.2316 21.8853 46.5902C22.3357 46.739 22.8035 47.0271 23.3457 47.3634C24.6476 48.1637 26.4299 49.2588 29.4126 49.2588C32.3953 49.2588 34.1902 48.1579 35.5018 47.3547C36.0401 47.0242 36.505 46.739 36.9429 46.5941C38.0302 46.2345 38.9822 46.1988 39.8221 46.1669C40.7519 46.1311 41.6296 46.0973 42.4105 45.5579C42.7369 45.3303 43.0089 45.0333 43.2069 44.6881C43.4747 44.2328 43.4679 43.9148 43.7192 43.6925C43.8562 43.5997 44.0078 43.5304 44.1677 43.4876C45.0028 43.269 45.8079 42.9482 46.5647 42.5327C46.9461 42.3281 47.2894 42.0593 47.5795 41.7382L47.5892 41.7266C48.3083 40.9573 48.489 40.0507 48.1942 39.2504ZM45.543 40.675C43.926 41.5681 42.8513 41.4724 42.0152 42.0108C41.3048 42.4679 41.7252 43.4538 41.2091 43.8095C40.5751 44.2473 38.701 43.7786 36.2798 44.5779C34.283 45.238 33.0091 47.1363 29.4174 47.1363C25.8258 47.1363 24.5819 45.2419 22.5522 44.573C20.1359 43.7737 18.2579 44.2425 17.6229 43.8047C17.1077 43.449 17.5262 42.4631 16.8168 42.0059C15.9798 41.4676 14.905 41.5633 13.289 40.675C12.2596 40.1067 12.8434 39.7549 13.1865 39.5887C19.0437 36.7529 19.9783 32.3745 20.0199 32.0497C20.0701 31.6563 20.1262 31.347 19.6932 30.9469C19.2747 30.5603 17.418 29.4111 16.9028 29.0515C16.0503 28.4562 15.6753 27.8617 15.9517 27.131C16.1451 26.6255 16.6167 26.4351 17.1116 26.4351C17.268 26.4356 17.4239 26.4531 17.5765 26.4873C18.5121 26.6903 19.4206 27.1591 19.9455 27.2857C20.0086 27.3019 20.0735 27.3107 20.1388 27.3118C20.4191 27.3118 20.5176 27.1707 20.4983 26.8498C20.4384 25.8262 20.2934 23.8313 20.4548 21.9669C20.6761 19.4017 21.5025 18.1307 22.4845 17.0066C22.9562 16.4663 25.1724 14.1244 29.4107 14.1244C33.6489 14.1244 35.871 16.4567 36.3426 16.995C37.3256 18.1191 38.153 19.3901 38.3724 21.9553C38.5338 23.8197 38.3946 25.8156 38.3289 26.8382C38.3066 27.1755 38.4081 27.3002 38.6884 27.3002C38.7536 27.2991 38.8185 27.2904 38.8817 27.2741C39.4075 27.1475 40.316 26.6787 41.2516 26.4757C41.4043 26.4415 41.5601 26.424 41.7165 26.4235C42.2143 26.4235 42.6831 26.6168 42.8764 27.1194C43.1528 27.8501 42.7797 28.4446 41.9263 29.0399C41.4111 29.3995 39.5544 30.5477 39.1359 30.9353C38.7019 31.3354 38.759 31.6447 38.8092 32.0381C38.8508 32.3677 39.7845 36.7461 45.6426 39.5771C45.9886 39.7501 46.5724 40.1019 45.543 40.675Z" fill="black"/>
</svg>
