<svg width="98" height="90" viewBox="0 0 98 90" fill="none" xmlns="http://www.w3.org/2000/svg">
<path d="M30.1747 26.6348L25.7949 31.0146C25.1164 31.6931 24.6894 32.5787 24.5812 33.5322C23.0039 47.4303 21.1883 61.4233 19.6284 75.3144C19.3855 77.4777 19.5052 79.9435 20.8343 81.6675C21.4734 82.4966 23.9464 83.3443 26.1356 83.5609C44.7941 85.4069 63.8892 87.5633 82.5476 89.4094C84.2848 89.5813 86.0848 89.7466 87.7375 89.1844C90.5158 88.2394 93.0855 84.9275 92.5284 82.0462C91.3789 83.7596 88.6047 84.8752 86.5642 85.181C84.5238 85.4868 82.4459 85.223 80.3996 84.9591C61.7637 82.5554 43.1277 80.1518 24.4918 77.7482C25.8565 60.6616 27.8774 43.6211 30.1747 26.6348Z" fill="#221F1A"/>
<path d="M3.25063 12.9751C1.83912 14.988 0.0710464 17.1068 0.0021915 19.5643C-0.118103 23.8577 4.74165 48.0751 7.75245 62.0146C8.14926 63.8518 8.6308 65.8204 10.0536 67.0485C12.0127 68.7395 14.9465 68.3962 17.4966 67.9551C19.4965 67.6093 21.7663 67.0774 22.7241 65.2879C23.5925 63.6654 23.0891 61.439 24.3249 60.0754C20.7123 62.1322 16.4774 63.0786 12.3329 62.7552C9.2856 46.1771 6.29796 29.5532 3.25063 12.9751Z" fill="#221F1A"/>
<path d="M60.7895 59.8254C57.2376 59.8254 53.9355 57.5753 52.9106 54.176C52.3279 52.2412 52.5541 50.2107 53.5465 48.4558C54.5934 46.6051 56.3491 45.2863 58.4901 44.744C62.7485 43.6669 67.2118 46.0849 68.4341 50.1371C69.0168 52.0718 68.7907 54.1023 67.7975 55.8572C66.7506 57.708 64.9949 59.0253 62.8532 59.5675C62.1658 59.7429 61.4732 59.8254 60.7895 59.8254ZM60.5677 46.748C60.0645 46.748 59.5532 46.8084 59.0463 46.9366C57.5102 47.3271 56.2563 48.2613 55.5165 49.5698C54.8306 50.7825 54.6752 52.1852 55.0782 53.5217C55.9542 56.4334 59.1937 58.1588 62.2969 57.3749C63.8345 56.9845 65.0877 56.0503 65.8282 54.7433C66.5141 53.5306 66.6695 52.1278 66.2665 50.7913C65.5327 48.3556 63.1456 46.748 60.5677 46.748Z" fill="#221F1A"/>
<path d="M72.1437 78.2841C72.1061 78.2841 72.0678 78.2826 72.0295 78.2782L70.7018 78.1456L41.5654 75.3194C41.2324 75.2885 40.9311 75.1102 40.7417 74.8346C40.5524 74.5591 40.4949 74.2143 40.584 73.8916C41.7665 69.6184 44.0512 66.3266 47.5685 63.8319C50.9856 61.4036 54.9272 60.3486 58.9646 60.7774C59.3477 60.8216 59.7183 60.8746 60.0867 60.9468C63.4161 61.6025 66.4957 63.3987 68.7583 66.0083C70.1272 67.5864 71.1358 69.4519 71.9322 71.8773C72.3279 73.0812 72.6476 74.3381 72.9408 75.5213C72.9615 75.6038 72.9931 75.7011 73.0263 75.8057C73.1604 76.2256 73.3269 76.7472 73.2665 77.2792C73.2017 77.8568 72.7124 78.2841 72.1437 78.2841ZM43.1737 73.202L70.6952 75.872C70.4256 74.7845 70.1316 73.6485 69.7824 72.5846C69.0729 70.4244 68.2293 68.8537 67.0483 67.4907C65.1143 65.2612 62.4878 63.7258 59.652 63.1689C59.3426 63.1084 59.0294 63.0642 58.7148 63.0274C55.2477 62.6605 51.8402 63.5741 48.8784 65.6768C46.1664 67.6012 44.2907 70.0722 43.1737 73.202Z" fill="#221F1A"/>
<path d="M14.6077 64.5878C13.8327 64.5878 13.0753 64.355 12.4211 63.9041C11.5613 63.3132 10.9866 62.4217 10.8017 61.3932L2.5397 15.5457C2.35552 14.5342 2.57728 13.5071 3.16595 12.6569C3.75609 11.8038 4.64388 11.2328 5.66428 11.0478L66.6057 0.0628303C67.6357 -0.122095 68.673 0.104089 69.5254 0.70307C70.3712 1.29542 70.9319 2.18247 71.105 3.19993L76.1024 31.2732C76.2122 31.8892 75.8018 32.4771 75.1867 32.5861C74.5752 32.6952 73.9835 32.287 73.8745 31.6711L68.8756 3.5882C68.8027 3.16309 68.5728 2.79914 68.2258 2.55601C67.8714 2.30625 67.4375 2.20826 67.0072 2.29078L6.06655 13.2751C5.64218 13.3517 5.27306 13.5896 5.02699 13.9448C4.78312 14.2977 4.69029 14.7228 4.76691 15.142L13.0296 60.9924C13.1062 61.4227 13.3457 61.794 13.703 62.0401C14.0611 62.2877 14.4928 62.3761 14.9194 62.295L25.8911 60.2395C26.5041 60.126 27.0965 60.5283 27.2121 61.1442C27.3271 61.7587 26.9226 62.3495 26.3081 62.4645L15.3401 64.5186C15.0955 64.5657 14.8509 64.5878 14.6077 64.5878Z" fill="#221F1A"/>
<path d="M5.50163 25.1205C4.96453 25.1205 4.48785 24.7366 4.38913 24.1899C4.27861 23.5747 4.68751 22.9861 5.30197 22.8748L71.2518 10.9821C71.8692 10.8746 72.4564 11.2798 72.5669 11.895C72.6774 12.5102 72.2685 13.0988 71.6541 13.2101L5.70423 25.1028C5.63572 25.1146 5.56867 25.1205 5.50163 25.1205Z" fill="#221F1A"/>
<path d="M9.79109 19.8997C9.59069 19.8997 9.38956 19.8666 9.19432 19.7973C8.45904 19.5372 7.97204 18.8263 7.95362 17.9871C7.93594 17.1472 8.39199 16.4156 9.11622 16.1239C9.30778 16.0472 9.50891 16.0229 9.70341 16.0539C9.90823 16.0244 10.1219 16.0325 10.3319 16.0797C10.8505 16.1946 11.3117 16.535 11.5659 16.9903C11.9454 17.6747 11.84 18.5301 11.2978 19.1711C10.8992 19.6419 10.3473 19.8997 9.79109 19.8997Z" fill="#221F1A"/>
<path d="M16.8204 18.2731C16.6192 18.2731 16.4181 18.24 16.2236 18.1707C15.4869 17.9099 15.0006 17.199 14.9829 16.3598C14.9652 15.5199 15.422 14.7898 16.1463 14.498C16.3385 14.4199 16.5397 14.3993 16.732 14.428C16.9383 14.4 17.1519 14.4074 17.3612 14.4538C17.8806 14.5695 18.3418 14.9106 18.5952 15.3666C18.9739 16.0474 18.8693 16.9028 18.3278 17.5438C17.9292 18.0153 17.3774 18.2731 16.8204 18.2731Z" fill="#221F1A"/>
<path d="M24.3165 16.6282C24.1153 16.6282 23.9142 16.5951 23.7197 16.5258C22.9822 16.2636 22.496 15.5526 22.479 14.7127C22.4613 13.8743 22.9181 13.1434 23.6423 12.8524C23.8361 12.7735 24.0372 12.7544 24.2281 12.7824C24.4344 12.7529 24.648 12.761 24.8573 12.8082C25.3767 12.9238 25.8379 13.265 26.0913 13.721C26.4707 14.4018 26.3654 15.2571 25.8239 15.8989C25.4253 16.3704 24.8727 16.6282 24.3165 16.6282Z" fill="#221F1A"/>
<path d="M88.7937 86.0316C88.6655 86.0316 88.5366 86.0257 88.4069 86.0124L26.9167 79.8487C25.8793 79.7441 24.9466 79.2416 24.2901 78.4327C23.6337 77.6237 23.3338 76.6085 23.4443 75.5741L28.3953 29.2528C28.6222 27.1244 30.5489 25.5654 32.667 25.8063L94.2295 32.3855C95.2617 32.496 96.19 33.0029 96.8406 33.8119C97.4919 34.6208 97.788 35.6346 97.6753 36.6661L92.6521 82.5732C92.4355 84.5507 90.7447 86.0316 88.7937 86.0316ZM32.2537 28.0475C31.4374 28.0475 30.7345 28.6642 30.6454 29.493L25.6944 75.8157C25.6487 76.246 25.7739 76.6689 26.0473 77.0063C26.3214 77.3438 26.7104 77.553 27.1428 77.5972L88.6324 83.7609C89.5194 83.8478 90.3055 83.2039 90.4021 82.3257L95.4253 36.42C95.4724 35.9912 95.3486 35.5683 95.0775 35.2309C94.8064 34.8934 94.4196 34.6827 93.9886 34.637L32.4268 28.0564C32.3686 28.0505 32.3104 28.0475 32.2537 28.0475Z" fill="#221F1A"/>
<path d="M95.5048 46.4338C95.4643 46.4338 95.4238 46.4324 95.3833 46.4279L28.7497 39.3065C28.1279 39.2402 27.6785 38.6817 27.7448 38.0599C27.8103 37.4381 28.371 36.9798 28.9899 37.0549L95.6235 44.1764C96.2453 44.2427 96.6947 44.8012 96.6284 45.423C96.5665 46.0036 96.0758 46.4338 95.5048 46.4338Z" fill="#221F1A"/>
<path d="M34.6527 35.5359C34.2733 35.5359 33.9019 35.4225 33.5881 35.1941C32.956 34.7388 32.6885 33.9195 32.9073 33.1091C33.1269 32.2986 33.7701 31.7254 34.5481 31.6503C34.75 31.6267 34.9511 31.6665 35.1264 31.7461C35.3327 31.7755 35.5361 31.8433 35.7254 31.9479C36.191 32.2043 36.5381 32.6611 36.6537 33.168C36.8261 33.9313 36.4843 34.7226 35.7836 35.1867C35.4307 35.4195 35.0373 35.5359 34.6527 35.5359Z" fill="#221F1A"/>
<path d="M41.858 35.9515C41.4786 35.9515 41.1073 35.838 40.7934 35.6096C40.162 35.1558 39.8938 34.338 40.1119 33.5275C40.33 32.7156 40.9732 32.141 41.7505 32.0643C41.9582 32.0408 42.1586 32.0806 42.3354 32.1616C42.541 32.1925 42.7443 32.2603 42.933 32.3649C43.3986 32.6213 43.7441 33.0781 43.8591 33.5865C44.0307 34.3483 43.6896 35.1396 42.9882 35.6022C42.6353 35.8351 42.2426 35.9515 41.858 35.9515Z" fill="#221F1A"/>
<path d="M49.5114 36.4778C49.1327 36.4778 48.7636 36.3658 48.4497 36.1389C47.8146 35.6792 47.5472 34.8599 47.7675 34.0495C47.987 33.239 48.6309 32.6673 49.4075 32.5922C49.6138 32.5686 49.8134 32.6084 49.9895 32.6894C50.1943 32.7204 50.397 32.7882 50.5856 32.8913C51.0505 33.1477 51.3975 33.603 51.5131 34.1099C51.6855 34.8732 51.3444 35.6644 50.6445 36.1271C50.2916 36.3614 49.8967 36.4778 49.5114 36.4778Z" fill="#221F1A"/>
<path d="M92.6883 45.154L31.9861 38.812C30.3373 38.6397 29.1408 37.1628 29.3143 35.5142L29.908 29.8739C29.9681 29.3033 30.1905 28.7619 30.5489 28.3138L30.9512 27.811C31.6029 26.9964 32.6308 26.5789 33.6659 26.7082L93.3721 34.1715C94.8734 34.3592 96 35.6354 96 37.1483V42.1702C96 43.9504 94.4588 45.339 92.6883 45.154Z" fill="#F65510"/>
<path d="M10.0536 67.0486C12.0127 68.7397 14.9464 68.3963 17.4965 67.9553C18.5252 67.7774 19.6225 67.5466 20.5787 67.1244C20.2567 69.8566 19.935 72.5886 19.6289 75.3145C19.3859 77.4777 19.5057 79.9435 20.8348 81.6675C21.4739 82.4966 23.9469 83.3442 26.1361 83.5609C83.032 89.19 84.56 90.2653 87.738 89.1844C90.2408 88.3331 92.5518 85.5626 92.5828 82.9149C92.6952 82.3606 95.9019 52.8129 97.6765 36.6664C97.7892 35.635 97.4931 34.6212 96.8418 33.8122C96.1912 33.0033 95.2636 32.4964 94.2315 32.3859L75.9502 30.4322L71.1025 3.20008C70.7431 1.08774 68.7291 -0.318712 66.6032 0.0629776L5.66176 11.048C4.64135 11.2329 3.75356 11.8039 3.16342 12.6571C2.90574 13.0292 2.73187 13.4387 2.61804 13.8624C1.36049 15.6129 0.0609471 17.4646 0.00219081 19.5645C-0.118084 23.8578 4.74164 48.0753 7.75239 62.0148C8.14922 63.8519 8.63079 65.8205 10.0536 67.0486ZM90.4033 82.3261C90.3068 83.2043 89.5207 83.8482 88.6336 83.7613C23.7656 77.0808 26.8573 78.0024 26.0485 77.0067C25.2434 76.0128 25.708 77.3261 29.5881 39.3964L94.3435 46.3171L90.4033 82.3261ZM95.4265 36.4203L94.5898 44.0662L29.8288 37.1449L30.6466 29.4934C30.7357 28.6645 31.4386 28.0479 32.2549 28.0479C32.4354 28.0479 29.0241 27.6966 93.9898 34.6374C94.8889 34.7327 95.5233 35.5395 95.4265 36.4203ZM32.6682 25.8067C30.9696 25.6134 29.4103 26.5869 28.7358 28.0741C26.5183 30.543 24.8408 31.2487 24.5816 33.5322C23.5412 42.6995 22.4005 51.9068 21.2944 61.1003L14.9169 62.2952C14.4903 62.3762 14.0585 62.2878 13.7005 62.0403C13.3432 61.7942 13.1037 61.4229 13.0271 60.9926L6.53251 24.9536L70.6191 13.3969L73.6068 30.1818L32.6682 25.8067ZM5.02446 13.9449C5.27054 13.5898 5.63965 13.3518 6.06402 13.2752C70.4792 1.84313 67.1825 1.82263 68.2233 2.55616C69.1515 3.20651 68.749 3.70467 70.2223 11.168L6.13098 22.7255C4.92342 15.1892 4.36594 14.8979 5.02446 13.9449Z" fill="#221F1A"/>
<path d="M67.7991 55.8573C71.141 49.9519 65.2849 43.0258 58.4916 44.7441C54.1038 45.8554 51.6955 50.1368 52.9122 54.176C54.9008 60.7724 64.3791 61.9031 67.7991 55.8573ZM59.0479 46.9367C64.0154 45.6803 68.1593 50.6247 65.8297 54.7433C63.4138 59.0078 56.5093 58.2735 55.0797 53.5218C54.237 50.727 55.9054 47.7355 59.0479 46.9367Z" fill="#221F1A"/>
<path d="M71.9325 71.8774C66.5361 55.4436 44.9847 57.9902 40.5843 73.8917C40.397 74.5699 40.8671 75.2546 41.5657 75.3195C41.7186 75.3344 71.9696 78.2842 72.144 78.2842C72.7127 78.2842 73.202 77.8569 73.2668 77.2793C73.3272 76.7473 73.1607 76.2257 73.0266 75.8058C72.7674 74.9878 72.5687 73.8133 71.9325 71.8774ZM43.174 73.2021C46.8358 62.9415 59.8494 59.1918 67.0486 67.4908C69.1262 69.8885 69.921 72.7485 70.6955 75.8721L43.174 73.2021Z" fill="#221F1A"/>
<path d="M11.2978 19.1718C12.4979 17.7532 11.333 15.8202 9.70342 16.0546C8.94472 15.9339 7.92715 16.7298 7.95363 17.9879C7.97785 19.0912 10.1113 20.5733 11.2978 19.1718Z" fill="#221F1A"/>
<path d="M18.3278 17.5441C19.5244 16.1277 18.3736 14.2056 16.732 14.4284C15.9636 14.3136 14.9566 15.1098 14.9829 16.3602C15.0218 18.2065 17.1439 18.9446 18.3278 17.5441Z" fill="#221F1A"/>
<path d="M24.3165 16.6282C25.7289 16.6282 26.8062 15.0035 26.0913 13.7209C25.7382 13.0854 24.9832 12.6744 24.2281 12.7823C23.4545 12.6688 22.4528 13.467 22.479 14.7126C22.5013 15.8174 23.3221 16.6282 24.3165 16.6282Z" fill="#221F1A"/>
<path d="M35.7875 35.1872C37.3327 34.1635 36.773 31.9812 35.1303 31.7466C34.9549 31.667 34.7538 31.6272 34.5519 31.6508C32.8435 31.8158 32.2055 34.1959 33.5919 35.1946C33.9058 35.423 35.0718 35.6593 35.7875 35.1872Z" fill="#221F1A"/>
<path d="M41.8591 35.9518C43.0565 35.9518 44.1396 34.8269 43.8602 33.5868C43.6996 32.8765 43.0961 32.2763 42.3366 32.1619C41.6285 31.8374 40.4386 32.3157 40.113 33.5279C39.7656 34.8192 40.6561 35.9518 41.8591 35.9518Z" fill="#221F1A"/>
<path d="M50.6484 36.1272C51.9182 35.2878 51.8264 33.5735 50.5895 32.8913C50.4009 32.7882 50.1982 32.7204 49.9934 32.6895C49.2826 32.3623 48.0971 32.8474 47.7714 34.0495C47.5511 34.8599 47.8185 35.6792 48.4536 36.139C49.1052 36.6101 49.974 36.5749 50.6484 36.1272Z" fill="#221F1A"/>
</svg>
