<svg width="40" height="40" viewBox="0 0 40 40" fill="none" xmlns="http://www.w3.org/2000/svg">
<path d="M14.3347 1.05716L4.33475 38.2C4.12939 38.9618 4.58047 39.7458 5.34225 39.9512L5.34332 39.9514C5.46457 39.9835 5.58939 39.9998 5.71475 40C6.36091 40.0003 6.92671 39.5668 7.09475 38.9429L10.2719 27.1429H22.129L25.7747 38.9914C25.9629 39.5854 26.5175 39.9862 27.1405 39.9786V40H35.7119C35.8534 39.9905 35.9938 39.9696 36.1319 39.9371C36.8865 39.7068 37.3115 38.9084 37.0812 38.1537C37.0809 38.1529 37.0807 38.1522 37.0804 38.1514L25.6519 1.00859C25.4674 0.409033 24.9135 -7.38137e-05 24.2862 1.5472e-05H15.7147C15.5991 -0.000520242 15.1558 0.0109084 14.7706 0.347694C14.469 0.611265 14.3678 0.930283 14.3347 1.05716ZM11.0405 24.2857L15.8062 6.58287L21.2533 24.2857H11.0405Z" fill="#E9FF97"/>
<path d="M11.4286 39.9997H1.42857C0.639553 39.9997 0 39.3602 0 38.5711C0 37.7821 0.639553 37.1426 1.42857 37.1426H11.4286C12.2176 37.1426 12.8571 37.7821 12.8571 38.5711C12.8571 39.3602 12.2176 39.9997 11.4286 39.9997Z" fill="white"/>
<path d="M38.5705 39.9997H22.8563C22.0673 39.9997 21.4277 39.3602 21.4277 38.5711C21.4277 37.7821 22.0673 37.1426 22.8563 37.1426H38.5705C39.3596 37.1426 39.9991 37.7821 39.9991 38.5711C39.9991 39.3602 39.3596 39.9997 38.5705 39.9997Z" fill="white"/>
</svg>
