<svg width="166" height="54" viewBox="0 0 166 54" fill="none" xmlns="http://www.w3.org/2000/svg">
<rect width="166" height="53.5767" rx="3" fill="black"/>
<path d="M64.4892 39.0868L62.972 35.1883H56.785L55.3072 39.0868H53.2383L58.7948 25.1269H61.0213L66.5778 39.0868H64.4892ZM59.8588 27.1352L57.4746 33.3965H62.2824L59.8588 27.1352ZM70.0926 42.8278H68.2602V29.6161H70.0532V31.0928C70.3291 30.594 70.7428 30.1871 71.2946 29.8721C71.8463 29.557 72.4899 29.3995 73.2255 29.3995C74.5917 29.3995 75.6557 29.8655 76.4176 30.7975C77.1926 31.7295 77.5801 32.9108 77.5801 34.3416C77.5801 35.7855 77.1794 36.98 76.3782 37.9251C75.59 38.8702 74.5194 39.3428 73.1664 39.3428C72.4702 39.3428 71.8528 39.1984 71.3143 38.9096C70.7757 38.6208 70.3685 38.2533 70.0926 37.807V42.8278ZM75.6885 34.3416C75.6885 33.3834 75.4324 32.5958 74.9201 31.9789C74.4209 31.3488 73.7444 31.0338 72.8906 31.0338C72.0499 31.0338 71.3668 31.3488 70.8414 31.9789C70.3291 32.5958 70.0729 33.3834 70.0729 34.3416C70.0729 35.3261 70.3291 36.1334 70.8414 36.7634C71.3668 37.3804 72.0499 37.6888 72.8906 37.6888C73.7313 37.6888 74.4078 37.3804 74.9201 36.7634C75.4324 36.1334 75.6885 35.3261 75.6885 34.3416ZM81.7726 42.8278H79.9401V29.6161H81.7332V31.0928C82.0091 30.594 82.4228 30.1871 82.9745 29.8721C83.5263 29.557 84.1699 29.3995 84.9055 29.3995C86.2717 29.3995 87.3357 29.8655 88.0976 30.7975C88.8726 31.7295 89.2601 32.9108 89.2601 34.3416C89.2601 35.7855 88.8594 36.98 88.0581 37.9251C87.27 38.8702 86.1994 39.3428 84.8464 39.3428C84.1502 39.3428 83.5328 39.1984 82.9943 38.9096C82.4557 38.6208 82.0485 38.2533 81.7726 37.807V42.8278ZM87.3685 34.3416C87.3685 33.3834 87.1124 32.5958 86.6001 31.9789C86.1009 31.3488 85.4244 31.0338 84.5706 31.0338C83.7299 31.0338 83.0468 31.3488 82.5214 31.9789C82.0091 32.5958 81.7529 33.3834 81.7529 34.3416C81.7529 35.3261 82.0091 36.1334 82.5214 36.7634C83.0468 37.3804 83.7299 37.6888 84.5706 37.6888C85.4113 37.6888 86.0878 37.3804 86.6001 36.7634C87.1124 36.1334 87.3685 35.3261 87.3685 34.3416ZM105.65 28.2969L103.916 28.9073C103.824 28.3035 103.528 27.7587 103.029 27.2731C102.53 26.7742 101.84 26.5248 100.96 26.5248C100.185 26.5248 99.5415 26.748 99.0292 27.1943C98.5164 27.6406 98.2603 28.1919 98.2603 28.8482C98.2603 29.3601 98.4113 29.7933 98.7134 30.1477C99.0292 30.5021 99.4758 30.745 100.054 30.8762L102.142 31.3291C103.298 31.5785 104.192 32.0511 104.822 32.7468C105.453 33.4293 105.768 34.2629 105.768 35.2473C105.768 36.3762 105.321 37.3476 104.428 38.1614C103.535 38.9752 102.372 39.3821 100.94 39.3821C99.3773 39.3821 98.1486 38.9752 97.2554 38.1614C96.3753 37.3344 95.8629 36.3565 95.7185 35.2276L97.5706 34.637C97.6494 35.477 97.9778 36.1859 98.5558 36.7634C99.1343 37.341 99.9224 37.6298 100.921 37.6298C101.84 37.6298 102.55 37.4197 103.049 36.9997C103.548 36.5797 103.798 36.048 103.798 35.4049C103.798 34.8798 103.62 34.4269 103.266 34.0463C102.911 33.6525 102.392 33.3834 101.709 33.239L99.7188 32.8058C98.6806 32.5827 97.853 32.1429 97.2357 31.4866C96.6183 30.8303 96.3096 29.9968 96.3096 28.986C96.3096 27.8834 96.7562 26.9186 97.6494 26.0917C98.5558 25.2516 99.6466 24.8315 100.921 24.8315C102.353 24.8315 103.449 25.1794 104.211 25.8751C104.973 26.5708 105.453 27.3781 105.65 28.2969ZM110.517 26.6233V29.6161H112.566V31.2897H110.517V36.2121C110.517 36.6584 110.615 36.9866 110.812 37.1966C111.022 37.4066 111.364 37.5116 111.837 37.5116C112.113 37.5116 112.356 37.4854 112.566 37.4329V39.008C112.25 39.1262 111.83 39.1852 111.305 39.1852C110.49 39.1852 109.847 38.949 109.374 38.4764C108.901 38.0039 108.664 37.341 108.664 36.4878V31.2897H106.852V29.6161H107.364C107.85 29.6161 108.211 29.4848 108.448 29.2223C108.697 28.9467 108.822 28.5923 108.822 28.1591V26.6233H110.517ZM116.892 36.8422C117.47 37.4329 118.173 37.7282 119 37.7282C119.828 37.7282 120.524 37.4329 121.089 36.8422C121.667 36.2384 121.956 35.4048 121.956 34.3416C121.956 33.2915 121.667 32.4711 121.089 31.8804C120.524 31.2766 119.828 30.9747 119 30.9747C118.173 30.9747 117.47 31.2766 116.892 31.8804C116.327 32.4711 116.045 33.2915 116.045 34.3416C116.045 35.4048 116.327 36.2384 116.892 36.8422ZM115.513 30.7581C116.432 29.7999 117.595 29.3208 119 29.3208C120.406 29.3208 121.562 29.7999 122.468 30.7581C123.388 31.7032 123.848 32.8977 123.848 34.3416C123.848 35.7986 123.394 37.0063 122.488 37.9645C121.582 38.9096 120.419 39.3821 119 39.3821C117.582 39.3821 116.419 38.9096 115.513 37.9645C114.607 37.0063 114.153 35.7986 114.153 34.3416C114.153 32.8977 114.607 31.7032 115.513 30.7581ZM131.479 29.5177V31.4866C131.203 31.4472 130.934 31.4276 130.671 31.4276C128.937 31.4276 128.07 32.3989 128.07 34.3416V39.0868H126.218V29.6161H128.03V31.27C128.608 30.0624 129.554 29.4586 130.868 29.4586C131.078 29.4586 131.282 29.4783 131.479 29.5177ZM134.558 33.3768H139.74C139.714 32.668 139.478 32.0904 139.031 31.6441C138.584 31.1847 137.954 30.955 137.139 30.955C136.404 30.955 135.799 31.1978 135.327 31.6835C134.854 32.1561 134.598 32.7205 134.558 33.3768ZM140.016 35.838L141.612 36.3893C141.336 37.2688 140.824 37.9907 140.075 38.5552C139.326 39.1065 138.42 39.3821 137.356 39.3821C136.029 39.3821 134.9 38.9293 133.967 38.0236C133.047 37.1047 132.588 35.8708 132.588 34.3219C132.588 32.878 133.034 31.6835 133.928 30.7384C134.821 29.7933 135.885 29.3208 137.12 29.3208C138.551 29.3208 139.668 29.7736 140.469 30.6793C141.271 31.5719 141.671 32.773 141.671 34.2825C141.671 34.5188 141.658 34.7157 141.632 34.8732H134.499C134.512 35.7133 134.788 36.4025 135.327 36.9406C135.878 37.4788 136.555 37.7479 137.356 37.7479C138.709 37.7479 139.596 37.1113 140.016 35.838Z" fill="white"/>
<path opacity="0.6" d="M54.6863 16.5615V13.1637H55.5194C56.3902 13.1637 57.1108 13.7112 57.1108 14.8664C57.1108 16.0215 56.3827 16.5615 55.5119 16.5615H54.6863ZM55.5495 17.5216C57.0657 17.5216 58.1842 16.5465 58.1842 14.8664C58.1842 13.1862 57.0732 12.2036 55.557 12.2036H53.6504V17.5216H55.5495ZM60.7786 14.8589C60.7786 13.6587 61.6193 13.0887 62.4375 13.0887C63.2632 13.0887 64.1039 13.6587 64.1039 14.8589C64.1039 16.059 63.2632 16.629 62.4375 16.629C61.6193 16.629 60.7786 16.059 60.7786 14.8589ZM59.7052 14.8664C59.7052 16.5765 60.9963 17.6342 62.4375 17.6342C63.8862 17.6342 65.1773 16.5765 65.1773 14.8664C65.1773 13.1487 63.8862 12.0911 62.4375 12.0911C60.9963 12.0911 59.7052 13.1487 59.7052 14.8664ZM71.8293 15.879L70.6433 12.2036H69.5699L68.3914 15.864L67.4156 12.2036H66.3197L67.7984 17.5216H68.8793L70.0953 13.7337L71.3114 17.5216H72.3772L73.8485 12.2036H72.7901L71.8293 15.879ZM80.0286 17.5216V12.2036H78.9928V15.7214L76.7784 12.2036H75.4874V17.5216H76.5232V13.7487L78.9402 17.5216H80.0286ZM85.5879 17.5216V16.5315H83.2159V12.2036H82.18V17.5216H85.5879ZM87.9007 14.8589C87.9007 13.6587 88.7414 13.0887 89.5596 13.0887C90.3853 13.0887 91.226 13.6587 91.226 14.8589C91.226 16.059 90.3853 16.629 89.5596 16.629C88.7414 16.629 87.9007 16.059 87.9007 14.8589ZM86.8273 14.8664C86.8273 16.5765 88.1184 17.6342 89.5596 17.6342C91.0083 17.6342 92.2994 16.5765 92.2994 14.8664C92.2994 13.1487 91.0083 12.0911 89.5596 12.0911C88.1184 12.0911 86.8273 13.1487 86.8273 14.8664ZM97.4897 17.5216H98.6156L96.5889 12.2036H95.3879L93.3462 17.5216H94.4421L94.885 16.3065H97.0468L97.4897 17.5216ZM95.9659 13.3512L96.7015 15.3614H95.2303L95.9659 13.3512ZM101.27 16.5615V13.1637H102.103C102.974 13.1637 103.695 13.7112 103.695 14.8664C103.695 16.0215 102.966 16.5615 102.096 16.5615H101.27ZM102.133 17.5216C103.649 17.5216 104.768 16.5465 104.768 14.8664C104.768 13.1862 103.657 12.2036 102.141 12.2036H100.234V17.5216H102.133ZM110.156 14.8589C110.156 13.6587 110.996 13.0887 111.814 13.0887C112.64 13.0887 113.481 13.6587 113.481 14.8589C113.481 16.059 112.64 16.629 111.814 16.629C110.996 16.629 110.156 16.059 110.156 14.8589ZM109.082 14.8664C109.082 16.5765 110.373 17.6342 111.814 17.6342C113.263 17.6342 114.554 16.5765 114.554 14.8664C114.554 13.1487 113.263 12.0911 111.814 12.0911C110.373 12.0911 109.082 13.1487 109.082 14.8664ZM120.932 17.5216V12.2036H119.896V15.7214L117.681 12.2036H116.39V17.5216H117.426V13.7487L119.843 17.5216H120.932ZM129.795 13.1862V12.2036H125.388V13.1862H127.07V17.5216H128.113V13.1862H129.795ZM135.861 17.5216V12.2036H134.817V14.3413H132.498V12.2036H131.462V17.5216H132.498V15.3164H134.817V17.5216H135.861ZM141.348 17.5216V16.5465H139.051V15.3164H141.13V14.3938H139.051V13.1787H141.348V12.2036H138.015V17.5216H141.348Z" fill="white"/>
<path d="M40.7267 33.4768C40.1174 34.8251 39.8265 35.427 39.0419 36.6183C37.9488 38.282 36.4065 40.3541 34.4953 40.3716C32.7976 40.3875 32.3613 39.2676 30.0566 39.2811C27.752 39.2946 27.2717 40.3916 25.574 40.3757C23.6628 40.3588 22.2027 38.4876 21.1084 36.8228C18.0496 32.17 17.73 26.7102 19.6165 23.8078C20.9571 21.7439 23.0729 20.5379 25.0615 20.5379C27.0864 20.5379 28.3596 21.6472 30.0344 21.6472C31.6588 21.6472 32.6481 20.5361 34.9897 20.5361C36.7595 20.5361 38.6349 21.499 39.9714 23.1625C35.5925 25.5599 36.3045 31.8061 40.7267 33.4768Z" fill="white"/>
<path d="M33.4588 17.6243C34.3096 16.5331 34.9547 14.9938 34.7201 13.4192C33.3304 13.5142 31.7059 14.3979 30.7571 15.5493C29.8957 16.5942 29.1843 18.1441 29.4611 19.6507C30.9771 19.6982 32.5469 18.7928 33.4588 17.6243Z" fill="white"/>
</svg>
