<svg width="75" height="81" viewBox="0 0 75 81" fill="none" xmlns="http://www.w3.org/2000/svg">
<path d="M0.153036 24.9573C-0.223709 25.5803 0.152636 26.4473 0.659002 26.713L9.13238 31.1592L9.23995 37.8708C6.97472 39.6137 4.36063 40.9954 1.59786 41.9042C0.688025 41.7499 0.0406443 42.5996 0.282358 43.3926C0.329272 43.5472 3.35987 53.5299 3.32114 53.4023C3.45962 53.8594 3.85437 54.1559 4.29865 54.2131C5.06462 54.5603 4.95526 54.1643 13.1476 52.2843C15.1525 54.0819 16.7459 55.325 18.8011 57.1557L15.7353 65.0962C14.9529 65.7578 15.3787 66.8758 16.1872 67.188C16.3096 67.235 26.9481 72.2936 28.9151 71.3582C28.9243 71.3722 28.9306 71.3886 28.9401 71.4026C28.5285 72.7252 28.9576 74.1614 29.9181 74.9092C31.2653 76.7895 32.6007 78.4701 33.3645 79.2263C34.3723 80.5959 39.391 80.4577 39.8187 79.0594C41.0458 77.8159 42.2635 76.0579 43.4326 74.8579C44.3262 74.4241 45.0637 72.7338 44.4892 71.1427C44.5267 71.0814 44.5533 71.0128 44.5871 70.9491C44.8356 71.1367 45.1291 71.2291 45.4403 71.1856C48.8575 70.7423 52.1949 69.5837 55.0906 67.8352C55.3724 67.6645 58.2902 63.7427 58.524 63.4212C58.4036 62.458 57.1948 57.0429 57.0043 56.0946C57.0142 56.0863 59.3156 54.1726 59.7604 53.7995C66.9268 56.4446 67.2487 56.6145 67.5598 56.6145C68.0372 56.6145 68.4859 56.3213 68.6612 55.8481C68.6623 55.8451 68.6615 55.8419 68.6626 55.8389C71.3448 52.2569 73.1905 48.051 73.3856 47.2091C73.4625 46.9699 73.4504 46.7282 73.3797 46.5035C73.391 45.0288 73.5458 43.4028 73.5262 41.9606C71.2256 40.6799 68.4365 38.7505 65.9268 37.5833C66.2662 36.2495 66.4405 35.0087 66.438 33.8544C71.5799 32.2506 74.6477 30.2657 74.2196 30.5295C74.8156 30.2733 75.0903 29.582 74.8341 28.986C69.3365 16.2318 70.3324 19.2436 67.6525 15.7194C64.9117 16.456 61.7896 17.015 58.9356 17.5183L57.2966 15.4486C58.5954 12.4121 59.2955 8.99352 59.3247 7.12635C59.7899 6.49934 59.5311 5.71088 58.9417 5.39688C55.5412 3.58398 51.9142 2.17991 48.1627 1.22281C47.5868 1.073 46.9926 1.15477 46.6394 1.62925C44.8984 3.96659 43.4287 6.49016 42.2357 9.12786C39.5549 8.32332 36.727 7.91956 33.9347 7.94996L30.5569 0.679293C30.2661 0.0519483 29.4262 -0.269782 28.7562 0.285069C19.0281 4.16936 19.4277 3.80807 19.0367 4.25533C18.7289 4.55062 18.5829 4.99521 18.7135 5.43145L20.8684 12.6431L15.6641 18.7928L6.84205 14.3207C6.10418 13.9408 5.1289 14.4366 5.15206 15.3934C3.2175 18.7073 1.9462 21.9974 0.153036 24.9573ZM50.4233 46.3045C48.1096 51.0014 44.7557 53.4849 44.7145 59.1009C44.7069 59.9553 44.7169 61.2779 43.9237 61.6873C43.7804 61.7079 42.5201 61.9531 40.2134 62.1316C40.4101 57.7078 40.3098 47.5783 40.9718 43.8098C47.6976 41.4455 48.1024 35.029 45.3015 33.7107C44.8366 33.495 43.5988 33.1398 42.1447 34.582C40.2954 36.415 39.7693 39.8 39.3532 42.3831C37.7728 42.7776 36.0248 42.8694 34.38 42.5988C33.6303 39.1966 31.484 33.5376 28.1224 34.8764C24.8858 36.1711 26.495 42.4178 32.8305 44.134C33.7288 48.8546 34.3441 55.9494 34.6676 62.2433C32.8415 62.1679 31.1051 61.9728 29.6926 61.6173C27.8464 59.9363 28.3596 57.8516 27.9299 55.2832C27.2047 50.9553 24.1347 47.9752 22.3202 44.3211C19.6515 38.9528 20.0818 31.9753 23.3894 26.9598C34.8486 9.57884 60.6394 26.4267 50.4233 46.3045ZM31.0847 73.4986C31.0764 73.492 31.0697 73.4839 31.0611 73.4777C30.6087 73.1499 30.4544 72.2552 30.8185 71.6517C31.0162 71.3255 30.9355 70.7344 30.4979 70.4359C29.9873 69.7671 30.0832 68.7157 30.6523 68.1999C31.1593 67.7416 30.9626 66.8658 30.5522 66.5551C30.312 66.3739 30.1666 65.9317 30.1988 65.4788C30.2544 64.694 30.7371 63.9384 30.8102 63.7136C34.3001 64.2857 38.7936 64.2022 42.3819 63.7636C42.653 64.2451 42.9033 64.7589 42.9641 65.2809C43.0172 65.7315 42.8902 66.1832 42.6566 66.3787C41.6342 67.2357 43.1036 68.261 43.1733 69.1356C43.2019 69.5015 43.1131 69.8805 42.9373 70.1725C42.4731 70.4329 42.3262 71.0356 42.625 71.4812C42.8974 71.8871 42.9823 72.5644 42.6396 73.0981C38.8427 74.4226 34.3351 74.5745 31.0847 73.4986ZM34.7542 44.4975C36.1804 44.6549 37.6458 44.5905 39.032 44.3283C38.5124 48.2469 38.5523 58.6896 38.3751 62.2392C37.7543 62.2642 37.1302 62.2776 36.5045 62.2785C36.3243 58.7507 35.8124 50.4657 34.7542 44.4975ZM41.3217 41.6918C41.681 39.575 42.2186 37.0862 43.4331 35.8824C43.7895 35.5284 44.1245 35.3353 44.3676 35.3353C45.3893 35.3353 46.0615 39.4613 41.3217 41.6918ZM32.3776 42.0649C31.2876 41.6453 30.3126 41.0243 29.5581 40.1828C28.7865 39.3211 27.6573 37.0344 28.803 36.5761C30.3163 35.978 31.9739 40.4804 32.3776 42.0649ZM38.1869 78.1059C37.2161 78.4384 36.1059 78.4623 34.8752 78.1738C34.6804 77.877 34.3716 77.8124 32.8829 75.8028C35.3891 76.1973 37.8861 76.0799 40.3942 75.5808C38.712 77.653 38.1893 78.1029 38.1869 78.1059ZM6.94373 17.0061L14.9185 21.0485C14.9747 21.1277 15.0225 21.2124 15.1002 21.2779C15.5944 21.6973 16.3349 21.6372 16.7558 21.1408L22.7141 14.1002C22.8724 13.913 23.345 12.7231 23.2016 12.2444L21.2614 5.75118L28.9246 2.74249L31.8239 8.98275C31.72 9.79861 32.3654 10.3089 33.023 10.2992C38.7236 10.0115 41.9539 11.6544 42.6971 11.6544C43.1427 11.6544 43.8776 11.2028 44.0726 10.7498C45.1435 8.2527 46.5029 5.87216 48.0943 3.64656C51.1731 4.47017 54.1543 5.6153 56.986 7.04976C56.7762 9.76405 56.1058 12.4035 54.9911 14.894C54.4269 16.154 56.3936 17.9652 59.4864 22.0002C59.7485 22.3316 60.1893 22.5327 60.707 22.3965C61.2935 22.4489 63.6198 21.4938 68.3448 20.4317C69.7852 22.9963 71.1001 26.1947 72.2519 28.9163C67.842 31.3145 64.9034 31.6103 64.3373 32.2265C64.3296 32.2355 64.3226 32.2444 64.3151 32.2536C64.061 32.5468 63.9409 32.9467 64.0604 33.346C63.9908 34.0728 64.3868 35.9955 62.4006 40.5893C62.0949 41.294 62.5396 42.1738 63.418 42.218C66.0062 43.7338 68.4857 45.4436 70.8136 47.3069C69.8453 49.674 68.595 51.9202 67.082 54.0093L59.9697 51.3713C59.4956 51.1943 58.931 51.4283 58.6795 51.6419C56.6551 53.3596 54.4592 55.0629 52.3331 57.0609C51.7792 57.248 51.4289 57.8058 51.5501 58.3929C52.0894 61.0024 52.5016 63.2888 53.0978 66.238C48.9438 68.5184 45.6168 68.7314 44.9801 68.9103C44.9159 68.2851 44.6949 67.682 44.3414 67.1927C44.89 66.3164 45.05 65.0632 44.2973 63.4787C48.2239 62.5049 43.8408 60.1465 51.2518 50.8093C69.8921 27.3225 35.4228 5.38882 21.8613 25.9514C18.2063 31.4926 17.7319 39.2031 20.6801 45.1364C23.0627 49.9275 25.8968 51.6661 26.3048 57.3452C26.4503 59.3565 26.8867 62.3488 28.746 63.114L28.9145 63.4442C28.2917 64.7893 28.074 66.2445 28.9091 67.449C28.5959 67.9276 28.4048 68.5021 28.3537 69.0921C25.1267 68.4365 21.0551 67.005 18.0955 65.5065L21.3685 57.0293C21.6021 56.4238 21.3011 55.7432 20.6956 55.5096C20.6104 55.4768 20.5236 55.4777 20.4371 55.4652C18.3188 53.5742 16.5677 52.2058 14.5922 50.4267C14.3437 49.9643 13.8197 49.6993 13.2915 49.8266L5.29368 51.8135L2.90009 43.929C5.92628 42.8622 8.7947 41.3008 11.236 39.3175C11.6321 38.996 11.7531 38.4727 11.5922 38.0177L11.4726 30.5569C11.4674 30.2226 11.1506 29.5645 10.7301 29.3436L2.73248 25.1472C4.46951 22.0478 5.27032 19.9687 6.94373 17.0061Z" fill="#0E0E0E"/>
</svg>
