<svg width="35" height="35" viewBox="0 0 35 35" fill="none" xmlns="http://www.w3.org/2000/svg">
<path d="M17.5002 0C27.1641 0 35.0002 6.96111 35.0002 15.5556C35.0002 20.9223 30.6447 25.2777 25.2779 25.2777H21.8364C20.2225 25.2777 18.9197 26.5806 18.9197 28.1944C18.9197 28.9333 19.2114 29.6138 19.6585 30.1194C20.1252 30.6444 20.417 31.325 20.417 32.0833C20.417 33.6973 19.0752 35 17.5002 35C7.83636 35 0.000244141 27.1639 0.000244141 17.5C0.000244141 7.83611 7.83636 0 17.5002 0ZM15.4197 28.1944C15.4197 24.6475 18.2895 21.7777 21.8364 21.7777H25.2779C28.7116 21.7777 31.5002 18.9893 31.5002 15.5556C31.5002 8.9936 25.3187 3.5 17.5002 3.5C9.76936 3.5 3.50024 9.76911 3.50024 17.5C3.50024 24.8325 9.1398 30.8499 16.3172 31.4506C15.7411 30.4794 15.4197 29.3582 15.4197 28.1944ZM9.62524 17.5C8.17549 17.5 7.00024 16.3247 7.00024 14.875C7.00024 13.4252 8.17549 12.25 9.62524 12.25C11.075 12.25 12.2502 13.4252 12.2502 14.875C12.2502 16.3247 11.075 17.5 9.62524 17.5ZM25.3752 17.5C23.9255 17.5 22.7502 16.3247 22.7502 14.875C22.7502 13.4252 23.9255 12.25 25.3752 12.25C26.8249 12.25 28.0002 13.4252 28.0002 14.875C28.0002 16.3247 26.8249 17.5 25.3752 17.5ZM17.5002 12.25C16.0505 12.25 14.8752 11.0748 14.8752 9.625C14.8752 8.17525 16.0505 7 17.5002 7C18.9499 7 20.1252 8.17525 20.1252 9.625C20.1252 11.0748 18.9499 12.25 17.5002 12.25Z" fill="#7949F6"/>
</svg>
