<svg width="126" height="120" viewBox="0 0 126 120" fill="none" xmlns="http://www.w3.org/2000/svg">
<path d="M18.5 88L42 105.5L63.5 111.5L90 109L115 89.5L122 73L124 58.5L122 44L116 29.5L105.5 16L90 5.5L80 2H67.5L48.5 4L35.5 9.5L20.5 21.5L11 38.5L9 65L18.5 88Z" fill="#7949F6"/>
<path d="M65.5881 119.945C95.8976 118.802 117.434 100.245 121.997 77.268C132.067 51.0515 120.585 20.2368 92.1714 4.72562C81.8773 -0.895961 68.9148 -0.882073 57.558 1.55876L57.4312 1.52377C40.4641 1.94594 23.8421 10.1167 13.1444 23.2935C2.44688 36.4698 -2.13468 54.4161 0.937887 71.1081C6.20185 99.7054 31.5351 121.23 65.5881 119.945ZM19.4552 32.3381C25.0968 21.7437 35.2268 12.9447 47.2521 8.20079C59.0752 3.53909 77.5131 0.610535 90.5361 7.72084C102.939 14.4912 112.629 24.8611 117.82 36.922C124.312 52.0047 123.417 69.6516 115.478 82.979C107.981 95.5642 94.1579 104.61 78.4974 107.178C58.5508 110.451 37.7287 102.799 25.439 87.694C12.8204 72.1891 10.3585 49.425 19.4552 32.3381Z" fill="#0E0E0E"/>
<path d="M57.5916 81.4845C72.0766 75.543 80.7423 70.6036 93.2542 61.1557C94.1957 60.4402 94.1505 59.0008 93.1453 58.3561C79.5758 49.6726 71.3989 45.0264 55.8785 38.7294C54.6813 38.2544 53.4225 39.1991 53.5365 40.467C54.7341 53.5033 55.3074 66.7684 55.2385 79.8958C55.2338 81.1132 56.4681 81.9436 57.5916 81.4845Z" fill="#FEF7E6"/>
</svg>
