<svg width="45" height="44" viewBox="0 0 45 44" fill="none" xmlns="http://www.w3.org/2000/svg">
<path fill-rule="evenodd" clip-rule="evenodd" d="M9.2868 27.8158C9.2868 30.3754 7.22105 32.4411 4.66147 32.4411C2.10188 32.4411 0.0361328 30.3684 0.0361328 27.8158C0.0361328 25.2631 2.10188 23.1904 4.66147 23.1904H9.2868V27.8158ZM11.596 27.8158C11.596 25.2562 13.6617 23.1904 16.2213 23.1904C18.7809 23.1904 20.8467 25.2562 20.8467 27.8158V39.3756C20.8467 41.9352 18.7809 44.001 16.2213 44.001C13.6617 44.001 11.596 41.9352 11.596 39.3756V27.8158Z" fill="#E01E5A"/>
<path fill-rule="evenodd" clip-rule="evenodd" d="M16.22 9.25067C13.6604 9.25067 11.5946 7.18492 11.5946 4.62534C11.5946 2.06575 13.6604 0 16.22 0C18.7796 0 20.8453 2.06575 20.8453 4.62534V9.25067H16.22ZM16.22 11.5946C18.7796 11.5946 20.8453 13.6604 20.8453 16.22C20.8453 18.7796 18.7796 20.8453 16.22 20.8453H4.62534C2.06575 20.8453 0 18.7726 0 16.22C0 13.6673 2.06575 11.5946 4.62534 11.5946H16.22Z" fill="#36C5F0"/>
<path fill-rule="evenodd" clip-rule="evenodd" d="M34.7513 16.22C34.7513 13.6604 36.817 11.5946 39.3766 11.5946C41.9362 11.5946 44.0019 13.6604 44.0019 16.22C44.0019 18.7796 41.9362 20.8453 39.3766 20.8453H34.7513V16.22ZM32.4421 16.22C32.4421 18.7796 30.3763 20.8453 27.8167 20.8453C25.2572 20.8453 23.1914 18.7796 23.1914 16.22V4.62534C23.1914 2.06575 25.2572 0 27.8167 0C30.3763 0 32.4421 2.06575 32.4421 4.62534V16.22Z" fill="#2EB67D"/>
<path fill-rule="evenodd" clip-rule="evenodd" d="M27.8167 34.7503C30.3763 34.7503 32.4421 36.816 32.4421 39.3756C32.4421 41.9352 30.3763 44.001 27.8167 44.001C25.2572 44.001 23.1914 41.9352 23.1914 39.3756V34.7503H27.8167ZM27.8167 32.4411C25.2572 32.4411 23.1914 30.3754 23.1914 27.8158C23.1914 25.2562 25.2572 23.1904 27.8167 23.1904H39.4114C41.971 23.1904 44.0367 25.2562 44.0367 27.8158C44.0367 30.3754 41.971 32.4411 39.4114 32.4411H27.8167Z" fill="#ECB22E"/>
</svg>
