<svg width="65" height="62" viewBox="0 0 65 62" fill="none" xmlns="http://www.w3.org/2000/svg">
<path d="M0.512528 19.5684C0.594131 18.5628 0.965461 17.5419 1.4343 16.5712C1.899 15.609 2.47732 14.6613 3.00546 13.7957L3.02154 13.7694C3.11202 13.6176 3.20009 13.4718 3.28515 13.3309C3.49603 12.9817 3.68845 12.6631 3.85344 12.3606L3.85388 12.3598C5.10935 10.068 6.46453 7.81599 7.89966 5.64331C8.78155 4.29575 9.90084 2.69727 11.5036 1.65302C11.9228 1.37737 12.4101 1.15145 12.9309 0.981391L12.9323 0.980928L12.9323 0.98093C13.2332 0.883683 13.6936 0.81293 14.2553 0.756557C14.829 0.698976 15.5471 0.653047 16.3858 0.616831C18.0639 0.544372 20.2457 0.509956 22.7618 0.501893C27.7948 0.485766 34.1863 0.575075 40.605 0.679162C41.4001 0.690727 42.1437 0.702274 42.8237 0.712834C44.4798 0.738552 45.7588 0.758414 46.4862 0.758414C46.8585 0.758414 47.2525 0.739302 47.6615 0.719352L47.6646 0.719201L47.6646 0.719211C47.7105 0.717258 47.7566 0.715268 47.8029 0.71327C48.6825 0.675304 49.6378 0.634074 50.562 0.784758L50.5638 0.785042C52.0744 1.03681 53.2976 1.88458 54.3265 2.93018C55.3513 3.97176 56.2187 5.24735 57.0022 6.40035L57.0046 6.404C57.4603 7.08759 57.8854 7.70508 58.286 8.20108C58.2861 8.20114 58.2862 8.20121 58.2862 8.20127L57.8972 8.51544L0.512528 19.5684ZM0.512528 19.5684C0.512537 19.5683 0.512545 19.5682 0.512554 19.5681L1.01086 19.6092L0.5125 19.5688C0.512509 19.5687 0.512519 19.5685 0.512528 19.5684ZM41.5125 18.8084C40.1548 16.651 38.7595 14.3794 37.4048 12.1569C37.3258 12.0277 37.2467 11.8983 37.1675 11.7688C35.8796 9.66183 34.5682 7.51649 33.2944 5.48667C31.7088 7.7284 30.2078 10.0726 28.741 12.3633L28.7155 12.4032L41.5125 18.8084ZM41.5125 18.8084L24.5328 18.7459C25.9855 16.6512 27.3757 14.501 28.7152 12.4037L41.5125 18.8084ZM63.1479 16.4741L63.1477 16.4736L9.66576 32.8146L9.77931 32.9702C16.6441 42.3798 23.7392 52.105 31.9226 60.7026L31.5597 61.0465C31.5597 61.0465 31.5598 61.0466 31.5599 61.0467C31.8302 61.3319 32.2081 61.5 32.6067 61.5H32.6364H32.6457L32.6549 61.4997C33.0523 61.4849 33.4478 61.3092 33.7148 60.9828C39.6433 54.0112 45.2621 46.5656 50.673 39.3708L50.9443 39.0106C53.3678 35.7917 55.8601 32.4818 58.352 29.2642L58.3539 29.2618C58.6075 28.9301 58.8816 28.5874 59.169 28.2308L59.1712 28.228L59.212 28.1765C60.382 26.7031 61.8065 24.9092 62.721 22.9524C63.6512 20.9622 64.0829 18.7416 63.1479 16.4741ZM54.5983 8.03242L54.5989 8.03338L54.6513 8.11036C55.1141 8.79061 55.5671 9.4564 56.0328 10.0214C57.7741 12.1717 59.3458 14.8548 60.4686 17.569C60.6428 17.9951 60.7322 18.4274 60.7526 18.8694L46.0247 18.8147C47.0028 16.7326 47.911 14.7116 48.7927 12.7497C48.8767 12.5627 48.9605 12.3763 49.044 12.1904L49.0442 12.1899C50.0775 9.8856 51.151 7.50144 52.3203 5.04195C53.1328 5.88451 53.8783 6.96924 54.5983 8.03242ZM23.5009 21.6287L41.8857 21.7027C40.3243 27.1018 38.5706 33.4208 36.8638 39.5711L36.8636 39.5718C35.4283 44.7726 33.9539 50.0901 32.5888 54.8606C31.3751 50.5659 29.7304 44.4997 28.0234 38.1766L28.0234 38.1765C26.4322 32.2854 24.7863 26.239 23.5009 21.6287ZM45.8457 12.2823C45.1654 13.7907 44.4715 15.3291 43.7437 16.9001C42.4717 14.8708 41.1682 12.7357 39.8942 10.6446L39.8941 10.6444C38.4352 8.25161 36.9347 5.79987 35.4867 3.50623C36.9554 3.52774 38.3387 3.55248 39.5686 3.57447C39.9182 3.58072 40.2554 3.58675 40.5787 3.59242L40.5801 3.59245C41.3438 3.60359 42.0637 3.61476 42.727 3.62505C44.4186 3.65128 45.7421 3.67181 46.4862 3.67181C46.9163 3.67181 47.3629 3.65143 47.8136 3.62144C47.8448 3.61994 47.8758 3.61843 47.9068 3.61693C48.5957 3.58355 49.2452 3.55208 49.802 3.60795C48.5866 6.16822 47.4792 8.63367 46.4165 11.0177C46.227 11.4369 46.0369 11.8584 45.8457 12.2823ZM12.7991 4.29221L19.3101 18.7297L3.67499 18.6753C4.07831 17.5973 4.81876 16.3728 5.4924 15.2697C5.81896 14.7353 6.13064 14.2227 6.39322 13.7581L6.39324 13.7581L6.39584 13.7534C7.6188 11.5343 8.94068 9.3443 10.322 7.23292C11.064 6.1018 11.8363 5.01991 12.7991 4.29221ZM25.7922 41.0719C27.1401 46.0358 28.4188 50.7446 29.4441 54.425C23.0492 47.0975 17.2436 39.1515 11.5865 31.3996L11.5863 31.3992L10.3475 29.7047L10.347 29.7039L10.3466 29.7034C8.94002 27.7718 7.53142 25.8375 6.1027 23.9226C5.85068 23.5764 5.53031 23.2048 5.20737 22.833L5.19717 22.8209C4.85425 22.4156 4.49878 21.9956 4.19105 21.5796L20.4698 21.6346C21.6847 25.9528 23.2582 31.7445 24.8232 37.5048C24.9536 37.9849 25.084 38.4648 25.2141 38.9436C25.4079 39.6567 25.6007 40.3669 25.7922 41.0719ZM44.8877 21.7166L60.0777 21.772C59.3203 23.3786 58.0608 24.9663 56.8933 26.4235C56.6901 26.6741 56.4944 26.9223 56.3073 27.1596C56.219 27.2715 56.1326 27.381 56.0483 27.4872L56.0483 27.4871L56.0441 27.4925C53.8167 30.3771 51.5819 33.335 49.3985 36.2251C49.0435 36.695 48.6899 37.163 48.3379 37.6287L48.3373 37.6295C44.3154 42.9713 40.1873 48.4257 35.9148 53.7213C37.1221 49.4605 38.3962 44.8677 39.6417 40.3537C41.4272 33.9007 43.2685 27.2621 44.8877 21.7166ZM26.2768 10.8435C24.8651 13.0503 23.4276 15.2953 21.9165 17.4563L15.6424 3.54367C17.4635 3.44231 20.3392 3.40413 23.6048 3.40413C26.0236 3.40413 28.6456 3.41975 31.2001 3.45099C29.4694 5.86838 27.8416 8.39338 26.2768 10.8435Z" fill="#1B1C1D" stroke="#1B1C1D"/>
<path d="M9.84205 24.5352C9.54463 24.7632 11.2597 27.4796 13.8076 30.4935C16.3555 33.5173 18.7448 35.6587 19.0125 35.4108C19.2901 35.1531 17.3568 32.6151 14.8387 29.6211C12.3205 26.637 10.1395 24.3072 9.84205 24.5352Z" fill="#1B1C1D"/>
<path d="M52.0369 10.5477C51.8287 10.8749 52.9489 11.9357 54.0891 13.3732C55.249 14.8008 56.052 16.1193 56.4089 15.9806C56.7559 15.8715 56.4585 14.1465 55.1399 12.5206C53.8412 10.8947 52.2252 10.2304 52.0369 10.5477Z" fill="#1B1C1D"/>
<path d="M47.9452 35.6237C48.9605 33.8074 49.5202 32.1876 49.1951 32.0059C48.8701 31.8242 47.7835 33.1494 46.7681 34.9658C45.7528 36.7822 45.1932 38.4019 45.5182 38.5836C45.8433 38.7653 46.9299 37.4401 47.9452 35.6237Z" fill="#1B1C1D"/>
</svg>
