<svg width="40" height="40" viewBox="0 0 40 40" fill="none" xmlns="http://www.w3.org/2000/svg">
<path d="M11.5785 17.7814C11.4946 17.6135 11.4446 17.4307 11.4313 17.2435C11.418 17.0563 11.4418 16.8682 11.5012 16.6902C11.5607 16.5122 11.6546 16.3476 11.7777 16.2058C11.9008 16.0641 12.0506 15.948 12.2185 15.8643L26.5042 8.7214C26.6721 8.63754 26.8549 8.58757 27.0421 8.57435C27.2294 8.56113 27.4173 8.58491 27.5954 8.64434C27.7734 8.70377 27.938 8.79768 28.0797 8.92072C28.2214 9.04375 28.3375 9.19349 28.4214 9.3614C28.5052 9.5293 28.5552 9.71208 28.5684 9.89929C28.5817 10.0865 28.5579 10.2745 28.4984 10.4525C28.439 10.6305 28.3451 10.7951 28.2221 10.9368C28.099 11.0786 27.9493 11.1947 27.7814 11.2785L13.4957 18.4214C13.3278 18.5053 13.145 18.5554 12.9578 18.5686C12.7705 18.5819 12.5825 18.5581 12.4045 18.4987C12.2264 18.4392 12.0618 18.3453 11.9201 18.2222C11.7784 18.0992 11.6623 17.9494 11.5785 17.7814ZM27.7814 28.7214L13.4957 21.5785C13.1566 21.4092 12.7641 21.3815 12.4046 21.5015C12.045 21.6215 11.7479 21.8794 11.5785 22.2185C11.4092 22.5576 11.3815 22.9501 11.5015 23.3097C11.6215 23.6692 11.8794 23.9663 12.2185 24.1357L26.5042 31.2785C26.8433 31.4479 27.2358 31.4756 27.5954 31.3556C27.9549 31.2356 28.252 30.9776 28.4214 30.6385C28.5907 30.2994 28.6185 29.9069 28.4984 29.5474C28.3784 29.1879 28.1205 28.8907 27.7814 28.7214Z" fill="white"/>
<path d="M14.2857 20C14.2857 21.4127 13.8668 22.7937 13.0819 23.9684C12.2971 25.143 11.1815 26.0585 9.87631 26.5991C8.57113 27.1398 7.13494 27.2812 5.74936 27.0056C4.36378 26.73 3.09104 26.0497 2.0921 25.0508C1.09315 24.0518 0.41286 22.7791 0.137251 21.3935C-0.138357 20.0079 0.00309489 18.5717 0.543721 17.2665C1.08435 15.9614 1.99986 14.8458 3.1745 14.0609C4.34914 13.2761 5.73014 12.8571 7.14286 12.8571C9.03657 12.8594 10.8521 13.6127 12.1911 14.9517C13.5302 16.2908 14.2834 18.1063 14.2857 20ZM32.8571 14.2857C34.2699 14.2857 35.6509 13.8668 36.8255 13.0819C38.0001 12.2971 38.9156 11.1815 39.4563 9.87631C39.9969 8.57113 40.1384 7.13494 39.8627 5.74936C39.5871 4.36378 38.9068 3.09104 37.9079 2.0921C36.909 1.09315 35.6362 0.41286 34.2506 0.137251C32.8651 -0.138357 31.4289 0.00309489 30.1237 0.543721C28.8185 1.08435 27.7029 1.99986 26.9181 3.1745C26.1332 4.34914 25.7143 5.73014 25.7143 7.14286C25.7166 9.03657 26.4698 10.8521 27.8089 12.1911C29.1479 13.5302 30.9634 14.2834 32.8571 14.2857ZM32.8571 25.7143C31.4444 25.7143 30.0634 26.1332 28.8888 26.9181C27.7141 27.7029 26.7986 28.8185 26.258 30.1237C25.7174 31.4289 25.5759 32.8651 25.8515 34.2506C26.1271 35.6362 26.8074 36.909 27.8064 37.9079C28.8053 38.9068 30.0781 39.5871 31.4636 39.8627C32.8492 40.1384 34.2854 39.9969 35.5906 39.4563C36.8958 38.9156 38.0113 38.0001 38.7962 36.8255C39.5811 35.6509 40 34.2699 40 32.8571C39.9977 30.9634 39.2444 29.1479 37.9054 27.8089C36.5663 26.4698 34.7508 25.7166 32.8571 25.7143Z" fill="#E9FF97"/>
</svg>
