<svg width="60" height="60" viewBox="0 0 60 60" fill="none" xmlns="http://www.w3.org/2000/svg">
<path d="M11.4112 34.7608H22.1829C21.5467 33.1589 20.4997 31.7529 19.1474 30.6843C17.795 29.6157 16.185 28.9222 14.4794 28.6738C12.7738 28.4253 11.0328 28.6306 9.43177 29.2689C7.83073 29.9073 6.42613 30.9561 5.35938 32.31C6.9796 33.8852 9.15139 34.7647 11.4112 34.7608Z" fill="#FFD02F"/>
<path d="M11.4112 37.6182C8.65776 37.6275 5.99277 36.6466 3.90239 34.8545C3.3679 36.231 3.15063 37.7103 3.26674 39.1824C3.38285 40.6545 3.82935 42.0814 4.57304 43.3571C5.31672 44.6328 6.33845 45.7244 7.56222 46.5508C8.786 47.3771 10.1803 47.917 11.6415 48.1301C13.1027 48.3432 14.5931 48.2242 16.002 47.7818C17.4108 47.3394 18.7018 46.5851 19.7788 45.575C20.8559 44.5649 21.6914 43.3249 22.2232 41.9473C22.7549 40.5697 22.9692 39.09 22.8502 37.6182H11.4112Z" fill="#FFD02F"/>
<path d="M21.1807 48.1445C19.2806 49.7355 16.9521 50.7286 14.4887 50.9988V55.7137C14.4887 56.0926 14.3382 56.4559 14.0703 56.7239C13.8024 56.9918 13.439 57.1423 13.0601 57.1423C12.6812 57.1423 12.3179 56.9918 12.05 56.7239C11.7821 56.4559 11.6315 56.0926 11.6315 55.7137V50.9989C9.16764 50.7292 6.83875 49.736 4.93849 48.1446C3.41457 49.42 2.18431 51.0096 1.33197 52.8047C0.479624 54.5997 0.0253363 56.5578 0.000220143 58.5448C-0.00311015 58.7346 0.0313743 58.9231 0.101662 59.0993C0.171951 59.2756 0.276635 59.4362 0.409611 59.5716C0.542586 59.707 0.70119 59.8145 0.876173 59.888C1.05116 59.9614 1.23901 59.9993 1.42879 59.9994H24.6905C24.8803 59.9993 25.0681 59.9614 25.2431 59.888C25.4181 59.8145 25.5767 59.707 25.7097 59.5716C25.8427 59.4362 25.9473 59.2756 26.0176 59.0993C26.0879 58.9231 26.1224 58.7346 26.1191 58.5448C26.094 56.5578 25.6397 54.5997 24.7873 52.8046C23.9349 51.0095 22.7047 49.4198 21.1807 48.1445Z" fill="#FFD02F"/>
<path d="M28.0488 50.4764C28.0489 50.8553 28.1995 51.2186 28.4674 51.4865C28.7352 51.7544 29.0985 51.9049 29.4774 51.905H51.1552C51.5341 51.905 51.8975 51.7545 52.1654 51.4866C52.4333 51.2187 52.5838 50.8553 52.5838 50.4764C52.5838 50.0975 52.4333 49.7342 52.1654 49.4663C51.8975 49.1984 51.5341 49.0479 51.1552 49.0479H29.4774C29.0985 49.048 28.7352 49.1985 28.4674 49.4664C28.1995 49.7343 28.0489 50.0976 28.0488 50.4764Z" fill="#0A102F"/>
<path d="M41.6309 43.8099C41.631 44.1888 41.7815 44.5521 42.0494 44.82C42.3173 45.0879 42.6806 45.2384 43.0594 45.2385H51.1547C51.5335 45.2384 51.8968 45.0879 52.1647 44.82C52.4326 44.5521 52.5831 44.1888 52.5832 43.8099V35.7147C52.5831 35.3359 52.4326 34.9725 52.1647 34.7047C51.8968 34.4368 51.5335 34.2862 51.1547 34.2861H43.0594C42.6806 34.2862 42.3173 34.4368 42.0494 34.7047C41.7815 34.9725 41.631 35.3359 41.6309 35.7147V43.8099ZM44.488 37.1433H49.7261V42.3814H44.488V37.1433Z" fill="#0A102F"/>
<path d="M41.6309 30.0004C41.6309 30.3792 41.7814 30.7426 42.0493 31.0105C42.3172 31.2784 42.6806 31.4289 43.0594 31.4289H51.1547C51.5335 31.4289 51.8969 31.2784 52.1648 31.0105C52.4327 30.7426 52.5832 30.3792 52.5832 30.0004V21.9051C52.5832 21.5263 52.4327 21.1629 52.1648 20.895C51.8969 20.6271 51.5335 20.4766 51.1547 20.4766H43.0594C42.6806 20.4766 42.3172 20.6271 42.0493 20.895C41.7814 21.1629 41.6309 21.5263 41.6309 21.9051V30.0004ZM44.488 23.3337H49.7261V28.5718H44.488V23.3337Z" fill="#0A102F"/>
<path d="M43.0594 17.6194H51.1547C51.5335 17.6194 51.8969 17.4688 52.1648 17.2009C52.4327 16.933 52.5832 16.5697 52.5832 16.1908V8.09556C52.5832 7.71669 52.4327 7.35334 52.1648 7.08543C51.8969 6.81753 51.5335 6.66701 51.1547 6.66699H43.0594C42.6806 6.66701 42.3172 6.81753 42.0493 7.08543C41.7814 7.35334 41.6309 7.71669 41.6309 8.09556V16.1908C41.6309 16.5697 41.7814 16.933 42.0493 17.2009C42.3172 17.4688 42.6806 17.6194 43.0594 17.6194ZM44.488 9.52414H49.7261V14.7622H44.488V9.52414Z" fill="#0A102F"/>
<path d="M11.6309 12.1433V24.2861C11.6309 24.665 11.7814 25.0284 12.0493 25.2963C12.3172 25.5642 12.6806 25.7147 13.0594 25.7147C13.4383 25.7147 13.8017 25.5642 14.0696 25.2963C14.3375 25.0284 14.488 24.665 14.488 24.2861V13.5718H32.9441L31.5732 14.9427C31.3053 15.2106 31.1548 15.574 31.1548 15.9528C31.1548 16.3316 31.3053 16.695 31.5732 16.9628C31.8411 17.2307 32.2044 17.3812 32.5832 17.3812C32.9621 17.3812 33.3254 17.2307 33.5933 16.9628L37.4018 13.1543C37.6692 12.8857 37.8193 12.5222 37.8193 12.1432C37.8193 11.7643 37.6692 11.4008 37.4018 11.1322L33.5933 7.32365C33.3254 7.05577 32.9621 6.90527 32.5832 6.90527C32.2044 6.90527 31.8411 7.05577 31.5732 7.32365C31.3053 7.59153 31.1548 7.95486 31.1548 8.3337C31.1548 8.71254 31.3053 9.07586 31.5732 9.34374L32.9441 10.7147H13.0594C12.6806 10.7147 12.3172 10.8652 12.0493 11.1331C11.7814 11.401 11.6309 11.7644 11.6309 12.1433Z" fill="#0A102F"/>
<path d="M55.9166 0H14.9642C14.0805 0.00106863 13.2332 0.352601 12.6084 0.977491C11.9835 1.60238 11.6319 2.44961 11.6309 3.33333V6.42857C11.6309 6.80745 11.7814 7.17081 12.0493 7.43872C12.3172 7.70663 12.6806 7.85714 13.0594 7.85714C13.4383 7.85714 13.8017 7.70663 14.0696 7.43872C14.3375 7.17081 14.488 6.80745 14.488 6.42857V3.33333C14.4882 3.20709 14.5384 3.08606 14.6277 2.9968C14.7169 2.90753 14.8379 2.85731 14.9642 2.85714H55.9166C56.0428 2.85731 56.1638 2.90753 56.2531 2.9968C56.3424 3.08606 56.3926 3.20709 56.3928 3.33333V55.2381C56.3925 55.3643 56.3423 55.4853 56.253 55.5745C56.1638 55.6638 56.0428 55.714 55.9166 55.7143H30.405C30.0262 55.7143 29.6628 55.8648 29.3949 56.1327C29.127 56.4006 28.9765 56.764 28.9765 57.1429C28.9765 57.5217 29.127 57.8851 29.3949 58.153C29.6628 58.4209 30.0262 58.5714 30.405 58.5714H55.9166C56.8003 58.5704 57.6475 58.2188 58.2724 57.5939C58.8973 56.969 59.2488 56.1218 59.2499 55.2381V3.33333C59.2488 2.44961 58.8973 1.60238 58.2724 0.977494C57.6475 0.352605 56.8003 0.00107115 55.9166 0Z" fill="#0A102F"/>
<path d="M37.8226 22.619C37.8226 22.2401 37.6721 21.8768 37.4042 21.6089C37.1363 21.341 36.7729 21.1904 36.3941 21.1904H19.7274C19.3485 21.1904 18.9852 21.3409 18.7172 21.6088C18.4493 21.8768 18.2988 22.2401 18.2988 22.619C18.2988 22.9979 18.4493 23.3612 18.7172 23.6292C18.9852 23.8971 19.3485 24.0476 19.7274 24.0476H36.3941C36.7729 24.0476 37.1363 23.897 37.4042 23.6291C37.6721 23.3612 37.8226 22.9979 37.8226 22.619Z" fill="#0A102F"/>
<path d="M24.8407 30.7146H36.3939C36.7728 30.7146 37.1361 30.5641 37.404 30.2961C37.6719 30.0282 37.8225 29.6649 37.8225 29.286C37.8225 28.9071 37.6719 28.5438 37.404 28.2758C37.1361 28.0079 36.7728 27.8574 36.3939 27.8574H24.8407C24.4618 27.8574 24.0984 28.0079 23.8305 28.2758C23.5626 28.5438 23.4121 28.9071 23.4121 29.286C23.4121 29.6649 23.5626 30.0282 23.8305 30.2961C24.0984 30.5641 24.4618 30.7146 24.8407 30.7146Z" fill="#0A102F"/>
<path d="M36.3942 35H27.9911C27.6122 35 27.2488 35.1505 26.9809 35.4184C26.713 35.6863 26.5625 36.0497 26.5625 36.4286C26.5625 36.8075 26.713 37.1708 26.9809 37.4387C27.2488 37.7066 27.6122 37.8571 27.9911 37.8571H36.3942C36.773 37.8571 37.1364 37.7066 37.4043 37.4387C37.6722 37.1708 37.8227 36.8075 37.8227 36.4286C37.8227 36.0497 37.6722 35.6863 37.4043 35.4184C37.1364 35.1505 36.773 35 36.3942 35Z" fill="#0A102F"/>
<path d="M27.3251 44.5241H36.3931C36.772 44.5241 37.1354 44.3736 37.4033 44.1057C37.6712 43.8378 37.8217 43.4744 37.8217 43.0956C37.8217 42.7167 37.6712 42.3533 37.4033 42.0854C37.1354 41.8175 36.772 41.667 36.3931 41.667H27.3251C26.9462 41.667 26.5828 41.8175 26.3149 42.0854C26.047 42.3533 25.8965 42.7167 25.8965 43.0956C25.8965 43.4744 26.047 43.8378 26.3149 44.1057C26.5828 44.3736 26.9462 44.5241 27.3251 44.5241Z" fill="#0A102F"/>
</svg>
