<svg width="75" height="70" viewBox="0 0 75 70" fill="none" xmlns="http://www.w3.org/2000/svg">
<path d="M38.8837 62.2886C32.7071 65.7765 22.4287 60.8091 21.1089 51.2707C22.658 50.6413 22.5868 50.8907 22.6676 50.0359C22.8124 49.9045 22.9273 49.7442 22.9586 49.5441C23.072 48.8107 22.3216 48.5511 22.0334 48.2659C19.4294 46.273 16.7365 44.2122 14.0822 42.5362C13.8632 42.3975 13.5922 42.3642 13.3466 42.4456C13.0999 42.5266 12.9024 42.7139 12.8085 42.9555C11.4504 46.4405 10.5208 49.6375 9.88249 53.0167C9.79518 53.4784 10.0825 54.0047 10.719 54.0196C11.2334 54.567 10.8258 54.5487 13.2263 53.8008C16.7814 65.3712 30.1438 69.7887 39.7709 63.783C40.7264 63.1873 39.8633 61.7352 38.8837 62.2886ZM14.5677 52.1516C14.5133 51.9094 14.3583 51.7023 14.1416 51.5823C13.6458 51.3042 13.3699 51.5884 11.8624 51.9942C12.396 49.5277 13.1044 47.1257 14.0482 44.584C16.1311 45.9607 18.2485 47.5603 20.3183 49.1424C19.7649 49.3569 19.2268 49.5804 18.7368 49.8124C18.3871 49.9776 18.1891 50.3544 18.2507 50.7364C19.0854 55.902 21.8252 60.3642 25.768 62.9784C26.8872 63.7208 28.071 64.2945 29.2836 64.6963C21.7477 64.2486 16.0264 58.6552 14.5677 52.1516Z" fill="black"/>
<path d="M53.0566 31.1052C51.4251 31.4715 51.5331 31.2491 51.3164 32.067C50.7975 32.4008 50.803 33.0118 51.1397 33.3713C53.4818 35.8722 56.0308 38.625 58.5539 40.875C58.9635 41.2397 59.6018 41.1371 59.8791 40.6701C61.7905 37.4567 63.2323 34.456 64.4172 31.2262C64.5813 30.7784 64.3733 30.2073 63.7547 30.0966C63.3538 29.4963 63.7736 29.5554 61.2476 29.9039C59.6536 18.0007 47.3265 11.2979 36.7028 15.6983C35.6685 16.127 36.2664 17.699 37.3331 17.3178C38.3455 16.9499 39.3965 16.7497 40.4562 16.7005C48.0324 17.5387 53.2551 23.8875 53.0566 31.1052ZM59.6534 31.3105C59.683 31.8287 60.1567 32.2059 60.6679 32.1185C61.1738 32.032 61.734 31.9652 62.2958 31.9103C61.365 34.2557 60.2713 36.5089 58.9234 38.86C57.0952 37.1608 55.2692 35.2346 53.4868 33.334C54.0691 33.2134 54.6372 33.0816 55.1572 32.9333C55.5295 32.8275 55.787 32.4886 55.7886 32.1016C55.8124 26.8692 53.8427 22.0177 50.3837 18.7912C49.4008 17.8751 48.328 17.1152 47.1986 16.5199C54.5617 18.2014 59.2821 24.6527 59.6534 31.3105Z" fill="black"/>
<path d="M31.0168 41.0057C33.7563 40.6732 35.7415 40.2752 37.7187 39.553C38.2058 39.375 38.7204 39.2234 39.1026 38.8828C39.4849 38.5422 39.7111 37.9881 39.5095 37.5254C39.3095 37.0667 38.7797 36.8433 38.2945 36.6742C37.1236 36.266 35.9243 35.94 34.714 35.6583C34.7835 35.1113 34.7231 39.2368 34.5452 6.48159C34.6567 6.20341 34.7347 5.9178 34.7347 5.61599C34.7347 1.92896 26.0507 0 17.4725 0C8.89374 0 0.209742 1.92896 0.209742 5.61599C0.209742 5.7199 0.241076 5.81722 0.254656 5.9183C-0.0359654 8.28067 -0.0108765 23.4258 0.014031 25.8022C0.0370891 28.0015 0.080659 30.2007 0.151672 32.399C0.206135 34.084 0.295467 35.839 1.11304 37.3135C1.38564 37.8051 1.77105 38.2455 2.21481 38.6053C2.41667 38.8026 2.6428 38.9862 2.90825 39.1473C4.52769 40.1302 6.28747 40.4674 8.06591 40.808C10.1923 41.2154 12.0284 41.3906 13.9224 41.4658C19.7037 41.9513 25.8052 41.6384 31.0168 41.0057ZM32.8184 8.32172L32.8595 14.8317C32.3643 18.0691 20.9034 18.7537 17.6377 18.7537C8.3385 18.7537 2.39842 16.5172 2.36843 14.9701C2.367 14.8534 2.35802 14.1454 2.35945 14.2621C2.36706 13.948 2.30791 10.8486 2.27083 8.41451C5.34541 10.2701 11.4279 11.232 17.4725 11.232C23.6156 11.232 29.795 10.2375 32.8184 8.32172ZM32.9166 26.4724C31.6392 28.1588 25.729 29.8482 17.6377 29.8482C9.72171 29.8482 3.82145 28.1988 2.4149 26.5435L2.42049 24.1089C2.42063 24.0556 2.39963 24.0093 2.39057 23.9587C2.39277 23.9331 2.40528 23.9111 2.40521 23.8848L2.37897 17.5367C8.29492 21.4694 27.1242 21.4722 32.8767 17.5518C32.8772 17.6681 32.9186 26.9181 32.9166 26.4724ZM2.40521 30.779L2.40995 28.7251C5.2872 30.4615 11.026 31.5865 17.6377 31.5865C23.2465 31.5865 29.7353 30.6779 32.9166 28.7169C32.9259 30.2825 32.9013 32.0125 32.9817 33.1709C33.214 36.5201 33.0508 37.2671 28.808 38.4683C25.688 39.3533 22.0343 39.7833 17.6377 39.7833C14.3117 39.7833 11.7015 39.7341 8.31601 39.0856C6.69431 38.775 5.162 38.4819 3.8102 37.6614C2.71643 36.9982 2.58515 35.6776 2.49914 33.5822C2.4867 33.2778 2.47368 32.9728 2.45557 32.6707C2.41908 32.0665 2.40642 31.4402 2.3985 30.8119C2.39899 30.8004 2.40521 30.7907 2.40521 30.779ZM17.4725 1.73827C26.9487 1.73827 32.9964 4.03503 32.9964 5.61599C32.9964 7.19696 26.9487 9.49372 17.4725 9.49372C7.99575 9.49372 1.94801 7.19696 1.94801 5.61599C1.94801 4.03503 7.99575 1.73827 17.4725 1.73827Z" fill="black"/>
<path d="M70.2974 64.7119C71.1879 63.3134 70.9982 61.6136 70.9982 60.4562V46.6093C71.0414 46.4677 71.0808 46.3251 71.0808 46.1727C71.0808 40.944 41.7402 40.937 41.7402 46.1727C41.7402 46.2463 41.7698 46.3125 41.7801 46.3836C41.7519 46.4641 41.7092 46.5275 41.6868 46.6151C41.3168 48.0634 41.3495 49.5996 41.3667 51.0824C41.3995 53.9086 41.4324 56.7347 41.4652 59.5609C41.5192 64.1979 42.039 65.8664 48.3545 68.0572C54.9159 70.3335 68.0705 70.4886 72.2317 69.1495C73.1412 68.8568 74.1433 68.2666 74.1598 67.3477C74.1856 65.9022 71.2918 64.8884 70.2974 64.7119ZM44.2576 63.8174C43.72 62.9612 43.7257 61.9405 43.7314 60.8603C43.7316 60.7001 43.7362 57.5638 43.7359 57.7624C49.1177 60.7501 63.8663 60.7477 69.2234 57.7579C69.1292 61.1447 69.6857 63.1548 68.5215 64.1614C65.9905 66.3517 59.752 66.5136 56.4096 66.5136C53.2176 66.5136 45.9629 66.5334 44.2576 63.8174ZM69.2599 55.5851C68.1525 56.9042 63.1281 58.2676 56.4764 58.2676C49.882 58.2676 44.9643 56.962 43.7409 55.641C43.7318 54.3096 43.7418 50.3377 43.754 48.3192C49.0718 50.7044 64.1705 50.6808 69.2599 48.2294V55.5851ZM56.4108 43.9879C64.064 43.9879 68.6213 45.309 69.2792 46.1243C69.2754 46.1571 69.2599 46.1858 69.2599 46.2196V46.2422C68.5418 47.0589 63.9988 48.3574 56.4108 48.3574C48.4437 48.3574 43.8202 46.9247 43.4705 46.223C43.8202 45.4207 48.4437 43.9879 56.4108 43.9879Z" fill="black"/>
<path d="M47.987 11.0031C47.7165 9.93879 47.6333 8.84388 47.7386 7.74841C47.8481 6.6068 46.1185 6.43117 46.0082 7.58205C45.8837 8.87726 45.9822 10.1725 46.3019 11.4309C46.5854 12.544 48.2705 12.1183 47.987 11.0031Z" fill="black"/>
<path d="M50.608 13.156C51.5173 13.156 51.4358 12.2776 53.6262 8.58061C54.1769 7.57389 52.6545 6.73563 52.1007 7.74656L49.8458 11.8699C49.5287 12.4496 49.9516 13.156 50.608 13.156Z" fill="black"/>
<path d="M54.8278 14.907L57.1336 11.6404C57.797 10.7002 56.3767 9.69954 55.7134 10.6377L53.4076 13.9054C52.7438 14.8461 54.167 15.8462 54.8278 14.907Z" fill="black"/>
</svg>
