<svg width="35" height="35" viewBox="0 0 35 35" fill="none" xmlns="http://www.w3.org/2000/svg">
<path d="M8.36788 21.4142L4.45424 25.3278L9.67241 30.5459L30.545 9.67331L25.3269 4.45514L21.4133 8.36878L24.0224 10.9779L21.4133 13.5869L18.8042 10.9779L16.1952 13.5869L18.8042 16.1961L16.1952 18.8051L13.586 16.1961L10.977 18.8051L13.586 21.4142L10.977 24.0233L8.36788 21.4142ZM26.6314 0.541515L34.4588 8.36878C35.1792 9.08925 35.1792 10.2574 34.4588 10.9779L10.977 34.4597C10.2565 35.1801 9.08835 35.1801 8.36788 34.4597L0.540611 26.6323C-0.179859 25.9119 -0.179859 24.7437 0.540611 24.0233L24.0224 0.541515C24.7428 -0.178956 25.911 -0.178956 26.6314 0.541515ZM21.4133 29.2405L24.0224 26.6314L28.1595 30.7686H30.7686V28.1595L26.6314 24.0223L29.2405 21.4133L34.1031 26.2759V34.1044H26.2772L21.4133 29.2405ZM5.75852 13.5858L0.540353 8.3676C-0.180118 7.64713 -0.180118 6.47901 0.540353 5.75852L5.75852 0.540353C6.479 -0.180118 7.64713 -0.180118 8.3676 0.540353L13.5858 5.75852L10.9767 8.3676L7.06307 4.45398L4.45398 7.06307L8.3676 10.9767L5.75852 13.5858Z" fill="#7949F6"/>
</svg>
