<svg width="73" height="70" viewBox="0 0 73 70" fill="none" xmlns="http://www.w3.org/2000/svg">
<path d="M43.1491 20.4163C43.1491 19.4205 42.9529 18.4344 42.5718 17.5143C42.1907 16.5943 41.6322 15.7583 40.928 15.0541C40.2238 14.3499 39.3878 13.7914 38.4678 13.4103C37.5477 13.0292 36.5616 12.833 35.5658 12.833C34.5699 12.833 33.5838 13.0292 32.6637 13.4103C31.7437 13.7914 30.9077 14.3499 30.2035 15.0541C29.4994 15.7583 28.9408 16.5943 28.5597 17.5143C28.1786 18.4344 27.9824 19.4205 27.9824 20.4163L35.5658 20.4163H43.1491Z" fill="#4B2AAD"/>
<path d="M24.4818 60.0833C24.4818 59.0875 24.2705 58.1014 23.8601 57.1813C23.4497 56.2613 22.8482 55.4253 22.0898 54.7211C21.3315 54.0169 20.4312 53.4583 19.4404 53.0772C18.4495 52.6961 17.3876 52.5 16.3151 52.5C15.2426 52.5 14.1807 52.6961 13.1899 53.0772C12.199 53.4583 11.2987 54.0169 10.5404 54.7211C9.78205 55.4253 9.1805 56.2613 8.77009 57.1813C8.35967 58.1014 8.14844 59.0875 8.14844 60.0833L16.3151 60.0833H24.4818Z" fill="#4B2AAD"/>
<path d="M65.3158 60.6667C65.3158 59.5942 65.1045 58.5322 64.6941 57.5414C64.2837 56.5506 63.6821 55.6503 62.9238 54.892C62.1654 54.1336 61.2652 53.5321 60.2743 53.1217C59.2835 52.7112 58.2216 52.5 57.1491 52.5C56.0766 52.5 55.0147 52.7112 54.0238 53.1217C53.033 53.5321 52.1327 54.1336 51.3744 54.892C50.616 55.6503 50.0145 56.5506 49.6041 57.5414C49.1937 58.5322 48.9824 59.5942 48.9824 60.6667L57.1491 60.6667H65.3158Z" fill="#4B2AAD"/>
<path d="M43.4884 21.1466L43.5127 21.1464C43.9739 21.1431 44.3463 20.7691 44.3485 20.3084C44.3503 19.9441 44.1889 19.6075 44.0672 19.3278C43.4135 17.5383 42.763 15.8883 41.3091 14.5334C39.7574 13.0876 37.7361 12.3072 35.7738 12.2969C33.2427 12.298 31.3956 13.6285 30.204 14.6686C27.9674 16.3127 26.4868 18.46 25.7984 21.0926C25.7403 21.315 25.9141 21.5334 26.1439 21.5325C44.6313 21.5803 43.2433 21.4569 43.4884 21.1466ZM42.3248 19.4715L28.6294 19.6031C29.0462 18.3329 29.8639 17.2141 31.2322 16.0054C32.7172 14.6937 34.2825 13.8354 36.2394 14.0014C37.6834 14.1297 39.0764 14.756 40.1607 15.7663C41.2491 16.7807 41.7994 18.0611 42.3248 19.4715Z" fill="#0A102F"/>
<path d="M34.4476 11.8828C38.1615 13.3858 41.776 9.85982 40.3241 6.41552C38.6496 2.44588 32.3822 3.02955 31.7725 7.43067C31.2206 9.55968 32.3983 11.3518 34.4476 11.8828Z" fill="#0A102F"/>
<path d="M16.0076 50.6159C18.5096 51.1048 20.7886 49.7984 21.669 47.7671C23.3523 43.8824 19.2783 39.9412 15.157 41.4656C13.8664 41.9433 12.8126 42.8799 12.2742 44.2757C10.676 47.3475 12.668 50.4741 16.0076 50.6159ZM20.123 47.0969C19.0001 49.69 14.9794 49.6918 13.8665 47.053C13.2174 45.5121 13.9813 43.697 15.7416 43.0451C18.5015 42.0253 21.2108 44.5874 20.123 47.0969Z" fill="#0A102F"/>
<path d="M22.8615 53.6324C21.3072 52.1834 19.3055 51.2851 17.2275 51.103C15.0079 50.9036 13.0605 51.6293 11.2764 52.9049C8.5368 54.4247 5.93577 57.3461 4.94086 61.1511C4.87334 61.4094 5.07516 61.663 5.34218 61.6617C26.2533 61.6088 24.9147 61.5729 25.1509 61.4839C25.3252 61.4182 25.4644 61.2518 25.5731 61.065C26.0035 61.0288 26.3447 60.6798 26.3479 60.241C26.3501 59.8856 26.2102 59.5664 26.0978 59.3098C25.403 57.7087 24.8793 55.5125 22.8615 53.6324ZM24.328 59.4019L8.04232 59.5588C8.51452 57.9848 9.48853 56.6192 11.1612 55.1417C12.8929 53.6121 14.759 52.5765 17.0788 52.7812C18.7861 52.9304 20.4319 53.6708 21.7131 54.8653C23.0411 56.1029 23.6885 57.6695 24.328 59.4019Z" fill="#0A102F"/>
<path d="M56.7811 51.2902C60.7777 52.0757 63.9345 48.3204 62.4634 44.8338C60.772 40.825 54.6692 40.7856 53.0529 44.9489C51.4459 48.036 53.4649 51.1468 56.7811 51.2902ZM60.9009 47.7712C59.7762 50.3686 55.7566 50.3639 54.6444 47.7284C53.9844 46.1621 54.7834 44.3634 56.5195 43.7204C59.2893 42.6984 61.9883 45.2627 60.9009 47.7712Z" fill="#0A102F"/>
<path d="M63.6388 54.3082C61.9374 52.7227 59.6723 51.7687 57.3028 51.7471C55.478 51.7479 53.78 52.3446 52.0497 53.5827C49.3123 55.1025 46.7128 58.0225 45.7182 61.8264C45.6507 62.0847 45.8525 62.3383 46.1195 62.3372C67.6354 62.4821 66.0572 62.2435 66.3501 61.7409C66.7807 61.705 67.1221 61.3556 67.1252 60.9169C67.1274 60.5604 66.987 60.2401 66.874 59.9823C66.0645 57.8181 65.3528 55.9042 63.6388 54.3082ZM65.1059 60.0778L48.8197 60.2346C49.2919 58.6606 50.2659 57.2939 51.9386 55.8164C53.6799 54.2783 55.5402 53.2529 57.8556 53.456C59.5634 53.6063 61.2093 54.3466 62.4904 55.5411C63.8183 56.7768 64.4691 58.3517 65.1059 60.0778Z" fill="#0A102F"/>
<path d="M40.0118 30.4701C40.018 30.8791 40.2648 31.232 40.8053 31.3015C43.7603 31.7425 46.3445 31.8193 48.7055 31.5352C52.638 31.0619 53.1406 28.4624 53.0497 24.8594C52.5474 4.96074 52.7862 4.44602 51.6409 2.48266C50.9867 1.36125 49.7106 0.521051 48.4656 0.516664C47.3103 0.258087 33.8149 -0.429466 23.2637 0.388605C21.5362 0.521325 20.1492 1.94506 20.0379 3.69894C19.8746 6.26835 19.9217 8.87367 20.1535 11.4608C18.6552 11.2592 17.4784 11.0954 16.1297 11.9978C13.7384 13.5788 12.8401 16.4757 14.102 19.1121C14.3317 20.2002 14.7849 21.2002 15.8817 21.9731C17.0526 22.7984 18.6345 23.0716 20.0535 22.7374C19.8859 25.2351 19.899 27.4406 20.1015 29.4149C20.2123 30.4866 21.0294 31.3366 22.0884 31.4847C25.9439 32.0173 31.3832 31.36 31.6997 31.2577C31.8122 31.2002 31.8846 31.168 31.9462 31.12C32.5658 31.0095 33.1378 30.8647 33.8231 30.8019C34.0188 29.6839 34.5109 28.2132 35.2489 27.3506C35.9868 26.4882 37.1149 25.9099 38.2436 26.0295C38.2525 26.0304 38.2609 26.0336 38.2697 26.0345C39.5517 27.1058 39.9863 28.7981 40.0118 30.4701ZM22.3204 29.8153C22.0358 29.7758 21.8076 29.5345 21.7775 29.2427C21.5312 26.8406 21.5784 23.9503 21.919 20.651C21.9731 20.1258 21.4805 19.6712 20.9872 19.7274C20.5954 19.7893 20.5948 19.7238 19.3183 20.0247C18.1874 20.2945 17.5134 20.4195 16.8021 19.8711C14.7608 18.2973 14.5498 15.062 17.0632 13.4007C18.3607 12.5305 19.7698 13.3019 21.115 13.2227C21.6075 13.1958 21.967 12.7517 21.9184 12.2984C21.608 9.47393 21.5411 6.6166 21.7193 3.80643C21.778 2.88397 22.497 2.13701 23.3932 2.069C30.5003 1.51838 38.4964 1.53263 47.8351 2.11726C48.689 2.16991 49.3746 2.85326 49.4305 3.70552C50.0305 12.8512 50.019 21.1128 49.3954 28.9608C49.3581 29.4259 48.9836 29.8054 48.5042 29.8624C46.4915 30.107 44.1979 30.0599 41.6631 29.721C41.3925 26.2726 39.4319 24.1972 37.3815 23.7507C34.6486 23.164 31.3818 25.2417 30.6884 29.6957C27.1867 30.0829 24.5153 30.1191 22.3204 29.8153Z" fill="#0A102F"/>
<path d="M35.376 49.7569C34.4665 49.1668 33.5989 49.0612 32.7864 49.1066C32.7166 47.8302 32.8446 46.5461 32.8838 45.2652C32.9289 43.7888 32.8244 42.2568 32.1436 40.9459C31.7337 40.1569 30.7323 39.1378 29.481 38.7019C29.0452 38.4641 28.56 38.3058 28.0347 38.2727C26.1897 38.1627 24.2413 38.1063 22.2568 38.0758C22.4919 36.3285 21.9213 34.4751 20.7024 33.1949C19.7198 32.1629 17.5578 30.9866 15.9934 31.4129C14.0794 31.2659 12.1044 32.2131 10.9367 34.041C9.97185 35.5488 10.3222 37.0012 10.6446 38.2861C8.31744 38.4002 5.92476 38.5553 3.35303 38.7641C1.65947 38.9067 0.322393 40.292 0.243419 41.9856C-0.199714 51.2355 -0.0390237 59.5749 0.735362 67.4789C0.979052 70.008 3.51545 69.9995 5.89062 69.9995C6.00441 69.9995 29.0187 69.6355 30.1596 69.2386C30.6747 69.2312 31.1902 69.1183 31.6157 68.8335C33.5316 67.5513 33.1934 62.6351 32.6806 60.3608C36.5912 60.6727 38.5419 58.0775 38.0351 54.663C38.1127 52.5568 37.0267 50.8094 35.376 49.7569ZM3.31299 68.193C2.83586 68.148 2.45689 67.7795 2.41247 67.3155C1.64576 59.4926 1.48671 51.2333 1.92601 42.0657C1.96604 41.2123 2.64062 40.5147 3.49178 40.4423C8.83501 40.0109 11.6866 39.9541 11.9543 39.864C13.5493 39.3397 11.1353 36.856 12.3566 34.9481C13.9121 32.5142 17.0936 32.3362 18.7919 35.0139C19.5581 36.1968 19.2436 37.3132 19.1709 38.8475C19.1706 38.8543 19.174 38.8601 19.1739 38.8669C19.1736 38.8739 19.1698 38.8798 19.1698 38.887C19.1698 38.9094 19.2235 39.1737 19.2321 39.1952C19.5934 40.1071 20.0164 39.4826 27.9316 39.9542C28.837 40.0112 29.5555 40.7341 29.6388 41.6631C30.0857 47.315 29.4087 49.9308 29.6581 50.5474C29.9717 51.3201 30.9256 51.0626 31.8507 50.9141C32.8828 50.7506 33.627 50.63 34.4645 51.1729C36.9977 52.7923 36.872 56.02 34.844 57.6346C33.7755 58.492 32.5785 57.7413 30.9781 57.5984C30.8658 57.6209 29.5969 57.3606 29.7375 58.5131C30.1357 61.7697 30.235 64.6589 30.0332 67.0961C30.0074 67.3857 29.782 67.6303 29.4995 67.6753C27.5178 67.9897 4.80133 68.3486 3.31299 68.193Z" fill="#0A102F"/>
<path d="M67.7401 37.7929C67.4257 37.6862 67.0978 37.6097 66.7525 37.5952C64.5653 37.5036 62.351 37.5565 60.1461 37.7518C60.2389 36.1884 59.7068 34.5876 58.6544 33.4241C57.9632 32.6597 56.6098 31.6595 55.4419 31.6387C53.2113 30.8984 50.6384 31.6993 49.1583 33.709C48.0843 35.1672 48.5105 36.5047 48.896 38.0945C45.9051 37.9001 43.3121 37.9301 41.0459 38.2127C39.994 38.3432 39.1417 39.1977 39.0183 40.2441C38.7282 42.7263 38.8532 45.7251 39.4154 49.7024C39.4737 50.0539 39.7909 50.3733 40.1759 50.4085C40.1763 50.4085 40.1767 50.4087 40.1772 50.4087C40.1781 50.4089 40.1778 50.4087 40.1832 50.4098C41.9918 50.561 43.6604 51.0744 44.7392 52.533C45.3165 53.8495 44.9476 55.3753 44.0313 56.3008C43.1653 57.1753 41.5744 57.749 40.3936 57.4021C40.2533 57.7528 40.044 58.0576 39.8674 58.3843C39.7392 58.509 39.6622 58.6736 39.6335 58.8572C39.6258 58.89 39.6083 58.9182 39.604 58.9522C39.2262 61.9181 39.2053 64.5024 39.5404 66.8551C39.722 68.1253 40.7695 69.0982 42.032 69.1717C50.5324 69.6634 59.0095 69.4023 67.5258 68.6595C68.2898 68.5926 68.9711 68.2632 69.5045 67.776C72.4928 66.0626 72.6825 62.617 72.6927 59.1639C72.7334 45.3688 72.9931 43.4981 71.7905 40.9856C71.2341 39.8232 69.3386 37.7208 67.7401 37.7929ZM42.129 67.4891C41.664 67.4628 41.2768 67.0964 41.2088 66.6182C40.9225 64.6077 40.9203 62.3097 41.2027 59.776C49.2552 58.9711 49.0618 49.8971 40.9921 48.804C40.5292 45.3116 40.4344 42.6419 40.6921 40.4404C40.7256 40.1542 40.9614 39.9205 41.2537 39.8843C45.8676 39.3086 49.5928 39.9182 50.0806 39.8169C51.0009 39.6422 50.6832 38.6953 50.7071 38.5824C50.4946 36.9678 49.7066 35.8049 50.5146 34.7082C52.0612 32.6104 55.2833 32.3636 56.9893 34.83C57.995 36.2639 56.982 37.9238 57.2874 39.041C57.6625 40.418 58.9723 38.962 66.6823 39.2778C67.6048 39.3173 68.3671 40.0203 68.4554 40.9143C69.1591 48.0165 69.3154 56.0104 68.9336 65.3524C68.8991 66.2069 68.2306 66.9067 67.3799 66.9813C58.2442 67.7776 49.9848 67.9465 42.129 67.4891Z" fill="#0A102F"/>
</svg>
