<svg width="189" height="61" viewBox="0 0 189 61" fill="none" xmlns="http://www.w3.org/2000/svg">
<rect width="188.728" height="60.9122" rx="30.4561" fill="#0A102F"/>
<path d="M73.3187 44.4385L71.5938 40.0062H64.5596L62.8795 44.4385H60.5273L66.8446 28.5672H69.376L75.6933 44.4385H73.3187ZM68.0543 30.8505L65.3437 37.9691H70.8097L68.0543 30.8505ZM79.6893 48.6917H77.6059V33.6711H79.6445V35.35C79.9581 34.7829 80.4286 34.3203 81.0558 33.9621C81.6831 33.6039 82.4148 33.4249 83.2512 33.4249C84.8043 33.4249 86.014 33.9546 86.8802 35.0142C87.7614 36.0738 88.2019 37.4169 88.2019 39.0436C88.2019 40.6852 87.7464 42.0432 86.8354 43.1177C85.9394 44.1922 84.7222 44.7295 83.184 44.7295C82.3924 44.7295 81.6905 44.5653 81.0782 44.237C80.4659 43.9087 80.0029 43.4908 79.6893 42.9834V48.6917ZM86.0514 39.0436C86.0514 37.9542 85.7602 37.0588 85.1777 36.3573C84.6102 35.641 83.8411 35.2828 82.8703 35.2828C81.9145 35.2828 81.1379 35.641 80.5406 36.3573C79.9581 37.0588 79.6669 37.9542 79.6669 39.0436C79.6669 40.1629 79.9581 41.0807 80.5406 41.797C81.1379 42.4984 81.9145 42.8491 82.8703 42.8491C83.8261 42.8491 84.5953 42.4984 85.1777 41.797C85.7602 41.0807 86.0514 40.1629 86.0514 39.0436ZM92.9685 48.6917H90.8851V33.6711H92.9237V35.35C93.2373 34.7829 93.7077 34.3203 94.335 33.9621C94.9622 33.6039 95.694 33.4249 96.5303 33.4249C98.0835 33.4249 99.2932 33.9546 100.159 35.0142C101.041 36.0738 101.481 37.4169 101.481 39.0436C101.481 40.6852 101.026 42.0432 100.115 43.1177C99.2185 44.1922 98.0014 44.7295 96.4631 44.7295C95.6716 44.7295 94.9697 44.5653 94.3574 44.237C93.7451 43.9087 93.2821 43.4908 92.9685 42.9834V48.6917ZM99.3305 39.0436C99.3305 37.9542 99.0393 37.0588 98.4569 36.3573C97.8894 35.641 97.1203 35.2828 96.1495 35.2828C95.1937 35.2828 94.4171 35.641 93.8197 36.3573C93.2373 37.0588 92.9461 37.9542 92.9461 39.0436C92.9461 40.1629 93.2373 41.0807 93.8197 41.797C94.4171 42.4984 95.1937 42.8491 96.1495 42.8491C97.1053 42.8491 97.8744 42.4984 98.4569 41.797C99.0393 41.0807 99.3305 40.1629 99.3305 39.0436ZM120.115 32.1713L118.143 32.8652C118.039 32.1787 117.703 31.5594 117.135 31.0072C116.568 30.4401 115.784 30.1566 114.783 30.1566C113.902 30.1566 113.17 30.4103 112.588 30.9177C112.005 31.4251 111.714 32.0519 111.714 32.7981C111.714 33.3801 111.885 33.8726 112.229 34.2755C112.588 34.6784 113.096 34.9545 113.753 35.1038L116.127 35.6186C117.441 35.9022 118.457 36.4394 119.174 37.2304C119.891 38.0064 120.249 38.954 120.249 40.0733C120.249 41.3567 119.741 42.4611 118.726 43.3864C117.71 44.3116 116.389 44.7743 114.761 44.7743C112.984 44.7743 111.587 44.3116 110.571 43.3864C109.57 42.4462 108.988 41.3344 108.824 40.0509L110.929 39.3794C111.019 40.3345 111.392 41.1404 112.05 41.797C112.707 42.4536 113.603 42.782 114.738 42.782C115.784 42.782 116.59 42.5432 117.158 42.0656C117.725 41.5881 118.009 40.9837 118.009 40.2524C118.009 39.6555 117.807 39.1406 117.404 38.7078C117.001 38.2601 116.411 37.9542 115.634 37.79L113.372 37.2975C112.191 37.0438 111.251 36.5439 110.549 35.7977C109.847 35.0515 109.496 34.1039 109.496 32.9548C109.496 31.7012 110.004 30.6043 111.019 29.6641C112.05 28.709 113.29 28.2314 114.738 28.2314C116.366 28.2314 117.613 28.6269 118.479 29.4179C119.346 30.2088 119.891 31.1266 120.115 32.1713ZM125.648 30.2685V33.6711H127.978V35.5739H125.648V41.1702C125.648 41.6776 125.76 42.0507 125.984 42.2895C126.223 42.5283 126.611 42.6476 127.149 42.6476C127.462 42.6476 127.739 42.6178 127.978 42.5581V44.3489C127.619 44.4832 127.141 44.5504 126.544 44.5504C125.618 44.5504 124.886 44.2818 124.349 43.7445C123.811 43.2073 123.542 42.4536 123.542 41.4836V35.5739H121.481V33.6711H122.064C122.616 33.6711 123.027 33.5219 123.296 33.2234C123.579 32.91 123.721 32.5071 123.721 32.0146V30.2685H125.648ZM132.896 41.8865C133.554 42.5581 134.353 42.8939 135.293 42.8939C136.234 42.8939 137.026 42.5581 137.668 41.8865C138.325 41.2001 138.654 40.2524 138.654 39.0436C138.654 37.8497 138.325 36.917 137.668 36.2454C137.026 35.5589 136.234 35.2157 135.293 35.2157C134.353 35.2157 133.554 35.5589 132.896 36.2454C132.254 36.917 131.933 37.8497 131.933 39.0436C131.933 40.2524 132.254 41.2001 132.896 41.8865ZM131.328 34.9695C132.374 33.88 133.695 33.3353 135.293 33.3353C136.891 33.3353 138.206 33.88 139.236 34.9695C140.282 36.0439 140.804 37.402 140.804 39.0436C140.804 40.7001 140.289 42.0731 139.259 43.1625C138.228 44.237 136.906 44.7743 135.293 44.7743C133.681 44.7743 132.359 44.237 131.328 43.1625C130.298 42.0731 129.783 40.7001 129.783 39.0436C129.783 37.402 130.298 36.0439 131.328 34.9695ZM149.48 33.5592V35.7977C149.166 35.7529 148.86 35.7306 148.562 35.7306C146.59 35.7306 145.605 36.8349 145.605 39.0436V44.4385H143.499V33.6711H145.56V35.5515C146.217 34.1785 147.292 33.492 148.786 33.492C149.025 33.492 149.256 33.5144 149.48 33.5592ZM152.981 37.9467H158.873C158.843 37.1408 158.574 36.4842 158.066 35.9768C157.559 35.4545 156.842 35.1933 155.916 35.1933C155.079 35.1933 154.392 35.4694 153.855 36.0216C153.317 36.5588 153.026 37.2005 152.981 37.9467ZM159.186 40.7449L161.001 41.3717C160.687 42.3716 160.105 43.1924 159.254 43.8341C158.402 44.4609 157.372 44.7743 156.162 44.7743C154.654 44.7743 153.369 44.2594 152.309 43.2297C151.264 42.185 150.741 40.7822 150.741 39.0212C150.741 37.3796 151.249 36.0216 152.264 34.9471C153.28 33.8726 154.49 33.3353 155.893 33.3353C157.521 33.3353 158.791 33.8502 159.702 34.8799C160.613 35.8947 161.068 37.2602 161.068 38.9764C161.068 39.2451 161.053 39.4689 161.023 39.648H152.914C152.929 40.6031 153.242 41.3866 153.855 41.9985C154.482 42.6103 155.251 42.9163 156.162 42.9163C157.7 42.9163 158.709 42.1925 159.186 40.7449Z" fill="white"/>
<path opacity="0.6" d="M62.1718 18.8291V14.9661H63.1191C64.109 14.9661 64.9283 15.5886 64.9283 16.9019C64.9283 18.2151 64.1005 18.8291 63.1106 18.8291H62.1718ZM63.1532 19.9207C64.8771 19.9207 66.1487 18.8121 66.1487 16.9019C66.1487 14.9916 64.8856 13.8745 63.1618 13.8745H60.9941V19.9207H63.1532ZM69.0983 16.8933C69.0983 15.5289 70.0541 14.8808 70.9843 14.8808C71.9231 14.8808 72.8789 15.5289 72.8789 16.8933C72.8789 18.2578 71.9231 18.9059 70.9843 18.9059C70.0541 18.9059 69.0983 18.2578 69.0983 16.8933ZM67.878 16.9019C67.878 18.8462 69.3458 20.0486 70.9843 20.0486C72.6314 20.0486 74.0992 18.8462 74.0992 16.9019C74.0992 14.949 72.6314 13.7466 70.9843 13.7466C69.3458 13.7466 67.878 14.949 67.878 16.9019ZM81.662 18.0531L80.3137 13.8745H79.0933L77.7535 18.0361L76.644 13.8745H75.3981L77.0793 19.9207H78.3082L79.6907 15.6142L81.0732 19.9207H82.285L83.9577 13.8745H82.7544L81.662 18.0531ZM90.984 19.9207V13.8745H89.8063V17.874L87.2888 13.8745H85.8209V19.9207H86.9986V15.6312L89.7466 19.9207H90.984ZM97.3044 19.9207V18.795H94.6076V13.8745H93.4299V19.9207H97.3044ZM99.9339 16.8933C99.9339 15.5289 100.89 14.8808 101.82 14.8808C102.759 14.8808 103.714 15.5289 103.714 16.8933C103.714 18.2578 102.759 18.9059 101.82 18.9059C100.89 18.9059 99.9339 18.2578 99.9339 16.8933ZM98.7135 16.9019C98.7135 18.8462 100.181 20.0486 101.82 20.0486C103.467 20.0486 104.935 18.8462 104.935 16.9019C104.935 14.949 103.467 13.7466 101.82 13.7466C100.181 13.7466 98.7135 14.949 98.7135 16.9019ZM110.836 19.9207H112.116L109.812 13.8745H108.446L106.125 19.9207H107.371L107.874 18.5392H110.332L110.836 19.9207ZM109.103 15.1792L109.94 17.4647H108.267L109.103 15.1792ZM115.134 18.8291V14.9661H116.081C117.071 14.9661 117.89 15.5886 117.89 16.9019C117.89 18.2151 117.062 18.8291 116.072 18.8291H115.134ZM116.115 19.9207C117.839 19.9207 119.11 18.8121 119.11 16.9019C119.11 14.9916 117.847 13.8745 116.124 13.8745H113.956V19.9207H116.115ZM125.236 16.8933C125.236 15.5289 126.192 14.8808 127.122 14.8808C128.06 14.8808 129.016 15.5289 129.016 16.8933C129.016 18.2578 128.06 18.9059 127.122 18.9059C126.192 18.9059 125.236 18.2578 125.236 16.8933ZM124.015 16.9019C124.015 18.8462 125.483 20.0486 127.122 20.0486C128.769 20.0486 130.237 18.8462 130.237 16.9019C130.237 14.949 128.769 13.7466 127.122 13.7466C125.483 13.7466 124.015 14.949 124.015 16.9019ZM137.487 19.9207V13.8745H136.31V17.874L133.792 13.8745H132.324V19.9207H133.502V15.6312L136.25 19.9207H137.487ZM147.564 14.9916V13.8745H142.554V14.9916H144.466V19.9207H145.652V14.9916H147.564ZM154.46 19.9207V13.8745H153.274V16.3049H150.637V13.8745H149.459V19.9207H150.637V17.4135H153.274V19.9207H154.46ZM160.699 19.9207V18.8121H158.087V17.4135H160.451V16.3646H158.087V14.9831H160.699V13.8745H156.91V19.9207H160.699Z" fill="white"/>
<path d="M46.3027 38.0606C45.61 39.5935 45.2793 40.2778 44.3873 41.6322C43.1445 43.5237 41.391 45.8795 39.2182 45.8994C37.2881 45.9174 36.7921 44.6442 34.1718 44.6596C31.5517 44.6749 31.0056 45.9221 29.0754 45.9041C26.9026 45.8848 25.2425 43.7574 23.9984 41.8647C20.5208 36.5748 20.1574 30.3676 22.3022 27.0677C23.8264 24.7212 26.2319 23.3502 28.4928 23.3502C30.7949 23.3502 32.2424 24.6113 34.1465 24.6113C35.9933 24.6113 37.1181 23.3481 39.7802 23.3481C41.7924 23.3481 43.9245 24.4428 45.444 26.3341C40.4656 29.0597 41.2751 36.1611 46.3027 38.0606Z" fill="white"/>
<path d="M38.0399 20.0375C39.0072 18.7969 39.7406 17.0468 39.4739 15.2566C37.8938 15.3646 36.047 16.3693 34.9683 17.6784C33.9889 18.8663 33.1801 20.6284 33.4948 22.3412C35.2183 22.3953 37.0031 21.3659 38.0399 20.0375Z" fill="white"/>
</svg>
