<svg width="98" height="86" viewBox="0 0 98 86" fill="none" xmlns="http://www.w3.org/2000/svg">
<path d="M10.9805 63.6028C12.238 64.0557 12.8376 63.8408 15.2894 63.8408C18.3869 60.104 21.0233 56.8538 24.1208 53.1171C22.888 53.1387 21.6698 52.7032 20.5453 52.1973C17.9149 56.4326 14.5826 60.1558 10.9805 63.6028Z" fill="#221F1A"/>
<path d="M44.5975 55.0101C44.7224 53.8887 44.8473 52.7674 44.9721 51.646C44.9176 52.1355 40.7215 52.9923 40.1826 53.1174C38.5542 53.4953 36.8997 53.7601 35.2349 53.9115C31.8362 54.2206 28.3934 54.0567 25.0414 53.4134C24.4538 53.3006 22.4589 52.4258 22.3967 53.2877C22.3491 53.9476 21.9881 54.2408 22.4388 54.5236C24.8973 56.0668 30.637 56.9234 33.4547 56.9618C37.247 57.0134 41.0525 56.3639 44.5975 55.0101Z" fill="#221F1A"/>
<path d="M60.8104 10.9624C55.5593 4.60327 47.9928 1.46057 39.8052 0.47311C31.6175 -0.514348 22.9107 0.0158253 15.9609 4.45582C25.6361 0.698325 36.7545 0.100557 46.3447 4.06983C55.9349 8.0391 63.6602 16.9074 65.0463 27.1935C65.3835 29.696 65.322 32.3825 64.0403 34.5582C64.4775 33.8165 66.8306 34.2491 67.4365 33.5103C67.9066 32.9371 67.7314 30.9264 67.7488 30.2083C67.8058 27.8566 67.5681 25.4995 67.0631 23.2026C66.0332 18.518 63.8657 14.6623 60.8104 10.9624Z" fill="#221F1A"/>
<path d="M85.7728 84.8621C86.4021 85.4544 84.6903 85.5295 82.7415 85.3409C82.5057 85.3181 81.5471 84.7751 80.395 83.0656C79.1404 81.2037 76.6167 78.0626 75.8892 76.1626C75.7078 75.6888 76.4717 75.915 76.4426 75.4084C76.4136 74.9018 77.4603 74.9853 77.8474 74.6572C80.7164 78.0777 83.4552 81.0463 85.7728 84.8621Z" fill="#221F1A"/>
<path d="M78.5792 77.7306C71.1914 79.9184 64.2788 80.0102 57.5979 77.0761C50.9169 74.1421 45.6006 68.5966 43.8808 61.5053C43.3015 59.1168 42.6994 56.4137 43.3688 54.0488C44.6566 61.056 48.4701 68.0409 54.4997 71.8361C57.8224 73.9275 61.7724 75.0836 65.6023 75.8266C69.5334 76.5893 74.1618 75.8445 78.0008 74.8667C78.0168 76.0213 78.2517 77.1726 78.6893 78.2412" fill="#221F1A"/>
<path d="M97.6368 54.2145C98.2537 61.8623 94.3807 69.6311 87.7505 73.4926C87.9863 72.3601 88.6069 71.4471 88.6161 70.2903C93.6867 65.2365 95.8537 57.4509 94.1232 50.5041C92.3927 43.5572 83.1067 36.156 76.2578 34.0713C78.4357 34.7342 83.286 35.9272 85.4026 36.9136C87.5242 37.9023 90.3021 39.958 91.9522 41.6095C95.3738 45.0344 97.246 49.3705 97.6368 54.2145Z" fill="#221F1A"/>
<path d="M85.5397 85.4736C85.108 85.4736 84.6896 85.2916 84.3905 84.955C83.2884 83.612 82.4706 82.3876 81.6043 81.091C81.1903 80.4699 80.7674 79.8371 80.3048 79.18L79.9806 78.7218C79.4826 78.0138 78.7312 76.9441 78.214 76.5441C77.9532 76.34 77.2165 76.5006 76.6787 76.6207C76.4901 76.662 76.3089 76.701 76.1395 76.7319C74.6882 77.0053 73.1455 77.1717 71.432 77.2388C68.3231 77.3478 65.2084 77.0266 62.1908 76.2877C52.6845 73.9811 45.2468 66.9081 43.6865 58.6865C43.2857 56.5877 43.2783 54.4085 43.6688 52.2132C44.7842 45.742 49.281 39.623 55.4029 36.2489C58.0182 34.8116 60.9473 33.8127 64.1107 33.2771C70.0779 32.2538 76.4062 32.9294 81.9284 35.1844C87.6541 37.4917 91.9932 41.2379 94.4729 46.0175C98.04 52.8445 97.4521 61.072 92.9759 66.9744C92.0757 68.156 91.0561 69.2589 89.9408 70.2593C88.5175 75.8693 87.71 80.2585 87.05 84.1696C87.0382 84.6448 86.6433 85.176 86.0584 85.3837C85.8889 85.4441 85.7136 85.4736 85.5397 85.4736ZM84.834 83.7512C84.8178 83.8101 84.8075 83.8705 84.8045 83.9332C84.8148 83.8727 84.8237 83.8116 84.834 83.7512ZM77.7985 74.1867C78.41 74.1867 79.045 74.3207 79.602 74.7576C80.3858 75.3624 81.1873 76.5036 81.8327 77.4208L82.148 77.8665C82.6298 78.5508 83.0615 79.1984 83.4858 79.8342C84.0207 80.6342 84.5364 81.4063 85.1021 82.1791C85.7431 78.4764 86.5431 74.4054 87.8338 69.3613C87.8913 69.1388 88.0136 68.9392 88.1874 68.7881C89.2925 67.8275 90.2973 66.7563 91.174 65.6049C95.1227 60.3994 95.6295 53.12 92.4647 47.0622C90.2369 42.7665 86.3 39.3858 81.0783 37.2818C75.9347 35.1822 70.0485 34.5523 64.4908 35.5086C64.4893 35.5086 64.4893 35.5086 64.4879 35.5093C61.575 36.0014 58.8845 36.9171 56.4947 38.2314C50.9606 41.2813 46.9 46.7881 45.898 52.6029C45.5562 54.5316 45.5606 56.4337 45.9098 58.2629C47.3081 65.6284 54.0665 71.9876 62.7272 74.0887C65.5443 74.779 68.4484 75.0781 71.348 74.9771C72.9452 74.9145 74.3788 74.7605 75.7299 74.5064C75.8816 74.4784 76.0349 74.4445 76.194 74.4099C76.6448 74.3104 77.2106 74.1867 77.7985 74.1867Z" fill="#221F1A"/>
<path d="M11.5629 64.02C11.3654 64.02 11.1636 63.9839 10.9691 63.9087C10.3385 63.6649 9.93034 63.0748 9.93034 62.4051C9.29383 57.3131 8.57776 51.5123 7.41378 44.804C6.13635 43.5199 4.94437 42.0627 3.86732 40.4685C-1.19232 32.8209 -1.27188 22.608 3.65662 14.4403C7.10731 8.72864 12.771 4.4418 20.0349 2.04311C30.9586 -1.61607 43.8346 -0.286328 52.8356 5.44002C62.8075 11.7845 68.1574 23.8346 65.5584 34.0924C65.5142 34.2861 65.4493 34.5049 65.383 34.7237C65.1989 35.3205 64.5653 35.6579 63.97 35.4752C63.3718 35.2925 63.0359 34.6604 63.2171 34.0622C63.2687 33.895 63.3203 33.7277 63.3601 33.5612C65.7308 24.1985 60.7919 13.1849 51.6215 7.34954C43.1745 1.97533 31.0559 0.737682 20.7495 4.19058C13.9999 6.41909 8.76193 10.3678 5.59414 15.6101C1.11502 23.0338 1.17542 32.2971 5.74884 39.211C6.80821 40.7779 7.99135 42.2056 9.25847 43.4455C9.42791 43.6113 9.54136 43.8256 9.58262 44.0592C10.6994 50.4441 11.4096 56.0018 12.0211 60.945C13.8098 58.981 15.432 56.9956 16.954 55.1104C17.1853 54.8267 17.4226 54.4812 17.6716 54.121C18.2919 53.2229 18.9947 52.2063 19.8581 51.6214C21.1797 50.7182 22.7459 51.1646 23.8922 51.491C24.0985 51.5499 24.2959 51.6066 24.4816 51.6516C26.3027 52.1032 28.1474 52.4177 29.9715 52.5887C33.6122 52.9467 37.2824 52.8082 40.879 52.1709C42.0562 51.961 43.2629 51.6766 44.4652 51.3245C45.0679 51.1477 45.694 51.4932 45.8694 52.0921C46.0447 52.6925 45.7014 53.3209 45.1017 53.4963C43.8199 53.8712 42.5321 54.1755 41.2753 54.3987C37.4725 55.0743 33.599 55.2216 29.7534 54.8415C27.8247 54.661 25.868 54.3273 23.9438 53.8499C23.7375 53.7998 23.5091 53.735 23.2705 53.6672C22.4763 53.4395 21.5746 53.1854 21.1326 53.4926C20.6154 53.8425 20.0408 54.6735 19.5339 55.4073C19.2481 55.8198 18.974 56.2139 18.7132 56.5351C16.8995 58.7821 14.9414 61.1734 12.7298 63.5095C12.4292 63.8402 12.0049 64.02 11.5629 64.02ZM12.1891 62.3271C12.192 62.3587 12.1935 62.3875 12.1935 62.4044C12.1935 62.3779 12.192 62.3521 12.1891 62.3271Z" fill="#221F1A"/>
<path d="M42.823 42.8342C42.3589 42.8342 41.9243 42.5476 41.7592 42.0865C40.0251 37.2803 37.9682 32.1757 35.9791 27.2391C34.2921 23.0554 32.5579 18.7523 31.0079 14.5981C27.6706 20.4452 25.2719 24.8875 22.7466 29.5619C20.7722 33.2152 18.7463 36.9649 16.1752 41.5634C15.8717 42.1086 15.1822 42.3023 14.6355 41.9988C14.0904 41.6938 13.8959 41.0043 14.2009 40.4584C16.7646 35.8717 18.7861 32.1307 20.7545 28.4863C23.582 23.2528 26.2518 18.3103 30.252 11.364C30.4716 10.9838 30.8753 10.7577 31.3335 10.8019C31.7726 10.8409 32.1483 11.1304 32.2971 11.5452C34.0313 16.3514 36.0882 21.456 38.0772 26.3926C40.0752 31.3484 42.1409 36.4728 43.8868 41.3188C44.099 41.9067 43.7955 42.555 43.2061 42.7672C43.0794 42.8129 42.9498 42.8342 42.823 42.8342Z" fill="#221F1A"/>
<path d="M36.7874 29.8257C36.7756 29.8257 36.7638 29.8257 36.752 29.8249L22.2803 29.3814C21.6556 29.3623 21.165 28.8407 21.1841 28.216C21.2048 27.5913 21.7764 27.0859 22.3511 27.1198L36.8227 27.5633C37.4475 27.5824 37.9381 28.104 37.919 28.7287C37.8998 29.3417 37.3974 29.8257 36.7874 29.8257Z" fill="#221F1A"/>
<path d="M78.8373 48.9418H58.2878C57.6631 48.9418 57.1562 48.435 57.1562 47.8103C57.1562 47.1856 57.6631 46.6787 58.2878 46.6787H78.8373C79.462 46.6787 79.9688 47.1856 79.9688 47.8103C79.9688 48.435 79.462 48.9418 78.8373 48.9418Z" fill="#221F1A"/>
<path d="M63.0926 66.4717C62.7773 66.4717 62.4635 66.3406 62.2395 66.0834C61.8284 65.6127 61.8785 64.8974 62.3486 64.487C67.3581 60.1221 71.2007 54.5129 73.4594 48.2672C73.6731 47.6778 74.3243 47.3743 74.9078 47.5879C75.4957 47.8001 75.7992 48.4491 75.587 49.0363C73.1986 55.6437 69.135 61.5763 63.8367 66.1932C63.6216 66.3803 63.3564 66.4717 63.0926 66.4717Z" fill="#221F1A"/>
<path d="M76.1991 66.157C76.1534 66.157 76.1077 66.1541 76.0606 66.1489C72.8928 65.7622 69.778 63.9057 67.2894 60.9228C65.1368 58.3421 63.7017 55.3268 62.3138 52.4103C62.0442 51.846 62.2843 51.1711 62.8486 50.9022C63.4129 50.6341 64.0892 50.8742 64.3559 51.4378C65.6849 54.227 67.0581 57.1119 69.028 59.473C71.1468 62.0124 73.7414 63.5852 76.3346 63.902C76.9549 63.9779 77.3969 64.5422 77.3203 65.1625C77.2511 65.7364 76.7634 66.157 76.1991 66.157Z" fill="#221F1A"/>
<path d="M67.6019 48.0421C67.0465 48.0421 66.5617 47.634 66.4821 47.0682C66.3451 46.0869 66.4041 45.0621 66.656 44.1052C66.8166 43.5003 67.4443 43.1416 68.038 43.2978C68.6421 43.4569 69.0046 44.0757 68.8455 44.6798C68.6687 45.3495 68.6274 46.0663 68.7247 46.7529C68.8116 47.3717 68.3799 47.9441 67.7611 48.031C67.708 48.0384 67.655 48.0421 67.6019 48.0421Z" fill="#221F1A"/>
<path d="M78 76C78.4 76 82.5 81.3333 84.5 84H86.5L88.5 71.5L92.5 67L95.5 60.5V50L90.5 41.5L80.5 36L70.5 33.5L56 37L46.5 46.5L44.5 61.5L52.5 72C56.8333 73.8333 65.6 77.5 66 77.5C66.5 77.5 77.5 76 78 76Z" fill="#F65510"/>
<path d="M7.41285 44.8039C8.57683 51.5123 9.2929 57.3131 9.92941 62.4051C9.92941 63.0748 10.3375 63.6649 10.9682 63.9087C11.1626 63.9839 11.3645 64.02 11.5619 64.02C11.7915 64.02 12.0139 63.9669 12.2191 63.874C12.9237 63.9259 13.7331 63.8408 15.2862 63.8408C17.9313 60.6499 20.2554 57.7976 22.8022 54.7105C25.4135 56.1311 30.7568 56.9248 33.4538 56.9615C36.7282 57.006 40.002 56.4952 43.12 55.4924C42.9466 57.4755 43.4141 59.5904 43.8786 61.5055C45.5985 68.5968 50.9148 74.1423 57.5958 77.0764C63.7857 79.7947 70.1797 79.8914 76.9608 78.1544C78.0308 79.8445 79.5172 81.7644 80.3938 83.0652C81.5458 84.7747 82.5044 85.3177 82.7402 85.3405C83.6942 85.4329 84.5871 85.4606 85.1807 85.3968C85.4273 85.4577 85.5999 85.5469 86.0582 85.3834C87.6065 84.8336 86.5823 84.2135 89.4176 72.3811C100.632 64.1269 101.323 45.3693 86.0685 37.2526C81.01 34.1824 74.5087 32.4836 67.6706 32.8882C67.8304 32.0478 67.7339 30.755 67.7472 30.2081C67.9347 22.4698 65.2918 16.3911 60.8088 10.9623C54.716 3.58385 45.8536 0.744192 36.3042 0.156122C23.811 -0.878394 10.1411 3.70553 3.65569 14.4402C-1.83517 23.54 -1.57258 35.7719 7.41285 44.8039ZM81.0782 37.2815C94.7724 42.7994 97.8304 56.8294 91.1739 65.6046C90.2972 66.7561 89.2923 67.8272 88.1873 68.7879C88.0134 68.9389 87.8912 69.1385 87.8337 69.361C86.543 74.4052 85.7429 78.4762 85.102 82.1788C83.4757 79.9575 81.0239 75.8546 79.6018 74.7573C79.0449 74.3205 78.4099 74.1864 77.7984 74.1864C76.3837 74.1864 70.9043 76.0921 62.727 74.0884C52.5079 71.6092 44.0851 62.8308 45.8979 52.6026C47.2237 44.9082 53.7489 37.3233 64.4877 35.509C64.4892 35.5083 64.4892 35.5083 64.4907 35.5083C70.0483 34.5521 75.9345 35.1819 81.0782 37.2815ZM5.59321 15.6101C14.243 1.29563 37.5662 -1.59227 51.6206 7.34951C60.7482 13.1576 65.6779 24.0946 63.386 33.4288C52.3697 35.5696 45.5658 43.3642 43.8412 51.4892C37.6717 53.1743 30.7172 53.1981 24.4807 51.6515C24.295 51.6066 24.0976 51.5499 23.8913 51.4909C22.745 51.1646 21.1788 50.7181 19.8571 51.6213C18.2065 52.7396 18.1244 54.2424 12.0202 60.945C11.4087 56.0017 10.6985 50.4441 9.58169 44.0591C9.54043 43.8256 9.42698 43.6112 9.25754 43.4455C0.916817 35.2842 0.485194 24.0761 5.59321 15.6101Z" fill="#221F1A"/>
<path d="M14.6336 41.9983C15.1802 42.3018 15.8697 42.1081 16.1733 41.5629C18.7443 36.9645 20.7703 33.2147 22.7446 29.5614C22.7742 29.5067 22.8035 29.4525 22.833 29.3978L36.7507 29.8244C36.7625 29.8251 36.7742 29.8251 36.7861 29.8251C36.8618 29.8251 36.9285 29.797 37.0002 29.7829C38.6595 33.9131 40.3191 38.1001 41.7573 42.086C41.9223 42.5471 42.357 42.8337 42.8211 42.8337C42.9478 42.8337 43.0775 42.8124 43.2042 42.7667C43.7935 42.5545 44.097 41.9062 43.8849 41.3183C42.1389 36.4723 40.0732 31.3479 38.0753 26.3921C36.0862 21.4555 34.0293 16.3509 32.2952 11.5447C32.1463 11.13 31.7706 10.8404 31.3316 10.8014C30.8733 10.7572 30.4696 10.9833 30.2501 11.3635C26.2498 18.3098 23.58 23.2523 20.7526 28.4858C18.7841 32.1302 16.7626 35.8712 14.1989 40.4579C13.8939 41.0038 14.0884 41.6933 14.6336 41.9983ZM31.0059 14.5976C32.5559 18.7518 34.2901 23.0549 35.9772 27.2386C36.0175 27.3386 36.0583 27.4403 36.0986 27.5405L24.0372 27.171C26.12 23.3233 28.2403 19.4432 31.0059 14.5976Z" fill="#221F1A"/>
<path d="M58.2859 46.6787C57.6611 46.6787 57.1543 47.1856 57.1543 47.8103C57.1543 48.435 57.6611 48.9418 58.2859 48.9418H73.1916C71.9224 52.256 70.2044 55.3771 68.1021 58.2217C66.6176 56.1258 65.4602 53.7576 64.3548 51.4378C64.0881 50.8742 63.4118 50.634 62.8475 50.9022C62.2832 51.1711 62.043 51.8459 62.3127 52.4102C63.5525 55.0155 64.8592 57.6826 66.6521 60.0652C65.3338 61.6429 63.9055 63.1311 62.3495 64.4869C61.5609 65.1754 62.0553 66.4716 63.0936 66.4716C63.3573 66.4716 63.6225 66.3802 63.8376 66.1931C65.3767 64.852 66.7974 63.3885 68.1173 61.841C70.4521 64.2823 73.233 65.8038 76.0594 66.1489C76.1066 66.154 76.1523 66.157 76.1979 66.157C76.7622 66.157 77.2499 65.7363 77.3192 65.1624C77.3958 64.5421 76.9538 63.9778 76.3335 63.902C73.9513 63.611 71.5725 62.2495 69.5579 60.0628C72.7239 55.9081 75.0797 50.8988 75.6019 48.9418H78.8353C79.46 48.9418 79.9669 48.435 79.9669 47.8103C79.9669 47.1856 79.46 46.6787 78.8353 46.6787H68.7219C68.6376 46.0144 68.6751 45.3253 68.8457 44.6793C69.0048 44.0752 68.6424 43.4564 68.0383 43.2973C67.4445 43.1411 66.8168 43.4999 66.6562 44.1047C66.4371 44.9368 66.3923 45.8172 66.467 46.6787H58.2859Z" fill="#221F1A"/>
</svg>
