<svg width="75" height="66" viewBox="0 0 75 66" fill="none" xmlns="http://www.w3.org/2000/svg">
<path d="M68.8245 14.1168H23.3625C21.4714 11.352 17.5013 9.83585 14.015 10.6574C12.3305 11.0517 10.866 12.2771 9.83632 14.1168H5.34169C2.63297 14.1168 -0.403182 15.7093 0.0441489 18.3715C0.0439368 19.3319 0.507823 20.358 1.25919 21.0395C3.05014 22.6631 5.70189 22.6014 7.94973 22.5716C11.2779 27.6696 18.2141 28.5344 22.6819 24.7113C24.7226 22.965 24.8321 22.3992 27.697 22.4135C40.532 22.4762 53.367 22.5393 66.202 22.6021C68.8994 22.6154 71.6718 22.5171 73.0908 20.2279C75.7306 17.773 73.396 14.1168 68.8245 14.1168ZM8.47075 19.979H5.34169C3.23868 19.979 1.77144 18.9416 1.72053 17.9676C1.7013 17.6271 1.84271 17.2934 2.14249 16.9766C2.79636 16.2843 4.02151 15.8544 5.34169 15.8544H9.04995C8.57822 17.221 8.37233 18.6769 8.47075 19.979ZM15.0241 24.5436C14.0298 24.4418 12.6474 24.1352 11.6971 23.2517C9.67456 21.3957 9.90057 17.8592 11.1315 15.3702C11.1316 15.37 11.1325 15.3671 11.1326 15.3669C11.5964 14.4177 12.6394 12.7638 14.4121 12.3487C17.2379 11.6816 20.9113 12.9175 22.3581 15.7843C24.0726 19.3861 21.7434 25.2276 15.0241 24.5436ZM72.4558 17.9224C72.4558 18.8952 70.9648 19.979 68.8245 19.979H24.443C24.7439 18.5875 24.6805 17.161 24.2507 15.8544H68.8245C70.9648 15.8544 72.4558 16.9382 72.4558 17.9111V17.9224Z" fill="#0E0E0E"/>
<path d="M68.9787 33.4102H63.56C61.9471 30.1312 57.5449 28.2058 53.6943 29.1148C51.5058 29.6307 49.9659 31.3734 49.0671 33.4102H5.49588C2.29808 33.4102 -0.850754 35.5749 0.396944 38.3628C0.560623 39.8487 1.41352 41.2656 2.70584 42.0295C4.1144 42.8618 5.83306 42.9187 7.46901 42.9458C20.8404 43.1673 34.2185 42.8918 47.5719 42.161C49.5055 44.49 52.4769 45.9451 55.5094 45.9728C58.8915 46.0033 62.2411 44.2663 64.1645 41.4843C65.8765 41.9192 67.5185 41.8796 69.2788 41.7323C71.8734 41.5147 74.0831 40.7528 74.157 38.14C75.1086 35.4337 72.1288 33.4102 68.9787 33.4102ZM48.2574 39.2724H5.49588C3.38608 39.2724 1.91431 38.235 1.86341 37.261C1.84418 36.9227 1.98558 36.5913 2.28537 36.2745C2.9415 35.5799 4.17118 35.1478 5.49588 35.1478H48.4732C48.1012 36.606 48.0278 38.0778 48.2574 39.2724ZM59.854 41.9342C57.5153 43.4566 53.2652 43.4564 51.3718 41.7091C48.2717 38.8392 50.3432 31.6901 54.0925 30.806C57.1808 30.0843 60.8121 31.6522 62.0362 34.2405C63.2636 36.8413 62.2647 40.364 59.854 41.9342ZM71.6779 38.5495C69.9361 39.6849 67.9586 39.1245 63.8834 39.2724C64.3183 37.9454 64.4217 36.5129 64.1445 35.1478H68.9787C71.7036 35.1478 73.9217 37.0881 71.6779 38.5495Z" fill="#0E0E0E"/>
<path d="M69.5721 52.5256H29.7883C28.1621 49.2648 23.777 47.358 19.9404 48.263C17.7632 48.7761 16.2268 50.5027 15.326 52.5256H6.08819C1.64716 52.5256 -0.732285 55.9919 1.65104 58.4678C2.79936 61.911 7.04304 62.6923 10.6846 62.5387C12.1767 62.4756 13.6673 62.3107 15.1579 62.2539C19.263 67.3978 27.0581 66.6364 30.2323 61.1981C42.5232 61.4332 54.8938 61.8766 67.1548 60.988C68.9528 60.8575 70.8818 60.678 72.3276 59.5852C76.8959 57.6684 75.1192 52.5256 69.5721 52.5256ZM14.4985 58.3889H6.08819C3.97839 58.3889 2.50663 57.3516 2.45572 56.3776C2.43649 56.0393 2.5779 55.7079 2.87768 55.39C3.53381 54.6954 4.76462 54.2632 6.08819 54.2632H14.7267C14.3505 55.7197 14.274 57.1912 14.4985 58.3889ZM26.1001 61.0813C24.7325 61.9739 22.9009 62.3506 20.9461 62.147C18.3566 61.8757 16.7596 60.7466 16.2209 58.1672C15.7736 56.0291 16.7499 53.6015 16.7224 53.7174C17.8498 50.7505 19.6593 49.7755 21.9032 49.7755C24.5616 49.7755 27.2619 51.2292 28.2812 53.3888C29.5098 55.9895 28.5109 59.5134 26.1001 61.0813ZM69.5721 58.3889H30.1399C30.5692 57.0606 30.6667 55.6275 30.3837 54.2632H69.5721C71.7057 54.2632 73.1921 55.347 73.1921 56.3323C73.1921 57.3052 71.7057 58.3889 69.5721 58.3889Z" fill="#0E0E0E"/>
<path d="M9.06872 10.1335C9.88028 10.1335 10.2506 9.11017 9.61964 8.59269L5.87179 5.52698C5.50186 5.22267 4.95207 5.27697 4.65003 5.64916C4.34572 6.02021 4.40002 6.56774 4.7722 6.87091L8.5178 9.93662C8.67957 10.069 8.87414 10.1335 9.06872 10.1335Z" fill="#0E0E0E"/>
<path d="M13.1557 7.69469C13.5935 7.49672 13.7881 6.982 13.5901 6.54533C12.7439 4.67423 12.1104 2.70697 11.7054 0.69786C11.6104 0.228388 11.15 -0.0793139 10.6816 0.0179742C10.211 0.113 9.90672 0.571159 10.0017 1.04176C10.4328 3.17871 11.107 5.2704 12.0063 7.26029C12.2043 7.6995 12.7207 7.89086 13.1557 7.69469Z" fill="#0E0E0E"/>
<path d="M18.6798 6.97413L20.4582 1.74319C20.6132 1.28956 20.3699 0.795199 19.9152 0.641348C19.4593 0.484103 18.9672 0.729587 18.8133 1.18435L17.035 6.41529C16.88 6.86892 17.1232 7.36328 17.578 7.51714C18.0267 7.67034 18.5235 7.43316 18.6798 6.97413Z" fill="#0E0E0E"/>
</svg>
