<svg width="75" height="79" viewBox="0 0 75 79" fill="none" xmlns="http://www.w3.org/2000/svg">
<path d="M28.1995 1.38069C28.1283 1.07447 27.9027 0.824276 27.5691 0.730103C27.2295 0.632948 28.1106 0.776259 20.6259 0.00746189C20.1629 -0.0577063 19.6675 0.310768 19.6312 0.847344C19.1977 7.13445 18.8186 12.8176 18.3477 19.8525C10.2087 19.8166 0.542002 19.7878 0.906951 19.789C0.40238 19.789 -0.0133351 20.2056 0.000327434 20.7198C0.213332 27.8867 0.0280416 27.8942 0.613923 28.2649C0.865869 28.4232 0.742155 28.3426 1.01186 28.4022C1.49153 29.1641 2.03469 30.1168 2.42673 30.6156H17.6178C15.605 59.8504 15.1504 58.2127 15.6899 58.8216C15.8221 58.9711 16.0033 59.0538 16.1957 59.0928C16.8425 59.717 17.4892 60.3414 18.1359 60.9654C26.7107 61.3578 36.0029 61.719 45.2877 62.0805V75.8771L47.5291 77.7704C47.578 77.8916 47.6227 78.6327 48.4303 78.6327C48.5521 78.6327 56.247 78.4248 56.1254 78.4189C56.602 78.4047 56.9865 78.0255 57.0066 77.5495L57.6159 62.5669C62.4859 62.763 67.2689 62.9632 71.8407 63.1723C72.3456 62.3968 72.8405 61.6694 73.3406 60.9166C73.774 60.8836 74.1331 60.5537 74.1769 60.1116C75.0339 51.3737 74.9422 52.5079 74.9111 52.2721C74.8792 52.0273 74.8291 51.8789 74.5744 51.6818C74.5281 51.6457 74.4865 51.6068 74.4334 51.5799C74.0092 51.3678 74.4002 51.5529 58.067 50.978C59.3519 18.0281 59.4245 20.4032 59.0124 19.9827C58.4519 19.409 59.78 19.9789 29.0324 19.8991C29.3221 14.3723 29.5504 8.85133 29.7273 3.36404C29.218 2.70282 28.7088 2.04161 28.1995 1.38069ZM28.3906 30.4656H45.9355V50.587C39.7074 50.385 33.3722 50.1836 26.6856 49.9816C27.3835 43.5201 27.9401 37.0007 28.3906 30.4656ZM1.97054 26.6073L1.83838 21.6058C7.1121 21.6153 12.1586 21.6396 18.2263 21.6666C18.1441 22.889 18.0435 24.4136 17.8869 26.6793C12.843 26.6668 7.48819 26.6364 1.97054 26.6073ZM55.2282 76.6281L49.3782 76.7911C49.5875 71.8106 49.7781 67.0052 49.9645 62.2633C51.9215 62.3398 53.8641 62.4168 55.8026 62.4945L55.2282 76.6281ZM73.0301 53.2629L72.4546 59.0886C16.3936 57.3137 28.5834 57.6902 17.3585 57.3439C18.944 39.5693 19.7223 25.9779 21.3772 1.90576L26.3629 2.4013C26.3529 2.52618 22.8808 51.2411 23.0221 51.4009C23.3975 51.8231 20.1975 51.5859 73.0301 53.2629ZM57.4183 21.5408C56.9974 31.9366 56.6247 41.3956 56.2532 50.9207C54.3043 50.854 52.3587 50.792 50.4107 50.7323C51.2897 26.4174 51.6158 27.3047 51.0955 26.7738C50.5365 26.2055 51.2981 26.7074 28.6434 26.7074C28.7478 25.0427 28.8454 23.378 28.9371 21.7133C37.8154 21.7363 46.8311 21.7251 57.4183 21.5408Z" fill="#0E0E0E"/>
</svg>
