<svg width="65" height="65" viewBox="0 0 65 65" fill="none" xmlns="http://www.w3.org/2000/svg">
<path d="M32.4893 4.06104C16.8091 4.06104 4.06055 16.8096 4.06055 32.4898C4.06055 48.17 16.8091 60.9185 32.4893 60.9185C48.1695 60.9185 60.918 48.17 60.918 32.4898C60.918 16.8096 48.1695 4.06104 32.4893 4.06104Z" fill="#FDDD4C"/>
<path d="M20.0401 39.9018C19.4185 38.9607 20.982 37.5364 20.346 36.3404C19.9795 35.6507 19.3803 35.2209 18.6607 35.1307C17.97 35.044 17.2586 35.2969 16.8051 35.791C16.0891 36.5701 15.9778 37.6306 16.1163 38.0059C16.167 38.1435 16.2466 38.181 16.3037 38.189C16.6936 38.2404 16.913 37.2395 17.0477 37.0311C17.4199 36.4565 18.2652 36.2827 18.8489 36.6603C19.9558 37.3762 18.996 38.5332 19.0788 39.5105C19.1594 40.462 19.7523 40.8444 20.2845 40.8846C20.8022 40.9043 21.1643 40.6166 21.2557 40.4066C21.4749 39.9054 20.5516 40.6762 20.0401 39.9018Z" fill="black"/>
<path d="M43.1666 31.2629C42.8763 31.2227 42.559 31.2237 42.2289 31.2629C41.9782 30.9466 41.7537 30.4346 41.627 29.8369C41.4016 28.7737 41.4251 28.0035 42.0542 27.9034C42.6833 27.8034 42.9874 28.4467 43.2128 29.5099C43.3639 30.2247 43.335 30.8814 43.1666 31.2629Z" fill="black"/>
<path d="M36.2765 31.8955C36.3014 32.1362 36.3102 32.3799 36.3031 32.6042C36.9118 32.6399 37.343 32.929 37.4578 33.1124C37.5166 33.2071 37.4931 33.2688 37.4741 33.2974C37.4111 33.3954 37.2761 33.3803 36.9932 33.3485C36.7461 33.3208 36.48 33.2964 36.2035 33.3091C36.053 33.7706 35.6068 33.8138 35.2933 33.4725C35.0743 33.5392 34.6442 33.8139 34.516 33.5154C34.5149 33.3673 34.6698 33.152 34.9503 32.9618C34.7588 32.5966 34.6305 32.2055 34.5547 31.8007C34.157 31.8723 33.7993 31.9837 33.5189 32.071C33.3872 32.112 32.8664 32.3473 32.8053 32.0821C32.7646 31.899 33.0497 31.597 33.3511 31.379C33.6879 31.1399 34.0616 30.9699 34.4489 30.8718C34.4406 30.2951 34.5877 29.8928 35.0067 29.8262C35.5262 29.7435 35.8482 30.1435 36.071 30.8842C36.6988 31.0586 37.3258 31.4911 37.6026 31.9383C37.7103 32.1116 37.7311 32.2456 37.6615 32.3162C37.4874 32.4966 36.5235 31.9738 36.2765 31.8955Z" fill="black"/>
<path d="M40.405 34.4874C40.8033 34.6804 41.2413 34.6045 41.3844 34.3177C41.5274 34.0308 41.3201 33.6422 40.9218 33.4492C40.5236 33.2562 40.0855 33.3322 39.9425 33.619C39.7994 33.9058 40.0067 34.2944 40.405 34.4874Z" fill="black"/>
<path d="M42.3655 33.0632C42.3727 32.6245 42.6415 32.2743 42.9647 32.2796C43.2878 32.2859 43.544 32.6451 43.5367 33.0829C43.5295 33.5207 43.2607 33.8709 42.9375 33.8655C42.6144 33.8602 42.3582 33.501 42.3655 33.0632Z" fill="black"/>
<path fill-rule="evenodd" clip-rule="evenodd" d="M51.1283 38.4357C51.1346 38.4581 51.1256 38.4265 51.1283 38.4357C51.7773 38.4357 52.7964 39.1719 52.7964 40.9508C52.7964 42.7208 52.0524 44.7257 51.8768 45.1707C49.1967 51.5107 42.8 55.04 35.1805 54.8166C28.0769 54.6084 22.0187 50.9085 19.3675 44.8767C17.7645 44.8785 16.1117 44.1825 14.8554 43.0835C13.5311 41.9256 12.7147 40.4272 12.5554 38.8645C12.4314 37.6476 12.5825 36.5156 12.969 35.5283L11.4801 34.2828C4.66611 28.6039 25.9778 5.22176 32.7936 11.0901C32.828 11.1196 35.1126 13.3318 35.118 13.3372C38.4044 11.9598 47.2099 9.33733 47.2198 15.4422C47.2235 17.4695 45.9146 19.8336 43.8174 21.9788C46.2411 24.1975 45.602 27.3491 45.9879 30.2408L46.8297 30.4713C48.4345 30.9153 49.5759 31.5077 50.1344 32.0867C50.6929 32.6647 50.9699 33.225 51.0703 33.8817C51.1645 34.4115 51.1518 35.3469 50.444 36.3932C50.6988 37.0681 50.9315 37.741 51.1283 38.4357ZM19.2471 43.2318C19.4852 43.2372 19.7214 43.222 19.9532 43.1827C22.4432 42.7637 23.0949 40.094 22.6849 37.4725C22.2215 34.5124 20.193 33.4689 18.8163 33.3947C18.4334 33.3751 18.0777 33.409 17.7844 33.4671C15.3269 33.9558 13.9394 36.0197 14.2127 38.7002C14.4598 41.1259 16.9453 43.1711 19.2471 43.2318ZM13.6814 34.1944C14.506 33.0123 15.8537 32.1573 17.3834 31.8633C19.3304 26.7044 22.5817 21.9511 26.8848 18.6801C30.0781 16.0506 33.5222 14.1645 33.5222 14.1645C33.5222 14.1645 31.6676 12.0416 31.1073 11.8853C27.6614 10.9668 20.2193 16.0328 15.4672 22.7267C13.5447 25.4348 10.7922 30.2309 12.1082 32.6978C12.2703 33.0034 13.189 33.7887 13.6814 34.1944ZM41.6188 42.0471C41.6242 42.1025 41.5898 42.1597 41.54 42.1802C41.54 42.1802 38.7712 43.4516 34.3731 42.1087C34.5312 43.4271 36.13 43.9267 37.2469 44.1074C42.6968 45.0331 47.7919 41.9569 48.9387 41.1822C49.1356 41.0492 48.9363 41.3911 48.9007 41.4413C47.4968 43.2292 43.7223 45.2993 38.8119 45.2984C36.6703 45.2975 34.5297 44.5533 33.744 43.4087C32.5248 41.6334 33.6833 39.0415 35.7154 39.3113C39.1502 39.6941 42.6716 39.4065 45.8512 37.9496C48.6237 36.6791 49.671 35.2817 49.5135 34.1497C49.2692 32.3953 46.6682 32.121 45.3534 31.6944C44.7814 31.5077 44.499 31.3585 44.4347 30.2962C44.4066 29.8324 44.3252 28.2144 44.2953 27.5452C44.2428 26.3738 44.0998 24.7718 43.0933 24.1106C42.8308 23.9382 42.5393 23.8551 42.2325 23.839C41.9878 23.8274 41.8427 23.861 41.7647 23.879C41.7472 23.8831 41.7331 23.8864 41.722 23.8882C41.1785 23.9794 40.8454 24.2544 40.4527 24.5786C40.4301 24.5973 40.4072 24.6161 40.3842 24.6351C39.1287 25.668 38.0688 25.8368 36.8894 25.7868C36.5221 25.7714 36.1435 25.7348 35.7441 25.696C35.3768 25.6604 34.992 25.6231 34.5822 25.5992L34.0816 25.5706C32.1066 25.4705 29.9885 27.1538 29.6364 29.5447C29.243 32.2135 30.7347 33.8482 31.7048 34.9112C31.9446 35.1739 32.1524 35.4017 32.2921 35.6016C32.3817 35.7222 32.4858 35.892 32.4858 36.0537C32.4858 36.2467 32.3591 36.3995 32.2351 36.5299C30.2202 38.5751 29.5758 41.8246 30.3352 44.5327C30.4302 44.8705 30.5506 45.1939 30.6927 45.503C32.4741 49.6121 38.0009 51.5259 43.3992 49.7855C47.1826 48.5655 50.5254 45.6178 51.2061 41.5512C51.3681 40.4916 51.1301 40.0823 50.806 39.8849C50.463 39.6767 50.052 39.7491 50.052 39.7491C50.052 39.7491 49.8647 38.483 49.3343 37.3322C47.7602 38.5581 45.7345 39.4194 44.1921 39.8563C41.7209 40.5561 39.0516 40.8285 36.498 40.4986C35.4623 40.3647 34.7664 40.2748 34.4681 41.2314C37.8742 42.4626 41.4794 41.9354 41.4794 41.9354C41.5491 41.9283 41.6115 41.9783 41.6188 42.0471ZM31.7916 18.1548C29.9288 19.0956 27.8488 20.7708 26.1598 22.6981C26.1 22.7669 26.1887 22.8616 26.262 22.8089C27.7211 21.7608 29.7215 20.7869 32.3419 20.1561C35.2773 19.4494 38.1032 19.746 39.8293 20.1365C39.9162 20.1561 39.9705 20.0087 39.8936 19.9658C38.7531 19.3341 37.0025 18.9053 35.7607 18.8963C35.7 18.8955 35.6656 18.8258 35.7018 18.7775C35.9163 18.4925 36.2105 18.2111 36.4793 18.0073C36.5391 17.9609 36.5029 17.8653 36.4268 17.8697C34.882 17.9634 31.3535 19.5723 31.3662 19.5137C31.4567 19.0849 31.7418 18.5184 31.8893 18.2539C31.9246 18.1914 31.8559 18.1226 31.7916 18.1548Z" fill="black"/>
</svg>
