<svg width="60" height="60" viewBox="0 0 60 60" fill="none" xmlns="http://www.w3.org/2000/svg">
<circle cx="30" cy="30" r="30" fill="#FFC900"/>
<path d="M41.6573 15.4792C35.4142 12.3081 31.5494 15.058 36.1821 16.1481C47.9252 18.9228 49.5355 33.4157 38.2632 41.5169C24.8851 51.1046 8.08813 38.1229 16.6105 24.7943C20.2275 19.1458 24.3153 16.0985 28.4031 15.9747C31.9953 15.8756 30.8557 14.067 27.1891 14.067C18.1465 14.067 8.41024 25.5871 10.2188 34.159C11.6804 41.1701 17.4281 45.7286 26.223 46.8186C46.7113 49.3704 59.0488 24.2988 41.6573 15.4792Z" fill="#0A102F"/>
<path d="M26.4951 34.7042C25.405 32.97 25.306 32.8956 24.2159 32.97C21.3669 33.1929 23.2497 37.2559 26.842 38.5937C29.8149 39.7086 34.4229 39.114 35.9837 37.4541C38.3372 34.9519 37.7674 30.988 35.2899 32.6231C35.1413 32.7222 34.7945 33.3168 34.522 33.9114C32.6887 37.9744 28.7495 38.346 26.4951 34.7042Z" fill="#0A102F"/>
<path d="M37.2712 26.7766C36.3794 24.646 34.9921 24.1258 34.0011 25.5627C32.8119 27.3217 33.4809 28.9567 35.3885 28.9567C37.2961 28.9567 37.8906 28.2879 37.2712 26.7766Z" fill="#0A102F"/>
<path d="M26.9906 27.1234C26.9906 25.3892 25.8758 24.5964 24.3398 25.2406C22.9525 25.8104 22.3083 28.4365 23.2993 29.3531C24.86 30.7652 26.9906 29.4522 26.9906 27.1234Z" fill="#0A102F"/>
</svg>
