<svg width="74" height="70" viewBox="0 0 74 70" fill="none" xmlns="http://www.w3.org/2000/svg">
<path d="M16.978 8.07768C5.94168 15.15 2.86781 30.3653 11.3485 41.0557C12.0503 41.9369 13.3826 40.8807 12.6835 39.9968C4.87834 30.1611 7.6483 16.0808 17.8971 9.51081C37.1557 -2.8676 58.8189 20.2792 46.7981 38.9363C42.6205 45.4066 34.6864 49.5972 26.0014 47.9941C24.8966 47.7887 24.5831 49.4645 25.6932 49.6695C34.9266 51.371 43.6045 47.0223 48.2296 39.8593C61.3513 19.4928 37.591 -5.17769 16.978 8.07768Z" fill="white"/>
<path d="M55.0795 45.7689C53.9602 44.6233 53.2008 43.5771 51.8584 42.4867C54.5046 38.5826 56.0981 34.0387 56.4465 29.2071C58.4009 2.2585 23.5275 -10.9734 7.32785 11.2021C1.52208 17.1721 -1.1773 26.1259 0.483479 34.3355C4.57348 54.5539 29.9639 63.6055 47.2536 49.2599C47.7838 49.6973 48.3094 50.2257 48.8396 50.663C46.8459 53.2937 49.2405 56.5371 51.7861 58.7414C60.9791 66.7019 64.0371 71.5596 67.7461 69.544C69.7349 69.2385 70.3142 67.8507 72.3423 66.0533C73.8814 64.522 73.8891 62.0233 72.359 60.4832C58.4922 47.0538 58.4833 44.9681 55.0795 45.7689ZM45.9894 46.5488C34.4117 56.5607 16.8981 54.1011 8.35211 41.8031C-4.31432 23.6637 10.8617 -1.37677 33.1483 2.05194C54.3562 5.24321 62.5408 32.2358 45.9894 46.5488ZM48.359 46.6731C49.261 45.7905 50.0982 44.8569 50.8602 43.8727C51.8702 44.7077 52.4588 45.4619 53.491 46.5676C52.95 47.0151 52.4749 47.549 50.937 49.056C50.5793 48.731 49.54 47.75 48.359 46.6731ZM71.1415 64.8452L68.7199 67.2508C67.845 68.119 66.4269 68.1151 65.5587 67.2402L51.9791 53.5725C51.1167 52.7056 51.1046 51.2907 51.988 50.4119C54.1249 48.4562 54.66 47.257 55.9919 47.3566C57.6391 47.3627 56.9486 47.7131 71.1504 61.684C72.0197 62.5583 72.0152 63.9765 71.1415 64.8452Z" fill="white"/>
<path d="M35.3735 24.4195C36.0934 22.6389 36.246 20.6884 36.3267 18.9876C40.6284 11.952 32.5509 4.35891 27.0319 9.54212C23.8802 8.86712 20.1872 11.9702 21.9092 18.3871C21.6752 29.1959 32.1746 32.3325 35.3735 24.4195ZM30.701 26.9542C28.0996 27.7641 24.1509 25.8789 23.6572 19.3078C26.3597 19.3043 30.1143 17.539 32.0781 15.1588C32.5378 16.7185 33.2806 18.166 34.6152 19.0866C34.4515 22.3221 33.7946 25.9904 30.701 26.9542ZM24.3786 11.9116C26.0705 10.3258 27.2024 11.9243 27.9367 11.0573C31.2951 7.11323 37.7619 11.553 35.2356 17.4067C34.0573 16.3469 33.5819 14.521 33.2623 12.6606C33.1099 11.774 31.8442 11.6945 31.6013 12.5802C30.8938 15.1722 26.1984 17.7455 23.4743 17.6181C22.9816 15.6073 22.8669 13.3295 24.3786 11.9116Z" fill="white"/>
<path d="M41.9264 41.5871C42.6587 41.5848 43.2014 40.9112 43.0352 40.2044C39.6895 26.1556 20.5496 26.4169 14.7152 40.1695C14.4758 40.7785 14.865 41.4808 15.5768 41.5799C18.6736 41.9069 22.9714 42.0311 27.3378 42.0311C37.3537 42.0311 41.5449 41.5882 41.9264 41.5871ZM32.0049 31.6376C30.8262 33.047 28.8054 33.0109 27.6791 31.6123C27.7427 31.5996 30.5458 31.3468 32.0049 31.6376ZM16.6734 39.9749C18.416 36.3962 21.4517 33.4826 25.921 32.0716C27.5909 35.0475 31.937 35.2299 33.7485 32.1171C37.6226 33.4392 40.1901 36.2437 41.2068 39.9277C35.8547 40.1167 25.3982 40.7368 16.6734 39.9749Z" fill="white"/>
</svg>
