<svg width="59" height="70" viewBox="0 0 59 70" fill="none" xmlns="http://www.w3.org/2000/svg">
<path d="M6.97651 48.3599L11.908 31.5275L15.3067 41.9807L24.7697 39.0859L16.2585 59.3987L15.8354 46.6257L6.97651 48.3599Z" fill="#4B2AAD"/>
<path d="M48.2282 4.02646C45.0022 2.12909 41.0535 0.502675 37.2768 0.501812C37.0424 0.466282 36.808 0.430026 36.5744 0.40333C29.2399 -0.458189 21.4199 3.05399 17.1191 9.13876C12.7544 15.3147 12.0888 23.9168 15.4625 30.5421C16.9948 33.5634 19.2757 36.1492 20.7012 39.152C18.711 39.9108 16.9779 40.6512 15.4759 41.3859C14.5549 37.3608 13.7659 32.5828 12.8071 28.638C12.7203 28.2809 12.3995 28.029 12.0262 28.0255C11.6203 28.022 11.3208 28.2671 11.2183 28.6225L5.2918 49.1336C5.20179 49.4442 5.27332 49.7755 5.65031 50.0094C5.95632 50.3377 6.32633 50.6087 6.74773 50.7731C9.35643 50.0394 12.1923 49.2426 14.834 48.4997C14.7097 53.0042 15.0107 56.0678 15.4127 61.1813C15.4605 61.8052 16.1768 62.1299 16.6968 61.7719C16.9201 61.7378 17.2083 61.6692 17.6758 61.5165C19.256 57.0277 20.9149 52.6438 22.6479 48.2702C23.1107 49.4261 24.0683 50.5675 24.7106 50.7294L24.9834 51.2506C24.2103 52.7608 23.8922 54.4431 24.9407 55.7602C23.9187 57.1028 23.9606 58.9281 24.897 60.1859C24.6912 60.7454 24.6237 61.373 24.7155 61.9643C24.94 63.4 25.8782 63.9491 26.1527 64.2567C27.3354 65.8032 28.5484 67.5711 29.957 68.9087L30.0677 69.1161C30.574 70.063 34.2602 70.0317 35.7936 69.5902C38.266 69.9808 42.2055 67.9956 43.4419 64.5561C44.8604 64.189 45.8175 62.3049 45.4179 60.7265C45.1635 59.7219 45.475 59.7553 45.7824 59.431C46.5813 58.588 46.9278 57.3343 46.6068 56.2313C46.4648 55.7431 46.059 55.217 45.5487 55.322C46.6708 54.3867 47.1758 52.64 46.157 51.1256C47.0805 50.5962 47.9204 49.8595 48.1535 49.2554C49.118 46.7558 48.6347 44.0631 49.864 41.4573C51.0402 38.9638 52.8836 36.8224 54.3892 34.52C58.3499 28.4633 59.0342 20.7683 56.2082 14.1662C54.49 10.1522 52.0331 6.26429 48.2282 4.02646ZM26.9794 62.7714C26.3056 62.2047 26.1848 61.4406 26.4382 60.7384C31.055 61.8854 30.5842 58.9103 29.1789 59.2084C27.4115 59.5676 26.3221 58.9454 26.0453 58.9207C25.3045 57.4185 26.5342 56.4855 26.6824 56.1987C28.3372 56.6477 30.0109 56.8045 31.6954 56.6687C32.1478 56.6316 32.4888 56.24 32.4572 55.7943C32.425 55.3486 32.0345 55.0228 31.5795 55.0535C29.6909 55.2069 27.7686 54.9325 26.0053 54.2709C25.6219 52.9926 26.6918 51.7624 26.7285 51.2994C30.9159 51.9996 36.4385 51.9045 40.7915 51.3859C40.879 51.5683 41.4679 52.4367 41.5644 53.3132C41.7173 54.7082 40.8848 54.5589 40.7928 55.2705C40.799 55.3919 40.5974 55.9036 41.0547 56.2655C41.8031 56.8563 42.0184 58.1048 41.3903 59.0048C39.9953 59.6179 42.1586 60.8227 40.9741 62.3225C40.8466 62.3441 33.5779 64.8912 26.9794 62.7714ZM15.5101 45.8223C12.7562 46.5964 10.0547 47.3805 7.27316 48.17L11.9041 32.1427C12.6256 35.5891 13.3131 39.4874 14.1121 42.7746C14.2367 43.2904 14.8218 43.5365 15.2884 43.2919C17.3289 42.2276 19.9679 41.1127 23.1503 39.9702C20.6518 46.347 18.782 51.477 16.7499 57.1981C16.4788 53.6561 16.3354 50.8727 16.5473 46.6311C16.5748 46.0827 16.0516 45.6707 15.5101 45.8223ZM23.702 45.611C24.4216 43.8311 25.1552 42.0501 25.9049 40.2617C25.7756 39.9427 25.5436 39.351 25.3409 38.8372C25.5321 38.1926 24.9152 37.6416 24.2989 37.855C23.5863 38.0987 22.908 38.3393 22.2483 38.5783C20.6885 35.2313 18.4912 32.8715 16.9328 29.8028C13.8204 23.6898 14.4356 15.7533 18.4635 10.0544C22.4222 4.45359 29.6091 1.21464 36.3625 2.01239C36.637 2.04426 36.9108 2.08615 37.175 2.12646C43.563 3.18235 49.3657 7.77851 51.959 13.8367C53.7104 17.9248 53.8937 22.8197 52.4737 27.624C50.3902 34.8254 45.9225 37.4722 44.2379 42.9021C43.1739 46.3918 44.3839 48.4717 42.5813 49.5081C38.2059 49.9694 33.6574 50.8013 25.5161 49.4039C24.8138 48.6555 24.0449 48.4083 23.702 45.611ZM31.3564 68.0348C30.9284 67.3615 30.9994 67.9636 28.6529 64.8447C32.0032 65.4569 35.4057 65.2966 38.7372 64.5825C38.5475 64.799 38.3585 65.0167 38.1711 65.2328C35.5941 68.2054 35.8851 67.5984 35.631 67.9524C34.3733 68.3775 32.9396 68.4048 31.3564 68.0348Z" fill="#0A102F"/>
<path d="M10.3123 20.8323C10.2327 20.3984 9.80296 20.1174 9.36493 20.196L1.51032 21.6478C1.0664 21.7299 0.770291 22.1478 0.84933 22.5817C0.9274 23.0081 1.34282 23.2997 1.79667 23.218L9.65129 21.7662C10.0952 21.6841 10.3913 21.2662 10.3123 20.8323Z" fill="#0A102F"/>
<path d="M2.5431 13.2151L8.83899 15.4906C9.26348 15.6428 9.73422 15.4278 9.89359 15.0124C10.0538 14.5955 9.84158 14.1338 9.41938 13.9812L3.12242 11.7057C2.7018 11.5546 2.22806 11.7671 2.06835 12.1844C1.90811 12.6013 2.1209 13.0625 2.5431 13.2151Z" fill="#0A102F"/>
<path d="M11.1028 10.2592C11.4554 10.5403 11.9712 10.4806 12.258 10.1347C12.5456 9.78625 12.4956 9.27684 12.1457 8.99686C10.975 8.06094 9.97797 6.94554 9.18213 5.68123C8.94406 5.30231 8.43814 5.19129 8.0537 5.43012C7.66766 5.66896 7.54738 6.16875 7.78547 6.54609C8.676 7.96165 9.79195 9.21094 11.1028 10.2592Z" fill="#0A102F"/>
<path d="M29.8785 34.1513C36.1718 27.543 42.5567 20.9921 48.7803 14.4551C49.158 14.059 49.0446 13.4236 48.5617 13.1841C47.4285 12.6215 46.2743 12.1277 45.1955 11.592C44.8866 11.4387 44.511 11.4947 44.2573 11.7342C39.3965 16.3227 34.51 21.376 29.7209 26.7637C27.9239 24.4762 26.7887 22.7955 25.0425 19.8824C24.8275 19.5226 24.3659 19.3892 23.9827 19.575C22.7691 20.161 21.692 20.9943 20.6088 21.8098C20.2771 22.0588 20.1832 22.5114 20.3914 22.8633C23.0041 27.2827 25.6105 30.0431 28.6226 34.0856C28.9231 34.4889 29.5259 34.5222 29.8785 34.1513ZM22.1778 22.6497C22.7798 22.1986 23.3956 21.7506 24.0286 21.3784C25.7789 24.2615 26.972 25.9597 29.0345 28.536C29.3562 28.9376 29.965 28.9311 30.2953 28.5565C35.1233 23.0831 40.0562 17.9495 44.9654 13.2895C45.6206 13.6028 46.2997 13.91 46.8299 14.1575C41.0505 20.2159 35.1419 26.2889 29.3645 32.3465C26.7418 28.9015 24.4362 26.3346 22.1778 22.6497Z" fill="#0A102F"/>
</svg>
