<svg width="35" height="35" viewBox="0 0 35 35" fill="none" xmlns="http://www.w3.org/2000/svg">
<path d="M26.4575 23.3686L30.164 19.6621L24.6041 14.1023L30.7818 7.92482L27.0751 4.2183L20.8976 10.3958L15.3378 4.83605L11.6313 8.54257L26.4575 23.3686ZM23.9865 25.8396L9.16034 11.0136L4.2183 15.9556L19.0443 30.7818L23.9865 25.8396ZM20.8976 5.45381L25.8396 0.511772C26.5221 -0.170591 27.6283 -0.170591 28.3106 0.511772L34.4883 6.68931C35.1706 7.37167 35.1706 8.47797 34.4883 9.16034L29.5463 14.1023L33.8704 18.4266C34.5529 19.1089 34.5529 20.2153 33.8704 20.8976L20.28 34.4883C19.5975 35.1706 18.4913 35.1706 17.8088 34.4883L0.511772 17.1911C-0.170591 16.5088 -0.170591 15.4025 0.511772 14.7201L14.1024 1.12952C14.7847 0.447175 15.891 0.447175 16.5733 1.12952L20.8976 5.45381Z" fill="#7949F6"/>
</svg>
