<svg width="80" height="69" viewBox="0 0 80 69" fill="none" xmlns="http://www.w3.org/2000/svg">
<path d="M79.1426 49.5871C77.9206 47.6973 75.6529 46.8279 73.5363 47.3193L53.4293 51.4517C53.8955 50.6579 54.1097 49.7382 54.1097 48.932C54.1097 48.9193 54.1097 48.9193 54.1097 48.9193C54.1097 48.9066 54.1097 48.9066 54.1097 48.9066C54.1097 46.1223 51.842 43.8548 49.0578 43.8548H40.7051C39.1303 43.8548 37.8327 43.5397 36.7366 42.847C30.4752 39.9242 24.5288 39.7226 18.6329 42.2296V38.7398C18.6329 38.2234 18.2171 37.7949 17.688 37.7949H0.944899C0.428317 37.7949 0 38.2232 0 38.7398V67.4514C0 67.968 0.428317 68.3963 0.944899 68.3963H17.688C18.2171 68.3963 18.6329 67.968 18.6329 67.4514V63.6971L42.5949 67.3129C48.0247 68.1318 53.5931 67.4264 58.7081 65.209L76.8118 57.3225C79.8356 56.0123 80.919 52.321 79.1426 49.5871ZM76.0687 55.5965L57.9522 63.4704C53.2152 65.5366 47.9995 66.2168 42.872 65.4483L18.6329 61.7822V44.2958C24.2644 41.6626 29.9209 41.7509 35.8296 44.4973C37.1272 45.3287 38.7651 45.7446 40.7051 45.7446H49.0578C50.7965 45.7446 52.2201 47.1682 52.2201 48.9193C52.2201 50.6579 50.7965 52.0815 49.0578 52.0815H34.8722C34.3431 52.0815 33.9273 52.4972 33.9273 53.0264C33.9273 53.5429 34.3431 53.9713 34.8722 53.9713C34.9982 53.9713 50.5066 53.984 50.6578 53.9461L73.9396 49.1714C75.3884 48.8312 76.7868 49.4359 77.5553 50.6202C78.7016 52.3839 77.9962 54.7524 76.0687 55.5965Z" fill="#F6F9F0"/>
<path d="M53.5287 0C42.7194 0 33.9258 8.79359 33.9258 19.603C33.9258 30.425 42.7194 39.2311 53.5287 39.2311C64.3508 39.2311 73.1569 30.4248 73.1569 19.603C73.1569 8.79359 64.3506 0 53.5287 0ZM52.6846 18.6707H54.3854C56.7287 18.6707 58.631 20.573 58.631 22.9037C58.631 25.2091 56.7791 27.0864 54.4736 27.1366V30.7399C54.4736 31.2563 54.0578 31.6847 53.5287 31.6847C53.0123 31.6847 52.5838 31.2564 52.5838 30.7399V27.1493H49.3964C48.8673 27.1493 48.4515 26.721 48.4515 26.2044C48.4515 25.6753 48.8673 25.2595 49.3964 25.2595H54.3854C55.683 25.2595 56.7412 24.2013 56.7412 22.9037C56.7412 21.606 55.683 20.5604 54.3854 20.5604H52.6846C50.3538 20.5604 48.4515 18.6581 48.4515 16.3147C48.4515 14.0218 50.3034 12.1447 52.5838 12.0943V8.49125C52.5838 7.97483 53.0122 7.54635 53.5287 7.54635C54.0578 7.54635 54.4736 7.97467 54.4736 8.49125V12.0818H57.6863C58.2028 12.0818 58.6312 12.5101 58.6312 13.0267C58.6312 13.5431 58.2154 13.9589 57.6989 13.9716C57.6989 13.9716 52.8863 13.9716 52.6848 13.9716C51.3871 13.9716 50.3415 15.0298 50.3415 16.3149C50.3413 17.6124 51.387 18.6707 52.6846 18.6707Z" fill="#F6F9F0"/>
</svg>
