<svg width="90" height="43" viewBox="0 0 90 43" fill="none" xmlns="http://www.w3.org/2000/svg">
<path d="M6.40479 17.1624C7.98456 16.3869 9.73343 16.0198 11.4906 16.0899C14.8893 16.2054 16.7578 17.9337 16.8321 21.3159C16.9145 24.8591 16.8898 28.3733 16.8774 31.9123C16.8774 33.3518 16.498 33.6859 15.0749 33.6859H13.1033C11.8453 33.6859 11.4534 33.3023 11.4287 32.0361V22.5492C11.4287 21.0808 10.7357 20.4786 9.25084 20.5364C8.99098 20.5405 8.73525 20.5652 8.47952 20.6106C6.53266 21.0066 6.42129 21.1468 6.42129 23.1308V31.5865C6.42129 33.3931 6.11194 33.6983 4.33007 33.6983H2.35433C1.42627 33.6983 1.01793 33.2611 0.956055 32.3042V9.96475C0.956055 8.33136 1.30253 7.98901 2.91117 7.98901H4.65179C6.00057 7.98901 6.41717 8.36849 6.44192 9.72964C6.47904 11.7714 6.44192 13.8131 6.44192 15.8507C6.40479 16.2261 6.40479 16.6303 6.40479 17.1624ZM35.4716 25.4407C35.352 26.3811 35.286 27.5855 35.0344 28.761C34.6425 31.4091 32.5843 33.5045 29.9445 33.9417C28.1379 34.3294 26.2694 34.3046 24.4751 33.8716C22.2024 33.4343 20.3876 31.7143 19.8348 29.4664C19.014 26.6327 19.014 23.6217 19.8348 20.7839C20.7052 17.8058 22.982 16.2096 26.3189 16.0941C27.5233 16.0281 28.7277 16.1064 29.9156 16.3168C33.0628 16.9479 34.8488 19.0804 35.253 22.5657C35.352 23.4484 35.3809 24.3022 35.4716 25.4407ZM29.9734 25.5108C29.9115 24.5415 29.8785 23.8774 29.8166 23.2257C29.7795 22.8833 29.7094 22.5451 29.6063 22.2151C29.4083 21.118 28.406 20.3466 27.2964 20.4333C26.2116 20.3508 25.2382 21.1015 25.0443 22.1739C24.5494 24.1331 24.5494 26.1831 25.0443 28.1382C25.2465 29.2271 26.2611 29.9737 27.3624 29.85C28.406 29.9201 29.3382 29.2065 29.5403 28.1795C29.7341 27.2968 29.8785 26.4058 29.9775 25.5066V25.5108H29.9734ZM70.2965 22.8008C70.5357 20.9818 70.1315 20.4209 68.3785 20.5034C66.9472 20.623 65.5283 20.8334 64.1259 21.1345C62.938 21.3489 62.0677 21.0478 61.9027 20.1239C61.6346 18.6019 61.7377 17.2944 62.9586 16.9273C65.7841 15.9992 68.8116 15.8466 71.7154 16.49C74.3552 17.1211 75.6339 18.8659 75.6339 21.716V31.801C75.6339 32.564 75.6339 33.3477 74.7264 33.6447C73.72 34.0118 72.5857 33.7024 71.9093 32.8692L71.6288 32.465C70.0861 33.6983 68.1393 34.3211 66.1636 34.2057C61.8739 34.0489 59.4114 29.9613 61.2758 26.0717C62.1461 24.2197 63.8867 23.6382 65.6851 23.3494C67.236 23.1184 68.7745 22.9741 70.2965 22.8008ZM70.379 25.7706C69.3396 25.9274 68.4239 26.014 67.5371 26.2078C66.609 26.3275 65.9119 27.107 65.8913 28.0392C65.6975 28.9755 66.1924 29.9242 67.0751 30.2954C67.9454 30.6337 69.7974 30.2954 70.2223 29.7015C70.3048 29.586 70.3501 29.4499 70.3542 29.3096C70.379 28.163 70.379 27.0245 70.379 25.7583V25.7706ZM39.2003 16.7004V14.4483C39.122 13.7595 39.5674 13.116 40.2398 12.951C41.1266 12.6541 42.0299 12.4025 42.9456 12.1921C43.6055 11.9735 44.3191 12.3282 44.5377 12.9882C44.5955 13.1655 44.6161 13.3511 44.5913 13.5367C44.6202 14.5061 44.5913 15.4712 44.5913 16.5478H47.1734C48.4314 16.5767 48.8645 16.985 48.914 18.2884C48.9841 20.9365 48.8398 21.085 46.2247 21.085H44.7068C44.6656 21.3201 44.6367 21.5593 44.6243 21.7985V27.3834C44.6243 29.124 45.1482 29.6561 46.8393 29.7798C48.3242 29.8871 48.7284 30.2171 48.7284 31.4256C48.782 33.356 48.3902 34.0077 46.8393 34.0984C45.6101 34.1892 44.3727 34.1273 43.1601 33.9128C40.6399 33.4013 39.2828 31.768 39.1962 29.1034C39.122 26.7771 39.1673 24.4507 39.1591 22.1368V21.0932H37.6371C36.9194 21.151 36.2924 20.6189 36.2305 19.9012V19.7816C36.0202 17.9997 36.3378 17.5253 38.033 17.0469L39.2003 16.7004ZM58.1369 27.5278C58.1369 30.5429 58.1946 33.5622 58.1369 36.5774C58.1204 40.0586 55.2908 42.8675 51.8096 42.851C51.4796 42.851 51.1496 42.8222 50.8196 42.7686C49.607 42.6159 49.1739 42.1375 49.1574 40.8794V39.7616C49.211 38.7098 49.5369 38.3427 50.5804 38.1489C52.1932 37.8478 52.717 37.2414 52.7211 35.5586V18.3998C52.7211 16.9438 53.0924 16.556 54.5484 16.5107H56.5282C57.6996 16.5643 58.141 16.9891 58.1492 18.1688V27.47L58.1369 27.5278ZM82.4561 17.7439C83.8833 16.721 85.5827 16.1477 87.3357 16.0941C89.0763 16.0941 89.4764 16.4612 89.4723 18.1853V18.9607C89.4723 20.0744 89.0103 20.4704 87.9214 20.5859C86.8984 20.7096 85.8796 20.8911 84.8732 21.1221C84.1968 21.2664 83.941 21.6748 83.9534 22.4296C84.007 25.5768 83.9534 28.6992 83.9534 31.8298C83.9534 33.3683 83.6193 33.6901 82.0643 33.7189H79.8204C79.177 33.7726 78.6119 33.29 78.5583 32.6465C78.55 32.5681 78.5542 32.4898 78.5624 32.4114V17.9296C78.5129 17.2861 78.9955 16.721 79.639 16.6715H79.6431H79.6967C80.7856 16.4859 81.9282 16.3168 82.4561 17.7439Z" fill="#0C1523"/>
<path d="M57.5509 13.4503C58.5367 9.91538 58.182 8.13351 56.4537 7.79116C56.7177 8.99145 57.0147 10.2247 55.7525 11.0579C55.0926 11.4951 54.5687 11.326 53.3973 10.4268C52.857 11.5364 53.0385 12.6418 53.2901 13.8256C51.6113 13.5328 50.2873 12.8357 49.6727 11.2147C49.0375 9.73802 49.3881 8.02627 50.543 6.9126C50.9472 6.50012 51.3845 6.12478 51.8506 5.78655C53.7397 4.36765 54.1068 2.99 53.1086 0.857526C53.0632 0.733785 53.0261 0.610044 53.0013 0.482178C55.1008 0.79978 57.0889 1.64535 58.7801 2.93225C62.4634 5.94329 62.018 11.359 57.951 13.3471C57.8108 13.3554 57.6788 13.3884 57.5509 13.4503Z" fill="#EE4854"/>
</svg>
