<svg width="105" height="27" viewBox="0 0 105 27" fill="none" xmlns="http://www.w3.org/2000/svg">
<path fill-rule="evenodd" clip-rule="evenodd" d="M33.4824 21.238L34.7796 18.2238C36.1807 19.2715 38.0475 19.8161 39.8893 19.8161C41.2488 19.8161 42.1094 19.2923 42.1094 18.4982C42.0886 16.278 33.9647 18.0159 33.9023 12.4489C33.8816 9.62173 36.3927 7.44316 39.9516 7.44316C42.0678 7.44316 44.1799 7.96701 45.6891 9.16024L44.4751 12.2369C43.0948 11.3554 41.3777 10.7276 39.7437 10.7276C38.6337 10.7276 37.9019 11.2515 37.9019 11.9209C37.9227 14.0994 46.109 12.9062 46.1922 18.2238C46.1922 21.1133 43.7433 23.1464 40.226 23.1464C37.6483 23.1422 35.2827 22.5352 33.4824 21.238ZM83.2944 17.1345C82.6459 18.2653 81.4318 19.0387 80.0266 19.0387C77.9519 19.0387 76.2806 17.3632 76.2806 15.2927C76.2806 13.2222 77.9561 11.5467 80.0266 11.5467C81.4277 11.5467 82.6459 12.32 83.2944 13.4509L86.8741 11.4635C85.5354 9.07709 82.9577 7.44316 80.0266 7.44316C75.6902 7.44316 72.1729 10.9605 72.1729 15.2968C72.1729 19.6332 75.6902 23.1505 80.0266 23.1505C82.9785 23.1505 85.5354 21.5374 86.8741 19.1301L83.2944 17.1345ZM47.9924 0.928223H52.4743V22.8512H47.9924V0.928223ZM88.6328 0.928223V22.8512H93.1146V16.2739L98.4322 22.8512H104.17L97.4053 15.0391L103.667 7.75082H98.1786L93.1105 13.8001V0.928223H88.6328Z" fill="#0C1523"/>
<path d="M65.7906 17.176C65.1421 18.2445 63.8033 19.0386 62.2941 19.0386C60.2195 19.0386 58.5481 17.3631 58.5481 15.2926C58.5481 13.2222 60.2236 11.5467 62.2941 11.5467C63.8033 11.5467 65.1421 12.3823 65.7906 13.4716V17.176ZM65.7906 7.75494V9.53439C65.0589 8.29959 63.2379 7.43896 61.3296 7.43896C57.3923 7.43896 54.2949 10.9147 54.2949 15.2719C54.2949 19.629 57.3923 23.1463 61.3296 23.1463C63.2337 23.1463 65.0547 22.2899 65.7906 21.0509V22.8303H70.2725V7.75494H65.7906Z" fill="#0C1523"/>
<path fill-rule="evenodd" clip-rule="evenodd" d="M5.77959 17.1552C5.77959 18.6852 4.54478 19.92 3.01479 19.92C1.4848 19.92 0.25 18.681 0.25 17.1552C0.25 15.6293 1.4848 14.3904 3.01479 14.3904H5.77959V17.1552ZM7.1599 17.1552C7.1599 15.6252 8.39471 14.3904 9.9247 14.3904C11.4547 14.3904 12.6895 15.6252 12.6895 17.1552V24.0651C12.6895 25.5951 11.4547 26.8299 9.9247 26.8299C8.39471 26.8299 7.1599 25.5951 7.1599 24.0651V17.1552Z" fill="#E01E5A"/>
<path fill-rule="evenodd" clip-rule="evenodd" d="M9.92498 6.05864C8.39499 6.05864 7.16018 4.82384 7.16018 3.29385C7.16018 1.76386 8.39499 0.529053 9.92498 0.529053C11.455 0.529053 12.6898 1.76386 12.6898 3.29385V6.05864H9.92498ZM9.92498 7.45974C11.455 7.45974 12.6898 8.69455 12.6898 10.2245C12.6898 11.7545 11.455 12.9893 9.92498 12.9893H2.99429C1.46429 12.9893 0.229492 11.7504 0.229492 10.2245C0.229492 8.6987 1.46429 7.45974 2.99429 7.45974H9.92498Z" fill="#36C5F0"/>
<path fill-rule="evenodd" clip-rule="evenodd" d="M21.0017 10.2245C21.0017 8.69455 22.2365 7.45974 23.7665 7.45974C25.2965 7.45974 26.5313 8.69455 26.5313 10.2245C26.5313 11.7545 25.2965 12.9893 23.7665 12.9893H21.0017V10.2245ZM19.6214 10.2245C19.6214 11.7545 18.3866 12.9893 16.8566 12.9893C15.3266 12.9893 14.0918 11.7545 14.0918 10.2245V3.29385C14.0918 1.76386 15.3266 0.529053 16.8566 0.529053C18.3866 0.529053 19.6214 1.76386 19.6214 3.29385V10.2245Z" fill="#2EB67D"/>
<path fill-rule="evenodd" clip-rule="evenodd" d="M16.8566 21.3003C18.3866 21.3003 19.6214 22.5351 19.6214 24.0651C19.6214 25.5951 18.3866 26.8299 16.8566 26.8299C15.3266 26.8299 14.0918 25.5951 14.0918 24.0651V21.3003H16.8566ZM16.8566 19.92C15.3266 19.92 14.0918 18.6852 14.0918 17.1552C14.0918 15.6252 15.3266 14.3904 16.8566 14.3904H23.7873C25.3173 14.3904 26.5521 15.6252 26.5521 17.1552C26.5521 18.6852 25.3173 19.92 23.7873 19.92H16.8566Z" fill="#ECB22E"/>
</svg>
