<svg width="62" height="70" viewBox="0 0 62 70" fill="none" xmlns="http://www.w3.org/2000/svg">
<path d="M52.2207 44.333C52.2207 52.065 45.9527 58.333 38.2207 58.333C30.4887 58.333 24.2207 52.065 24.2207 44.333C24.2207 36.601 30.4887 30.333 38.2207 30.333C45.9527 30.333 52.2207 36.601 52.2207 44.333ZM27.8597 44.333C27.8597 50.0552 32.4985 54.694 38.2207 54.694C43.9429 54.694 48.5817 50.0552 48.5817 44.333C48.5817 38.6108 43.9429 33.972 38.2207 33.972C32.4985 33.972 27.8597 38.6108 27.8597 44.333Z" fill="#4B2AAD"/>
<path d="M26.7656 44.3896C26.7769 50.5343 31.7356 55.5906 38.0221 55.5906C48.0109 55.5527 52.9608 43.4175 45.9078 36.3999C38.8818 29.4111 26.7553 34.3315 26.7656 44.3896ZM38.0157 53.9526C38.005 53.9526 37.9944 53.9526 37.9837 53.9526C32.758 53.9526 28.4131 49.7274 28.4036 44.3869C28.3941 36.4226 36.8358 34.5787 35.4262 35.1247C38.5714 34.2332 42.1944 35.0162 44.7529 37.5611C50.7746 43.5528 46.5549 53.9199 38.0157 53.9526Z" fill="#0A102F"/>
<path d="M61.0968 65.3649C59.3501 63.3703 58.0545 62.1328 56.8016 60.9353C52.4861 56.811 53.0865 56.9499 52.4602 56.4982C52.6437 55.8752 52.7315 55.2157 52.6705 54.6347C52.5513 53.5099 51.757 52.5769 50.7748 52.341C55.3755 44.8969 52.6181 35.1989 44.8349 31.2267C44.2559 18.9432 46.1257 12.0334 41.8441 6.07396C40.0704 3.15981 37.4096 1.12387 34.2417 0.381755C34.1123 0.351497 33.9861 0.361894 33.8653 0.391219C33.3098 0.174105 35.3468 0.342004 1.41825 0C0.636614 0 0 0.636081 0 1.41772V55.2026C0 55.5833 0.211805 55.9026 0.512717 56.0866C0.874745 56.6092 1.15086 57.0483 1.60486 57.6603C10.2195 57.5235 20.6148 57.8145 29.2771 57.6891C33.8805 60.9283 39.7115 60.9611 44.2593 58.681C44.6344 59.8761 46.0111 60.478 47.2695 60.4783C48.6065 62.0781 54.2367 67.4915 54.7488 67.9908C56.4585 69.6575 57.1413 69.9161 57.8106 69.8209C58.7276 70.0974 59.8255 70.1078 60.5199 69.4619C61.4263 68.6189 62.0448 66.4483 61.0968 65.3649ZM51.3717 44.4857C51.3919 51.8169 45.4427 57.7981 38.1115 57.8189C38.1019 57.8189 38.0934 57.8189 38.0838 57.8189C26.9226 57.8189 20.7189 44.8231 27.7754 36.118C30.3069 33.0224 34.0477 31.2415 38.039 31.2335C38.0412 31.2367 38.0732 31.2335 38.0902 31.2335C45.3905 31.2335 51.3439 37.1684 51.3717 44.4857ZM34.8798 2.29373C38.0926 3.40954 40.5244 6.07276 41.7374 9.80227C39.5461 9.83426 37.2798 9.85586 34.8026 9.6889C34.7427 7.17876 34.8559 5.19016 34.8798 2.29373ZM1.63792 1.63952L33.2468 1.85226C33.2361 4.64718 33.0974 7.08027 33.1669 9.82487C33.1924 10.6145 33.8333 11.2703 34.6192 11.3178C37.3107 11.5038 39.7409 11.4703 42.088 11.4361L41.9915 30.1313C32.9881 27.682 24.142 33.9387 23.2276 42.9829C22.3991 47.2771 23.4762 51.3021 26.0559 54.6139H1.63792V1.63952ZM59.4045 68.2622C59.16 68.4858 57.9964 68.3288 57.6461 67.9274C54.2215 64.0179 52.953 63.2668 49.7725 59.7159C50.5968 59.2217 51.2245 58.6783 51.6922 58.0477C54.9848 61.7501 56.5619 62.671 59.8641 66.4441C60.0593 66.6664 59.8535 67.8442 59.4045 68.2622Z" fill="#0A102F"/>
<path d="M39.3242 39.0436C40.5249 39.2878 41.4921 40.4832 41.4804 41.7079C41.4761 42.1601 41.8397 42.5301 42.2919 42.5344H42.2993C42.7483 42.5344 43.114 42.1729 43.1183 41.7229C43.1364 39.7202 41.6137 37.8381 39.6505 37.4388C39.2058 37.3476 38.774 37.6345 38.6844 38.0781C38.5948 38.5211 38.8806 38.9535 39.3242 39.0436Z" fill="#0A102F"/>
<path d="M41.4916 44.1769L41.385 44.2707C40.8209 44.7683 41.1744 45.7034 41.9267 45.7034C42.1197 45.7034 42.3127 45.6357 42.4684 45.4981L42.5558 45.4224C42.8992 45.1281 42.9397 44.6114 42.6465 44.2675C42.3521 43.9236 41.836 43.8853 41.4916 44.1769Z" fill="#0A102F"/>
<path d="M13.453 15.5323C16.6829 15.6803 16.7073 15.7802 17.0685 15.7802C17.4843 15.7802 17.8405 15.4646 17.8821 15.0417C17.9269 14.5917 17.5984 14.1908 17.1484 14.146C13.6839 13.8037 10.167 13.7253 6.69389 13.9125C6.24176 13.937 5.89519 14.323 5.91972 14.7746C5.94425 15.2268 6.32067 15.5643 6.78133 15.5483C8.44965 15.4575 10.128 15.4316 11.8054 15.4672C12.0434 19.1101 13.1175 24.6423 10.3088 26.5925C8.47103 27.8674 6.377 25.456 6.22363 23.2991C6.19057 22.848 5.79069 22.4956 5.34922 22.5404C4.89815 22.5723 4.55798 22.9637 4.58997 23.4153C4.83935 26.9324 8.31083 29.9718 11.243 27.9382C14.3778 25.7624 13.9493 21.1318 13.5975 17.3552C13.5399 16.736 13.4948 16.1335 13.453 15.5323Z" fill="#0A102F"/>
<path d="M25.1452 22.2673C24.6675 20.2929 22.7107 17.7609 20.3167 18.1565C17.8673 18.551 15.8295 20.7802 15.5789 23.3416C15.3902 25.2648 16.3179 27.1906 17.8865 28.1344C19.5913 29.16 21.9452 28.9251 23.4849 27.606C24.9479 26.3525 25.6154 24.207 25.1452 22.2673ZM18.7311 26.731C17.7084 26.1158 17.0825 24.7881 17.2083 23.5016C17.3843 21.717 18.8953 20.0445 20.5769 19.7731C21.8949 19.5731 23.2407 21.3646 23.5542 22.6528C23.8826 24.0086 23.4262 25.4989 22.4185 26.3621C21.4087 27.2285 19.823 27.3868 18.7311 26.731Z" fill="#0A102F"/>
<path d="M30.9468 28.7321C35.0663 28.7321 37.141 24.3409 35.2623 21.2309C34.1363 19.3653 31.705 18.4397 29.6192 19.0448L29.7717 12.9367C29.7834 12.4846 29.4251 12.1087 28.973 12.097C28.4995 12.0847 28.1455 12.443 28.1337 12.8952L27.7776 27.1603C27.7712 27.4285 27.8959 27.6834 28.1124 27.8417C28.9282 28.4394 29.9337 28.7321 30.9468 28.7321ZM29.5765 20.7211C29.6917 20.7291 29.7951 20.7131 29.9028 20.6737C31.3104 20.1688 33.0859 20.7963 33.8611 22.0775C34.6342 23.3588 34.3655 25.2233 33.2618 26.2342C32.2456 27.1651 30.6077 27.3571 29.4272 26.7364L29.5765 20.7211Z" fill="#0A102F"/>
</svg>
