<svg width="113" height="33" viewBox="0 0 113 33" fill="none" xmlns="http://www.w3.org/2000/svg">
<path d="M13.2566 1.74228C13.4819 1.74228 13.5946 1.85483 13.8199 1.96737C12.468 2.5301 11.1161 3.99318 10.4402 7.14442L7.96173 7.81969C8.75033 5.5688 10.3275 1.74228 13.2566 1.74228ZM14.4958 2.86773C14.7212 3.543 14.9465 4.33081 14.9465 5.5688C14.9465 5.68134 14.9465 5.68134 14.9465 5.79389L11.6794 6.69424C12.3554 4.33081 13.4819 3.31791 14.4958 2.86773ZM17.4249 4.89353L15.9604 5.34371C15.9604 5.23116 15.9604 5.11862 15.9604 5.00607C15.9604 3.99317 15.8477 3.20536 15.6224 2.5301C16.411 2.75518 17.087 3.76809 17.4249 4.89353ZM24.7476 6.69424C24.7476 6.5817 24.635 6.46915 24.5223 6.46915C24.297 6.46915 21.9312 6.24406 21.9312 6.24406C21.9312 6.24406 20.2414 4.5559 20.016 4.44335C19.7907 4.21826 19.4528 4.33081 19.3401 4.33081C19.3401 4.33081 19.0021 4.44335 18.4388 4.66844C17.8756 3.09282 16.8616 1.62974 15.1718 1.62974H15.0591C14.6085 0.954473 13.9326 0.729384 13.3693 0.729384C9.31362 0.616839 7.39845 5.68134 6.7225 8.26987C5.82125 8.49496 4.91999 8.83259 3.90608 9.17022C3.00482 9.39531 3.00482 9.50786 2.89216 10.2957C2.77951 10.8584 0.526367 28.6404 0.526367 28.6404L18.4388 32.0168L28.1273 29.8784C28.1273 29.8784 24.7476 6.91933 24.7476 6.69424Z" fill="#8DB849"/>
<path d="M24.4093 6.46916C24.2966 6.46916 21.9308 6.24407 21.9308 6.24407C21.9308 6.24407 20.241 4.5559 20.0157 4.44336C19.903 4.33081 19.903 4.33081 19.7904 4.33081L18.4385 32.0168L28.127 29.8784C28.127 29.8784 24.7473 6.91933 24.7473 6.69424C24.7473 6.5817 24.522 6.46916 24.4093 6.46916Z" fill="#5A863E"/>
<path d="M15.1714 11.8713L13.9322 15.4727C13.9322 15.4727 12.9183 14.91 11.5664 14.91C9.65125 14.91 9.53859 16.0355 9.53859 16.3731C9.53859 17.9487 13.8196 18.624 13.8196 22.4505C13.8196 25.4892 11.9044 27.4024 9.31328 27.4024C6.27153 27.4024 4.69434 25.4892 4.69434 25.4892L5.48294 22.7881C5.48294 22.7881 7.06013 24.1387 8.41202 24.1387C9.31327 24.1387 9.65125 23.4634 9.65125 22.9007C9.65125 20.7623 6.15888 20.6498 6.15888 17.1609C6.15888 14.2347 8.29936 11.4211 12.4677 11.4211C14.3828 11.3086 15.1714 11.8713 15.1714 11.8713Z" fill="#FFFFFE"/>
<path d="M39.5059 18.5115C38.492 17.9488 38.0413 17.4986 38.0413 16.9359C38.0413 16.1481 38.7173 15.6979 39.8438 15.6979C41.0831 15.6979 42.2096 16.2606 42.2096 16.2606L43.1109 13.5596C43.1109 13.5596 42.3223 12.8843 39.9565 12.8843C36.5768 12.8843 34.3236 14.7975 34.3236 17.4986C34.3236 19.0742 35.4502 20.1997 36.8021 20.9875C37.9287 21.6628 38.3793 22.1129 38.3793 22.7882C38.3793 23.4635 37.816 24.1387 36.6894 24.1387C35.1122 24.1387 33.535 23.3509 33.535 23.3509L32.6338 26.052C32.6338 26.052 33.9857 26.9523 36.3515 26.9523C39.7312 26.9523 42.2096 25.2642 42.2096 22.2255C42.2096 20.5373 40.9704 19.2993 39.5059 18.5115ZM53.1374 12.7717C51.4475 12.7717 50.0956 13.5596 49.0817 14.7975L50.5463 7.14452H46.7159L42.9982 26.6147H46.8286L48.0678 19.9746C48.5184 17.4986 49.8703 15.923 51.1095 15.923C52.0108 15.923 52.3488 16.4857 52.3488 17.3861C52.3488 17.9488 52.3488 18.5115 52.2361 19.0742L50.7716 26.7273H54.6019L56.0665 18.8491C56.1791 18.0613 56.2918 17.0484 56.2918 16.3732C56.2918 14.1223 55.1652 12.7717 53.1374 12.7717ZM62.9385 23.9136C61.5866 23.9136 61.136 22.7882 61.136 21.4377C61.136 19.2993 62.2626 15.6979 64.2904 15.6979C65.6423 15.6979 66.0929 16.8233 66.0929 17.9488C66.0929 20.4248 64.9664 23.9136 62.9385 23.9136ZM64.8537 12.7717C60.2348 12.7717 57.193 16.9359 57.193 21.5502C57.193 24.4764 58.9955 26.8398 62.4879 26.8398C66.9942 26.8398 70.0359 22.7882 70.0359 18.0613C70.0359 15.3603 68.4587 12.7717 64.8537 12.7717ZM76.1194 24.0262C75.1055 24.0262 74.5422 23.4635 74.5422 23.4635L75.2182 19.862C75.6688 17.4986 76.908 15.923 78.2599 15.923C79.3865 15.923 79.8371 17.0484 79.8371 18.0613C79.7244 20.5373 78.2599 24.0262 76.1194 24.0262ZM79.8371 12.7717C77.246 12.7717 75.7814 15.0226 75.7814 15.0226L76.0067 12.9968H72.627C72.5144 14.3474 72.1764 16.4857 71.8384 18.0613L69.1347 32.0168H72.965L73.9789 26.3896H74.0916C74.0916 26.3896 74.8802 26.8398 76.3447 26.8398C80.851 26.8398 83.7801 22.2255 83.7801 17.6112C83.7801 15.1352 82.6535 12.7717 79.8371 12.7717ZM89.1876 7.36961C87.9484 7.36961 87.0471 8.38251 87.0471 9.6205C87.0471 10.7459 87.7231 11.5338 88.8497 11.5338C90.0889 11.5338 91.1028 10.7459 91.1028 9.28286C91.1028 8.15742 90.3142 7.36961 89.1876 7.36961ZM83.8927 26.6147H87.7231L90.3142 13.1094H86.4839L83.8927 26.6147ZM100.003 13.1094H97.2989L97.4116 12.4341C97.6369 11.0836 98.4255 9.95813 99.6647 9.95813C100.341 9.95813 100.904 10.1832 100.904 10.1832L101.693 7.14452C101.693 7.14452 101.017 6.80688 99.6647 6.80688C98.3128 6.80688 96.961 7.14452 95.947 8.04487C94.5952 9.17032 94.0319 10.7459 93.6939 12.3216L93.5812 12.9968H91.7787L91.2154 15.923H93.018L90.9901 26.6147H94.8205L96.8483 15.923H99.4394L100.003 13.1094ZM109.128 13.1094C109.128 13.1094 106.762 19.0742 105.636 22.338C105.523 21.3251 104.734 13.1094 104.734 13.1094H100.679L102.932 25.4893C102.932 25.7144 102.932 25.9394 102.819 26.1645C102.368 27.0649 101.58 27.8527 100.791 28.4154C100.115 28.9781 99.2141 29.3158 98.6508 29.5409L99.6647 32.8047C100.453 32.6921 102.031 32.0168 103.382 30.7789C105.072 29.2032 106.762 26.6147 108.339 23.2384L112.958 13.2219L109.128 13.1094Z" fill="#0C1523"/>
</svg>
