<svg width="64" height="60" viewBox="0 0 64 60" fill="none" xmlns="http://www.w3.org/2000/svg">
<path d="M36.7002 35.7813C34.4955 24.4277 24.0946 19.2679 13.4797 21.2786C14.6968 14.9084 20.6606 9.6998 24.5359 4.85796C25.0855 4.17136 25.3687 2.96387 24.5359 2.31689C22.4929 0.729787 20.5863 0.235635 18.8299 0.486177C18.7081 0.152781 18.3856 -0.0957808 17.9667 0.0359272C11.7322 1.999 7.69478 8.65868 4.99361 14.1779C1.42924 21.4624 -0.358889 29.8954 0.0600024 37.99C0.720523 50.7514 12.1144 62.9201 25.6823 59.3772C35.5875 56.7909 38.3989 44.5295 36.7002 35.7813ZM11.3139 45.9931C11.3149 45.9888 11.3176 45.9862 11.3186 45.9822C11.3806 45.7429 11.4338 45.5013 11.4902 45.26C11.6737 45.497 11.8404 45.7601 11.9877 46.0463C11.7549 46.0766 11.5285 46.0961 11.312 46.1007C11.3106 46.0631 11.3153 46.0294 11.3139 45.9931ZM8.44409 16.0449C8.60782 16.1149 8.78145 16.1591 8.96234 16.1759C8.43221 17.2388 7.94334 18.3202 7.50299 19.4257C7.33035 19.3759 7.14946 19.3468 6.96494 19.3472C7.41321 18.2281 7.91495 17.1306 8.44409 16.0449ZM7.08311 48.4385C7.50959 48.8791 7.96711 49.3013 8.44343 49.708C8.37213 49.8001 8.31172 49.8991 8.26056 50.0031C7.83606 49.5063 7.43532 48.9901 7.08311 48.4385ZM19.3204 48.3946C18.7738 47.6809 18.3608 46.893 18.1014 46.0324C18.0951 45.969 18.0743 45.9056 18.04 45.8423C17.9601 45.5462 17.897 45.2422 17.8568 44.9279C18.7533 46.1466 19.4739 47.504 20.1423 48.8758C19.8542 48.7441 19.5808 48.5824 19.3204 48.3946Z" fill="#7949F6"/>
<path d="M38.7699 19.2255C39.9698 14.379 43.2424 11.0335 45.6197 6.66269C46.0062 5.952 45.8544 4.84684 45.045 4.47086C43.5652 3.78327 42.2352 3.02042 40.7557 2.45431C40.3078 1.49934 38.9557 0.872492 37.9206 1.80534C36.0902 3.45483 34.0918 5.57041 32.4951 7.93389C30.3779 10.5311 28.8575 13.6835 28.3524 16.7157C28.2927 17.0749 28.3547 17.439 28.4953 17.7711C28.4191 17.9034 28.3425 18.0341 28.2659 18.1668C27.8794 18.8366 28.0996 19.7368 28.7792 20.1246C36.8382 24.7196 40.1718 32.2015 39.9345 40.0848C39.5265 41.2349 39.4228 42.477 39.5783 43.7258C38.926 47.6929 37.4323 51.6652 35.2263 55.3339C34.7305 56.1582 34.9154 56.9296 35.3993 57.4525C35.526 57.8651 35.8591 58.214 36.4579 58.3493C49.3059 61.2515 62.2314 55.1029 63.6254 41.085C64.9227 28.041 51.3346 17.0482 38.7699 19.2255ZM43.6576 55.4732C43.7028 55.4306 43.7431 55.3838 43.7877 55.3402C44.9671 55.2488 46.0452 54.9173 46.9612 54.3842C46.9718 54.4298 46.9787 54.4717 46.9896 54.5176C47.0193 54.6434 47.0833 54.7388 47.1345 54.8464C46.001 55.1345 44.838 55.3488 43.6576 55.4732ZM52.7706 30.9495C52.6488 31.1729 52.5418 31.3974 52.4342 31.6222C52.4256 31.5595 52.4243 31.4948 52.4147 31.4321C52.4309 30.9679 52.5128 30.4896 52.6388 30.0021C52.6524 30.0113 52.6676 30.0192 52.6811 30.0285C52.7458 30.2972 52.7986 30.5712 52.8399 30.8501C52.8184 30.8844 52.7907 30.9131 52.7706 30.9495ZM58.9087 45.0161C58.9136 44.7098 58.9087 44.4012 58.8978 44.0905C59.0991 43.7486 59.2847 43.3977 59.4424 43.0346C59.3131 43.7281 59.1246 44.3817 58.9087 45.0161Z" fill="#7949F6"/>
</svg>
