<svg width="79" height="70" viewBox="0 0 79 70" fill="none" xmlns="http://www.w3.org/2000/svg">
<path d="M9.9161 7.66271C11.7876 7.66271 12.6905 5.40603 10.8426 4.75833C10.6271 4.68311 10.408 4.64908 10.183 4.65505C9.48406 3.86192 8.14633 4.71119 8.14064 5.95113C8.13626 6.90543 8.89829 7.66271 9.9161 7.66271Z" fill="#15CF92"/>
<path d="M18.7945 7.30383C20.1125 6.64565 19.7831 4.88106 18.2656 4.66034C17.5266 4.17193 16.5434 4.95118 16.4466 5.85791C16.3154 7.09756 17.6317 7.88524 18.7945 7.30383Z" fill="#15CF92"/>
<path d="M23.8581 7.29018C24.8069 7.78465 26.1294 7.18837 26.2192 6.12186C26.3087 5.04874 25.038 4.16444 23.9143 4.69326C22.8327 5.2083 22.8014 6.73406 23.8581 7.29018Z" fill="#15CF92"/>
<path d="M43.4845 15.7461C40.0419 16.8575 38.0588 22.4726 42.2823 25.4168L37.4556 31.6105C36.0025 30.345 33.7233 29.7555 31.8777 30.3486C30.6088 30.7581 29.6207 31.7437 29.0017 32.9082C26.6739 32.0234 24.3734 31.0294 22.1283 29.9494C23.0659 28.2584 22.9533 26.6095 22.0584 24.8138C20.9885 22.6688 17.8173 21.4271 15.4025 22.205C12.8575 23.0264 11.4396 26.163 11.8718 28.4185C12.6173 32.3065 17.499 34.5221 20.9501 31.4243C23.3736 32.604 25.8679 33.6808 28.3889 34.6374C27.7008 38.0741 30.6163 41.0395 33.7588 41.0395C36.2746 41.0395 38.6416 39.125 39.1604 36.6612C39.3903 35.5685 39.1945 34.377 38.602 33.122L43.9796 26.2229C47.0972 27.1005 50.1703 24.8925 50.7672 22.0587C51.0078 20.9178 50.7964 19.6719 50.1403 18.355C49.0711 16.21 45.8981 14.9682 43.4845 15.7461ZM20.8912 28.1397C20.5492 29.7665 18.9743 31.0823 17.2549 31.062C15.5929 31.047 13.9858 29.7062 13.6736 28.0734C13.3966 26.6305 14.3577 24.4694 15.966 23.9506C17.5168 23.4489 19.7574 24.3096 20.4166 25.6317C20.8841 26.5696 21.0441 27.4131 20.8912 28.1397ZM37.3659 36.2833C37.0232 37.9101 35.3868 39.1847 33.7296 39.2056C32.0676 39.1906 30.461 37.8498 30.1482 36.2176C29.8712 34.7741 30.8324 32.613 32.4413 32.0942C33.9918 31.5925 36.2321 32.4532 36.8913 33.7753C37.3587 34.7132 37.5187 35.5573 37.3659 36.2833ZM48.9726 21.6808C48.6323 23.2981 47.0175 24.6031 45.3656 24.6031C45.356 24.6031 45.3465 24.6031 45.3369 24.6031C43.6749 24.5882 42.0684 23.2473 41.7556 21.6151C41.4786 20.1716 42.4397 18.0105 44.048 17.4917C45.5946 16.9914 47.8375 17.8475 48.4986 19.1728C48.9661 20.1107 49.1255 20.9543 48.9726 21.6808Z" fill="#15CF92"/>
<path d="M47.0895 36.5548L43.8801 35.4892C43.3953 35.3298 42.8801 35.5907 42.7207 36.0707C42.5613 36.5512 42.8216 37.07 43.3022 37.23C46.5478 38.2908 46.5272 38.3422 46.8006 38.3422C47.185 38.3422 47.5432 38.0987 47.671 37.7142C47.8304 37.2336 47.5701 36.7148 47.0895 36.5548Z" fill="#15CF92"/>
<path d="M47.2593 30.079C46.993 29.6486 46.4277 29.5154 45.9972 29.7817C45.5668 30.048 45.4331 30.6127 45.6999 31.0438L47.6503 34.1971C47.8234 34.4777 48.1237 34.6317 48.4306 34.6317C49.1383 34.6317 49.5911 33.8484 49.2097 33.2323L47.2593 30.079Z" fill="#15CF92"/>
<path d="M52.6201 28.8564C52.1139 28.8564 51.7031 29.2672 51.7031 29.7734V33.227C51.7031 33.7333 52.1139 34.144 52.6201 34.144C53.1264 34.144 53.5371 33.7333 53.5371 33.227V29.7734C53.5371 29.2672 53.1264 28.8564 52.6201 28.8564Z" fill="#15CF92"/>
<path d="M70.4216 49.8649C72.0738 48.2632 73.9636 46.7569 75.8635 45.4892C75.6782 44.7365 75.4929 43.9838 75.3077 43.2311C75.587 42.4263 75.1174 41.5284 74.2483 41.336L62.333 38.7075C62.8535 -17.5 62.5957 10.3394 62.6702 2.29023C62.6702 1.04729 61.7407 0.036583 60.5987 0.036583C1.73613 0.23284 4.52292 -0.414559 3.41524 0.530146C1.11562 1.77033 -0.243735 4.12741 0.067224 6.40688V45.3337C-0.0662043 46.4638 0.00140551 47.6636 0.248561 48.7803C0.495716 49.8971 1.1783 50.9982 2.34117 51.5867C3.49024 52.1682 4.9134 52.1732 6.25693 52.1611C17.7761 52.0566 37.3664 52.7946 49.2095 52.724L49.2044 61.4911C49.2038 62.0666 49.528 62.5729 50.051 62.8135C50.3403 62.9467 50.6501 62.9708 50.9451 62.9105C51.763 63.0413 52.5809 63.1723 53.3988 63.3031C54.9633 62.0551 56.606 60.6597 58.1963 59.3629C66.1599 68.8226 65.7912 69.0407 66.6092 69.0407C66.6157 69.0407 66.622 69.0379 66.6284 69.0378C67.3757 69.271 68.0974 69.5877 68.7629 70C72.1356 67.643 75.3955 64.94 78.2492 61.9756C78.0908 61.1323 77.8842 60.352 77.7122 59.5266C77.7595 58.8532 77.6745 59.238 70.4216 49.8649ZM4.45259 2.2765C4.45259 2.02875 4.60303 1.87055 4.70691 1.87055H60.5987C60.6954 1.87055 60.8363 2.03412 60.8363 2.28188L60.7722 9.26014C1.98076 9.28852 4.79963 9.20231 4.43416 9.31267C4.45748 5.36648 4.45176 2.83247 4.45259 2.2765ZM49.2182 37.6227L49.2119 48.4579L4.77795 48.0444C4.67825 48.0426 4.52423 47.8821 4.51826 47.6313C4.08282 36.1729 4.33721 23.046 4.42408 11.0395C4.78575 11.1532 2.04052 11.0656 60.7553 11.0941L60.5054 38.3043L50.9853 36.2043C50.0725 36.0029 49.2182 36.699 49.2182 37.6227ZM66.7811 66.8915C57.5164 55.8109 57.9203 55.7736 57.2065 55.7128C56.9709 55.6914 56.7225 55.7652 56.5296 55.9313L51.039 60.6619L51.0521 38.0973L73.0908 42.9586L67.4563 47.6116C67.0725 47.9286 67.0116 48.4934 67.319 48.885L75.5737 59.3885C71.9763 62.978 71.1628 63.8563 66.7811 66.8915Z" fill="#15CF92"/>
</svg>
