<svg width="67" height="70" viewBox="0 0 67 70" fill="none" xmlns="http://www.w3.org/2000/svg">
<path d="M61.8775 29.8437C56.9159 29.6842 48.3731 34.186 42.1199 35.3099C42.2903 34.6347 42.3143 33.8387 42.3909 33.2526C43.1068 27.7787 44.3053 21.1007 42.2353 16.2942C41.7344 15.1311 40.2584 12.9998 38.6537 13.0212C38.2258 12.8665 37.7896 12.7661 37.3673 12.7739C36.0307 12.8171 34.7079 13.7172 33.9161 15.1234C32.0366 18.4566 33.4951 23.4017 22.021 36.9256C21.2488 37.8344 20.578 38.8123 19.9696 39.7848C19.4588 37.1503 16.8123 36.6488 14.8414 37.9373C13.1038 37.561 9.25845 37.515 6.15865 38.2547C6.41512 37.4687 5.5088 36.875 4.89361 37.3748C1.82455 39.8464 0.371846 45.4809 0.149084 47.8215C-0.462193 54.2562 0.796256 60.0956 4.11024 66.1978C4.60142 67.1024 6.08814 66.4397 5.48872 65.3302C9.40797 65.7875 13.453 65.0325 16.5181 63.6192C17.2543 63.606 17.96 63.4142 18.5553 63.0487C19.9359 64.3851 23.2188 65.7658 24.6615 66.4257C28.6744 68.2612 32.6587 69.2044 37.0458 69.7741C44.2041 70.7037 52.448 68.7366 58.0343 64.3474C59.2737 63.3736 60.4788 61.7045 61.1467 60.2773C61.5847 59.3414 61.6731 58.6221 61.5346 57.8204C61.6357 56.3053 60.5416 55.075 59.2328 54.284C60.7268 53.828 62.036 52.5636 63.0863 51.8702C66.2464 49.7882 66.5022 46.2321 64.4717 44.3845C65.1811 43.7967 65.732 43.032 66.0572 42.0655C66.5475 40.6056 66.0836 38.4966 64.7947 37.356C68.005 34.9272 66.0524 29.9909 61.8775 29.8437ZM4.65817 63.5859C4.64135 63.583 4.62538 63.589 4.60855 63.5872C0.155898 54.2818 1.15534 45.4124 4.32258 40.4842C4.39813 40.4769 4.47415 40.47 4.54838 40.4407C7.35957 39.3129 10.7674 39.1436 13.3897 39.385C12.1462 41.1383 9.79342 46.4684 9.36258 50.7913C8.7594 56.8386 11.3372 61.3344 13.9078 62.8877C11.3505 63.7083 8.00812 64.195 4.65817 63.5859ZM63.3819 38.3303C64.3047 38.7959 64.8895 40.4502 64.52 41.5482C64.1231 42.7296 63.365 43.4697 62.2037 43.8096C60.7391 44.2401 58.4487 44.5807 53.8918 45.6477C53.4558 45.7501 53.1845 46.1861 53.2869 46.6221C53.391 47.066 53.8361 47.328 54.2613 47.2271C59.7615 45.934 60.9858 45.9208 62.8923 45.2678C63.7175 45.6304 64.2717 46.7078 64.1357 47.7402C63.9974 48.7822 63.289 49.7936 62.1932 50.5168C61.8405 50.749 61.4742 51.0278 61.0973 51.316C59.0131 52.9056 59.2268 52.5634 56.9704 53.2554C56.0656 53.532 55.1302 53.8181 54.1368 53.9596C53.6934 54.0219 53.3851 54.4325 53.4484 54.876C53.5131 55.3348 53.9475 55.632 54.3648 55.5643C55.2185 55.4434 56.0072 55.2269 56.7515 55.0072C56.8373 55.0569 56.9318 55.0947 57.0359 55.1103C58.2082 55.2876 60.5011 56.807 59.7903 58.21C58.4379 60.8789 54.6741 62.8627 48.8675 63.9533C43.9763 64.8707 43.2246 65.0101 38.7187 64.6321C30.1988 63.9153 23.7777 61.6971 19.0902 57.85C18.3397 57.2372 17.3158 58.2338 17.9752 58.998C18.1245 59.3875 18.5218 59.4396 18.518 60.2191C18.511 61.7517 16.7933 62.3577 15.3413 61.7953C14.4734 61.4596 13.6616 60.7491 12.9289 59.6859C11.3379 57.377 10.6443 54.2752 10.9758 50.9517C11.2408 48.2934 12.1286 45.4481 13.7714 41.998C14.1747 41.1481 14.6244 40.2676 15.2748 39.6479C15.772 39.1738 16.5839 38.7399 17.3588 38.9184C18.9263 39.2867 18.3236 41.4315 18.3742 42.5916C18.2266 42.8774 18.0685 43.1753 17.9352 43.4422C17.6636 43.9856 18.0651 44.6152 18.6595 44.6152C18.9572 44.6152 19.2444 44.4505 19.3858 44.1665C20.3054 42.3221 21.5765 39.9519 23.2562 37.975C34.8657 24.3035 33.7463 18.7251 35.3287 15.9194C36.613 13.6407 39.1764 13.7077 40.3139 17.4899C41.7772 22.3468 39.9285 30.0501 38.1549 36.2188C38.0842 36.4637 38.1338 36.7282 38.2869 36.9314C38.441 37.1352 38.6405 37.2677 38.9372 37.2534C46.8401 37.2219 56.0299 31.3006 61.8205 31.4643C63.7825 31.5331 65.4591 33.4043 64.4757 35.341C64.1906 35.9021 63.3999 36.4527 62.3051 36.8512C59.2321 37.969 57.6818 37.8381 54.3944 38.2543C53.9499 38.3108 53.6363 38.7167 53.6923 39.1612C53.7493 39.6056 54.1526 39.9192 54.5992 39.8632C57.4907 39.4965 60.1061 39.523 63.2471 38.2239C63.2916 38.2602 63.3287 38.3033 63.3819 38.3303Z" fill="#15CF92"/>
<path d="M7.22013 43.1755C5.8717 42.4554 4.25147 43.9304 5.08224 44.7886C5.11457 45.5775 5.76674 46.1224 6.52861 46.1305H6.54551C8.26109 46.1305 8.5782 43.8953 7.22013 43.1755Z" fill="#15CF92"/>
<path d="M57.3507 6.19748C56.9836 6.10984 56.6584 6.27259 56.4869 6.53525L53.1064 11.7L46.9334 11.8425C46.2637 11.8585 45.8999 12.6377 46.32 13.1611L50.1872 17.9737L48.4157 23.8875C48.2247 24.5241 48.8472 25.1186 49.4809 24.8783L55.2527 22.6876C60.8516 26.4952 60.4235 26.4865 61.0441 26.2788C61.0458 26.3025 61.0457 26.3249 61.0475 26.3488C62.015 25.8882 62.7503 25.2523 62.7275 24.2398L62.6332 20.0336C63.7411 19.1211 64.8989 18.1962 66.0634 17.4323C66.8183 16.9371 66.6714 16.2469 66.6366 15.3689C66.6258 15.0989 66.4931 14.7881 66.4812 14.5181C66.4663 14.5333 66.4512 14.5483 66.4363 14.5634C66.1456 14.0084 65.8711 14.2314 61.4676 12.9428C59.4788 7.87689 59.7518 7.73167 59.2918 7.31353C58.7247 6.79806 58.0524 6.40183 57.318 6.12061C57.33 6.14647 57.3389 6.17168 57.3507 6.19748ZM59.9782 18.2963C59.766 18.4578 59.6478 18.7138 59.6604 18.9804L59.9012 23.9318C55.6661 21.0621 55.6825 20.7915 55.0753 21.0201L50.4406 22.7795L51.8638 18.0307C51.9398 17.7753 51.8859 17.4981 51.7191 17.2901L48.6131 13.4261L53.5699 13.3116C53.8359 13.3052 54.0829 13.168 54.2297 12.9447L56.944 8.79771L58.5846 13.4752C58.6733 13.727 58.8803 13.9197 59.1368 13.9893L63.9204 15.29L59.9782 18.2963Z" fill="#15CF92"/>
<path d="M27.8369 6.12807C27.4959 6.41788 27.4536 6.92939 27.7429 7.27092L31.5468 11.7584C31.8323 12.0955 32.342 12.1458 32.6901 11.8529C33.0311 11.5631 33.0734 11.0515 32.7841 10.71L28.9802 6.22256C28.691 5.8805 28.18 5.83933 27.8369 6.12807Z" fill="#15CF92"/>
<path d="M36.6313 0C36.1837 0.0068624 35.8258 0.37479 35.8321 0.822954L35.9525 8.97384C35.9588 9.41726 36.3209 9.77251 36.7633 9.77251H36.7749C37.2225 9.76565 37.5804 9.39772 37.5741 8.94956L37.4537 0.798672C37.4474 0.351036 37.0863 0.0258658 36.6313 0Z" fill="#15CF92"/>
<path d="M45.1729 1.85934C44.1118 3.5385 43.2387 5.33802 42.5747 7.20775C42.3877 7.73428 42.7776 8.28989 43.339 8.28989C44.467 8.28989 43.854 6.98557 46.5432 2.72505C46.7829 2.34656 46.6699 1.84561 46.2909 1.60648C45.9119 1.36789 45.4125 1.48085 45.1729 1.85934Z" fill="#15CF92"/>
</svg>
