<svg width="31" height="20" viewBox="0 0 31 20" fill="none" xmlns="http://www.w3.org/2000/svg">
<path d="M15.7255 18.8471C15.226 17.7418 16.1481 16.5465 16.8345 15.5799C17.3618 14.8367 17.9898 14.1704 18.7005 13.6C19.1941 13.2319 19.6678 12.8377 20.1193 12.419C16.0877 12.4667 7.26492 12.6988 3.11618 12.8999C0.501943 13.0886 0.0492056 12.1238 0 11.4358C0.1046 9.9717 0.691671 8.54315 2.42602 8.34059C5.15625 8.02166 7.57079 7.90144 10.3942 7.83865C13.4266 7.77126 17.6031 7.69111 20.4118 7.525C19.3788 6.80194 17.8314 5.9745 16.7481 5.33384C16.1908 5.0042 14.4514 4.28332 14.0868 3.18804C13.7564 2.19548 14.3078 -0.106998 15.6016 0.00386598C17.4629 0.163633 20.4031 2.13631 22.2264 3.00179C24.7197 4.28038 27.4791 5.36177 29.4988 7.34878C30.0532 8.01094 30.4967 8.99075 30.0707 9.79487C29.467 10.9345 26.4957 13.5399 25.5774 14.3013C23.7687 15.8009 21.6247 17.8147 19.6477 19.3907C18.1529 20.5823 16.1662 19.8225 15.7255 18.8471Z" fill="#0E0E0E"/>
</svg>
