<svg width="60" height="60" viewBox="0 0 60 60" fill="none" xmlns="http://www.w3.org/2000/svg">
<rect width="60" height="60" rx="30" fill="#5865F2"/>
<path d="M44.5548 16.2355C41.8778 14.9694 39.0072 14.0365 36.0058 13.5022C35.9512 13.4919 35.8966 13.5177 35.8684 13.5692C35.4992 14.2461 35.0903 15.1291 34.8039 15.8232C31.5757 15.325 28.3641 15.325 25.2021 15.8232C24.9156 15.1137 24.4918 14.2461 24.121 13.5692C24.0928 13.5194 24.0382 13.4936 23.9836 13.5022C20.9838 14.0348 18.1132 14.9677 15.4346 16.2355C15.4114 16.2458 15.3916 16.263 15.3784 16.2853C9.93344 24.6707 8.44184 32.85 9.17357 40.9278C9.17688 40.9673 9.1984 41.0051 9.2282 41.0292C12.8206 43.7487 16.3005 45.3997 19.7157 46.494C19.7704 46.5112 19.8283 46.4906 19.8631 46.4442C20.671 45.3069 21.3911 44.1078 22.0086 42.8467C22.045 42.7729 22.0102 42.6853 21.9358 42.6561C20.7935 42.2094 19.7058 41.6648 18.6595 41.0464C18.5768 40.9965 18.5701 40.8745 18.6463 40.8161C18.8665 40.646 19.0867 40.4691 19.2969 40.2904C19.335 40.2578 19.388 40.2509 19.4327 40.2715C26.3062 43.5065 33.7477 43.5065 40.5402 40.2715C40.5849 40.2492 40.6379 40.2561 40.6776 40.2887C40.8879 40.4674 41.1081 40.646 41.3299 40.8161C41.406 40.8745 41.401 40.9965 41.3183 41.0464C40.272 41.6768 39.1843 42.2094 38.0404 42.6544C37.9659 42.6836 37.9328 42.7729 37.9692 42.8467C38.5999 44.106 39.3201 45.3052 40.1131 46.4425C40.1462 46.4906 40.2058 46.5112 40.2604 46.494C43.6922 45.3997 47.1721 43.7487 50.7645 41.0292C50.796 41.0051 50.8158 40.969 50.8192 40.9295C51.6949 31.5906 49.3524 23.4785 44.6094 16.287C44.5978 16.263 44.578 16.2458 44.5548 16.2355ZM23.035 36.0093C20.9656 36.0093 19.2605 34.0508 19.2605 31.6456C19.2605 29.2405 20.9326 27.282 23.035 27.282C25.154 27.282 26.8427 29.2577 26.8095 31.6456C26.8095 34.0508 25.1375 36.0093 23.035 36.0093ZM36.9908 36.0093C34.9215 36.0093 33.2163 34.0508 33.2163 31.6456C33.2163 29.2405 34.8883 27.282 36.9908 27.282C39.1099 27.282 40.7984 29.2577 40.7654 31.6456C40.7654 34.0508 39.1099 36.0093 36.9908 36.0093Z" fill="white"/>
</svg>
