<svg width="158" height="169" viewBox="0 0 158 169" fill="none" xmlns="http://www.w3.org/2000/svg">
<path d="M37.4263 13.3917C38.9879 14.7214 40.8146 15.6059 42.7386 16.2852C48.4616 18.305 54.8839 17.8655 60.3439 15.2156C59.839 15.986 58.5661 18.2373 58.2383 18.951C57.0368 21.568 56.0272 24.1973 56.1761 27.133C56.8051 39.5556 71.7274 40.1036 80.1099 36.0355C79.6202 36.5737 76.8994 40.6355 76.5201 41.3862C74.5543 45.2768 73.1593 50.2201 74.9119 54.4419C78.5307 63.1599 89.1036 62.9668 96.3319 59.6274C96.3319 59.6274 95.4435 60.84 95.048 61.4781C94.3772 62.5608 93.7637 63.6715 93.28 64.8523C91.8622 68.312 91.2295 72.3027 92.4919 75.907C95.4587 84.3783 106.639 87.4339 114.008 83.1184C114.008 83.1184 113.281 84.0571 113 84.577C112.214 86.0301 111.6 87.5809 111.116 89.1593C109.976 92.8703 109.56 96.9518 110.647 100.726C112.852 108.38 125.905 114.853 132.757 108.586C132.756 108.584 132.115 109.837 132.084 109.917C131.724 110.875 131.459 111.874 131.206 112.864C130.595 115.267 130.139 117.685 130.119 120.172C130.045 129.059 134.312 133.233 141.351 137.565" stroke="#0A102F" stroke-width="5.98326" stroke-miterlimit="1.5" stroke-linecap="round" stroke-linejoin="round"/>
<path d="M21.8489 24.8237C23.2877 26.18 25.0542 27.1389 26.8199 27.9965C31.8151 30.4228 37.1276 31.0879 42.5982 31.1585C42.6024 31.1589 41.7804 33.5618 41.7244 33.7783C41.1866 35.8712 41.1239 38.0989 41.5012 40.2261C42.9321 48.2883 50.9427 53.4945 58.7609 51.4976C58.2295 51.9407 57.6768 54.0603 57.6126 54.4666C57.1116 57.6406 57.0042 61.0775 58.0921 64.1453C60.7194 71.556 69.7922 76.6792 77.5237 75.0139C76.6624 75.8013 76.0062 77.9741 75.9666 78.1711C75.3379 81.2797 75.6624 84.7112 77.1178 87.5444C80.5803 94.2866 88.5185 98.0775 95.9274 96.4421C94.9808 97.9296 94.36 99.8626 94.2943 100.313C93.8028 103.676 94.0365 107.15 95.3204 110.317C98.4798 118.109 109.111 123.534 115.488 122.367C115.045 122.571 114.44 123.395 114.405 123.48C114.003 124.45 113.798 125.488 113.684 126.529C113.38 129.316 113.666 132.174 114.257 134.904C116.004 142.966 122.931 151.71 132.222 150.011" stroke="#0A102F" stroke-width="5.98326" stroke-miterlimit="1.5" stroke-linecap="round" stroke-linejoin="round"/>
<path d="M3.88383 38.5075C5.22717 39.8049 5.86285 41.6991 7.43806 42.9455C12.9814 47.3317 19.0925 47.5202 25.6425 47.2119C25.1011 48.0321 24.909 48.9871 24.8162 49.5198C24.3369 52.2647 24.351 55.2371 25.254 57.9013C27.6722 65.0356 34.6392 66.7274 41.2529 65.5978C41.2529 65.5978 41.0055 66.3626 40.9314 66.757C40.7925 67.4928 40.6842 68.2357 40.6029 68.9802C40.3015 71.7467 40.5478 74.5228 41.5996 77.121C44.3348 83.8779 52.3777 88.4876 59.5995 86.9717C59.4415 87.141 58.5747 90.0644 58.5257 90.3261C57.8309 94.055 58.0588 97.6277 59.4657 101.163C62.6048 109.054 70.8259 111.013 78.4624 109.304C77.8396 109.995 77.3567 112.606 77.3162 112.864C76.8338 115.942 76.6683 119.021 77.3362 122.091C79.0287 129.871 87.7528 139.213 96.6676 134.955C96.6535 134.929 96.1642 136.207 96.1115 136.388C95.743 137.653 95.5193 138.963 95.4097 140.276C95.143 143.489 95.6357 146.778 96.6324 149.836C98.5172 155.622 103.768 159.583 109.525 161.147C111.322 161.636 113.325 161.301 115.023 161.779" stroke="#0A102F" stroke-width="5.98326" stroke-miterlimit="1.5" stroke-linecap="round" stroke-linejoin="round"/>
</svg>
