<svg width="128" height="139" viewBox="0 0 128 139" fill="none" xmlns="http://www.w3.org/2000/svg">
<path fill-rule="evenodd" clip-rule="evenodd" d="M9.30423 129.398C14.7468 128.225 28.0971 123.815 47.3884 123.272C50.3219 123.203 51.4563 122.554 50.6976 121.406C49.3242 119.427 45.5666 119.082 34.6685 120.123C24.295 121.076 29.0272 120.628 39.0002 114.992C89.9023 86.282 84.4895 73.5872 88.3308 67.677L91.9192 65.5728C110.277 54.7373 132.765 18.3182 126.078 10.2608C123.822 7.55834 122.871 8.56921 119.487 17.5597C112.971 34.6476 102.765 49.6576 91.6413 58.5502C88.9078 60.7228 89.0745 60.7797 88.3833 56.9415C85.6023 40.8051 52.6461 37.6887 43.6413 52.7512C35.75 65.9463 54.3656 78.3066 74.3677 73.1683C79.3478 71.8712 79.1063 71.6779 77.0234 75.7288C65.8216 97.5724 33.9179 110.671 22.7138 117.079C18.8575 119.292 18.8609 119.249 23.5802 113.148C32.138 102.137 32.8714 100.674 30.7098 99.3272C27.5763 97.2936 25.3818 98.7267 19.4635 106.688C12.3266 116.248 8.82156 120.315 4.25952 124.168C-2.768 130.084 3.42265 130.666 9.30423 129.398ZM53.2059 68.1263C46.2338 62.3071 49.3912 51.9941 59.2378 48.2603C72.1995 43.3845 81.7477 49.2795 80.733 61.6337C80.3488 66.4293 75.7064 67.3186 75.2054 67.6264C66.5865 71.1106 57.0088 71.3439 53.2059 68.1263Z" fill="white"/>
</svg>
