<svg width="109" height="76" viewBox="0 0 109 76" fill="none" xmlns="http://www.w3.org/2000/svg">
<path d="M32.5445 22.1401L32.5775 22.0763C32.5916 21.9343 32.4804 21.8365 32.2438 21.7828C31.9574 21.5542 31.6765 21.1946 31.391 20.7052C31.1691 20.3449 30.9973 19.956 30.8805 19.5492C30.8592 19.4685 30.8499 19.385 30.8527 19.3016C30.8549 19.2312 30.89 19.1871 30.9472 19.1607C31.02 19.1231 31.0984 19.0974 31.1793 19.0845L31.3928 19.0205C31.6787 18.8882 31.8822 18.8253 32.0143 18.8406C32.1563 18.8547 32.2697 18.9724 32.3524 19.1737C32.4959 19.5587 32.7856 19.9072 33.2007 20.2116C33.6148 20.5061 34.1068 20.6917 34.656 20.7605C35.1446 20.826 35.6024 20.7948 36.0105 20.6789C36.4175 20.553 36.633 20.3283 36.6756 19.9927C36.6924 19.67 36.6218 19.3488 36.4711 19.063C36.46 18.964 36.4104 18.8793 36.3509 18.7957C36.0168 18.4811 35.7129 18.1358 35.4432 17.7644C35.2308 17.6579 35.0138 17.5117 34.7837 17.337L34.351 17.0546C33.9407 16.7721 33.5668 16.4402 33.2375 16.0664C32.8454 15.609 32.5897 15.2065 32.4595 14.8501C32.1797 14.5004 32.0857 14.0196 32.1665 13.3989C32.2506 12.7177 32.502 12.098 32.9021 11.5518C33.3367 10.9479 33.8402 10.3968 34.4026 9.90967C34.9016 9.39817 35.4653 8.95409 36.0794 8.58871L36.7183 8.11603C36.7425 8.06319 36.76 8.04117 36.7909 8.04774L36.8591 8.03007C36.9064 8.00472 37.0725 7.96605 37.3453 7.89536C37.617 7.81478 37.9195 7.65053 38.245 7.42354C39.191 7.09693 40.0117 6.90469 40.7137 6.816C41.4355 6.72508 42.0253 6.70912 42.493 6.767C43.0565 6.87431 43.5487 7.15004 43.9782 7.58319C44.4199 8.03504 44.6426 8.5014 44.6497 9.01198C44.6653 9.15061 44.6588 9.27166 44.6478 9.3531C44.5779 9.89236 44.2715 10.4682 43.7581 11.0772C43.2239 11.6785 42.7093 12.0971 42.1703 12.2979C41.9636 12.3687 41.7439 12.3933 41.5267 12.37C41.306 12.3499 41.0997 12.2522 40.9443 12.0944C40.882 12.0234 40.8377 11.9384 40.8152 11.8467C40.7927 11.755 40.7927 11.6592 40.815 11.5674C40.8402 11.4138 40.9032 11.2689 40.9984 11.1458C41.1215 10.9916 41.3843 10.7416 41.768 10.4078C42.3561 9.75031 42.6725 9.26363 42.7063 8.93898C42.7436 8.73428 42.6257 8.57703 42.3758 8.49474C41.9339 8.42894 41.4841 8.43867 41.0455 8.5235C40.3203 8.58471 39.9573 8.65547 39.9551 8.7259C39.9574 8.74571 39.9398 8.76773 39.9145 8.81067C39.9178 8.84038 39.8881 8.84371 39.8551 8.81733C39.7935 8.80418 39.3524 8.98396 38.5142 9.3787C37.6959 9.77121 37.2703 9.9994 37.2285 10.0743C37.2055 10.137 37.1439 10.2141 37.0219 10.2879C36.9284 10.3485 36.8129 10.3916 36.6776 10.4368C36.3916 10.5691 36.1211 10.7499 35.8671 10.9889C35.6253 11.2466 35.2988 11.6442 34.8988 12.1903C34.6833 12.415 34.5009 12.6661 34.3504 12.9336C34.2109 13.2099 34.1187 13.4609 34.0947 13.6942C34.0729 13.8571 34.0785 13.9969 34.1017 14.1146C34.1272 14.3423 34.2529 14.5689 34.4776 14.7844C34.7122 14.9987 35.1648 15.3691 35.8354 15.8956C36.516 16.4209 37.1173 16.9552 37.6515 17.517C38.1835 18.059 38.5008 18.4746 38.5935 18.765C38.7743 19.1258 38.8353 19.5802 38.7654 20.1195C38.7107 20.5266 38.5956 20.9306 38.4352 21.2895C38.2638 21.5493 38.0583 21.7729 37.8307 21.9789C37.5954 22.2058 37.3941 22.2885 37.24 22.2557C37.0915 22.2723 36.9562 22.3176 36.8506 22.3595C36.7373 22.4223 36.6405 22.4532 36.5635 22.4819C36.3809 22.5525 35.9144 22.5947 35.1727 22.5976C34.5736 22.6268 33.9731 22.6001 33.379 22.5179L32.5445 22.1401Z" fill="#E35523"/>
<path fill-rule="evenodd" clip-rule="evenodd" d="M41.0915 21.6444C41.0606 21.5475 40.9461 21.42 40.7665 21.2496C40.5859 21.0693 40.4956 20.9792 40.4923 20.9495C40.4447 20.7498 40.3759 20.5558 40.287 20.3709C40.1813 20.2323 40.3207 19.8657 40.6744 19.2646C41.0381 18.6623 41.5117 17.9675 42.082 17.1516C42.1843 17.08 42.3096 16.9456 42.4767 16.7364C42.6559 16.5458 42.7537 16.4346 42.801 16.4092C42.8142 16.3476 42.8394 16.3047 42.8856 16.2694C42.9395 16.2132 42.9978 16.1967 43.0583 16.1999L43.2726 15.8751C43.3594 15.7551 43.6694 15.4797 44.2434 15.0544C44.8175 14.6291 45.2673 14.3481 45.573 14.2135C45.8766 14.0592 46.1814 14.005 46.5071 14.0487C46.8538 14.1001 47.1301 14.2396 47.357 14.4748L47.8726 15.0488L48.5258 15.7777L49.2396 16.6001L48.7245 17.6405C48.5356 18.0126 48.4259 18.3759 48.3745 18.7225C48.3057 19.2717 48.3964 19.813 48.6247 20.3289C48.6832 20.4928 48.7592 20.6347 48.8705 20.7325C48.9828 20.8402 49.1425 20.9226 49.3395 20.9807C49.651 21.0762 49.792 21.2609 49.7504 21.5162C49.7067 21.842 49.6123 22.0732 49.487 22.2075C49.3697 22.3413 49.2095 22.4302 49.0339 22.4589L48.5508 22.4428C48.1238 22.3904 47.755 22.2312 47.4345 21.9663C47.0723 21.6311 46.8092 21.2027 46.6741 20.728C46.5376 20.4082 46.4491 20.0702 46.4112 19.7246C46.2329 19.9052 46.0403 20.071 45.8351 20.2204C44.1461 21.5226 42.8394 22.1203 41.9028 21.9946C41.6039 21.9599 41.3218 21.8381 41.0915 21.6444ZM42.5216 20.0001C42.7494 20.0648 43.2378 19.8597 43.9779 19.3957C44.1737 19.2715 44.3665 19.1429 44.5564 19.01C45.2471 18.6399 45.8708 18.1565 46.4015 17.58L46.9928 16.862C46.9349 16.6153 46.8305 16.382 46.6852 16.1745C46.5805 16.0458 46.4715 15.9678 46.3604 15.9602C46.0742 15.9121 45.6783 16.1369 45.1681 16.5952C44.6668 17.0424 44.0435 17.744 43.2995 18.7097C43.0961 18.9531 42.9335 19.2019 42.7841 19.4794L42.5216 20.0001Z" fill="#E35523"/>
<path d="M51.1936 20.7828C51.3551 21.6872 51.5041 22.2119 51.6495 22.3461C51.7663 22.4934 51.916 22.5769 52.0987 22.5965C52.496 22.6523 52.9404 22.5022 53.4496 22.1243C53.6551 21.9007 53.875 21.7156 54.0994 21.5702L54.5118 21.3134C54.6789 21.1944 55.0021 20.8573 55.5056 20.3397C55.9832 19.8747 56.4129 19.363 56.7883 18.8122C56.9169 18.6173 57.0312 18.4742 57.1401 18.3717C57.4083 18.081 57.5676 17.8024 57.6058 17.5174C57.6205 17.4357 57.6153 17.3517 57.5907 17.2725C57.5661 17.1932 57.5228 17.121 57.4645 17.062C57.3698 16.9322 57.2124 16.8696 57.0022 16.8731C56.8438 16.8909 56.5974 17.0188 56.2631 17.2568C55.9387 17.4936 55.6737 17.7239 55.4758 17.9265L54.7283 18.6821C54.1972 19.2734 53.6342 19.8352 53.0419 20.3651C52.9583 20.4246 52.9088 20.4302 52.8834 20.3829C52.8555 20.3039 52.8395 20.2212 52.8359 20.1375C52.8225 20.0187 52.8103 19.9098 52.7805 19.8229C52.7738 19.3519 52.7712 18.8809 52.7726 18.41C52.7325 16.7099 52.56 15.7967 52.2616 15.6396C52.1256 15.6091 51.9859 15.5978 51.8467 15.6059C51.6453 15.5984 51.5254 15.6018 51.4605 15.6492C51.3065 15.7066 51.1526 15.8542 51.0065 16.0711C50.8689 16.2566 50.7794 16.4733 50.7463 16.7019C50.7342 16.7734 50.7343 16.8636 50.7476 16.9825C50.8593 17.5315 50.918 17.9661 50.9315 18.2654C50.9476 19.0356 51.042 19.8773 51.1936 20.7828Z" fill="#E35523"/>
<path fill-rule="evenodd" clip-rule="evenodd" d="M59.6498 24.5878C58.8156 24.4808 58.187 24.1502 57.7364 23.6191C57.2968 23.0968 57.1289 22.4037 57.2437 21.5486C57.2863 21.2129 57.3651 20.8431 57.4506 20.4425C57.5328 20.1024 57.7315 19.6389 58.0589 19.0708C58.3951 18.4917 58.8347 17.9411 59.3382 17.4234C60.0007 16.7481 60.869 16.3121 61.8064 16.1843C62.0033 16.1522 62.2234 16.1475 62.4677 16.1803C62.9696 16.2235 63.4504 16.4018 63.8591 16.6962C64.2104 16.9677 64.4329 17.2536 64.5454 17.5418C64.669 17.8388 64.7077 18.0951 64.6892 18.2877L64.6696 18.4704C64.6389 18.6443 64.5016 18.9404 64.2303 19.3819C63.9677 19.8124 63.5807 20.2067 63.0781 20.5538C62.5965 20.9086 62.0013 21.0555 61.2937 21.0045C60.947 20.9531 60.6081 20.8808 60.2855 20.7766C59.9718 20.6613 59.7748 20.6032 59.6934 20.5922C59.4787 20.5561 59.3259 20.6234 59.2523 20.772C59.1688 20.9218 59.0986 21.1903 59.0505 21.5667C59.0454 21.9684 59.1095 22.272 59.2704 22.4545C59.4312 22.637 59.6954 22.7578 60.041 22.7993C60.2149 22.83 60.4228 22.8067 60.6648 22.7294C60.9167 22.651 61.2115 22.5077 61.5689 22.2972C61.7559 22.176 61.9077 22.0988 62.0221 22.0459C62.1417 21.9993 62.2714 21.9848 62.3984 22.0037C62.5315 22.0289 62.6736 22.1333 62.8168 22.3378C62.9689 22.5314 63.0395 22.714 63.0374 22.8746C62.9859 23.0408 62.7825 23.2842 62.456 23.5915C62.1196 23.9 61.6972 24.1578 61.2001 24.374C60.7029 24.5901 60.1792 24.6589 59.6498 24.5878ZM61.1096 19.4509C61.3847 19.4903 61.574 19.4791 61.6796 19.4372C61.8347 19.3897 62.0777 19.2321 62.4109 18.9842C62.7518 18.7154 62.9409 18.5237 62.9694 18.4203C62.9827 18.3491 62.9764 18.2757 62.9511 18.2079C62.9258 18.14 62.8826 18.0804 62.826 18.0353C62.694 17.9077 62.5275 17.8218 62.3471 17.7881L62.1016 17.7454C61.919 17.7258 61.622 17.8493 61.2206 18.1149C60.828 18.3695 60.4827 18.6889 60.1629 19.0556C60.1718 19.1349 60.2709 19.214 60.4613 19.303C60.6595 19.371 60.8752 19.417 61.1096 19.4509Z" fill="#E35523"/>
<path d="M74.9494 27.0746C75.0308 27.0855 75.0902 27.0789 75.1474 27.0524C75.2222 27.0039 75.3299 26.8013 75.4792 26.4337C75.5901 26.1706 75.7208 25.9052 75.8514 25.6399C76.1967 24.7368 76.5896 23.8527 77.0286 22.9913C77.1901 22.5707 77.3786 22.1611 77.593 21.7649C77.8643 21.2331 78.0862 20.7972 78.2256 20.4306L79.3052 18.1639C79.7895 17.2072 80.1136 16.6093 80.2751 16.3506C80.4278 16.1029 80.508 15.9234 80.5167 15.8222C80.532 15.7803 80.5265 15.7308 80.5 15.6736C80.5065 15.5526 80.3655 15.3678 80.088 15.1282C79.8082 14.8688 79.632 14.7281 79.5396 14.7084C79.2679 14.7309 79.0011 14.7946 78.7486 14.8973C78.2866 15.0694 77.7872 15.2657 77.2526 15.5061L75.9867 16.1995C75.285 16.5589 74.9176 16.7705 74.8638 16.8267C74.7395 16.8807 74.5976 16.9568 74.4579 17.0526C73.6833 17.4124 72.9244 17.8052 72.1834 18.23C72.068 18.3633 72.0737 18.5932 72.1907 18.921C72.3175 19.2477 72.4575 19.5128 72.6404 19.7129C72.6955 19.7569 72.7494 19.7909 72.8099 19.7942L72.9684 19.7764C73.0465 19.7576 73.1312 19.708 73.2532 19.6342L73.5084 19.4953L73.923 19.2583C74.1155 19.1866 74.4466 19.0091 74.8887 18.749C75.3121 18.501 75.6058 18.3478 75.7774 18.2684C76.4011 17.8983 77.0576 17.5864 77.7385 17.3367L77.4561 17.7695C76.9189 18.7973 76.4175 19.8434 75.9526 20.9059C75.3673 22.2148 75.0114 22.8864 74.886 22.9306C74.5791 23.5851 74.2992 24.252 74.0472 24.9297C73.8859 25.3689 73.7839 25.7112 73.7588 25.9346C73.731 26.0602 73.7353 26.1907 73.7712 26.3142C73.9014 26.5666 74.1151 26.7659 74.3759 26.8782C74.6093 26.9924 74.7964 27.0516 74.9494 27.0746ZM84.263 28.1365C84.2025 28.1332 84.1144 28.0629 84.001 27.9453C83.8662 27.7936 83.767 27.6138 83.7104 27.4189C83.6539 27.224 83.6415 27.019 83.6742 26.8188L83.6642 26.7296L83.8408 26.1584C84.0745 25.3802 84.4313 24.538 84.9025 23.643C85.0443 23.3864 85.1178 23.2378 85.1156 23.218L84.5159 23.2351C83.7336 23.3227 83.1955 23.353 82.8907 23.3169C82.6613 23.2949 82.443 23.2081 82.261 23.0666C82.0874 22.9047 81.9493 22.7085 81.8556 22.4904C81.7136 22.2876 81.6069 22.0623 81.5402 21.8239C81.4222 21.4862 81.3713 21.2111 81.4096 21.0163C81.4106 20.9694 81.4226 20.9234 81.4447 20.882L81.4556 20.8006C81.4921 20.756 81.5203 20.7053 81.5391 20.6508L81.6721 20.4956C81.872 20.1322 82.0412 19.8526 82.1797 19.6566C82.3556 19.4363 82.4402 19.2965 82.4423 19.2261C82.595 18.9783 83.093 18.4112 83.9537 17.5025C84.8156 16.6038 85.3763 16.0597 85.6358 15.8702C85.9641 15.7799 86.2983 15.7123 86.6358 15.6678C86.7789 15.6919 86.9078 15.8579 87.0325 16.1648C87.1659 16.4607 87.2299 16.6741 87.2124 16.7864C86.9166 17.146 86.592 17.4808 86.2417 17.7876C85.5513 18.5167 84.9017 19.2513 84.3115 19.9792C83.9254 20.3899 83.6155 20.866 83.3962 21.3853C83.3899 21.4174 83.3903 21.4505 83.3973 21.4825C83.4043 21.5145 83.4179 21.5447 83.4371 21.5712C83.491 21.6053 83.5846 21.6349 83.7375 21.6578C84.5463 21.6274 85.124 21.5927 85.4474 21.5264C85.8028 21.4765 86.0316 21.3707 86.1756 21.2242C86.3306 21.0865 86.512 20.8255 86.7295 20.4402L87.0634 19.8412C87.47 19.174 87.848 18.6103 88.2063 18.139C88.5744 17.6665 88.8866 17.3207 89.1208 17.0839C89.3538 16.8372 89.5012 16.7204 89.5419 16.7259C89.6134 16.7379 89.804 16.9171 90.1036 17.2645C90.4219 17.5999 90.5641 17.7945 90.5707 17.8539C90.5401 18.0278 90.4786 18.1951 90.3841 18.3361C90.0426 18.8172 89.6913 19.2911 89.3302 19.7577C88.0887 21.5719 86.9781 23.4723 86.0068 25.4444C85.6609 26.2051 85.4798 26.6465 85.4557 26.7896C85.4416 26.9304 85.4609 27.0725 85.5122 27.2044C85.4729 27.4795 85.3179 27.7074 85.0397 27.9091C84.7604 28.1008 84.5074 28.1693 84.263 28.1365Z" fill="#E35523"/>
<path fill-rule="evenodd" clip-rule="evenodd" d="M92.8041 22.487C92.901 22.5464 93.0155 22.5837 93.1685 22.6066C93.4315 22.6273 93.7582 22.5907 94.151 22.5166C94.5427 22.4326 94.8815 22.3244 95.1664 22.1822C95.5305 22.0311 95.8494 21.8349 96.1243 21.6036C96.4201 21.3799 96.7664 21.0704 97.1347 20.6882C97.7888 20.0293 98.2323 19.1908 98.4089 18.2793L98.4437 17.8743C98.4489 17.5629 98.3529 17.2428 98.1468 16.925C97.9692 16.6286 97.7209 16.3809 97.4243 16.2038C97.3611 16.1013 97.2831 16.0087 97.1929 15.9289C97.1341 15.878 97.0603 15.8475 96.9827 15.8422C96.8128 15.8379 96.6429 15.8502 96.4754 15.879C95.8581 15.9181 95.2784 16.1134 94.7076 16.4782C94.3601 16.6876 93.7973 17.3021 93.0291 18.3207C92.8104 18.5932 92.6149 18.8834 92.4445 19.1884C92.2775 19.4878 92.1995 19.6871 92.2095 19.7762C92.2262 19.9247 92.1943 19.9985 92.1228 19.9865C92.1003 20.0173 92.0728 20.0441 92.0415 20.0658C92.014 20.0889 92.0195 20.1384 92.0669 20.2033L92.0538 20.3552C92.0616 20.4245 92.0309 20.5081 92.0001 20.5918C91.9222 20.791 91.9389 21.0298 92.0316 21.3202C92.1353 21.6194 92.2963 21.8922 92.5177 22.1682C92.6334 22.3056 92.7259 22.4156 92.8041 22.487ZM95.9387 19.6792C95.7804 19.8774 95.5737 20.0911 95.3088 20.3213C94.7392 20.7862 94.3026 21.0056 93.9977 20.9696C93.7435 20.9379 93.6322 20.7498 93.6748 20.4142C93.6977 20.2612 93.7669 20.0729 93.8844 19.8693C94.2327 19.3088 94.5371 18.8937 94.7845 18.5953C95.0329 18.3067 95.3066 18.0655 95.608 17.8913C95.8389 17.715 96.0611 17.64 96.2845 17.6651C96.3869 17.6837 96.4705 17.7144 96.5465 17.7661C96.6236 17.8276 96.6315 17.9872 96.602 18.2612C96.5648 18.4659 96.5177 18.6717 96.4287 18.8622C96.2849 19.1892 96.1157 19.4688 95.9387 19.6792Z" fill="#E35523"/>
<path d="M89.0936 30.2626C89.2324 30.4276 89.4262 30.5462 89.6628 30.5999C89.7927 30.5954 89.9555 30.527 90.16 30.3838C90.3667 30.2603 90.536 30.0709 90.6701 29.8353C90.8217 29.5777 91.2856 29.0644 92.0639 28.3154L95.0973 25.4988C95.635 25.1077 95.9176 24.8554 95.9328 24.7234C95.9622 24.6994 95.9895 24.6728 96.0142 24.6441C96.0494 24.6 96.0791 24.5967 96.111 24.6132C96.1891 24.5944 96.2551 24.5569 96.2991 24.5018L96.3892 24.4115C96.5973 24.2137 96.8221 24.0342 97.061 23.875L98.1662 23.0894C98.3465 22.9087 98.5323 22.7776 98.6819 22.6806C98.7072 22.6377 99.0821 22.3149 99.8078 21.7222C100.543 21.1284 101.134 20.6712 101.558 20.3429L101.905 20.1236L102.239 19.8856C102.705 19.5726 102.982 19.3611 103.102 19.2674C103.231 19.1628 103.345 19.0196 103.446 18.8479C103.525 18.7373 103.572 18.607 103.582 18.4714C103.591 18.3359 103.563 18.2003 103.501 18.0797C103.447 17.9352 103.374 17.7984 103.285 17.6728C103.219 17.5825 103.158 17.4889 103.103 17.3924C103.054 17.3518 102.995 17.3239 102.933 17.3111C102.873 17.3038 102.812 17.3106 102.755 17.3311C102.702 17.309 102.647 17.2949 102.59 17.2894C102.458 17.2741 102.363 17.3248 102.307 17.4514C102.213 17.5924 101.215 18.4461 99.3055 20.0138C98.193 20.9684 97.0442 21.8798 95.8617 22.746C95.8301 22.7994 95.7873 22.8452 95.7363 22.8804C95.6703 22.9179 95.644 22.9509 95.6374 22.9817C95.6016 23.0402 95.5567 23.0926 95.5044 23.137C95.4395 23.1844 95.3769 23.2516 95.3241 23.3176C95.2203 23.3309 95.1213 23.3696 95.0359 23.4302C94.9435 23.5007 94.8644 23.5998 94.8062 23.7066C94.7672 23.7877 94.7144 23.8615 94.6501 23.9246C94.5765 23.983 94.5181 23.9995 94.4576 23.9963L94.4169 23.9908L92.1871 25.9252C91.1558 26.8329 90.5544 27.3716 90.4027 27.539C90.3445 27.6458 90.1466 27.8485 89.8167 28.1261C89.2803 28.7076 88.9847 29.2019 88.9323 29.629C88.9122 29.74 88.9162 29.854 88.9441 29.9633C88.9719 30.0727 89.0229 30.1747 89.0936 30.2626Z" fill="#E35523"/>
<path fill-rule="evenodd" clip-rule="evenodd" d="M94.903 30.9956C94.9911 31.0659 95.1166 31.112 95.2596 31.1361C95.5226 31.1568 95.8494 31.1201 96.2499 31.0251C96.9794 30.8831 97.6656 30.5728 98.254 30.1187C98.5387 29.8863 98.8664 29.5888 99.2248 29.2078C99.8776 28.5517 100.321 27.7169 100.5 26.8088C100.53 26.625 100.534 26.4842 100.535 26.4038C100.548 26.0715 100.452 25.7514 100.246 25.4335C100.068 25.1372 99.8198 24.8894 99.5231 24.7124C99.4599 24.6099 99.382 24.5172 99.2918 24.4375C99.234 24.3827 99.1596 24.3487 99.0804 24.3408C98.9072 24.3398 98.7344 24.3558 98.5644 24.3886C97.9669 24.4255 97.3883 24.6307 96.7999 25.0175C96.5821 25.1322 96.2985 25.3745 95.9808 25.7611C95.4549 26.3703 94.9744 27.0173 94.5433 27.6969C94.3764 27.9964 94.2984 28.1957 94.3084 28.2848C94.325 28.4333 94.2833 28.5082 94.2118 28.4961C94.1921 28.5257 94.168 28.5521 94.1403 28.5743C94.1029 28.5986 94.1184 28.647 94.1559 28.713L94.1428 28.8648C94.1506 28.9342 94.1297 29.0167 94.0891 29.1015C94.01 29.2908 94.0378 29.5384 94.1206 29.8299C94.2778 30.2788 94.5471 30.6801 94.903 30.9956ZM98.0166 28.18C97.8507 28.3992 97.655 28.6216 97.3977 28.831C96.8381 29.2948 96.4014 29.5141 96.0966 29.4781C95.8313 29.4377 95.731 29.2584 95.7736 28.9227C95.7955 28.7598 95.8657 28.5815 95.9833 28.3778C96.3316 27.8174 96.625 27.3935 96.8525 27.0972C97.1009 26.8087 97.3747 26.5675 97.676 26.3933C97.907 26.217 98.1292 26.142 98.3526 26.1671C98.4648 26.1846 98.5595 26.2241 98.6454 26.2747C98.7015 26.3285 98.7105 26.498 98.6635 26.794C98.6384 27.0174 98.5901 27.2133 98.5276 27.3708C98.3628 27.69 98.1936 27.9697 98.0166 28.18Z" fill="#E35523"/>
<path d="M16.1338 48.3605C13.3919 49.68 11.1143 50.7519 8.23222 50.9659C7.17806 51.042 6.88956 52.6525 7.40561 53.2726C7.91107 53.8439 8.39012 54.4251 8.89144 55.0055C10.5819 56.9857 12.2682 58.9749 14.1597 60.7074C14.9426 61.4387 15.9804 59.9632 15.3288 59.1605C14.7233 58.4008 14.0955 57.6419 13.4677 56.883C12.761 56.0331 12.0544 55.1832 11.3601 54.3061C28.1053 61.704 50.0865 50.2812 59.0962 29.5395C59.1792 29.3583 59.1995 29.1703 59.1448 29.0028C59.1275 28.9229 59.0925 28.8479 59.0425 28.7832C58.9925 28.7186 58.9286 28.6659 58.8556 28.6292C58.7801 28.5979 58.6985 28.5839 58.6169 28.5882C58.5352 28.5925 58.4556 28.6151 58.3838 28.6541C58.2187 28.7371 58.0866 28.8737 58.0091 29.0414C48.1892 48.2501 29.9069 57.652 13.5962 52.5357C14.7975 52.0667 15.9376 51.3724 16.986 50.4717C17.2116 50.2902 17.3807 50.0169 17.4599 49.7243C17.5391 49.4318 17.5285 49.1201 17.4262 48.8649C17.3801 48.745 17.31 48.6356 17.2202 48.5436C17.1305 48.4516 17.0229 48.3789 16.9041 48.3298C16.7804 48.2824 16.6482 48.2606 16.5158 48.2659C16.3834 48.2712 16.2534 48.3034 16.1338 48.3605Z" fill="#E35523"/>
</svg>
