<svg width="92" height="116" viewBox="0 0 92 116" fill="none" xmlns="http://www.w3.org/2000/svg">
<g opacity="0.5">
<path d="M62.5305 63.0965C60.7811 64.0013 60.3589 65.8713 59.816 75.8246C59.2731 86.7431 68.5025 96.3344 70.1915 72.1449C70.6741 64.9061 67.1754 60.8042 62.5305 63.0965Z" fill="white"/>
<path d="M64.1596 25.2131C69.468 26.1783 71.0967 3.97953 65.9693 0.601439C64.0993 -0.665345 62.1086 0.118614 61.2038 2.47121C57.1018 12.6055 58.6099 24.1876 64.1596 25.2131Z" fill="white"/>
<path d="M41.5988 28.8931C44.4943 30.4012 55.1715 30.8234 55.7144 29.436C56.9208 26.2389 48.4153 23.8864 40.9956 25.2738C38.9446 25.696 39.3065 27.6867 41.5988 28.8931Z" fill="white"/>
<path d="M63.6768 55.0732C67.5978 55.0732 68.3217 37.7002 64.5213 34.8047C62.9529 33.6585 59.6955 33.7792 59.0319 35.046C54.6283 43.1896 57.4032 55.0732 63.6768 55.0732Z" fill="white"/>
<path d="M82.5583 31.1854C88.3493 31.6077 90.3406 30.8235 89.1341 28.5312C87.807 26.0578 70.9166 24.067 70.0721 26.299C69.1069 28.7725 73.6908 30.5219 82.5583 31.1854Z" fill="white"/>
<path d="M50.8285 86.1395C46.7266 85.6569 40.0307 85.3553 38.8846 85.6569C33.8778 86.8634 40.453 90.6034 48.5966 91.2669C58.9118 92.1115 61.0231 87.4063 50.8285 86.1395Z" fill="white"/>
<path d="M58.4288 97.179C53.8442 105.685 56.5588 116 63.3753 116C66.0898 116 69.7695 102.487 67.9598 99.049C66.6327 96.5758 59.4543 95.1884 58.4288 97.179Z" fill="white"/>
<path d="M89.5554 89.0354C86.5996 86.3812 70.9156 85.0541 70.0107 87.3464C68.9852 90.0609 72.9665 91.6293 82.2563 92.1119C91.0635 92.5945 92.7525 91.8706 89.5554 89.0354Z" fill="white"/>
<path d="M10.8949 59.5971C4.98323 58.9939 2.26858 58.3907 0.700178 59.5368C-2.19533 61.6481 4.31962 64.6039 12.3426 64.9056C20.1847 65.1469 18.9179 60.4417 10.8949 59.5971Z" fill="white"/>
<path d="M24.8894 68.586C22.1749 66.8366 18.6761 66.716 17.9522 68.405C17.0474 70.5766 16.2029 81.1332 16.8664 82.4C18.0729 84.8129 25.2513 86.2606 26.0355 84.27C27.1817 81.1332 26.3975 69.5512 24.8894 68.586Z" fill="white"/>
<path d="M19.3405 36.1921C16.5053 36.6746 15.6005 51.1522 18.1944 54.289C20.366 56.8829 27.1825 59.5974 27.0015 51.5141C26.7602 39.9321 26.5189 35.0459 19.3405 36.1921Z" fill="white"/>
<path d="M42.8664 59.4773C39.9709 58.2708 28.2682 58.3311 27.846 59.5979C26.8205 62.1918 31.6463 64.1221 39.1867 64.1221C46.7874 64.1221 48.5971 61.8902 42.8664 59.4773Z" fill="white"/>
</g>
</svg>
