<svg width="129" height="164" viewBox="0 0 129 164" fill="none" xmlns="http://www.w3.org/2000/svg">
<g opacity="0.5">
<path d="M90.7092 35.6463C98.2143 37.0109 100.517 5.62643 93.2678 0.850512C90.624 -0.940458 87.8096 0.167898 86.5303 3.49398C80.731 17.8217 82.8631 34.1965 90.7092 35.6463Z" fill="white"/>
<path d="M58.8121 40.8494C62.9057 42.9815 78.001 43.5785 78.7686 41.6169C80.4743 37.0969 68.4492 33.7709 57.9593 35.7324C55.0596 36.3294 55.5713 39.1438 58.8121 40.8494Z" fill="white"/>
<path d="M90.0263 77.8622C95.5698 77.8622 96.5932 53.3003 91.2203 49.2067C89.0029 47.5863 84.3976 47.7569 83.4594 49.5478C77.2337 61.0612 81.1568 77.8622 90.0263 77.8622Z" fill="white"/>
<path d="M88.4074 89.205C85.9342 90.4843 85.3372 93.1281 84.5696 107.2C83.8021 122.636 96.8506 136.197 99.2385 101.998C99.9208 91.7636 94.9743 85.9642 88.4074 89.205Z" fill="white"/>
<path d="M116.721 44.0897C124.908 44.6866 127.723 43.578 126.018 40.3371C124.141 36.8403 100.262 34.0258 99.0679 37.1813C97.7033 40.6783 104.184 43.1515 116.721 44.0897Z" fill="white"/>
<path d="M71.8608 121.784C66.0615 121.101 56.595 120.675 54.9746 121.101C47.896 122.807 57.192 128.095 68.7053 129.033C83.2889 130.227 86.2739 123.575 71.8608 121.784Z" fill="white"/>
<path d="M82.6066 137.391C76.125 149.416 79.9628 163.999 89.5999 163.999C93.4377 163.999 98.6401 144.896 96.0815 140.035C94.2053 136.538 84.0565 134.576 82.6066 137.391Z" fill="white"/>
<path d="M126.614 125.878C122.435 122.125 100.261 120.249 98.982 123.49C97.5322 127.328 103.161 129.545 116.295 130.227C128.746 130.91 131.134 129.886 126.614 125.878Z" fill="white"/>
<path d="M15.4031 84.258C7.04526 83.4051 3.2073 82.5523 0.989906 84.1727C-3.10374 87.1576 6.10705 91.3366 17.4499 91.763C28.537 92.1041 26.746 85.4519 15.4031 84.258Z" fill="white"/>
<path d="M35.1884 96.9666C31.3506 94.4933 26.4041 94.3228 25.3807 96.7107C24.1014 99.781 22.9074 114.706 23.8456 116.497C25.5513 119.908 35.7001 121.955 36.8088 119.14C38.4292 114.706 37.3205 98.3311 35.1884 96.9666Z" fill="white"/>
<path d="M27.3441 51.1681C23.3358 51.8504 22.0565 72.3186 25.7237 76.7534C28.794 80.4206 38.4311 84.2584 38.1752 72.8303C37.8341 56.4557 37.493 49.5477 27.3441 51.1681Z" fill="white"/>
<path d="M60.6033 84.0886C56.5096 82.3829 39.9645 82.4682 39.3675 84.2591C37.9177 87.9263 44.7404 90.6554 55.4009 90.6554C66.1467 90.6554 68.7053 87.4999 60.6033 84.0886Z" fill="white"/>
</g>
</svg>
