<svg width="320" height="173" viewBox="0 0 320 173" fill="none" xmlns="http://www.w3.org/2000/svg">
<path fill-rule="evenodd" clip-rule="evenodd" d="M187.905 -151.311C186.197 -150.7 179.974 -145.208 174.116 -139.228C157.032 -121.897 140.558 -115.672 129.698 -122.263C121.766 -127.023 112.126 -135.81 110.052 -140.082C105.048 -150.7 100.533 -147.039 97.1158 -129.22C90.4043 -94.5576 69.9043 -78.0809 39.2752 -82.3527C21.8251 -84.7936 20.4826 -83.9393 28.6585 -74.4194C54.0403 -44.7614 41.1056 4.66865 3.88698 20.291C-2.70254 23.0981 -1.72679 24.3187 13.1607 31.7637C36.9562 43.6025 50.5013 76.1897 43.0576 103.163C40.617 111.828 40.6168 115.856 42.8133 117.32C45.2538 118.907 50.1347 118.663 52.3312 116.71C57.8225 111.95 80.7648 110.852 88.0865 115.001C96.9945 120.005 114.688 148.077 114.688 157.231C114.688 161.746 119.936 169.802 123.84 171.51C130.674 174.44 130.796 174.317 142.145 159.183C168.869 123.667 189.491 120.372 213.287 147.589C226.588 162.723 232.811 162.723 235.008 147.467C240.865 106.702 266.369 81.4377 293.46 89.6151C309.567 94.4971 309.934 92.7883 300.781 62.1539C296.999 49.8269 297.975 36.7677 303.222 27.1257C309.812 15.0428 320.184 -0.0912504 325.187 -4.85118C331.899 -11.3198 329.579 -15.8356 319.573 -15.8356C309.323 -15.8356 293.825 -31.7021 288.7 -47.4465C285.039 -58.3089 288.944 -83.2071 296.632 -99.1956C299.439 -105.054 297.974 -108.959 292.361 -110.302C289.188 -111.156 284.429 -109.326 284.429 -107.495C284.429 -103.711 246.722 -100.904 234.398 -103.711C214.873 -108.227 194.494 -130.684 197.179 -144.842C197.911 -150.212 193.641 -153.508 187.905 -151.311ZM194.128 -122.507C204.013 -101.392 234.52 -91.1403 272.715 -95.9003L279.427 -96.7546L276.986 -91.1403C263.075 -58.6751 276.253 -23.2808 306.76 -11.6861C313.594 -9.12303 313.838 -10.3435 304.564 0.885083C279.182 31.8857 276.254 45.6773 289.799 72.2841C292.85 78.1425 294.802 82.9023 294.314 82.9023C293.826 82.9023 289.189 82.1702 283.942 81.1938C269.664 78.6307 262.464 80.5834 249.407 90.2253C230.981 103.895 223.171 118.053 223.171 138.191V142.829L215.483 136.604C187.295 113.659 155.689 118.907 132.26 150.396L128.722 155.034L123.596 144.293C110.173 115.734 90.4048 102.674 65.267 105.726L55.749 106.824L56.4807 103.041C61.9719 72.6502 48.1823 41.1615 23.6546 28.2242L16.3329 24.3186L26.7053 13.5783C54.4057 -15.1034 60.1415 -42.8087 43.6677 -69.2934L41.2271 -73.1989L47.8172 -72.4667C75.0294 -69.6595 105.048 -92.4828 107.977 -118.357L108.831 -125.558L114.444 -121.531C136.897 -105.542 158.74 -107.495 180.095 -127.511C188.027 -134.834 188.515 -135.2 189.613 -132.759C190.101 -131.173 192.176 -126.657 194.128 -122.507ZM143.121 -86.7466C35.4918 -57.6988 56.7243 113.781 167.038 105.97C264.05 99.135 301.514 -39.3913 215.972 -77.2266C202.183 -83.3291 199.254 -76.3723 212.921 -67.2186C299.927 -9.00099 214.141 140.266 124.572 86.4418C57.8227 46.4095 79.422 -49.3993 148.002 -76.0061C156.91 -79.4235 170.943 -82.1086 181.315 -81.4984C192.176 -80.8881 195.715 -87.4788 182.048 -89.5536C171.432 -91.2623 153.249 -89.5537 143.121 -86.7466Z" fill="white"/>
</svg>
