<svg xmlns="http://www.w3.org/2000/svg" width="90" height="91" viewBox="0 0 90 91" fill="none">
  <path d="M47.5739 77.0995C47.9017 78.9795 52.1817 78.1119 65.8247 73.4605C80.2633 68.5272 83.2684 66.9116 82.1321 64.9244C80.536 62.2107 47.1218 74.0455 47.5739 77.0995Z" fill="#0A102F"/>
  <path d="M20.5287 15.3961C15.0009 16.7663 14.5265 17.891 13.9476 30.9312C13.3356 44.3992 13.703 46.882 16.2163 47.2101C20.7759 47.7863 22.0806 44.2738 23.668 27.6545C24.8321 15.3924 24.6088 14.3847 20.5287 15.3961Z" fill="#0A102F"/>
  <path d="M55.8546 26.6839C51.8711 27.6183 50.6218 28.7699 47.1155 34.659C36.7812 52.1684 28.0139 63.8503 35.7312 61.8754C38.8865 61.0908 41.1426 58.0352 53.91 37.9588C60.9155 26.827 61.1923 25.4688 55.8546 26.6839Z" fill="#0A102F"/>
</svg>