<svg width="56" height="81" viewBox="0 0 56 81" fill="none" xmlns="http://www.w3.org/2000/svg">
<path fill-rule="evenodd" clip-rule="evenodd" d="M20.8872 4.87402C20.9106 11.32 18.7184 22.98 35.5821 25.7982C25.1136 27.3092 21.1132 35.4005 20.8892 45.7793C20.6325 37.945 21.707 28.8988 4.5332 26.4193C21.0162 25.1161 20.7875 11.4984 20.8872 4.87402Z" fill="#FEF7E6" stroke="#0E0E0E" stroke-width="4.06452" stroke-miterlimit="1.5" stroke-linecap="round" stroke-linejoin="round"/>
<path fill-rule="evenodd" clip-rule="evenodd" d="M37.2543 36.3203C37.2777 42.7663 32.8868 54.7347 49.7505 57.5529C39.2821 59.0639 37.4803 66.8467 37.2563 77.2255C36.9996 69.3909 36.4746 60.2761 24.5625 57.6616C36.1088 56.2836 35.9141 45.1167 37.2543 36.3203Z" fill="#FEF7E6" stroke="#0E0E0E" stroke-width="4.06452" stroke-miterlimit="1.5" stroke-linecap="round" stroke-linejoin="round"/>
<path d="M3 3C5.72188 6.14897 7.88003 9.80169 10.6733 12.8826" stroke="#0E0E0E" stroke-width="4.06452" stroke-miterlimit="1.5" stroke-linecap="round" stroke-linejoin="round"/>
<path d="M29.4199 15.2125C31.4575 13.5333 33.384 11.6214 35.0349 9.55762" stroke="#0E0E0E" stroke-width="4.06452" stroke-miterlimit="1.5" stroke-linecap="round" stroke-linejoin="round"/>
<path d="M11.3728 36.9062C8.63393 39.4448 6.09045 42.271 3.61328 45.0655" stroke="#0E0E0E" stroke-width="4.06452" stroke-miterlimit="1.5" stroke-linecap="round" stroke-linejoin="round"/>
<path d="M28.4004 42.7285C28.6993 43.1857 29.06 43.6023 29.3858 44.041" stroke="#0E0E0E" stroke-width="4.06452" stroke-miterlimit="1.5" stroke-linecap="round" stroke-linejoin="round"/>
<path d="M25.0059 68.8048C25.6575 68.1558 26.3323 67.5304 26.974 66.8711" stroke="#0E0E0E" stroke-width="4.06452" stroke-miterlimit="1.5" stroke-linecap="round" stroke-linejoin="round"/>
<path d="M44.1777 47.6887C47.0616 45.0789 49.5702 42.2116 51.9983 39.1807" stroke="#0E0E0E" stroke-width="4.06452" stroke-miterlimit="1.5" stroke-linecap="round" stroke-linejoin="round"/>
<path d="M44.8828 69.0303C48.2828 71.1457 50.649 75.5015 53.0015 78.6835" stroke="#0E0E0E" stroke-width="4.06452" stroke-miterlimit="1.5" stroke-linecap="round" stroke-linejoin="round"/>
</svg>
