<svg width="110" height="191" viewBox="0 0 110 191" fill="none" xmlns="http://www.w3.org/2000/svg">
<path d="M3.07422 179.645L18.3643 179.792" stroke="#0A102F" stroke-width="4.33351" stroke-miterlimit="10" stroke-linecap="round"/>
<path d="M10.794 172.073L10.6465 187.363" stroke="#0A102F" stroke-width="4.33351" stroke-miterlimit="10" stroke-linecap="round"/>
<path d="M3.30859 155.502L18.5986 155.65" stroke="#0A102F" stroke-width="4.33351" stroke-miterlimit="10" stroke-linecap="round"/>
<path d="M11.0284 147.931L10.8809 163.221" stroke="#0A102F" stroke-width="4.33351" stroke-miterlimit="10" stroke-linecap="round"/>
<path d="M3.54102 131.358L18.8311 131.506" stroke="#0A102F" stroke-width="4.33351" stroke-miterlimit="10" stroke-linecap="round"/>
<path d="M11.2608 123.787L11.1133 139.077" stroke="#0A102F" stroke-width="4.33351" stroke-miterlimit="10" stroke-linecap="round"/>
<path d="M3.77344 107.217L19.0635 107.364" stroke="#0A102F" stroke-width="4.33351" stroke-miterlimit="10" stroke-linecap="round"/>
<path d="M11.4933 99.6456L11.3457 114.936" stroke="#0A102F" stroke-width="4.33351" stroke-miterlimit="10" stroke-linecap="round"/>
<path d="M4.00586 83.0742L19.2959 83.2218" stroke="#0A102F" stroke-width="4.33351" stroke-miterlimit="10" stroke-linecap="round"/>
<path d="M11.7257 75.503L11.5781 90.793" stroke="#0A102F" stroke-width="4.33351" stroke-miterlimit="10" stroke-linecap="round"/>
<path d="M4.23828 58.9307L19.5283 59.0782" stroke="#0A102F" stroke-width="4.33351" stroke-miterlimit="10" stroke-linecap="round"/>
<path d="M11.9581 51.3595L11.8105 66.6494" stroke="#0A102F" stroke-width="4.33351" stroke-miterlimit="10" stroke-linecap="round"/>
<path d="M4.47266 34.7881L19.7627 34.9356" stroke="#0A102F" stroke-width="4.33351" stroke-miterlimit="10" stroke-linecap="round"/>
<path d="M12.1925 27.2169L12.0449 42.5068" stroke="#0A102F" stroke-width="4.33351" stroke-miterlimit="10" stroke-linecap="round"/>
<path d="M4.70508 10.6455L19.9951 10.7931" stroke="#0A102F" stroke-width="4.33351" stroke-miterlimit="10" stroke-linecap="round"/>
<path d="M12.4249 3.07434L12.2773 18.3643" stroke="#0A102F" stroke-width="4.33351" stroke-miterlimit="10" stroke-linecap="round"/>
<path d="M24.834 179.854L40.1241 180.002" stroke="#0A102F" stroke-width="4.33351" stroke-miterlimit="10" stroke-linecap="round"/>
<path d="M32.5538 172.283L32.4062 187.573" stroke="#0A102F" stroke-width="4.33351" stroke-miterlimit="10" stroke-linecap="round"/>
<path d="M25.0664 155.712L40.3565 155.859" stroke="#0A102F" stroke-width="4.33351" stroke-miterlimit="10" stroke-linecap="round"/>
<path d="M32.7862 148.141L32.6387 163.431" stroke="#0A102F" stroke-width="4.33351" stroke-miterlimit="10" stroke-linecap="round"/>
<path d="M25.2988 131.569L40.5889 131.717" stroke="#0A102F" stroke-width="4.33351" stroke-miterlimit="10" stroke-linecap="round"/>
<path d="M33.0187 123.998L32.8711 139.288" stroke="#0A102F" stroke-width="4.33351" stroke-miterlimit="10" stroke-linecap="round"/>
<path d="M25.5332 107.427L40.8233 107.574" stroke="#0A102F" stroke-width="4.33351" stroke-miterlimit="10" stroke-linecap="round"/>
<path d="M33.253 99.8556L33.1055 115.146" stroke="#0A102F" stroke-width="4.33351" stroke-miterlimit="10" stroke-linecap="round"/>
<path d="M25.7656 83.2842L41.0557 83.4317" stroke="#0A102F" stroke-width="4.33351" stroke-miterlimit="10" stroke-linecap="round"/>
<path d="M33.4855 75.713L33.3379 91.0029" stroke="#0A102F" stroke-width="4.33351" stroke-miterlimit="10" stroke-linecap="round"/>
<path d="M25.998 59.1406L41.2882 59.2882" stroke="#0A102F" stroke-width="4.33351" stroke-miterlimit="10" stroke-linecap="round"/>
<path d="M33.7179 51.5695L33.5703 66.8594" stroke="#0A102F" stroke-width="4.33351" stroke-miterlimit="10" stroke-linecap="round"/>
<path d="M26.2324 34.999L41.5225 35.1466" stroke="#0A102F" stroke-width="4.33351" stroke-miterlimit="10" stroke-linecap="round"/>
<path d="M33.9522 27.4269L33.8047 42.7168" stroke="#0A102F" stroke-width="4.33351" stroke-miterlimit="10" stroke-linecap="round"/>
<path d="M26.4648 10.8555L41.755 11.003" stroke="#0A102F" stroke-width="4.33351" stroke-miterlimit="10" stroke-linecap="round"/>
<path d="M34.1847 3.2843L34.0371 18.5742" stroke="#0A102F" stroke-width="4.33351" stroke-miterlimit="10" stroke-linecap="round"/>
<path d="M46.623 180.064L61.8822 180.212" stroke="#0A102F" stroke-width="4.33351" stroke-miterlimit="10" stroke-linecap="round"/>
<path d="M54.3429 172.493L54.1953 187.783" stroke="#0A102F" stroke-width="4.33351" stroke-miterlimit="10" stroke-linecap="round"/>
<path d="M46.8555 155.922L62.1146 156.069" stroke="#0A102F" stroke-width="4.33351" stroke-miterlimit="10" stroke-linecap="round"/>
<path d="M54.5753 148.351L54.4277 163.641" stroke="#0A102F" stroke-width="4.33351" stroke-miterlimit="10" stroke-linecap="round"/>
<path d="M47.0898 131.779L62.349 131.927" stroke="#0A102F" stroke-width="4.33351" stroke-miterlimit="10" stroke-linecap="round"/>
<path d="M54.8097 124.208L54.6621 139.498" stroke="#0A102F" stroke-width="4.33351" stroke-miterlimit="10" stroke-linecap="round"/>
<path d="M47.3203 107.636L62.5795 107.783" stroke="#0A102F" stroke-width="4.33351" stroke-miterlimit="10" stroke-linecap="round"/>
<path d="M55.0401 100.065L54.8926 115.354" stroke="#0A102F" stroke-width="4.33351" stroke-miterlimit="10" stroke-linecap="round"/>
<path d="M47.5547 83.4932L62.8138 83.6404" stroke="#0A102F" stroke-width="4.33351" stroke-miterlimit="10" stroke-linecap="round"/>
<path d="M55.2745 75.922L55.127 91.2119" stroke="#0A102F" stroke-width="4.33351" stroke-miterlimit="10" stroke-linecap="round"/>
<path d="M47.7871 59.3506L63.0462 59.4978" stroke="#0A102F" stroke-width="4.33351" stroke-miterlimit="10" stroke-linecap="round"/>
<path d="M55.5069 51.7794L55.3594 67.0693" stroke="#0A102F" stroke-width="4.33351" stroke-miterlimit="10" stroke-linecap="round"/>
<path d="M48.0195 35.209L63.2787 35.3562" stroke="#0A102F" stroke-width="4.33351" stroke-miterlimit="10" stroke-linecap="round"/>
<path d="M55.7394 27.6368L55.5918 42.9268" stroke="#0A102F" stroke-width="4.33351" stroke-miterlimit="10" stroke-linecap="round"/>
<path d="M48.2539 11.0654L63.513 11.2127" stroke="#0A102F" stroke-width="4.33351" stroke-miterlimit="10" stroke-linecap="round"/>
<path d="M55.9737 3.49426L55.8262 18.7842" stroke="#0A102F" stroke-width="4.33351" stroke-miterlimit="10" stroke-linecap="round"/>
<path d="M68.3848 180.274L83.6748 180.422" stroke="#0A102F" stroke-width="4.33351" stroke-miterlimit="10" stroke-linecap="round"/>
<path d="M76.1046 172.703L75.957 187.993" stroke="#0A102F" stroke-width="4.33351" stroke-miterlimit="10" stroke-linecap="round"/>
<path d="M68.6172 156.132L83.9072 156.279" stroke="#0A102F" stroke-width="4.33351" stroke-miterlimit="10" stroke-linecap="round"/>
<path d="M76.337 148.561L76.1895 163.851" stroke="#0A102F" stroke-width="4.33351" stroke-miterlimit="10" stroke-linecap="round"/>
<path d="M68.8496 131.989L84.1397 132.137" stroke="#0A102F" stroke-width="4.33351" stroke-miterlimit="10" stroke-linecap="round"/>
<path d="M76.5694 124.418L76.4219 139.708" stroke="#0A102F" stroke-width="4.33351" stroke-miterlimit="10" stroke-linecap="round"/>
<path d="M69.082 107.847L84.3721 107.994" stroke="#0A102F" stroke-width="4.33351" stroke-miterlimit="10" stroke-linecap="round"/>
<path d="M76.8019 100.275L76.6543 115.564" stroke="#0A102F" stroke-width="4.33351" stroke-miterlimit="10" stroke-linecap="round"/>
<path d="M69.3145 83.7031L84.6045 83.8507" stroke="#0A102F" stroke-width="4.33351" stroke-miterlimit="10" stroke-linecap="round"/>
<path d="M77.0343 76.132L76.8867 91.4219" stroke="#0A102F" stroke-width="4.33351" stroke-miterlimit="10" stroke-linecap="round"/>
<path d="M69.5488 59.5605L84.8389 59.7081" stroke="#0A102F" stroke-width="4.33351" stroke-miterlimit="10" stroke-linecap="round"/>
<path d="M77.2687 51.9894L77.1211 67.2793" stroke="#0A102F" stroke-width="4.33351" stroke-miterlimit="10" stroke-linecap="round"/>
<path d="M69.7812 35.4189L85.0713 35.5665" stroke="#0A102F" stroke-width="4.33351" stroke-miterlimit="10" stroke-linecap="round"/>
<path d="M77.5011 27.8468L77.3535 43.1367" stroke="#0A102F" stroke-width="4.33351" stroke-miterlimit="10" stroke-linecap="round"/>
<path d="M70.0156 11.2754L85.3057 11.423" stroke="#0A102F" stroke-width="4.33351" stroke-miterlimit="10" stroke-linecap="round"/>
<path d="M77.7355 3.70422L77.5879 18.9941" stroke="#0A102F" stroke-width="4.33351" stroke-miterlimit="10" stroke-linecap="round"/>
<path d="M90.1719 180.485L105.431 180.633" stroke="#0A102F" stroke-width="4.33351" stroke-miterlimit="10" stroke-linecap="round"/>
<path d="M97.8917 172.914L97.7441 188.204" stroke="#0A102F" stroke-width="4.33351" stroke-miterlimit="10" stroke-linecap="round"/>
<path d="M90.4062 156.343L105.665 156.49" stroke="#0A102F" stroke-width="4.33351" stroke-miterlimit="10" stroke-linecap="round"/>
<path d="M98.1261 148.772L97.9785 164.062" stroke="#0A102F" stroke-width="4.33351" stroke-miterlimit="10" stroke-linecap="round"/>
<path d="M90.6406 132.2L105.9 132.347" stroke="#0A102F" stroke-width="4.33351" stroke-miterlimit="10" stroke-linecap="round"/>
<path d="M98.3605 124.629L98.2129 139.919" stroke="#0A102F" stroke-width="4.33351" stroke-miterlimit="10" stroke-linecap="round"/>
<path d="M90.8711 108.057L106.13 108.204" stroke="#0A102F" stroke-width="4.33351" stroke-miterlimit="10" stroke-linecap="round"/>
<path d="M98.5909 100.485L98.4434 115.775" stroke="#0A102F" stroke-width="4.33351" stroke-miterlimit="10" stroke-linecap="round"/>
<path d="M91.1055 83.915L106.365 84.0623" stroke="#0A102F" stroke-width="4.33351" stroke-miterlimit="10" stroke-linecap="round"/>
<path d="M98.8253 76.3439L98.6777 91.6338" stroke="#0A102F" stroke-width="4.33351" stroke-miterlimit="10" stroke-linecap="round"/>
<path d="M91.3379 59.7715L106.597 59.9187" stroke="#0A102F" stroke-width="4.33351" stroke-miterlimit="10" stroke-linecap="round"/>
<path d="M99.0577 52.2003L98.9102 67.4902" stroke="#0A102F" stroke-width="4.33351" stroke-miterlimit="10" stroke-linecap="round"/>
<path d="M91.5703 35.6289L106.829 35.7762" stroke="#0A102F" stroke-width="4.33351" stroke-miterlimit="10" stroke-linecap="round"/>
<path d="M99.2901 28.0577L99.1426 43.3477" stroke="#0A102F" stroke-width="4.33351" stroke-miterlimit="10" stroke-linecap="round"/>
<path d="M91.8047 11.4863L107.064 11.6336" stroke="#0A102F" stroke-width="4.33351" stroke-miterlimit="10" stroke-linecap="round"/>
<path d="M99.5245 3.91516L99.377 19.2051" stroke="#0A102F" stroke-width="4.33351" stroke-miterlimit="10" stroke-linecap="round"/>
</svg>
