<svg width="1138" height="886" viewBox="0 0 1138 886" fill="none" xmlns="http://www.w3.org/2000/svg">
<mask id="mask0_1_12012" style="mask-type:alpha" maskUnits="userSpaceOnUse" x="0" y="-355" width="1382" height="1352">
<g opacity="0.15">
<line x1="533.663" y1="-354.666" x2="0.505194" y2="536.529" stroke="#724FE5"/>
<line x1="586.921" y1="-322.804" x2="53.763" y2="568.392" stroke="#724FE5"/>
<line x1="640.181" y1="-290.943" x2="107.023" y2="600.253" stroke="#724FE5"/>
<line x1="693.439" y1="-259.08" x2="160.281" y2="632.115" stroke="#724FE5"/>
<line x1="746.699" y1="-227.218" x2="213.54" y2="663.978" stroke="#724FE5"/>
<line x1="799.958" y1="-195.356" x2="266.8" y2="695.84" stroke="#724FE5"/>
<line x1="853.216" y1="-163.493" x2="320.058" y2="727.702" stroke="#724FE5"/>
<line x1="906.474" y1="-131.632" x2="373.316" y2="759.564" stroke="#724FE5"/>
<line x1="959.734" y1="-99.7697" x2="426.576" y2="791.426" stroke="#724FE5"/>
<line x1="1012.99" y1="-67.9074" x2="479.833" y2="823.288" stroke="#724FE5"/>
<line x1="1066.25" y1="-36.046" x2="533.093" y2="855.149" stroke="#724FE5"/>
<line x1="1119.51" y1="-4.18373" x2="586.351" y2="887.012" stroke="#724FE5"/>
<line x1="1172.77" y1="27.6786" x2="639.609" y2="918.874" stroke="#724FE5"/>
<line x1="1226.03" y1="59.5409" x2="692.868" y2="950.736" stroke="#724FE5"/>
<line x1="1279.28" y1="91.4022" x2="746.126" y2="982.598" stroke="#724FE5"/>
<line x1="43.8797" y1="463.056" x2="935.075" y2="996.215" stroke="#724FE5"/>
<line x1="75.7411" y1="409.798" x2="966.937" y2="942.957" stroke="#724FE5"/>
<line x1="107.602" y1="356.54" x2="998.798" y2="889.698" stroke="#724FE5"/>
<line x1="139.466" y1="303.281" x2="1030.66" y2="836.439" stroke="#724FE5"/>
<line x1="171.327" y1="250.021" x2="1062.52" y2="783.179" stroke="#724FE5"/>
<line x1="203.188" y1="196.762" x2="1094.38" y2="729.921" stroke="#724FE5"/>
<line x1="235.05" y1="143.505" x2="1126.25" y2="676.663" stroke="#724FE5"/>
<line x1="266.913" y1="90.2457" x2="1158.11" y2="623.404" stroke="#724FE5"/>
<line x1="298.774" y1="36.9869" x2="1189.97" y2="570.145" stroke="#724FE5"/>
<line x1="330.638" y1="-16.2709" x2="1221.83" y2="516.887" stroke="#724FE5"/>
<line x1="362.499" y1="-69.5306" x2="1253.69" y2="463.628" stroke="#724FE5"/>
<line x1="394.36" y1="-122.788" x2="1285.56" y2="410.37" stroke="#724FE5"/>
<line x1="426.222" y1="-176.048" x2="1317.42" y2="357.11" stroke="#724FE5"/>
<line x1="458.085" y1="-229.307" x2="1349.28" y2="303.851" stroke="#724FE5"/>
<line x1="489.946" y1="-282.565" x2="1381.14" y2="250.593" stroke="#724FE5"/>
</g>
</mask>
<g mask="url(#mask0_1_12012)">
<rect x="514.775" y="-379.844" width="1097.85" height="1076.11" transform="rotate(30.89 514.775 -379.844)" fill="url(#paint0_radial_1_12012)"/>
</g>
<defs>
<radialGradient id="paint0_radial_1_12012" cx="0" cy="0" r="1" gradientUnits="userSpaceOnUse" gradientTransform="translate(1063.7 158.209) rotate(90) scale(538.053 548.923)">
<stop offset="0.197917" stop-color="#724FE5"/>
<stop offset="1" stop-color="#724FE5" stop-opacity="0"/>
</radialGradient>
</defs>
</svg>
