<svg width="72" height="106" viewBox="0 0 72 106" fill="none" xmlns="http://www.w3.org/2000/svg">
<path fill-rule="evenodd" clip-rule="evenodd" d="M26.6356 5.47583C26.6664 13.9928 23.7699 29.3991 46.0518 33.1228C32.2199 35.1192 26.9342 45.8103 26.6382 59.5237C26.299 49.1723 27.7187 37.2197 5.0271 33.9435C26.806 32.2215 26.5039 14.2285 26.6356 5.47583Z" fill="#FEF7E6" stroke="#0E0E0E" stroke-width="4.06452" stroke-miterlimit="1.5" stroke-linecap="round" stroke-linejoin="round"/>
<path fill-rule="evenodd" clip-rule="evenodd" d="M48.2601 47.0256C48.291 55.5426 42.4893 71.3565 64.7712 75.0802C50.9394 77.0766 48.5587 87.36 48.2627 101.073C47.9235 90.7216 47.2298 78.6783 31.4905 75.2237C46.7466 73.4031 46.4892 58.6483 48.2601 47.0256Z" fill="#FEF7E6" stroke="#0E0E0E" stroke-width="4.06452" stroke-miterlimit="1.5" stroke-linecap="round" stroke-linejoin="round"/>
<path d="M3 3C6.5964 7.16071 9.44795 11.987 13.1386 16.0579" stroke="#0E0E0E" stroke-width="4.06452" stroke-miterlimit="1.5" stroke-linecap="round" stroke-linejoin="round"/>
<path d="M37.9084 19.1365C40.6006 16.9178 43.1462 14.3917 45.3275 11.6648" stroke="#0E0E0E" stroke-width="4.06452" stroke-miterlimit="1.5" stroke-linecap="round" stroke-linejoin="round"/>
<path d="M14.061 47.8005C10.4421 51.1547 7.08141 54.8889 3.80835 58.5813" stroke="#0E0E0E" stroke-width="4.06452" stroke-miterlimit="1.5" stroke-linecap="round" stroke-linejoin="round"/>
<path d="M36.561 55.4927C36.956 56.0968 37.4326 56.6472 37.863 57.2268" stroke="#0E0E0E" stroke-width="4.06452" stroke-miterlimit="1.5" stroke-linecap="round" stroke-linejoin="round"/>
<path d="M32.0764 89.9471C32.9374 89.0896 33.8291 88.2632 34.677 87.3921" stroke="#0E0E0E" stroke-width="4.06452" stroke-miterlimit="1.5" stroke-linecap="round" stroke-linejoin="round"/>
<path d="M57.4089 62.0473C61.2194 58.5989 64.5339 54.8104 67.7422 50.8057" stroke="#0E0E0E" stroke-width="4.06452" stroke-miterlimit="1.5" stroke-linecap="round" stroke-linejoin="round"/>
<path d="M58.3379 90.2454C62.8303 93.0405 65.9567 98.7958 69.065 103" stroke="#0E0E0E" stroke-width="4.06452" stroke-miterlimit="1.5" stroke-linecap="round" stroke-linejoin="round"/>
</svg>
