<svg width="380" height="371" viewBox="0 0 380 371" fill="none" xmlns="http://www.w3.org/2000/svg">
<mask id="mask0_1_15800" style="mask-type:alpha" maskUnits="userSpaceOnUse" x="0" y="0" width="380" height="372">
<path d="M297.761 318.041L303.183 371.361L0.435692 371.361L0.435692 42.4048L41.1033 27.9452L70.9262 11.6782L111.594 0.833496L152.261 0.833496L189.314 22.5229L208.292 46.9234L211.907 77.6501L189.314 143.622L178.469 190.616L189.314 229.476L211.907 243.032L256.19 247.55L319.45 229.476H356.503H374.578L380 243.032L356.503 260.202L297.761 318.041Z" fill="white"/>
</mask>
<g mask="url(#mask0_1_15800)">
<path d="M294.514 -46.0028C310.438 -46.0028 315.215 -36.0902 320.718 -17.0921C321.062 -15.7792 321.143 -14.4115 320.958 -13.0671C320.773 -11.7226 320.325 -10.4279 319.64 -9.25684C318.919 -7.78639 317.648 -6.65949 316.102 -6.12071C309.45 -4.45686 302.627 -4.33588 296.025 -4.21488C286.955 -4.05354 278.368 -3.90226 269.942 -0.181283C267.148 1.21102 264.454 2.79464 261.879 4.55819C254.179 9.50939 245.461 15.1161 237.6 12.4943C232.308 10.7295 229.385 8.14809 228.902 4.82036C227.783 -2.89384 240.553 -11.8182 248.998 -17.7274C250.5 -18.7358 251.8 -19.6837 252.808 -20.4399C256.123 -23.0853 259.27 -25.9345 262.232 -28.971C269.458 -36.0297 277.662 -44.0969 287.307 -45.4582C289.694 -45.8101 292.102 -45.992 294.514 -46.0028ZM315.356 -9.05515C316.082 -9.42301 316.663 -10.0228 317.009 -10.7593C317.974 -12.4198 318.256 -14.3905 317.795 -16.2551C311.667 -37.502 307.475 -45.2767 287.68 -42.4734C279.013 -41.2431 271.554 -33.9121 264.298 -26.8231C261.244 -23.6905 257.995 -20.7535 254.572 -18.0299C253.564 -17.2433 252.203 -16.3257 250.682 -15.2568C243.798 -10.4467 230.998 -1.4922 231.845 4.37667C232.157 6.48421 234.394 8.23882 238.507 9.61025C244.997 11.7783 253.07 6.58507 260.196 2.00695C262.904 0.149314 265.744 -1.50886 268.692 -2.95438C277.682 -6.98795 286.965 -7.11903 295.904 -7.28037C302.375 -7.35096 309.037 -7.51231 315.356 -9.05515Z" fill="#F4B905" fill-opacity="0.2"/>
<path d="M26.5225 151.905C30.8703 151.93 35.1006 153.319 38.6168 155.878C51.7191 165.125 57.2019 187.431 58.2601 197.938C59.7215 212.59 54.0876 224.328 48.6451 235.662C45.7021 241.793 42.6685 248.126 40.7233 254.923C39.0905 260.63 38.9293 267.931 38.7075 275.655C38.2943 293.504 37.8206 313.732 18.2882 320.246C13.9544 321.699 12.241 320.841 10.5377 319.591C10.3261 319.44 10.1144 319.278 9.88263 319.127C9.7821 319.066 9.68762 318.995 9.60043 318.915L7.70563 316.979C7.63708 316.916 7.5762 316.845 7.52423 316.767C5.03479 313.067 6.10312 305.736 7.35287 301.974C12.6139 286.193 17.9859 267.336 17.9859 247.168C17.9859 237.568 13.6218 230.136 8.9957 222.261C1.54758 209.565 -6.89832 195.175 3.43228 169.32C7.02029 160.345 13.0372 154.567 20.818 152.621C22.6828 152.148 24.5988 151.908 26.5225 151.905ZM14.5591 317.988C15.5348 317.93 16.4963 317.726 17.4114 317.383C34.9281 311.534 35.3513 293.262 35.7646 275.585C35.946 267.659 36.1173 260.176 37.861 254.086C39.8767 247.027 42.9708 240.593 45.9239 234.361C51.4268 222.886 56.6274 212.056 55.2466 198.241C54.0775 186.584 48.1916 166.345 36.8833 158.359C34.7078 156.775 32.2042 155.7 29.5577 155.215C26.9112 154.73 24.1895 154.846 21.594 155.555C12.9969 157.703 8.49176 164.843 6.28455 170.449C-3.50183 194.923 4.19827 208.042 11.6464 220.728C16.2725 228.603 21.0497 236.741 21.0497 247.168C21.0497 267.77 15.5972 286.919 10.2656 302.932C9.11664 306.371 8.41113 312.401 10.0036 314.962L11.6766 316.667C11.9084 316.818 12.1302 316.979 12.3519 317.141C12.9596 317.683 13.7447 317.984 14.5591 317.988Z" fill="#F4B905" fill-opacity="0.2"/>
<path d="M299.109 88.7995C299.74 88.7973 300.37 88.8411 300.994 88.9307C305.711 89.6062 309.057 92.7827 310.912 98.3793C312.766 103.976 309.48 109.341 306.295 114.514C304.28 117.761 302.415 120.836 301.942 123.7C297.749 148.91 312.383 165.347 345.451 172.698L346.822 173.001C351.72 174.08 356.779 175.189 361.143 177.71C361.457 177.893 361.745 178.117 362 178.375C362.577 178.932 362.975 179.648 363.144 180.432C363.312 181.216 363.243 182.032 362.946 182.777C362.649 183.521 362.136 184.16 361.474 184.612C360.812 185.064 360.03 185.308 359.229 185.313C351.811 185.505 345.431 186.049 339.797 186.523C321.161 188.086 307.706 189.216 279.244 176.56C260.397 168.18 254.048 153.276 259.309 129.65C260.924 122.29 263.898 115.296 268.077 109.028C272.159 103.149 287.348 88.7995 299.109 88.7995ZM323.107 184.466C328.398 184.466 333.659 184.022 339.535 183.528C345.209 183.044 351.629 182.52 359.148 182.308C359.359 182.321 359.569 182.268 359.748 182.155C359.927 182.042 360.066 181.875 360.145 181.679C360.225 181.482 360.24 181.266 360.189 181.06C360.139 180.855 360.025 180.67 359.863 180.533C359.793 180.464 359.716 180.403 359.632 180.352C355.671 178.063 350.843 177.004 346.177 175.975L344.796 175.673C309.873 167.908 294.403 150.261 298.958 123.236C299.533 119.788 301.659 116.329 303.715 112.971C306.678 108.161 309.47 103.613 308.049 99.3574C306.558 94.8802 304.108 92.46 300.561 91.9457C290.543 90.5037 274.79 104.682 270.567 110.783C266.627 116.741 263.813 123.372 262.262 130.345C257.313 152.621 262.927 166.043 280.474 173.838C299.563 182.308 311.426 184.466 323.107 184.466Z" fill="#F4B905" fill-opacity="0.2"/>
<path d="M343.576 357.083C345.733 353.443 347.971 349.671 347.971 344.982C347.971 341.302 346.429 338.004 344.947 334.808C343.707 332.463 342.795 329.959 342.236 327.366C341.077 320.307 345.26 314.257 348.908 310.354C360.055 298.606 383.085 289.793 398.193 291.487C405.802 292.344 410.811 294.895 413.502 299.272C418.763 307.813 414.208 322.011 409.531 334.646C408.826 336.542 408.14 338.619 407.415 340.818C404.885 348.451 402.023 357.113 397.336 361.913C396.832 362.418 396.227 363.002 395.542 363.658C394.101 365.06 392.357 366.744 390.634 368.619H394.756C395.764 367.611 396.772 366.663 397.588 365.836C398.283 365.16 398.908 364.555 399.422 364.041C404.663 358.737 407.646 349.722 410.277 341.766C410.993 339.587 411.668 337.54 412.353 335.715C417.282 322.394 422.069 307.389 416.022 297.689C412.847 292.536 406.951 289.44 398.465 288.482C397.089 288.33 395.706 288.256 394.322 288.26C378.62 288.26 357.384 296.973 346.65 308.277C340.694 314.549 338.114 321.315 339.192 327.85C339.794 330.719 340.788 333.491 342.145 336.088C343.556 339.114 344.897 341.967 344.897 344.982C344.897 348.845 342.972 352.041 340.926 355.54C338.719 359.271 336.28 363.416 336.461 368.649H339.485C339.333 364.273 341.44 360.764 343.576 357.083Z" fill="#F4B905" fill-opacity="0.2"/>
<path d="M453.192 356.912C449.604 354.29 444.887 353.695 439.183 355.137C434.365 356.357 428.983 361.853 422.875 368.619H426.977C431.865 363.305 436.381 358.969 439.918 358.071C444.786 356.841 448.536 357.265 451.408 359.352C454.069 361.308 455.802 364.586 456.981 368.619H460.156C458.826 363.678 456.709 359.483 453.192 356.912Z" fill="#F4B905" fill-opacity="0.2"/>
<path d="M313.22 346.364C314.147 340.213 315.598 332.246 318.642 325.188C323.916 313.235 330.766 302.043 339.011 291.911C343.042 286.959 348.616 282.633 354.038 278.438C355.52 277.299 356.971 276.18 358.352 275.06C363.25 271.088 368.874 268.108 374.911 266.287C407.959 256.294 423.147 283.047 437.832 308.922C449.07 328.707 459.682 347.443 477.683 349.651C486.754 350.781 495.754 349.722 504.714 347.735V344.629C495.814 346.646 486.875 347.755 478.056 346.646C461.557 344.629 451.307 326.539 440.462 307.43C428.015 285.497 414.147 261.044 388.285 261.044C383.444 261.092 378.636 261.849 374.014 263.292C367.604 265.217 361.633 268.379 356.437 272.6C355.066 273.699 353.625 274.808 352.163 275.948C346.6 280.243 340.855 284.68 336.632 289.904C328.211 300.272 321.215 311.722 315.83 323.947C312.645 331.369 311.153 339.587 310.206 345.92C308.927 353.426 308.845 361.088 309.964 368.619H312.988C311.919 362.438 311.879 355.147 313.22 346.364Z" fill="#F4B905" fill-opacity="0.2"/>
<path d="M0.781494 49.9662C4.5441 50.2528 8.32114 50.2999 12.0897 50.1074C32.4083 48.9074 50.6506 39.0151 68.2983 29.4958C81.0377 22.6085 94.2206 15.4791 107.918 11.8287C141.671 2.81365 168.722 13.3917 186.128 42.4234C191.661 51.6402 195.501 58.9107 194.604 68.7324C193.324 82.85 188.194 94.9508 182.762 107.707C180.06 114.06 177.269 120.635 174.991 127.482C171.856 136.9 171.383 145.925 170.879 155.485C170.718 158.51 170.556 161.737 170.284 164.903C169.821 170.56 168.027 176.288 166.253 181.824C164.817 186.101 163.645 190.462 162.745 194.883C159.974 210.109 167.593 237.134 178.135 249.427C191.439 264.966 210.71 271.672 235.402 269.363C260.498 267.013 283.296 256.082 294.655 249.77C311.536 240.382 341.42 226.577 351.791 239.545C352.424 240.317 352.887 241.216 353.147 242.18C353.408 243.145 353.461 244.154 353.302 245.141C352.426 252.099 343.738 260.267 338.749 264.038C334.858 266.953 330.686 269.857 326.654 272.66C306.941 286.354 286.562 300.522 282.58 326.418C280.091 342.633 281.825 355.48 286.854 368.579H290.119C284.939 355.54 283.064 342.885 285.574 326.882C289.394 302.307 309.188 288.522 328.418 275.181C332.45 272.368 336.673 269.443 340.603 266.499C342.085 265.38 355.096 255.407 356.346 245.565C356.554 244.176 356.469 242.758 356.098 241.404C355.727 240.05 355.076 238.788 354.189 237.699C348.646 230.761 338.255 229.481 323.288 233.898C314.51 236.489 304.401 240.956 293.224 247.168C282.046 253.38 259.712 264.099 235.16 266.388C211.506 268.607 193.102 262.244 180.464 247.501C170.587 235.975 163.169 209.706 165.759 195.468C166.64 191.17 167.781 186.931 169.176 182.772C170.959 177.074 172.804 171.185 173.298 165.196C173.57 161.979 173.741 158.772 173.902 155.676C174.386 146.328 174.85 137.525 177.863 128.45C180.101 121.724 182.903 115.209 185.543 108.917C190.824 96.4734 196.297 83.6063 197.638 69.0249C198.645 58.3157 194.382 50.2788 188.748 40.8907C174.769 17.5867 154.874 5.66741 130.423 5.66741C122.56 5.73238 114.74 6.82738 107.162 8.92452C93.112 12.6657 79.7779 19.8858 66.847 26.8538C49.4916 36.242 31.5717 45.9528 11.8982 47.1024C8.20352 47.2929 4.5004 47.2457 0.811706 46.9612L0.781494 49.9662Z" fill="#F4B905" fill-opacity="0.2"/>
<path d="M0.781494 100.063C16.6525 94.7504 32.0303 88.0629 46.7401 80.0769C51.9597 77.1389 56.9767 73.8543 61.7573 70.245C66.9276 66.5241 72.2693 62.672 77.9738 59.8182C96.0549 50.7427 128.851 50.7427 144.029 64.235C164.67 82.5979 158.653 105.176 152.838 127.018C150.621 135.327 146.902 145.663 142.951 156.614C129.385 194.288 112.493 241.178 131.038 269.01C151.689 299.998 197.214 298.314 232.933 286.405C235.775 285.457 239.303 283.864 243.012 282.169C254.552 276.956 270.325 269.796 279.033 276.331C281.643 278.287 283.064 280.364 283.387 282.603C284.012 287.06 280.293 291.981 276.705 296.721C275.294 298.576 273.963 300.341 272.865 302.105C271.393 304.455 269.841 306.825 268.228 309.336C257.898 325.298 246.176 343.379 248.323 362.781C248.549 364.752 248.923 366.704 249.442 368.619H252.576C251.989 366.594 251.571 364.523 251.327 362.428C249.311 344.135 260.71 326.539 270.768 310.999C272.401 308.478 273.943 306.099 275.425 303.729C276.432 302.075 277.753 300.371 279.113 298.556C283.084 293.312 287.176 287.887 286.38 282.18C285.947 279.154 284.082 276.341 280.847 273.911C270.768 266.307 254.642 273.578 241.782 279.417C238.124 281.07 234.677 282.633 231.986 283.531C197.325 295.087 153.261 296.902 133.558 267.326C115.859 240.765 132.459 194.671 145.803 157.643C149.764 146.631 153.513 136.224 155.761 127.794C161.808 105.075 168.077 81.5694 146.035 61.9762C138.375 55.1595 126.261 51.0956 111.949 50.5309C110.84 50.5309 109.732 50.4603 108.623 50.4603C96.831 50.4603 85.0793 52.8906 76.6233 57.1157C70.697 60.0804 65.2546 64.0031 59.9935 67.7946C55.3189 71.3209 50.4167 74.5346 45.319 77.4148C31.0492 85.1489 16.15 91.6595 0.781494 96.8768V100.063Z" fill="#F4B905" fill-opacity="0.2"/>
<path d="M0.781494 368.619H1.02325C1.02325 364.586 3.30106 360.653 7.72559 356.781C27.9937 339.073 55.3976 342.058 81.9246 344.952C94.8757 346.364 108.26 347.826 120.344 346.727C130.957 345.719 140.038 340.838 148.827 336.088C157.615 331.339 165.708 326.942 175.374 325.873C188.002 324.462 201.578 325.541 211.657 328.737C225.414 333.103 233.104 341.05 234.515 352.364C235.201 357.819 234.152 363.113 232.842 368.619H235.946C237.206 363.224 238.234 357.688 237.519 351.981C234.606 328.475 207.857 322.233 186.601 322.233C182.74 322.233 178.881 322.442 175.041 322.858C164.791 323.998 155.942 328.788 147.385 333.426C138.476 338.246 130.06 342.804 120.072 343.712C108.29 344.781 95.6416 343.409 82.2572 341.947C55.0448 338.982 26.9657 335.897 5.73001 354.512C3.83783 356.125 2.17313 357.987 0.781402 360.048L0.781494 368.619Z" fill="#F4B905" fill-opacity="0.2"/>
<path d="M129.929 368.619C131.703 368.034 133.527 367.429 135.402 366.784C151.034 361.5 168.752 355.5 182.772 363.9C184.856 365.083 186.669 366.691 188.093 368.619H191.701C189.968 365.531 187.401 362.994 184.293 361.298C178.9 358.143 172.741 356.541 166.495 356.67C155.851 356.67 144.715 360.441 134.434 363.92C131.199 365.019 128.135 366.058 125.192 366.945C122.68 367.675 120.12 368.234 117.532 368.619H129.929Z" fill="#F4B905" fill-opacity="0.2"/>
<path d="M0.781402 296.015C0.902343 295.611 1.04343 295.198 1.16437 294.784C4.97412 281.433 4.39963 266.549 0.781402 251.797V296.015Z" fill="#F4B905" fill-opacity="0.2"/>
<path d="M0.781494 114.302L2.33359 113.888C9.38864 111.952 15.7382 108.251 21.8358 104.682C24.8594 102.937 27.883 101.122 31.0275 99.5692C49.0481 90.5542 91.1869 79.7139 106.96 95.5356C142.991 131.545 120.596 187.542 104.249 228.452C103.07 231.477 101.568 234.371 99.9856 237.528C96.8612 243.689 93.6361 250.062 92.7895 256.818C91.2575 269.08 101.266 275.978 110.094 282.119C120.304 289.178 129.123 295.228 122.773 307.984C121.09 311.362 118.43 314.539 115.849 317.625C115.043 318.633 114.237 319.551 113.471 320.509C109.701 325.228 102.747 324.169 96.6193 323.241C95.551 323.08 94.523 322.919 93.5353 322.798C80.1206 321.114 48.6954 315.124 46.5385 295.702C44.9461 281.413 51.6585 270.936 58.7538 259.854C61.6542 255.481 64.3253 250.961 66.7563 246.311C69.0139 241.743 71.2212 237.528 73.3477 233.494C87.5284 206.661 96.8914 188.933 77.1172 154.315C72.4104 146.066 62.2814 131.566 47.3549 127.088C35.059 123.398 17.7942 125.556 0.771392 132.13V135.458C17.5322 128.792 34.7264 126.443 46.4882 129.972C60.4068 134.147 70.0117 147.952 74.4967 155.807C93.4446 188.984 84.8777 205.219 70.6769 232.072C68.5301 236.106 66.3129 240.341 64.0351 244.889C61.6644 249.451 59.0538 253.884 56.214 258.17C49.159 269.262 41.8419 280.637 43.5452 295.984C45.9338 317.544 79.0422 323.977 93.1624 325.742C94.1702 325.863 95.1781 326.025 96.186 326.176C102.777 327.184 110.991 328.435 115.859 322.344C116.605 321.406 117.391 320.468 118.188 319.51C121.01 316.396 123.462 312.964 125.495 309.285C133.023 294.23 122.249 286.778 111.838 279.578C102.929 273.406 94.5028 267.588 95.8131 257.141C96.5891 250.909 99.6933 244.778 102.707 238.849C104.249 235.824 105.841 232.647 107.081 229.561C123.741 187.884 146.559 130.819 109.097 93.3575C102.606 86.8533 92.346 84.413 81.0579 84.413C62.6946 84.413 41.6201 90.8869 29.6568 96.8566C26.4518 98.4599 23.3173 100.295 20.2937 102.07C14.3675 105.549 8.19937 109.129 1.51724 110.964L0.761322 111.176L0.781494 114.302Z" fill="#F4B905" fill-opacity="0.2"/>
<path d="M0.781372 -102.412C4.67172 -103.27 8.552 -104.096 12.3718 -104.903C30.5637 -108.765 47.7378 -112.416 59.2375 -118.174C67.8644 -122.482 75.5969 -128.388 82.0253 -135.579H77.8528C72.084 -129.575 65.3314 -124.602 57.887 -120.876C46.7299 -115.3 29.7373 -111.69 11.7469 -107.868C8.12869 -107.101 4.46005 -106.315 0.781372 -105.508V-102.412Z" fill="#F4B905" fill-opacity="0.2"/>
<path d="M194.12 -124.789C197.597 -107.404 215.003 -102.412 230.403 -98.0158C241.933 -94.7083 252.828 -91.5923 255.67 -83.8378C258.029 -77.4345 254.945 -67.9656 246.237 -54.8968C242.255 -48.7551 236.681 -43.8097 230.111 -40.5877C221.484 -36.2717 213.844 -29.8785 206.769 -21.0349C204.552 -18.2719 202.989 -14.7627 201.477 -11.3745C197.879 -3.30729 194.422 4.39684 182.54 4.39684C180.754 4.38595 178.971 4.23763 177.208 3.95315C168.137 2.56155 163.421 -1.75437 158.411 -6.32243C150.802 -13.2702 142.931 -20.4399 120.042 -16.6383C96.6999 -12.7459 71.6645 -1.57285 49.4915 8.27917L45.581 10.0237C40.9196 12.2108 36.3898 14.6688 32.0151 17.385C24.7686 21.6908 17.2701 26.158 8.83426 27.8319C6.12311 28.3765 3.4119 28.7798 0.771301 29.0521V32.0773C3.65381 31.7849 6.55649 31.3613 9.46921 30.7764C18.3787 29.0017 26.0989 24.4034 33.5672 19.9665C37.8405 17.3093 42.266 14.9052 46.8207 12.7665L50.7413 11.022C72.6825 1.24056 97.5667 -9.85178 120.536 -13.6736C141.953 -17.2534 148.958 -10.8703 156.365 -4.10392C161.485 0.564933 166.777 5.38506 176.734 6.92791C195.34 9.80184 200.066 -0.806497 204.229 -10.1644C205.483 -13.3554 207.124 -16.3799 209.117 -19.1693C215.92 -27.66 223.227 -33.7911 231.451 -37.9054C238.471 -41.3755 244.433 -46.6649 248.716 -53.2228C258.13 -67.3404 261.234 -77.4244 258.482 -84.8865C255.106 -94.073 243.495 -97.4007 231.21 -100.92C215.971 -105.286 200.208 -109.804 197.093 -125.384C196.424 -128.749 195.976 -132.155 195.753 -135.579H192.729C192.956 -131.955 193.421 -128.351 194.12 -124.789Z" fill="#F4B905" fill-opacity="0.2"/>
<path d="M0.781585 -75.2664C3.93619 -76.6076 7.05051 -77.9588 10.1144 -79.3C29.6871 -87.8008 48.1714 -95.8276 69.9514 -100.194C81.5922 -102.523 95.1479 -104.833 97.4056 -104.611C105.065 -99.3166 115.547 -81.0747 117.563 -72.8967C121.907 -55.522 105.206 -43.3204 91.7817 -33.5188C89.514 -31.855 87.3672 -30.292 85.3918 -28.7491C77.9437 -22.9609 70.0924 -21.9727 61.7776 -20.924C56.5393 -20.434 51.3633 -19.4206 46.327 -17.8988C40.0508 -15.6186 33.933 -12.9236 28.0141 -9.83161C20.7071 -6.22157 13.1582 -2.49052 5.69995 -0.624978C4.09744 -0.221627 2.44455 0.0808936 0.771484 0.332999V3.35818C2.67709 3.09341 4.56772 2.72991 6.43567 2.26913C14.2063 0.322928 21.9064 -3.47874 29.3546 -7.15937C35.1497 -10.1858 41.1396 -12.8235 47.2845 -15.0551C52.1338 -16.5197 57.1172 -17.496 62.1605 -17.9694C70.5157 -19.0282 79.1431 -20.1173 87.2463 -26.4197C89.1814 -27.9222 91.2777 -29.4449 93.5656 -31.1289C107.676 -41.465 125.333 -54.322 120.496 -73.6832C118.278 -82.5772 107.484 -101.565 98.8871 -107.303C98.7057 -107.424 98.4134 -107.616 97.0528 -107.616C94.382 -107.616 87.5587 -106.849 69.3567 -103.209C47.2542 -98.7822 28.6289 -90.6948 8.88483 -82.1235L0.751342 -78.6143L0.781585 -75.2664Z" fill="#F4B905" fill-opacity="0.2"/>
<path d="M0.781463 -53.6867C4.44 -55.0884 8.05823 -56.5405 11.6462 -57.9724C26.6332 -64.0228 42.1442 -70.2244 58.5926 -71.7169C69.8303 -72.7253 76.593 -71.4143 77.1574 -68.0866C78.3568 -61.0279 57.0707 -45.1053 44.5127 -41.9591C32.499 -38.9339 19.7494 -35.5255 7.89697 -30.786C6.11307 -30.0701 3.66394 -29.1827 0.781463 -28.2046V-25.0483C4.51056 -26.2886 7.43338 -27.3374 9.01572 -27.9727C20.7069 -32.6516 33.3355 -36.0398 45.2484 -39.065C57.1614 -42.0902 81.8239 -58.6783 80.1306 -68.6311C79.2135 -74.0664 71.8158 -75.1656 65.567 -75.1656C62.624 -75.1656 59.9431 -74.9236 58.3205 -74.7723C41.4286 -73.2395 25.716 -66.927 10.5174 -60.8262C7.30234 -59.5354 4.05701 -58.2346 0.781463 -56.964V-53.6867Z" fill="#F4B905" fill-opacity="0.2"/>
<path d="M34.8776 -135.579H35.0489C36.6449 -135.2 38.309 -135.218 39.8968 -135.629L34.8776 -135.579Z" fill="#F4B905" fill-opacity="0.2"/>
<path d="M0.781463 -126.846C4.11066 -128.815 6.72382 -131.797 8.23965 -135.357C8.2677 -135.429 8.29126 -135.503 8.31021 -135.579H5.02457C4.00891 -133.599 2.55826 -131.875 0.781463 -130.537V-126.846Z" fill="#F4B905" fill-opacity="0.2"/>
<path d="M126.563 -96.12C134.434 -90.2209 139.312 -84.4731 143.404 -76.2748C146.972 -69.1353 148.867 -61.522 150.701 -54.1607C153.04 -44.7423 155.468 -35.0012 161.405 -26.087C163.884 -22.366 167.775 -20.2181 172.975 -19.6937C182.399 -18.766 192.85 -23.4954 194.594 -25.2399C197.839 -28.4869 200.863 -31.139 203.534 -33.4785C211.435 -40.4163 217.14 -45.428 220.294 -58.0531C222.774 -67.9555 210.7 -75.0446 197.92 -82.547C186.974 -88.9806 175.656 -95.6561 174.023 -103.804C173.126 -107.999 174.134 -117.427 175.142 -128.298C175.374 -130.647 175.616 -133.088 175.848 -135.579H172.824C172.602 -133.189 172.37 -130.849 172.149 -128.59C171.01 -117.004 170.133 -107.848 171.03 -103.209C172.935 -93.6999 184.848 -86.7117 196.368 -79.9353C208.15 -73.0278 219.266 -66.4934 217.341 -58.759C214.419 -47.0515 209.278 -42.544 201.518 -35.7272C198.817 -33.3575 195.753 -30.6852 192.447 -27.3474C191.318 -26.2181 183.124 -22.5777 175.434 -22.5777C174.699 -22.5777 173.973 -22.5777 173.257 -22.6786C169.014 -23.1021 165.86 -24.8063 163.904 -27.7206C158.26 -36.1911 156.013 -45.2465 153.624 -54.8363C151.749 -62.3589 149.824 -70.1337 146.105 -77.5756C141.782 -86.2277 136.642 -92.2881 128.377 -98.4897C119.659 -105.024 121.201 -121.622 123.6 -135.528H120.576C118.067 -120.997 116.635 -103.572 126.563 -96.12Z" fill="#F4B905" fill-opacity="0.2"/>
<path d="M208.19 36.0302C221.222 44.7226 241.097 33.005 260.317 21.7513C271.141 15.3883 281.371 9.38839 289.021 7.99682C309.299 4.30608 327.713 5.33465 349.1 7.99682C353.534 8.55144 358.594 10.4875 363.935 12.5346C373.359 16.1446 383.085 19.8656 391.642 17.0119C401.236 13.8153 403.867 -5.17283 405.973 -20.4197C406.981 -27.3575 407.848 -33.9222 409.188 -36.6751C409.753 -37.3205 412.988 -39.0348 416.102 -40.7087C430.847 -48.5641 461.527 -64.9102 472.301 -93.9419C475.96 -103.794 479.225 -116.036 471.948 -123.306C462.877 -132.382 444.222 -123.508 433.075 -118.214C431.261 -117.347 429.688 -116.601 428.408 -116.056C404.663 -105.871 371.595 -96.1099 348.958 -107.434C337.61 -113.111 326.161 -124.315 317.634 -135.599H313.814C322.714 -123.316 335.07 -111.004 347.608 -104.732C355.248 -100.91 363.956 -99.3569 373.067 -99.3569C392.216 -99.3569 413.119 -106.204 429.598 -113.273C430.928 -113.838 432.521 -114.604 434.375 -115.481C444.806 -120.432 462.263 -128.721 469.812 -121.169C475.859 -115.118 472.835 -104.026 469.469 -95.0007C459.088 -67.0076 429.124 -51.0447 414.681 -43.3608C408.957 -40.3356 407.112 -39.3272 406.508 -38.0768C404.935 -34.9205 404.028 -28.3861 402.98 -20.8231C401.085 -7.15937 398.495 11.5564 390.684 14.1581C383.165 16.669 373.943 13.1497 365.024 9.72115C359.491 7.60354 354.28 5.60692 349.483 5.00188C327.803 2.29937 309.168 1.26073 288.477 5.00188C280.303 6.48421 269.851 12.6254 258.785 19.1194C241.228 29.4353 221.322 41.1327 209.873 33.4991C200.429 27.1967 207.434 13.6741 212.07 4.72964C212.554 3.8019 213.008 2.92458 213.411 2.11785C219.397 -9.86189 237.045 -31.8045 250.006 -37.5625L251.81 -38.3591C264.288 -43.865 285.161 -53.0817 287.217 -67.5017C289.958 -86.6613 272.542 -100.325 254.108 -114.755C245.582 -121.421 236.975 -128.187 230.363 -135.599H226.332C233.316 -127.179 242.901 -119.676 252.234 -112.406C269.962 -98.5402 286.703 -85.4411 284.213 -67.9757C282.389 -55.2094 261.698 -46.0734 250.581 -41.1726L248.767 -40.3658C235.009 -34.2448 217.029 -11.9392 210.7 0.726279L209.379 3.29769C204.562 12.6556 196.499 28.2252 208.19 36.0302Z" fill="#F4B905" fill-opacity="0.2"/>
<path d="M275.132 -125.868C279.355 -119.948 283.105 -113.394 286.733 -107.051C288.99 -103.108 291.329 -98.9839 293.788 -95.1519C298.122 -88.2142 300.057 -80.2277 301.921 -72.4933C303.998 -63.9623 306.134 -55.1388 311.496 -47.6263C318.924 -37.2095 328.811 -32.5003 338.366 -27.8617C344.161 -25.0685 350.168 -22.1744 355.711 -18.0198C357.505 -16.6686 359.48 -14.0467 361.567 -11.2736C366.808 -4.29554 373.339 4.38674 382.52 -0.181283C387.277 -2.5611 390.17 -5.48545 391.359 -9.12574C393.375 -15.1761 389.958 -21.7509 386.985 -27.529C384.667 -32.0163 382.48 -36.2718 383.699 -38.7222C385.846 -43.0179 392.307 -45.0448 398.011 -46.7893C400.653 -47.5307 403.234 -48.4746 405.731 -49.6128C410.831 -52.1641 455.449 -75.1151 450.894 -94.7688C450.747 -95.6259 450.379 -96.4296 449.825 -97.1001C449.272 -97.7706 448.553 -98.2845 447.739 -98.5906C441.571 -100.87 428.721 -91.9654 414.974 -81.8411C412.547 -79.9427 410.02 -78.1755 407.404 -76.5471C388.598 -67.1488 361.143 -61.5321 345.31 -71.4345C315.769 -89.9083 308.765 -102.997 298.162 -122.802C296.045 -126.755 293.788 -130.97 291.198 -135.518H287.71C290.653 -130.416 293.163 -125.737 295.501 -121.4C305.943 -101.888 313.482 -87.7907 343.707 -68.8832C350.369 -64.7286 358.362 -63.1253 366.606 -63.1253C382.299 -63.1253 398.858 -68.9236 408.755 -73.8647C411.551 -75.5537 414.244 -77.4092 416.818 -79.421C425.475 -85.8041 441.591 -97.6729 446.741 -95.7671C447.083 -95.6311 447.381 -95.4042 447.603 -95.1109C447.825 -94.8176 447.963 -94.4691 448.001 -94.1032C451.277 -79.9857 420.93 -60.5942 404.431 -52.3355C402.073 -51.2789 399.641 -50.3959 397.154 -49.6935C390.886 -47.7271 383.77 -45.4985 381.029 -40.0532C379.114 -36.2314 381.643 -31.3205 384.324 -26.1172C387.005 -20.9139 390.099 -14.924 388.507 -10.0434C387.59 -7.21989 385.191 -4.87031 381.2 -2.8737C374.77 0.353171 370.023 -5.0619 364.006 -13.0484C361.789 -16.003 359.692 -18.7962 357.555 -20.3996C351.78 -24.7357 345.643 -27.6903 339.706 -30.544C330.071 -35.1827 320.97 -39.5591 313.985 -49.3406C308.946 -56.3993 306.991 -64.5371 304.915 -73.1689C302.99 -81.1352 300.994 -89.3637 296.398 -96.715C294.01 -100.537 291.692 -104.591 289.454 -108.513C285.785 -114.917 281.996 -121.542 277.682 -127.582C275.568 -130.389 273.239 -133.029 270.718 -135.478L270.657 -135.538H266.444C267.14 -134.802 267.855 -134.076 268.551 -133.36C270.928 -131.03 273.128 -128.526 275.132 -125.868Z" fill="#F4B905" fill-opacity="0.2"/>
<path d="M422.855 -132.331C427.046 -132.801 431.143 -133.895 435.01 -135.579H424.508C423.873 -135.478 423.238 -135.387 422.613 -135.347C416.725 -134.912 410.81 -134.99 404.935 -135.579H387.076C398.756 -132.614 410.832 -131.518 422.855 -132.331Z" fill="#F4B905" fill-opacity="0.2"/>
<path d="M433.266 26.5714C436.451 28.2857 439.455 29.9092 442.136 31.5227C447.77 35.0401 453.158 38.9382 458.261 43.1898C470.739 53.1225 482.541 62.5107 504.714 61.0586V58.0334C483.549 59.4653 472.704 50.8234 460.156 40.8201C454.944 36.4881 449.445 32.5127 443.698 28.921C440.946 27.2773 437.913 25.6437 434.697 23.879C427.179 19.8454 419.398 15.6304 414.722 10.9514C413.825 10.0539 414.006 6.41363 414.097 4.65902C414.097 4.00356 414.157 3.40859 414.157 2.93465C414.157 -9.66019 417.493 -20.7122 433.77 -33.7507C436.794 -36.1709 440.473 -37.5625 444.363 -39.0247C448.586 -40.628 452.96 -42.2818 456.528 -45.3977C483.246 -68.7622 511.658 -103.108 498.102 -135.579H494.796C508.856 -104.419 480.817 -70.658 454.482 -47.6464C451.337 -44.8834 447.427 -43.4011 443.244 -41.828C439.303 -40.3356 435.181 -38.8028 431.835 -36.0801C419.378 -26.1071 411.083 -15.6601 411.083 2.96493C411.083 3.39855 411.083 3.97332 411.023 4.53802C410.872 7.56322 410.69 11.2741 412.535 13.1194C417.574 18.111 425.546 22.4068 433.266 26.5714Z" fill="#F4B905" fill-opacity="0.2"/>
<path d="M504.714 -54.3321V-57.7304C504.042 -58.1333 503.419 -58.6139 502.859 -59.1623C502.114 -59.9186 501.852 -61.6228 502.275 -63.9522C502.784 -66.6295 503.603 -69.2386 504.714 -71.7269V-78.6748C502.114 -73.8244 499.957 -68.5404 499.292 -64.4363C498.737 -61.0178 499.221 -58.527 500.723 -57.0245C501.881 -55.8943 503.233 -54.9822 504.714 -54.3321Z" fill="#F4B905" fill-opacity="0.2"/>
<path d="M471.343 13.5833C473.359 16.9917 475.435 20.5211 479.507 22.9614C485.474 26.5412 494.333 28.5681 504.704 28.7899V25.7647C495.573 25.5429 486.885 23.879 481.049 20.3799C477.643 18.3631 475.849 15.3379 473.944 12.0506C472.883 10.1518 471.688 8.33196 470.366 6.60522C462.787 -2.8737 460.086 -10.5375 462.303 -16.1845C466.556 -26.7727 487.258 -29.8785 504.633 -32.1878V-35.2129C486.361 -32.7827 464.399 -29.5558 459.471 -17.2837C456.729 -10.4568 459.471 -2.01655 467.927 8.53127C469.185 10.1314 470.327 11.8197 471.343 13.5833Z" fill="#F4B905" fill-opacity="0.2"/>
<path d="M243.677 223.874C245.773 224.651 247.708 225.528 249.603 226.375C254.179 228.442 258.503 230.409 264.338 230.913C279.305 232.274 297.598 229.43 316.918 226.425C350.46 221.202 385.151 215.817 410.206 230.136C428.529 240.613 437.52 259.007 446.217 276.785C454.683 294.079 462.666 310.415 478.469 319.914C485.816 324.33 495.059 325.964 504.674 325.702V322.677C496.359 322.888 487.318 321.668 479.971 317.312C464.913 308.236 457.112 292.324 448.858 275.443C439.959 257.292 430.716 238.445 411.627 227.504C385.645 212.651 348.848 218.429 316.374 223.471C297.225 226.496 279.083 229.269 264.53 227.938C259.198 227.454 255.096 225.609 250.762 223.662C248.837 222.795 246.842 221.898 244.665 221.081C223.761 213.236 212.1 205.683 205.66 195.81C198.525 184.869 197.275 170.328 201.629 148.648C203.907 137.283 208.402 128.319 213.159 118.83C216.421 112.617 219.319 106.22 221.836 99.67C223.402 95.0808 224.724 90.4122 225.797 85.6836C228.196 75.9425 230.675 65.8787 237.186 58.4569C256.164 36.7462 284.475 24.3833 319.055 22.6891C348.505 21.2572 381.543 27.8824 409.682 40.8403C420.053 45.5797 429.93 51.983 439.455 58.2149C452.305 66.5846 465.518 75.2366 480.525 80.2181C487.58 82.5777 495.764 83.3239 504.714 82.4769V79.4517C496.046 80.2988 488.195 79.603 481.452 77.3542C466.848 72.4837 453.756 63.9426 441.138 55.6838C431.492 49.4116 421.565 42.9075 410.982 38.0268C384.647 25.974 356.066 19.6171 327.108 19.3715C324.353 19.3715 321.629 19.4387 318.934 19.5732C283.518 21.2975 254.431 34.0235 234.939 56.3696C227.944 64.356 225.374 74.7929 222.895 84.8769C221.848 89.5002 220.556 94.0646 219.025 98.5507C216.549 105.004 213.698 111.307 210.488 117.428C205.852 126.685 201.044 136.245 198.696 148.012C194.191 170.53 195.582 185.767 203.181 197.424C209.994 207.881 222.088 215.787 243.677 223.874Z" fill="#F4B905" fill-opacity="0.2"/>
<path d="M289.323 203.242C302.355 206.499 315.427 204.432 328.075 202.436C331.855 201.841 335.755 201.226 339.565 200.762C342.76 200.378 345.975 199.975 349.2 199.572C375.153 196.315 401.982 192.947 427.411 198.725C447.89 203.353 472.22 220.748 477.502 241.793C478.892 247.36 478.711 253.894 478.509 260.953C478.096 275.796 477.622 292.626 494.998 299.151C498.118 300.258 501.404 300.821 504.714 300.815V297.789C501.76 297.794 498.827 297.285 496.046 296.287C480.696 290.519 481.1 276.19 481.523 260.993C481.714 254.126 481.906 247.037 480.414 241.057C477.108 227.837 467.544 217.864 460.096 211.814C450.612 204.089 438.931 198.251 428.076 195.78C402.133 189.881 375.032 193.279 348.827 196.567C345.602 196.98 342.387 197.373 339.212 197.757C335.342 198.221 331.412 198.846 327.602 199.451C315.255 201.397 302.486 203.414 290.059 200.308C277.229 197.101 263.985 188.752 254.632 177.972C244.362 166.154 239.696 152.762 241.53 140.208C244.342 120.473 255.469 103.22 274.608 88.9407C308.876 63.3981 359.269 54.857 391.42 59.6166C405.943 61.7443 419.499 68.6014 432.621 75.1761C437.55 77.6669 442.7 80.2181 447.739 82.5273C455.651 86.087 462.706 92.6113 470.184 99.4885C480.525 109.139 491.249 118.981 504.714 120.756V117.67C492.277 115.814 482.107 106.436 472.2 97.3608C464.883 90.6046 457.304 83.6164 448.949 79.8551C443.909 77.6064 438.87 75.045 433.982 72.5644C420.648 65.8283 406.87 58.8602 391.823 56.6317C359.057 51.7813 307.646 60.4838 272.754 86.5206C253.231 101.092 241.389 119.515 238.486 139.794C236.582 153.206 241.51 167.475 252.345 179.969C262.091 191.142 275.929 199.854 289.323 203.242Z" fill="#F4B905" fill-opacity="0.2"/>
<path d="M363.401 168.493C369.801 171.054 376.503 173.535 382.964 175.925C395.864 180.715 409.269 185.666 421.061 191.545C424.81 193.421 429.729 193.229 434.486 193.037C437.172 192.83 439.872 192.881 442.549 193.189C449.483 194.348 457.979 199.068 464.611 203.041C476.302 210.099 490.493 227.02 493.013 242.176C493.567 245.474 493.859 248.993 494.182 252.714C495.099 263.746 496.147 276.079 504.714 283.087V278.872C498.878 272.428 498.012 262.314 497.175 252.442C496.853 248.66 496.54 245.091 495.976 241.672C493.305 225.659 478.419 207.8 466.143 200.439C459.289 196.325 450.471 191.434 443.022 190.194C440.136 189.849 437.223 189.784 434.325 190.002C429.95 190.174 425.425 190.355 422.371 188.832C410.479 182.883 397.024 177.901 384.012 173.081C377.562 170.691 370.91 168.221 364.52 165.67C352.103 160.698 330.777 143.112 334.284 127.219C336.703 116.309 346.036 108.715 353.433 104.278C362.479 98.9917 372.422 95.4194 382.762 93.7407C409.864 89.5659 452.607 112.426 483.811 129.105C490.201 132.524 496.228 135.74 501.338 138.302C502.476 138.876 503.605 139.431 504.714 139.976V136.597L502.698 135.589C497.659 133.048 491.612 129.831 485.252 126.433C456.286 110.944 417.513 90.2113 389.606 90.2113C387.167 90.2015 384.73 90.3801 382.319 90.7457C364.419 93.4986 336.088 105.307 331.371 126.564C327.41 144.362 349.765 163.038 363.401 168.493Z" fill="#F4B905" fill-opacity="0.2"/>
<path d="M430.071 177.024L432.087 177.558L438.356 179.232C456.195 183.972 480.626 190.456 492.781 200.852C497.256 204.765 501.549 211.511 504.714 218.489V211.723C501.821 206.489 498.364 201.74 494.635 198.614C481.987 187.774 457.173 181.179 439.051 176.369C436.844 175.784 434.748 175.229 432.803 174.695L430.787 174.16C420.124 171.317 410.912 168.856 413.28 155.828C414.288 150.554 417.483 145.935 422.664 142.466C430.475 137.233 442.388 134.964 451.64 136.95C466.284 140.026 480.525 151.703 494.242 163.007C497.77 165.901 501.297 168.765 504.714 171.468V167.616C501.892 165.367 499.04 163.028 496.157 160.668C482.138 149.142 467.635 137.223 452.335 133.945C449.757 133.401 447.129 133.134 444.494 133.149C436.199 133.117 428.067 135.462 421.061 139.905C415.185 143.838 411.496 149.142 410.388 155.243C407.495 170.974 419.489 174.211 430.071 177.024Z" fill="#F4B905" fill-opacity="0.2"/>
</g>
</svg>
