<svg width="141" height="141" viewBox="0 0 141 141" fill="none" xmlns="http://www.w3.org/2000/svg">
<path d="M123.921 25.6047C124.853 30.0895 125.326 34.6674 125.753 39.2537C125.886 41.4204 129.281 41.5373 129.519 39.3346C130.185 33.7574 132.204 3.43862 122.056 7.36299C119.939 8.31165 118.992 10.796 119.94 12.9123C121.729 16.948 123.019 21.2408 123.921 25.6047Z" fill="#FF9966"/>
<path d="M25.1674 108.443C39.8603 108.68 50.7407 92.3629 45.0822 78.8107C41.0361 68.7914 29.7576 68.4479 21.5371 73.477C16.9104 76.5551 21.0408 83.3312 25.8977 80.627C39.1788 71.5353 43.3353 89.2231 35.5044 97.5459C29.0018 105.049 16.342 102.537 10.1972 95.7163C-1.74688 81.6284 8.33469 57.3718 25.1397 52.3817C26.8584 51.861 27.7612 49.9165 27.0441 48.2683C26.3819 46.7197 24.5894 46.0012 23.041 46.6634C-5.1555 57.4245 -10.8642 105.654 25.1674 108.443Z" fill="#FF9966"/>
<path d="M136.635 93.2347C126.577 67.9294 87.9666 57.9227 71.983 82.8703C71.1731 76.1057 68.4246 69.4572 64.2157 64.0522C99.729 60.8291 84.4762 15.0904 60.3967 32.9329C58.183 34.9156 60.7132 38.2885 63.2459 36.6985C73.4175 29.2508 82.9482 43.5824 74.79 51.4191C66.6721 58.3425 54.5618 56.3802 48.9431 47.3183C30.0011 18.6869 64.5164 -5.52978 90.3613 10.6961C104.759 19.1895 105.819 38.3275 103.606 53.2494C103.284 56.4386 107.828 56.9963 108.292 53.8228C110.708 37.6392 109.474 17.7043 94.8807 7.37992C76.2881 -6.51629 44.4388 -0.554151 37.5878 23.2922C28.3553 66.0288 73.3675 55.0916 66.3827 93.8618C61.6161 121.292 31.8542 137.866 5.54596 131.31C3.2056 130.774 0.866886 132.351 0.490497 134.724C0.117949 137.013 1.67947 139.169 3.96935 139.531C28.1312 143.993 56.9927 132.134 66.7788 109.153C72.1465 130.539 101.68 133.579 111.854 114.424C118.113 101.018 99.2925 89.71 89.1344 99.1439C86.6833 101.169 90.0178 104.866 92.2992 102.647C99.1343 96.2236 112.53 104.711 106.744 113.368C93.1894 132.06 66.5034 117.608 72.3042 95.9268C83.7671 63.6391 126.538 75.1165 132.148 104.843C134.147 114.281 131.709 124.344 127.322 132.86C126.013 135.536 129.631 137.719 131.379 135.276C140.123 123.166 142.904 107.084 136.635 93.2347Z" fill="#FF9966"/>
</svg>
