<svg width="220" height="180" viewBox="0 0 220 180" fill="none" xmlns="http://www.w3.org/2000/svg">
<g opacity="0.5">
<path d="M8.68089 52.7044C9.44654 59.5191 10.8567 65.1462 11.3463 71.1055C11.4492 72.3638 12.4706 73.3476 13.7306 73.4065C20.5129 73.7235 23.8148 74.1166 30.1547 74.8307C11.6914 135.108 61.5037 180.508 110.415 179.996C139.646 179.689 157.597 165.264 173.464 143.372L182.276 143.343C183.452 148 187.545 151.463 192.445 151.463C198.257 151.463 202.984 146.612 202.984 140.647C202.984 134.683 198.257 129.832 192.445 129.832C187.412 129.832 183.205 133.475 182.164 138.323L176.834 138.34C183.809 126.891 187.832 113.455 187.832 99.0961C187.832 97.7103 186.708 96.586 185.322 96.586H113.925L88.8205 29.7504C88.3269 28.4316 86.8444 27.7976 85.5881 28.2828C84.6411 28.6387 83.7331 29.0624 82.8065 29.4538C78.5543 28.338 73.869 26.5596 69.7196 26.828C60.4385 27.429 40.2554 47.1878 31.7611 69.9599C26.5928 69.3885 22.7987 68.8746 16.1345 68.5039C15.5192 63.1199 14.4141 58.6488 13.6913 52.3481C17.958 50.964 21.0796 46.9128 21.0796 42.0821C21.0796 36.1172 16.3518 31.2636 10.539 31.2636C4.72775 31.2636 0 36.1172 0 42.0821C3.34685e-07 47.394 3.75622 51.7986 8.68089 52.7044ZM192.445 134.852C195.488 134.852 197.964 137.451 197.964 140.647C197.964 143.844 195.488 146.442 192.445 146.442C189.401 146.442 186.925 143.844 186.925 140.647C186.925 137.451 189.401 134.852 192.445 134.852ZM109.836 99.9786C110.204 100.959 111.14 101.606 112.186 101.606H182.768C182.291 115.186 177.915 127.768 170.796 138.359L153.398 138.415C152.012 138.418 150.891 139.546 150.896 140.932C150.901 142.318 152.023 143.435 153.406 143.435H153.414L167.072 143.392C154.115 159.415 134.352 169.72 112.186 169.72C35.35 169.72 14.097 63.5062 85.0194 33.9078L109.836 99.9786ZM10.539 36.2839C13.5835 36.2839 16.0593 38.8856 16.0593 42.0821C16.0593 45.2786 13.5835 47.8769 10.539 47.8769C7.49609 47.8769 5.02027 45.2786 5.02027 42.0821C5.02027 38.8856 7.49609 36.2839 10.539 36.2839Z" fill="#FDFBF9"/>
<path d="M122.177 76.7605C122.886 78.1925 124.738 78.6085 125.985 77.6169L183.335 32.235C184.419 31.3815 184.61 29.8016 183.745 28.7084C160.995 -0.0426074 122.092 -7.59455 90.8917 7.8462C89.647 8.46004 89.1417 9.96733 89.7543 11.2061L122.177 76.7605ZM178.217 29.8851L125.301 71.7566L95.3874 11.2715C123.442 -1.39655 157.385 5.36393 178.217 29.8851Z" fill="#FDFBF9"/>
<path d="M219.216 84.2152C218.785 67.797 213.021 51.8321 202.552 38.8072C202.12 38.2683 201.521 37.9064 200.589 37.9064C198.153 36.7596 195.809 35.9367 193.306 35.6426C169.99 52.5741 139.923 78.8889 141.116 86.0741C141.031 87.646 142.263 88.7158 143.599 88.7158H143.664L216.773 86.7907C218.159 86.7547 219.254 85.601 219.216 84.2152ZM150.969 83.4994C199.591 44.8594 199.828 44.23 200.178 43.9353C208.48 55.0467 213.248 68.2596 214.088 81.839L150.969 83.4994Z" fill="#FDFBF9"/>
</g>
</svg>
