<svg width="209" height="297" viewBox="0 0 209 297" fill="none" xmlns="http://www.w3.org/2000/svg">
<path d="M125.826 200.5C125.826 200.5 69.796 160.843 50.3262 123.5C29.6381 83.8207 31.3262 10.5 31.3262 10.5" stroke="#121212" stroke-opacity="0.5" stroke-width="2" stroke-linecap="round"/>
<path d="M207.826 223.589C207.826 223.589 141.619 241.718 100.404 233.063C56.6102 223.867 1.02102 176.027 1.02102 176.027" stroke="#121212" stroke-opacity="0.5" stroke-width="2" stroke-linecap="round"/>
<circle cx="7.851" cy="7.851" r="7.351" transform="matrix(-0.92617 -0.377106 -0.377106 0.92617 159.826 158.921)" fill="#FDFBF9" stroke="#121212"/>
<circle cx="9" cy="9" r="8.5" transform="matrix(-0.92617 -0.377106 -0.377106 0.92617 165.826 227.788)" fill="#C1FF00" stroke="#121212"/>
<circle cx="7.851" cy="7.851" r="7.351" transform="matrix(-0.92617 -0.377106 -0.377106 0.92617 40.8262 5.92139)" fill="#A259FF" stroke="#121212"/>
<circle cx="10" cy="10" r="9.5" transform="matrix(-0.92617 -0.377106 -0.377106 0.92617 40.8262 129.542)" fill="#A259FF" stroke="#121212"/>
</svg>
