<svg width="376" height="367" viewBox="0 0 376 367" fill="none" xmlns="http://www.w3.org/2000/svg">
<mask id="mask0_1_16106" style="mask-type:alpha" maskUnits="userSpaceOnUse" x="0" y="0" width="376" height="367">
<path d="M81.4443 314.142L76.0744 366.947L375.897 366.947V41.1697L335.622 26.8498L306.087 10.7399L265.813 0L225.538 0L188.843 21.4798L170.049 45.6446L166.469 76.0744L188.843 141.409L199.583 187.948L188.843 226.433L166.469 239.858L122.614 244.333L59.9645 226.433H23.2698H5.36995L0 239.858L23.2698 256.863L81.4443 314.142Z" fill="white"/>
</mask>
<g mask="url(#mask0_1_16106)">
<path d="M84.6604 -46.384C68.89 -46.384 64.1589 -36.5672 58.7092 -17.7526C58.3688 -16.4525 58.288 -15.0979 58.4712 -13.7665C58.6545 -12.435 59.0982 -11.1528 59.7772 -9.99308C60.4909 -8.53681 61.7497 -7.42085 63.2806 -6.88728C69.8682 -5.23948 76.6255 -5.11967 83.1633 -4.99983C92.1464 -4.84004 100.65 -4.69026 108.995 -1.00523C111.761 0.373648 114.429 1.94195 116.98 3.68847C124.605 8.59185 133.239 14.1443 141.025 11.5478C146.265 9.80019 149.159 7.24367 149.639 3.94811C150.746 -3.69157 138.1 -12.5296 129.736 -18.3818C128.249 -19.3804 126.961 -20.3191 125.963 -21.0681C122.68 -23.6879 119.563 -26.5096 116.63 -29.5167C109.474 -36.5073 101.349 -44.4965 91.7971 -45.8447C89.4339 -46.1931 87.0491 -46.3733 84.6604 -46.384ZM64.0192 -9.79334C63.3008 -10.1577 62.7247 -10.7517 62.3823 -11.4811C61.4268 -13.1255 61.1476 -15.0772 61.6037 -16.9237C67.6724 -37.9653 71.8245 -45.6649 91.4278 -42.8887C100.012 -41.6703 107.398 -34.4101 114.584 -27.3896C117.609 -24.2872 120.826 -21.3787 124.216 -18.6813C125.214 -17.9024 126.562 -16.9936 128.069 -15.935C134.886 -11.1715 147.562 -2.30344 146.724 3.50872C146.415 5.59588 144.199 7.33355 140.126 8.6917C133.698 10.8388 125.703 5.69576 118.647 1.16186C115.965 -0.677835 113.153 -2.31995 110.232 -3.7515C101.329 -7.74613 92.1364 -7.87592 83.283 -8.03571C76.8751 -8.1056 70.2775 -8.26542 64.0192 -9.79334Z" fill="#221F1A" fill-opacity="0.1"/>
<path d="M350.062 149.611C345.756 149.636 341.567 151.012 338.085 153.546C325.109 162.704 319.679 184.794 318.631 195.2C317.184 209.71 322.763 221.335 328.153 232.56C331.068 238.631 334.072 244.903 335.999 251.634C337.616 257.286 337.775 264.516 337.995 272.166C338.404 289.842 338.873 309.875 358.217 316.326C362.509 317.764 364.206 316.916 365.893 315.677C366.102 315.528 366.312 315.368 366.541 315.218C366.641 315.157 366.734 315.087 366.821 315.008L368.697 313.091C368.765 313.028 368.825 312.958 368.877 312.881C371.342 309.216 370.284 301.956 369.047 298.231C363.836 282.602 358.516 263.927 358.516 243.954C358.516 234.447 362.838 227.087 367.42 219.287C374.796 206.714 383.16 192.464 372.929 166.858C369.376 157.97 363.417 152.248 355.712 150.321C353.865 149.853 351.967 149.614 350.062 149.611ZM361.91 314.089C360.944 314.032 359.992 313.83 359.085 313.49C341.738 307.698 341.319 289.602 340.909 272.096C340.73 264.247 340.56 256.837 338.833 250.805C336.837 243.814 333.773 237.443 330.848 231.271C325.399 219.907 320.248 209.181 321.616 195.5C322.773 183.955 328.602 163.912 339.801 156.003C341.956 154.434 344.435 153.37 347.056 152.89C349.677 152.409 352.373 152.524 354.943 153.227C363.457 155.354 367.919 162.424 370.105 167.977C379.796 192.214 372.171 205.206 364.795 217.769C360.213 225.569 355.482 233.628 355.482 243.954C355.482 264.357 360.882 283.321 366.162 299.18C367.3 302.585 367.999 308.557 366.422 311.093L364.765 312.781C364.535 312.931 364.315 313.091 364.096 313.251C363.494 313.788 362.717 314.086 361.91 314.089Z" fill="#221F1A" fill-opacity="0.1"/>
<path d="M80.1091 87.1159C79.4846 87.1136 78.8608 87.157 78.2426 87.2457C73.5714 87.9148 70.2576 91.0605 68.421 96.603C66.5845 102.146 69.8384 107.458 72.9924 112.581C74.9887 115.797 76.8352 118.843 77.3043 121.679C81.4565 146.645 66.9637 162.924 34.2152 170.204L32.8578 170.503C28.0069 171.572 22.9963 172.67 18.6744 175.167C18.3641 175.349 18.0788 175.57 17.826 175.826C17.2545 176.377 16.8601 177.086 16.6933 177.863C16.5264 178.639 16.5947 179.448 16.8893 180.185C17.1839 180.922 17.6914 181.555 18.3472 182.003C19.003 182.45 19.7771 182.692 20.5708 182.697C27.917 182.887 34.2352 183.426 39.8147 183.895C58.2701 185.443 71.5951 186.562 99.7822 174.029C118.447 165.73 124.735 150.97 119.525 127.571C117.926 120.283 114.981 113.357 110.841 107.149C106.799 101.327 91.7572 87.1159 80.1091 87.1159ZM56.3437 181.858C51.1035 181.858 45.8933 181.419 40.0742 180.929C34.4548 180.45 28.0967 179.931 20.6507 179.721C20.4415 179.734 20.2335 179.681 20.0561 179.569C19.8788 179.457 19.7412 179.292 19.6628 179.098C19.5844 178.903 19.5691 178.689 19.6193 178.485C19.6694 178.282 19.7823 178.099 19.942 177.963C20.0115 177.895 20.0885 177.835 20.1716 177.783C24.0942 175.517 28.8752 174.468 33.4966 173.449L34.864 173.15C69.4491 165.46 84.7703 147.984 80.2588 121.22C79.6899 117.804 77.5838 114.379 75.5476 111.054C72.6131 106.29 69.8483 101.786 71.2557 97.5717C72.7329 93.1377 75.1584 90.741 78.6718 90.2316C88.5931 88.8036 104.194 102.845 108.376 108.886C112.277 114.788 115.065 121.354 116.601 128.26C121.501 150.321 115.942 163.613 98.5644 171.332C79.6599 179.721 67.912 181.858 56.3437 181.858Z" fill="#221F1A" fill-opacity="0.1"/>
<path d="M36.0716 352.807C33.9357 349.202 31.7198 345.467 31.7198 340.823C31.7198 337.178 33.247 333.913 34.7142 330.747C35.942 328.425 36.8454 325.945 37.3992 323.377C38.547 316.386 34.4048 310.394 30.7915 306.53C19.7523 294.895 -3.05492 286.167 -18.0168 287.845C-25.5527 288.694 -30.5134 291.22 -33.1784 295.554C-38.3886 304.013 -33.8771 318.074 -29.2458 330.587C-28.5471 332.465 -27.8683 334.522 -27.1497 336.699C-24.6444 344.259 -21.8097 352.837 -17.1684 357.591C-16.6694 358.09 -16.0705 358.669 -15.3918 359.318C-13.9644 360.707 -12.2377 362.374 -10.5309 364.232H-14.6132C-15.6114 363.233 -16.6095 362.294 -17.418 361.475C-18.1067 360.806 -18.7255 360.207 -19.2345 359.698C-24.4248 354.445 -27.3793 345.517 -29.9844 337.638C-30.6931 335.481 -31.3618 333.453 -32.0405 331.646C-36.9214 318.454 -41.6625 303.594 -35.6737 293.987C-32.5296 288.883 -26.6906 285.818 -18.2863 284.869C-16.9241 284.718 -15.5545 284.645 -14.184 284.649C1.36678 284.649 22.3973 293.278 33.0273 304.472C38.9263 310.684 41.4815 317.385 40.4135 323.856C39.8175 326.697 38.8334 329.443 37.489 332.015C36.0916 335.011 34.7641 337.837 34.7641 340.823C34.7641 344.648 36.6705 347.814 38.6967 351.279C40.8826 354.974 43.2981 359.079 43.1184 364.262H40.124C40.2738 359.928 38.1877 356.452 36.0716 352.807Z" fill="#221F1A" fill-opacity="0.1"/>
<path d="M-72.4846 352.637C-68.9313 350.041 -64.26 349.452 -58.6106 350.88C-53.8396 352.088 -48.5096 357.531 -42.4609 364.232H-46.5233C-51.3642 358.969 -55.8358 354.675 -59.3393 353.786C-64.1602 352.568 -67.8733 352.987 -70.7179 355.054C-73.353 356.992 -75.0697 360.237 -76.2376 364.232H-79.3817C-78.0641 359.338 -75.9681 355.184 -72.4846 352.637Z" fill="#221F1A" fill-opacity="0.1"/>
<path d="M66.1353 342.192C65.217 336.1 63.7797 328.21 60.7653 321.22C55.5424 309.383 48.758 298.299 40.5932 288.264C36.6007 283.361 31.0811 279.077 25.7111 274.922C24.2439 273.794 22.8066 272.685 21.4392 271.577C16.5883 267.643 11.0183 264.692 5.03992 262.889C-27.6886 252.992 -42.7304 279.486 -57.2731 305.112C-68.4022 324.705 -78.9125 343.26 -96.739 345.447C-105.722 346.566 -114.635 345.517 -123.509 343.55V340.474C-114.695 342.471 -105.842 343.57 -97.1083 342.471C-80.769 340.474 -70.6181 322.558 -59.8782 303.634C-47.5514 281.913 -33.8171 257.696 -8.20521 257.696C-3.41064 257.743 1.35106 258.494 5.92826 259.923C12.2763 261.829 18.1899 264.961 23.3356 269.14C24.693 270.229 26.1204 271.327 27.5676 272.456C33.0773 276.71 38.7666 281.104 42.9488 286.277C51.2885 296.545 58.2172 307.884 63.5501 319.991C66.7042 327.342 68.1814 335.481 69.1197 341.752C70.3867 349.186 70.4676 356.773 69.3592 364.232H66.3648C67.4228 358.11 67.4628 350.89 66.1353 342.192Z" fill="#221F1A" fill-opacity="0.1"/>
<path d="M375.555 48.6578C371.828 48.9415 368.088 48.9882 364.356 48.7976C344.233 47.6092 326.167 37.8124 308.69 28.3851C296.074 21.5644 283.018 14.5038 269.454 10.8887C236.026 1.96078 209.237 12.4366 191.999 41.1878C186.519 50.3155 182.716 57.5158 183.605 67.2427C184.872 81.2238 189.953 93.2076 195.333 105.841C198.008 112.132 200.773 118.643 203.028 125.424C206.132 134.752 206.602 143.689 207.101 153.157C207.26 156.153 207.42 159.348 207.69 162.484C208.149 168.087 209.925 173.759 211.682 179.241C213.104 183.477 214.264 187.796 215.156 192.174C217.9 207.254 210.355 234.018 199.914 246.191C186.739 261.58 167.655 268.221 143.201 265.934C118.347 263.608 95.7697 252.782 84.5208 246.531C67.8021 237.233 38.2077 223.562 27.937 236.404C27.3095 237.169 26.8515 238.059 26.5934 239.015C26.3353 239.97 26.2829 240.97 26.4398 241.947C27.3081 248.838 35.912 256.927 40.8527 260.662C44.7055 263.548 48.8377 266.424 52.8302 269.2C72.3536 282.762 92.5357 296.793 96.4783 322.438C98.9437 338.497 97.2269 351.219 92.2462 364.192H89.0123C94.1427 351.279 95.9992 338.746 93.5139 322.898C89.731 298.56 70.1278 284.909 51.0835 271.697C47.091 268.91 42.9088 266.014 39.0162 263.098C37.5489 261.99 24.6631 252.113 23.4254 242.366C23.2197 240.991 23.3034 239.587 23.6712 238.246C24.039 236.904 24.6828 235.655 25.5614 234.577C31.0511 227.706 41.3418 226.438 56.164 230.812C64.8577 233.378 74.8689 237.802 85.9381 243.954C97.0073 250.106 119.126 260.721 143.44 262.988C166.866 265.185 185.092 258.884 197.609 244.284C207.39 232.869 214.736 206.854 212.171 192.753C211.298 188.498 210.168 184.299 208.788 180.18C207.021 174.538 205.194 168.706 204.705 162.774C204.436 159.588 204.266 156.412 204.106 153.346C203.627 144.089 203.168 135.371 200.184 126.383C197.968 119.722 195.193 113.271 192.578 107.039C187.348 94.7156 181.928 81.9728 180.6 67.5323C179.602 56.9266 183.824 48.9673 189.404 39.6699C203.248 16.591 222.951 4.78698 247.165 4.78698C254.952 4.85134 262.697 5.93575 270.202 8.01259C284.116 11.7176 297.321 18.8679 310.127 25.7686C327.315 35.0661 345.062 44.6831 364.545 45.8216C368.204 46.0103 371.872 45.9636 375.525 45.6818L375.555 48.6578Z" fill="#221F1A" fill-opacity="0.1"/>
<path d="M375.555 98.2708C359.837 93.0092 344.608 86.3864 330.04 78.4775C324.871 75.5679 319.902 72.315 315.168 68.7406C310.047 65.0556 304.757 61.2408 299.108 58.4146C281.202 49.4267 248.723 49.4267 233.691 62.7887C213.249 80.9741 219.208 103.334 224.967 124.965C227.163 133.194 230.846 143.43 234.759 154.275C248.194 191.585 264.922 238.022 246.557 265.585C226.105 296.273 181.02 294.606 145.646 282.812C142.831 281.873 139.338 280.295 135.665 278.617C124.236 273.454 108.616 266.364 99.9917 272.835C97.4066 274.773 95.9992 276.83 95.6798 279.047C95.061 283.461 98.7441 288.334 102.297 293.028C103.695 294.865 105.012 296.613 106.1 298.361C107.558 300.688 109.095 303.034 110.692 305.521C120.922 321.33 132.531 339.236 130.405 358.45C130.181 360.402 129.81 362.335 129.297 364.232H126.193C126.774 362.226 127.188 360.175 127.43 358.1C129.426 339.984 118.138 322.558 108.176 307.169C106.559 304.672 105.032 302.315 103.565 299.969C102.567 298.331 101.259 296.643 99.9119 294.845C95.9793 289.652 91.9269 284.28 92.7154 278.627C93.1446 275.631 94.9911 272.845 98.1951 270.438C108.176 262.909 124.146 270.109 136.882 275.891C140.506 277.529 143.919 279.077 146.584 279.966C180.91 291.41 224.548 293.208 244.061 263.917C261.588 237.613 245.149 191.964 231.934 155.294C228.011 144.389 224.298 134.082 222.073 125.734C216.084 103.234 209.875 79.9555 231.705 60.5517C239.29 53.8008 251.288 49.7762 265.461 49.217C266.559 49.217 267.657 49.1471 268.755 49.1471C280.433 49.1471 292.071 51.5539 300.445 55.7382C306.314 58.6742 311.704 62.559 316.915 66.3139C321.544 69.8061 326.399 72.9887 331.447 75.8411C345.579 83.5005 360.334 89.9482 375.555 95.115V98.2708Z" fill="#221F1A" fill-opacity="0.1"/>
<path d="M375.555 364.232H375.315C375.315 360.237 373.059 356.342 368.677 352.508C348.605 334.971 321.466 337.927 295.195 340.793C282.369 342.192 269.114 343.64 257.147 342.551C246.637 341.552 237.643 336.719 228.94 332.015C220.236 327.312 212.221 322.957 202.649 321.899C190.143 320.501 176.698 321.569 166.717 324.735C153.092 329.059 145.476 336.929 144.079 348.133C143.4 353.536 144.438 358.779 145.736 364.232H142.662C141.414 358.889 140.396 353.406 141.105 347.754C143.989 324.475 170.48 318.294 191.53 318.294C195.355 318.294 199.176 318.501 202.978 318.913C213.129 320.041 221.893 324.785 230.367 329.379C239.191 334.152 247.525 338.666 257.416 339.565C269.084 340.624 281.611 339.265 294.866 337.817C321.815 334.881 349.623 331.826 370.654 350.261C372.528 351.858 374.176 353.702 375.555 355.743L375.555 364.232Z" fill="#221F1A" fill-opacity="0.1"/>
<path d="M247.655 364.232C245.898 363.653 244.091 363.053 242.235 362.414C226.754 357.181 209.207 351.239 195.323 359.558C193.259 360.73 191.463 362.322 190.053 364.232H186.479C188.195 361.173 190.738 358.661 193.816 356.982C199.157 353.857 205.257 352.271 211.443 352.398C221.983 352.398 233.012 356.133 243.193 359.578C246.397 360.667 249.431 361.695 252.346 362.574C254.834 363.297 257.369 363.85 259.932 364.232H247.655Z" fill="#221F1A" fill-opacity="0.1"/>
<path d="M375.555 292.329C375.435 291.929 375.295 291.52 375.175 291.11C371.402 277.888 371.971 263.148 375.555 248.538V292.329Z" fill="#221F1A" fill-opacity="0.1"/>
<path d="M375.555 112.372L374.017 111.962C367.03 110.045 360.742 106.38 354.704 102.845C351.709 101.117 348.715 99.3194 345.601 97.7814C327.754 88.8535 286.023 78.118 270.402 93.7869C234.719 129.449 256.897 184.904 273.087 225.419C274.255 228.415 275.742 231.281 277.309 234.407C280.403 240.509 283.597 246.82 284.436 253.511C285.953 265.655 276.041 272.486 267.298 278.567C257.187 285.558 248.453 291.55 254.741 304.183C256.408 307.528 259.043 310.674 261.598 313.73C262.397 314.729 263.195 315.637 263.954 316.586C267.687 321.26 274.574 320.211 280.643 319.292C281.701 319.133 282.719 318.973 283.697 318.853C296.982 317.185 328.104 311.253 330.24 292.019C331.817 277.868 325.169 267.492 318.142 256.517C315.27 252.187 312.625 247.71 310.217 243.105C307.981 238.581 305.795 234.407 303.689 230.412C289.646 203.838 280.373 186.282 299.956 151.998C304.618 143.829 314.649 129.469 329.431 125.035C341.608 121.38 358.706 123.517 375.564 130.028V133.323C358.966 126.722 341.938 124.396 330.289 127.891C316.505 132.025 306.993 145.697 302.551 153.476C283.787 186.332 292.271 202.41 306.334 229.004C308.46 232.999 310.656 237.193 312.912 241.697C315.26 246.215 317.845 250.605 320.658 254.849C327.644 265.835 334.891 277.099 333.204 292.299C330.838 313.65 298.05 320.021 284.066 321.769C283.068 321.889 282.07 322.049 281.072 322.199C274.544 323.197 266.409 324.435 261.588 318.404C260.85 317.475 260.071 316.546 259.283 315.597C256.488 312.513 254.06 309.115 252.046 305.471C244.59 290.561 255.26 283.181 265.571 276.051C274.394 269.939 282.739 264.177 281.441 253.831C280.673 247.659 277.598 241.587 274.614 235.715C273.087 232.719 271.51 229.574 270.282 226.518C253.783 185.243 231.185 128.73 268.286 91.6297C274.714 85.1884 284.875 82.7717 296.054 82.7717C314.24 82.7717 335.11 89.1831 346.958 95.0951C350.132 96.6829 353.236 98.5005 356.231 100.258C362.1 103.703 368.208 107.249 374.826 109.066L375.574 109.276L375.555 112.372Z" fill="#221F1A" fill-opacity="0.1"/>
<path d="M375.555 -102.249C371.702 -103.097 367.859 -103.916 364.076 -104.715C346.06 -108.54 329.052 -112.155 317.663 -117.857C309.12 -122.125 301.462 -127.973 295.096 -135.094H299.228C304.941 -129.148 311.628 -124.224 319.001 -120.534C330.05 -115.011 346.878 -111.436 364.695 -107.651C368.278 -106.892 371.911 -106.113 375.555 -105.314V-102.249Z" fill="#221F1A" fill-opacity="0.1"/>
<path d="M184.084 -124.409C180.64 -107.192 163.403 -102.249 148.151 -97.8944C136.733 -94.6188 125.943 -91.533 123.128 -83.8534C120.793 -77.5119 123.847 -68.1346 132.471 -55.1921C136.415 -49.1097 141.934 -44.2121 148.441 -41.0212C156.985 -36.747 164.551 -30.4155 171.557 -21.6573C173.753 -18.921 175.3 -15.4457 176.798 -12.0902C180.361 -4.10102 183.785 3.52868 195.552 3.52868C197.321 3.5179 199.086 3.37099 200.833 3.08925C209.816 1.71111 214.487 -2.56312 219.448 -7.08701C226.983 -13.9677 234.779 -21.0681 257.446 -17.3032C280.563 -13.4484 305.356 -2.38334 327.315 7.3735L331.188 9.10116C335.804 11.2672 340.29 13.7014 344.623 16.3913C351.799 20.6556 359.225 25.0796 367.58 26.7373C370.264 27.2766 372.949 27.6761 375.565 27.9457V30.9417C372.71 30.6521 369.835 30.2326 366.951 29.6534C358.127 27.8958 350.482 23.3419 343.086 18.9479C338.853 16.3164 334.471 13.9355 329.96 11.8175L326.077 10.0898C304.348 0.402884 279.704 -10.5823 256.957 -14.3672C235.747 -17.9124 228.81 -11.5909 221.474 -4.88996C216.403 -0.266214 211.163 4.50735 201.302 6.0353C182.876 8.88146 178.195 -1.62437 174.073 -10.8919C172.831 -14.0521 171.205 -17.0473 169.232 -19.8098C162.494 -28.2185 155.258 -34.2903 147.113 -38.3648C140.161 -41.8014 134.257 -47.0397 130.015 -53.5343C120.693 -67.5154 117.619 -77.502 120.344 -84.892C123.687 -93.9897 135.186 -97.2853 147.353 -100.771C162.445 -105.095 178.055 -109.569 181.14 -124.998C181.802 -128.331 182.246 -131.703 182.467 -135.094H185.461C185.236 -131.506 184.776 -127.936 184.084 -124.409Z" fill="#221F1A" fill-opacity="0.1"/>
<path d="M375.554 -75.3648C372.43 -76.693 369.346 -78.0312 366.312 -79.3594C346.928 -87.7781 328.623 -95.7274 307.053 -100.052C295.525 -102.358 282.1 -104.645 279.864 -104.426C272.278 -99.1827 261.898 -81.1171 259.901 -73.018C255.6 -55.8112 272.138 -43.7275 285.434 -34.0206C287.679 -32.3729 289.805 -30.825 291.762 -29.297C299.138 -23.5648 306.913 -22.5861 315.148 -21.5475C320.335 -21.0623 325.461 -20.0586 330.449 -18.5515C336.665 -16.2933 342.723 -13.6244 348.585 -10.5623C355.821 -6.98713 363.297 -3.29212 370.684 -1.44462C372.271 -1.04517 373.908 -0.745553 375.564 -0.495889V2.50005C373.677 2.23785 371.805 1.87786 369.955 1.42153C362.259 -0.505868 354.634 -4.27079 347.258 -7.91587C341.518 -10.9131 335.586 -13.5253 329.501 -15.7353C324.698 -17.1858 319.763 -18.1526 314.768 -18.6214C306.494 -19.67 297.95 -20.7485 289.925 -26.9901C288.009 -28.4781 285.933 -29.9861 283.667 -31.6538C269.693 -41.89 252.206 -54.6228 256.997 -73.7969C259.193 -82.605 269.883 -101.41 278.397 -107.092C278.576 -107.212 278.866 -107.402 280.213 -107.402C282.858 -107.402 289.616 -106.643 307.642 -103.037C329.531 -98.6534 347.976 -90.6442 367.529 -82.1556L375.584 -78.6804L375.554 -75.3648Z" fill="#221F1A" fill-opacity="0.1"/>
<path d="M375.555 -53.9937C371.931 -55.3818 368.348 -56.8199 364.795 -58.238C349.953 -64.2299 334.591 -70.3716 318.302 -71.8496C307.173 -72.8482 300.475 -71.55 299.917 -68.2544C298.729 -61.2639 319.809 -45.4952 332.246 -42.3794C344.143 -39.3834 356.77 -36.0079 368.508 -31.3143C370.274 -30.6052 372.7 -29.7264 375.555 -28.7577V-25.632C371.861 -26.8603 368.967 -27.8989 367.4 -28.5281C355.822 -33.1618 343.315 -36.5173 331.517 -39.5132C319.719 -42.5092 295.295 -58.937 296.972 -68.7937C297.88 -74.1764 305.207 -75.265 311.395 -75.265C314.309 -75.265 316.965 -75.0253 318.571 -74.8755C335.3 -73.3575 350.861 -67.106 365.913 -61.0641C369.097 -59.7859 372.311 -58.4976 375.555 -57.2393V-53.9937Z" fill="#221F1A" fill-opacity="0.1"/>
<path d="M341.788 -135.094H341.618C340.038 -134.72 338.39 -134.737 336.817 -135.144L341.788 -135.094Z" fill="#221F1A" fill-opacity="0.1"/>
<path d="M375.555 -126.446C372.257 -128.396 369.67 -131.349 368.168 -134.874C368.141 -134.946 368.117 -135.02 368.099 -135.094H371.352C372.358 -133.134 373.795 -131.426 375.555 -130.101V-126.446Z" fill="#221F1A" fill-opacity="0.1"/>
<path d="M250.988 -96.0169C243.193 -90.1748 238.362 -84.4825 234.31 -76.3635C230.776 -69.293 228.9 -61.7532 227.083 -54.463C224.768 -45.1357 222.362 -35.4887 216.483 -26.6606C214.028 -22.9756 210.175 -20.8484 205.025 -20.3291C195.692 -19.4103 185.342 -24.094 183.615 -25.8217C180.401 -29.0374 177.406 -31.6638 174.761 -33.9807C166.936 -40.8514 161.287 -45.8147 158.163 -58.3178C155.707 -68.1246 167.665 -75.1451 180.321 -82.5751C191.161 -88.9465 202.37 -95.5576 203.987 -103.627C204.875 -107.781 203.877 -117.118 202.879 -127.884C202.649 -130.211 202.41 -132.628 202.18 -135.094H205.174C205.394 -132.727 205.624 -130.411 205.843 -128.174C206.971 -116.699 207.839 -107.631 206.951 -103.037C205.065 -93.6202 193.267 -86.6995 181.858 -79.9886C170.19 -73.1478 159.181 -66.6766 161.087 -59.0169C163.982 -47.4226 169.072 -42.9586 176.758 -36.2077C179.433 -33.8609 182.467 -31.2145 185.741 -27.9089C186.859 -26.7904 194.973 -23.1853 202.589 -23.1853C203.318 -23.1853 204.036 -23.1853 204.745 -23.2851C208.947 -23.7046 212.071 -25.3923 214.008 -28.2784C219.597 -36.6671 221.823 -45.635 224.189 -55.1321C226.045 -62.5821 227.952 -70.2817 231.635 -77.6518C235.917 -86.2202 241.007 -92.2221 249.192 -98.3638C257.826 -104.835 256.298 -121.273 253.923 -135.044H256.917C259.403 -120.654 260.82 -103.397 250.988 -96.0169Z" fill="#221F1A" fill-opacity="0.1"/>
<path d="M170.15 34.8564C157.244 43.4647 137.561 31.8604 118.527 20.7155C107.807 14.414 97.676 8.47201 90.1002 7.09386C70.0179 3.4388 51.7822 4.45742 30.6019 7.09386C26.2102 7.64312 21.1996 9.56054 15.9095 11.5878C6.577 15.163 -3.0549 18.848 -11.529 16.0218C-21.0312 12.8561 -23.6363 -5.94853 -25.7224 -21.0481C-26.7205 -27.9189 -27.5789 -34.4201 -28.9064 -37.1464C-29.4653 -37.7856 -32.6693 -39.4833 -35.7535 -41.141C-50.3561 -48.9205 -80.7391 -65.1087 -91.4091 -93.8599C-95.0323 -103.617 -98.2662 -115.74 -91.0597 -122.941C-82.0766 -131.928 -63.6013 -123.14 -52.562 -117.897C-50.7654 -117.039 -49.2083 -116.3 -47.9407 -115.76C-24.4248 -105.674 8.32374 -96.007 30.7417 -107.222C41.9806 -112.844 53.3193 -123.939 61.7634 -135.114H65.5463C56.7329 -122.951 44.4959 -110.757 32.0792 -104.545C24.5134 -100.761 15.8895 -99.2226 6.86646 -99.2226C-12.0979 -99.2226 -32.7991 -106.003 -49.1185 -113.004C-50.436 -113.563 -52.013 -114.322 -53.8496 -115.191C-64.1802 -120.094 -81.4677 -128.303 -88.9437 -120.823C-94.9325 -114.832 -91.9381 -103.846 -88.6043 -94.9085C-78.3236 -67.1859 -48.6493 -51.3772 -34.3462 -43.7675C-28.6768 -40.7715 -26.8502 -39.7729 -26.2514 -38.5346C-24.6943 -35.4088 -23.796 -28.9375 -22.7579 -21.4476C-20.8814 -7.9159 -18.3163 10.6191 -10.5808 13.1956C-3.13476 15.6823 5.99812 12.197 14.8315 8.80157C20.3112 6.7044 25.4715 4.72707 30.2226 4.12786C51.6923 1.45147 70.1477 0.422873 90.6392 4.12786C98.734 5.59588 109.085 11.6777 120.044 18.109C137.431 28.3252 157.144 39.9096 168.483 32.3498C177.836 26.1082 170.899 12.7163 166.307 3.85824C165.828 2.93947 165.379 2.07064 164.98 1.27172C159.051 -10.5923 141.574 -32.3229 128.738 -38.0252L126.951 -38.8142C114.594 -44.2668 93.9231 -53.3945 91.8869 -67.6752C89.172 -86.6496 106.42 -100.181 124.675 -114.472C133.119 -121.073 141.644 -127.774 148.191 -135.114H152.184C145.267 -126.775 135.775 -119.345 126.532 -112.145C108.975 -98.4137 92.3959 -85.4412 94.8613 -68.1446C96.6679 -55.5016 117.159 -46.4539 128.169 -41.6004L129.965 -40.8015C143.59 -34.7397 161.396 -12.6495 167.665 -0.106393L168.972 2.44015C173.743 11.7076 181.728 27.1268 170.15 34.8564Z" fill="#221F1A" fill-opacity="0.1"/>
<path d="M103.855 -125.477C99.6724 -119.615 95.9593 -113.124 92.3661 -106.842C90.1303 -102.938 87.8146 -98.8531 85.3792 -95.0583C81.0873 -88.1875 79.1709 -80.2782 77.3243 -72.6185C75.2682 -64.17 73.1521 -55.4317 67.8421 -47.9918C60.4859 -37.6757 50.6943 -33.012 41.2321 -28.4182C35.4928 -25.6519 29.544 -22.7858 24.0543 -18.6714C22.2776 -17.3332 20.3213 -14.7367 18.2552 -11.9904C13.0649 -5.07972 6.59707 3.51867 -2.49586 -1.00523C-7.20702 -3.36204 -10.0716 -6.25813 -11.2494 -9.86326C-13.2457 -15.8552 -9.86204 -22.3664 -6.91756 -28.0887C-4.62188 -32.5327 -2.45594 -36.747 -3.66367 -39.1737C-5.78968 -43.428 -12.1877 -45.4352 -17.8371 -47.1629C-20.4536 -47.8971 -23.0097 -48.8319 -25.4827 -49.9591C-30.5332 -52.4857 -74.7203 -75.215 -70.2088 -94.6787C-70.0635 -95.5276 -69.6987 -96.3236 -69.1506 -96.9876C-68.6025 -97.6516 -67.8903 -98.1605 -67.0846 -98.4637C-60.9761 -100.721 -48.25 -91.9025 -34.6355 -81.876C-32.2321 -79.996 -29.7299 -78.2458 -27.1396 -76.6331C-8.51456 -67.3257 18.6744 -61.7632 34.355 -71.57C63.6101 -89.8653 70.547 -102.828 81.0473 -122.441C83.1434 -126.356 85.3792 -130.53 87.9444 -135.034H91.3979C88.4834 -129.981 85.998 -125.347 83.6824 -121.053C73.3418 -101.729 65.8758 -87.7681 35.942 -69.0433C29.3444 -64.9289 21.4292 -63.341 13.2645 -63.341C-2.27628 -63.341 -18.6755 -69.0833 -28.4771 -73.9767C-31.2464 -75.6494 -33.9129 -77.4869 -36.4621 -79.4793C-45.036 -85.8007 -60.9961 -97.5549 -66.0965 -95.6674C-66.4349 -95.5327 -66.73 -95.308 -66.95 -95.0176C-67.1699 -94.7271 -67.3062 -94.3821 -67.3441 -94.0197C-70.5881 -80.0385 -40.5345 -60.8344 -24.1951 -52.6555C-21.8598 -51.6091 -19.4512 -50.7346 -16.9887 -50.039C-10.7803 -48.0916 -3.73354 -45.8846 -1.01864 -40.4919C0.877808 -36.707 -1.62749 -31.8436 -4.28252 -26.6906C-6.93753 -21.5375 -10.0018 -15.6055 -8.42474 -10.772C-7.51643 -7.97581 -5.1409 -5.64893 -1.18832 -3.67161C5.17974 -0.47593 9.88091 -5.83866 15.8397 -13.748C18.0356 -16.674 20.1117 -19.4403 22.2277 -21.0282C27.947 -25.3224 34.0256 -28.2484 39.9046 -31.0746C49.4466 -35.6684 58.4597 -40.0026 65.3767 -49.6895C70.3674 -56.6801 72.3037 -64.7392 74.3599 -73.2876C76.2663 -81.177 78.2426 -89.326 82.7941 -96.6061C85.1596 -100.391 87.4553 -104.406 89.6711 -108.29C93.3043 -114.632 97.0573 -121.193 101.329 -127.175C103.423 -129.955 105.729 -132.57 108.226 -134.994L108.286 -135.054H112.458C111.77 -134.325 111.061 -133.606 110.372 -132.897C108.018 -130.59 105.839 -128.11 103.855 -125.477Z" fill="#221F1A" fill-opacity="0.1"/>
<path d="M-42.4409 -131.879C-46.5914 -132.343 -50.6488 -133.427 -54.4783 -135.094H-44.0778C-43.449 -134.994 -42.8202 -134.904 -42.2014 -134.865C-36.37 -134.434 -30.5123 -134.511 -24.6942 -135.094H-7.00742C-18.575 -132.159 -30.5342 -131.073 -42.4409 -131.879Z" fill="#221F1A" fill-opacity="0.1"/>
<path d="M-52.7516 25.489C-55.9057 27.1867 -58.8801 28.7945 -61.5351 30.3924C-67.115 33.8758 -72.4508 37.7363 -77.5051 41.9468C-89.8619 51.7835 -101.55 61.081 -123.509 59.6429V56.647C-102.548 58.0651 -91.8083 49.5066 -79.3816 39.6C-74.2194 35.3099 -68.7739 31.3729 -63.0822 27.8159C-60.3573 26.1881 -57.353 24.5703 -54.1689 22.8226C-46.7229 18.828 -39.0174 14.6536 -34.3861 10.0199C-33.4977 9.13109 -33.6774 5.52599 -33.7672 3.78832C-33.7672 3.13921 -33.8271 2.54998 -33.8271 2.08062C-33.8271 -10.3926 -37.1309 -21.3377 -53.2507 -34.2503C-56.245 -36.6471 -59.8882 -38.0252 -63.741 -39.4733C-67.9231 -41.0611 -72.255 -42.6989 -75.7884 -45.7848C-102.249 -68.9235 -130.386 -102.938 -116.961 -135.094H-113.687C-127.611 -104.236 -99.8432 -70.801 -73.7622 -48.0118C-70.648 -45.2754 -66.7753 -43.8074 -62.633 -42.2495C-58.7304 -40.7715 -54.648 -39.2536 -51.3343 -36.5572C-38.9974 -26.6805 -30.7828 -16.3345 -30.7828 2.11059C-30.7828 2.54003 -30.7828 3.10924 -30.7229 3.66851C-30.5732 6.66445 -30.3936 10.3395 -32.2201 12.167C-37.2108 17.1103 -45.1059 21.3646 -52.7516 25.489Z" fill="#221F1A" fill-opacity="0.1"/>
<path d="M-123.509 -54.6328V-57.9983C-122.843 -58.3973 -122.227 -58.8732 -121.672 -59.4164C-120.934 -60.1653 -120.674 -61.8531 -121.093 -64.1599C-121.598 -66.8114 -122.408 -69.3952 -123.509 -71.8596V-78.7403C-120.934 -73.9368 -118.798 -68.7038 -118.139 -64.6393C-117.59 -61.2539 -118.069 -58.7872 -119.556 -57.2992C-120.703 -56.1799 -122.042 -55.2767 -123.509 -54.6328Z" fill="#221F1A" fill-opacity="0.1"/>
<path d="M-90.4608 12.6264C-92.4571 16.0019 -94.5132 19.4971 -98.5456 21.9139C-104.455 25.4591 -113.228 27.4664 -123.499 27.6861V24.6901C-114.456 24.4704 -105.852 22.8226 -100.073 19.3573C-96.6991 17.36 -94.9224 14.364 -93.036 11.1085C-91.9859 9.22802 -90.8017 7.42577 -89.4926 5.71572C-81.9867 -3.67161 -79.3117 -11.2614 -81.5076 -16.8538C-85.7197 -27.3397 -106.221 -30.4155 -123.429 -32.7024V-35.6984C-105.333 -33.2916 -83.5837 -30.096 -78.7029 -17.9424C-75.988 -11.1815 -78.7029 -2.82276 -87.0772 7.62316C-88.3232 9.20778 -89.454 10.8798 -90.4608 12.6264Z" fill="#221F1A" fill-opacity="0.1"/>
<path d="M135.006 220.885C132.93 221.654 131.013 222.523 129.137 223.362C124.606 225.409 120.324 227.357 114.544 227.856C99.7222 229.204 81.6062 226.388 62.4721 223.412C29.2545 218.239 -5.10104 212.906 -29.9145 227.087C-48.0604 237.463 -56.9637 255.678 -65.5775 273.285C-73.9618 290.411 -81.8669 306.59 -97.5176 315.997C-104.794 320.371 -113.947 321.989 -123.469 321.729V318.733C-115.234 318.943 -106.281 317.735 -99.0048 313.42C-84.0928 304.432 -76.3673 288.674 -68.1926 271.956C-59.3792 253.981 -50.2263 235.316 -31.3218 224.48C-5.59012 209.77 30.8515 215.493 63.0111 220.486C81.9755 223.482 99.9418 226.228 114.355 224.91C119.635 224.43 123.697 222.603 127.989 220.676C129.896 219.817 131.872 218.928 134.028 218.119C154.729 210.349 166.277 202.87 172.655 193.093C179.722 182.257 180.96 167.857 176.648 146.386C174.392 135.131 169.94 126.253 165.229 116.856C161.998 110.704 159.129 104.368 156.635 97.8813C155.085 93.3364 153.776 88.7129 152.713 84.03C150.337 74.383 147.882 64.4165 141.434 57.0664C122.639 35.5654 94.6018 23.322 60.3561 21.6442C31.1908 20.2262 -1.52774 26.7873 -29.3954 39.62C-39.6662 44.3136 -49.4478 50.655 -58.8801 56.8267C-71.6062 65.1155 -84.6916 73.684 -99.5538 78.6173C-106.541 80.9541 -114.645 81.6932 -123.509 80.8543V77.8583C-114.925 78.6972 -107.149 78.0081 -100.472 75.7811C-86.0092 70.9577 -73.0435 62.4991 -60.547 54.3201C-50.9949 48.1085 -41.1634 41.6672 -30.683 36.8337C-4.60233 24.8973 23.7023 18.6018 52.3811 18.3587C55.1093 18.3587 57.8076 18.4252 60.4759 18.5584C95.5501 20.2661 124.356 32.8691 143.66 54.9992C150.587 62.9085 153.132 73.2446 155.587 83.2311C156.624 87.8097 157.904 92.33 159.42 96.7728C161.872 103.164 164.695 109.406 167.874 115.468C172.466 124.635 177.227 134.102 179.552 145.757C184.014 168.057 182.637 183.146 175.111 194.691C168.363 205.047 156.386 212.876 135.006 220.885Z" fill="#221F1A" fill-opacity="0.1"/>
<path d="M89.8008 200.453C76.8951 203.678 63.9494 201.631 51.4229 199.654C47.6799 199.065 43.8171 198.456 40.0442 197.996C36.8802 197.617 33.6961 197.217 30.5021 196.818C4.80038 193.592 -21.7698 190.257 -46.9525 195.979C-67.2344 200.563 -91.3292 217.789 -96.5594 238.631C-97.9368 244.144 -97.7571 250.615 -97.5575 257.606C-97.1483 272.306 -96.6791 288.973 -113.887 295.435C-116.976 296.531 -120.231 297.089 -123.509 297.082V294.086C-120.583 294.091 -117.679 293.587 -114.925 292.598C-99.7234 286.886 -100.123 272.695 -100.542 257.646C-100.732 250.845 -100.921 243.824 -99.444 237.902C-96.1701 224.81 -86.6979 214.933 -79.3217 208.941C-69.9294 201.292 -58.3611 195.51 -47.6112 193.063C-21.9195 187.221 4.92016 190.586 30.8715 193.842C34.0655 194.251 37.2495 194.641 40.3936 195.02C44.2264 195.48 48.1191 196.099 51.892 196.698C64.119 198.625 76.7653 200.623 89.0722 197.547C101.778 194.371 114.894 186.102 124.156 175.427C134.327 163.722 138.949 150.46 137.132 138.027C134.347 118.484 123.328 101.397 104.373 87.2556C70.4372 61.9598 20.5309 53.5012 -11.3094 58.2149C-25.6924 60.322 -39.1172 67.1128 -52.1128 73.624C-56.9936 76.0907 -62.0941 78.6173 -67.0847 80.9042C-74.92 84.4295 -81.9069 90.8907 -89.313 97.7015C-99.5538 107.259 -110.174 117.005 -123.509 118.763V115.707C-111.192 113.87 -101.121 104.582 -91.3092 95.5944C-84.0628 88.9034 -76.5569 81.9828 -68.2824 78.2578C-63.2918 76.0308 -58.3012 73.4942 -53.4603 71.0376C-40.2551 64.3666 -26.6107 57.4658 -11.7086 55.2588C20.7405 50.4553 71.6549 59.0737 106.21 84.8589C125.544 99.2894 137.272 117.535 140.146 137.618C142.033 150.9 137.152 165.031 126.422 177.404C116.77 188.469 103.066 197.097 89.8008 200.453Z" fill="#221F1A" fill-opacity="0.1"/>
<path d="M16.4385 166.039C10.1004 168.576 3.46289 171.033 -2.9351 173.399C-15.7111 178.143 -28.9862 183.046 -40.6643 188.868C-44.3773 190.726 -49.2482 190.536 -53.9593 190.346C-56.6197 190.141 -59.2936 190.191 -61.9443 190.496C-68.8115 191.645 -77.2257 196.318 -83.7933 200.253C-95.3716 207.244 -109.425 224.001 -111.921 239.011C-112.47 242.276 -112.759 245.762 -113.078 249.447C-113.987 260.372 -115.025 272.585 -123.509 279.526V275.352C-117.73 268.97 -116.871 258.954 -116.043 249.177C-115.723 245.432 -115.414 241.897 -114.855 238.511C-112.21 222.653 -97.4677 204.967 -85.3105 197.677C-78.5232 193.602 -69.7896 188.759 -62.4135 187.53C-59.5551 187.189 -56.6703 187.125 -53.7996 187.341C-49.4678 187.51 -44.9862 187.69 -41.9619 186.182C-30.184 180.29 -16.859 175.357 -3.97315 170.583C2.41486 168.216 9.00249 165.77 15.3306 163.243C27.6275 158.32 48.7479 140.903 45.2744 125.164C42.8789 114.359 33.6363 106.839 26.31 102.445C17.3517 97.2096 7.50524 93.6718 -2.73547 92.0092C-29.5751 87.8748 -71.9056 110.514 -102.808 127.032C-109.136 130.417 -115.105 133.603 -120.165 136.14C-121.293 136.709 -122.411 137.258 -123.509 137.797V134.452L-121.513 133.453C-116.522 130.937 -110.533 127.751 -104.235 124.386C-75.5488 109.046 -37.1509 88.514 -9.51276 88.514C-7.09724 88.5042 -4.68458 88.6812 -2.29629 89.0432C15.4304 91.7695 43.4878 103.464 48.159 124.515C52.0816 142.142 29.9432 160.637 16.4385 166.039Z" fill="#221F1A" fill-opacity="0.1"/>
<path d="M-49.5875 174.488L-51.5838 175.017L-57.7921 176.675C-75.459 181.369 -99.6536 187.79 -111.691 198.086C-116.123 201.961 -120.375 208.642 -123.509 215.552V208.852C-120.644 203.669 -117.221 198.965 -113.528 195.869C-101.001 185.134 -76.4272 178.602 -58.4808 173.839C-56.2949 173.26 -54.2188 172.71 -52.2925 172.181L-50.2962 171.652C-39.736 168.836 -30.6131 166.399 -32.9587 153.496C-33.9569 148.273 -37.1209 143.699 -42.2513 140.264C-49.9868 135.081 -61.7846 132.834 -70.9474 134.801C-85.4502 137.847 -99.5538 149.412 -113.138 160.607C-116.632 163.473 -120.125 166.309 -123.509 168.985V165.17C-120.714 162.943 -117.889 160.627 -115.035 158.29C-101.151 146.875 -86.7877 135.071 -71.6361 131.825C-69.0831 131.287 -66.4799 131.022 -63.8707 131.037C-55.6555 131.005 -47.603 133.327 -40.6643 137.728C-34.8452 141.622 -31.1921 146.875 -30.0941 152.917C-27.2295 168.496 -39.1072 171.702 -49.5875 174.488Z" fill="#221F1A" fill-opacity="0.1"/>
</g>
</svg>
