<svg width="209" height="297" viewBox="0 0 209 297" fill="none" xmlns="http://www.w3.org/2000/svg">
<path d="M83 200.5C83 200.5 139.03 160.843 158.5 123.5C179.188 83.8207 177.5 10.5 177.5 10.5" stroke="#121212" stroke-opacity="0.5" stroke-width="2" stroke-linecap="round"/>
<path d="M1.00047 223.589C1.00047 223.589 67.2076 241.718 108.422 233.063C152.216 223.867 207.805 176.027 207.805 176.027" stroke="#121212" stroke-opacity="0.5" stroke-width="2" stroke-linecap="round"/>
<circle cx="59.232" cy="163.232" r="7.351" transform="rotate(-22.1545 59.232 163.232)" fill="#FDFBF9" stroke="#121212"/>
<circle cx="200.82" cy="243.216" r="5.5" transform="rotate(-22.1545 200.82 243.216)" fill="#FDFBF9" stroke="#121212"/>
<circle cx="54.7295" cy="232.729" r="8.5" transform="rotate(-22.1545 54.7295 232.729)" fill="#C1FF00" stroke="#121212"/>
<circle cx="178.232" cy="10.2321" r="7.351" transform="rotate(-22.1545 178.232 10.2321)" fill="#C1FF00" stroke="#121212"/>
<circle cx="181.033" cy="135.033" r="9.5" transform="rotate(-22.1545 181.033 135.033)" fill="#A259FF" stroke="#121212"/>
</svg>
