<svg width="335" height="219" viewBox="0 0 335 219" fill="none" xmlns="http://www.w3.org/2000/svg">
<mask id="mask0_1_15797" style="mask-type:alpha" maskUnits="userSpaceOnUse" x="0" y="0" width="335" height="219">
<path d="M70.6657 15.2791L82.125 0H334.866V219L269.93 195.445L196.718 170.616L150.244 176.346L98.0407 195.445L82.125 182.076L47.1105 133.692L0 94.2209V56.6599L70.6657 15.2791Z" fill="#0A102F"/>
</mask>
<g mask="url(#mask0_1_15797)">
<path d="M-38.7584 113.065C-58.8758 113.065 -64.9111 125.581 -71.8631 149.569C-72.2972 151.227 -72.4004 152.954 -72.1666 154.652C-71.9328 156.349 -71.3667 157.984 -70.5007 159.463C-69.5902 161.319 -67.9844 162.742 -66.0315 163.422C-57.6281 165.523 -49.0081 165.676 -40.6683 165.829C-29.209 166.033 -18.3608 166.224 -7.71643 170.922C-4.18741 172.68 -0.783997 174.679 2.46964 176.906C12.1973 183.158 23.211 190.237 33.1424 186.927C39.827 184.699 43.5194 181.439 44.1306 177.237C45.5439 167.497 29.4117 156.229 18.7419 148.767C16.8447 147.494 15.2022 146.297 13.9289 145.342C9.74103 142.002 5.76505 138.404 2.02399 134.57C-7.10526 125.658 -17.4695 115.472 -29.6546 113.753C-32.6691 113.308 -35.7114 113.079 -38.7584 113.065ZM-65.0893 159.717C-66.0057 159.253 -66.7407 158.495 -67.1775 157.565C-68.3963 155.469 -68.7524 152.98 -68.1706 150.626C-60.4292 123.799 -55.1325 113.982 -30.1257 117.521C-19.1757 119.075 -9.75363 128.331 -0.586182 137.282C3.27209 141.238 7.37589 144.946 11.7007 148.385C12.974 149.378 14.6929 150.537 16.6155 151.887C25.3119 157.96 41.4822 169.267 40.4126 176.677C40.0179 179.338 37.1913 181.554 31.9964 183.285C23.7967 186.023 13.5979 179.465 4.59598 173.685C1.17468 171.339 -2.41263 169.246 -6.1376 167.42C-17.495 162.327 -29.2217 162.162 -40.5155 161.958C-48.6898 161.869 -57.106 161.665 -65.0893 159.717Z" fill="#F4B905" fill-opacity="0.2"/>
<path d="M299.8 362.954C294.308 362.985 288.963 364.74 284.521 367.971C267.969 379.647 261.042 407.811 259.705 421.078C257.859 439.579 264.977 454.4 271.852 468.711C275.57 476.452 279.403 484.448 281.86 493.03C283.923 500.237 284.126 509.455 284.407 519.208C284.929 541.745 285.527 567.286 310.203 575.512C315.678 577.345 317.842 576.263 319.994 574.684C320.261 574.493 320.529 574.289 320.822 574.098C320.949 574.021 321.068 573.931 321.178 573.831L323.572 571.386C323.659 571.306 323.735 571.217 323.801 571.119C326.946 566.446 325.596 557.19 324.018 552.44C317.371 532.514 310.585 508.704 310.585 483.239C310.585 471.117 316.098 461.734 321.942 451.789C331.352 435.759 342.021 417.59 328.971 384.943C324.438 373.611 316.836 366.316 307.007 363.858C304.651 363.262 302.23 362.958 299.8 362.954ZM314.914 572.66C313.681 572.587 312.466 572.329 311.31 571.896C289.181 564.511 288.646 541.439 288.124 519.119C287.895 509.111 287.679 499.664 285.476 491.973C282.93 483.061 279.021 474.937 275.29 467.068C268.338 452.579 261.768 438.904 263.512 421.46C264.989 406.742 272.425 381.187 286.711 371.103C289.46 369.103 292.622 367.747 295.966 367.134C299.309 366.521 302.747 366.668 306.026 367.564C316.887 370.276 322.579 379.29 325.367 386.369C337.731 417.271 328.003 433.836 318.593 449.854C312.749 459.798 306.714 470.073 306.714 483.239C306.714 509.251 313.602 533.431 320.338 553.65C321.789 557.992 322.681 565.606 320.669 568.84L318.555 570.992C318.262 571.183 317.982 571.386 317.702 571.59C316.934 572.275 315.943 572.655 314.914 572.66Z" fill="#F4B905" fill-opacity="0.2"/>
<path d="M-44.5644 283.274C-45.361 283.271 -46.1567 283.327 -46.9453 283.44C-52.9042 284.293 -57.1314 288.303 -59.4742 295.37C-61.817 302.436 -57.6662 309.21 -53.6427 315.742C-51.0962 319.842 -48.7406 323.725 -48.1422 327.341C-42.8455 359.173 -61.3331 379.927 -103.109 389.209L-104.84 389.591C-111.028 390.953 -117.42 392.354 -122.933 395.537C-123.329 395.769 -123.693 396.051 -124.016 396.377C-124.745 397.08 -125.248 397.984 -125.46 398.974C-125.673 399.964 -125.586 400.995 -125.21 401.935C-124.835 402.875 -124.187 403.682 -123.351 404.252C-122.514 404.823 -121.527 405.131 -120.514 405.137C-111.143 405.379 -103.083 406.067 -95.9657 406.665C-72.4232 408.639 -55.4252 410.065 -19.4685 394.085C4.34143 383.505 12.3629 364.686 5.71652 334.854C3.67603 325.561 -0.0807495 316.73 -5.36081 308.815C-10.5175 301.392 -29.7054 283.274 -44.5644 283.274ZM-74.8806 404.068C-81.5652 404.068 -88.2116 403.508 -95.6346 402.884C-102.803 402.272 -110.914 401.61 -120.412 401.343C-120.679 401.36 -120.944 401.292 -121.171 401.149C-121.397 401.007 -121.572 400.797 -121.672 400.549C-121.772 400.301 -121.792 400.027 -121.728 399.768C-121.664 399.508 -121.52 399.275 -121.316 399.102C-121.228 399.015 -121.129 398.938 -121.023 398.873C-116.019 395.983 -109.921 394.646 -104.025 393.347L-102.281 392.965C-58.1627 383.161 -38.6183 360.879 -44.3734 326.756C-45.0991 322.401 -47.7857 318.034 -50.3831 313.794C-54.1265 307.72 -57.6534 301.978 -55.8581 296.605C-53.9737 290.952 -50.8797 287.896 -46.3978 287.247C-33.7417 285.426 -13.8407 303.328 -8.50574 311.031C-3.52924 318.555 0.0266724 326.927 1.98587 335.732C8.23758 363.858 1.14554 380.805 -21.0219 390.648C-45.1373 401.343 -60.1235 404.068 -74.8806 404.068Z" fill="#F4B905" fill-opacity="0.2"/>
<path d="M-100.741 622.024C-103.465 617.427 -106.292 612.665 -106.292 606.745C-106.292 602.097 -104.344 597.934 -102.472 593.897C-100.906 590.937 -99.7535 587.775 -99.0471 584.501C-97.5828 575.588 -102.867 567.949 -107.476 563.021C-121.558 548.188 -150.652 537.059 -169.738 539.198C-179.351 540.281 -185.679 543.502 -189.079 549.028C-195.725 559.812 -189.97 577.74 -184.062 593.694C-183.171 596.087 -182.305 598.71 -181.389 601.486C-178.193 611.125 -174.577 622.062 -168.656 628.123C-168.019 628.759 -167.255 629.498 -166.39 630.325C-164.569 632.095 -162.366 634.221 -160.189 636.59H-165.396C-166.67 635.316 -167.943 634.12 -168.974 633.076C-169.853 632.222 -170.642 631.459 -171.292 630.809C-177.913 624.112 -181.681 612.729 -185.005 602.683C-185.909 599.933 -186.762 597.348 -187.627 595.043C-193.854 578.224 -199.902 559.278 -192.262 547.029C-188.251 540.523 -180.803 536.614 -170.082 535.404C-168.344 535.212 -166.597 535.119 -164.849 535.124C-145.012 535.124 -118.184 546.125 -104.624 560.398C-97.099 568.318 -93.8395 576.861 -95.2019 585.112C-95.9621 588.734 -97.2174 592.235 -98.9325 595.515C-100.715 599.334 -102.408 602.938 -102.408 606.745C-102.408 611.621 -99.9766 615.657 -97.3919 620.076C-94.6034 624.787 -91.5221 630.02 -91.7513 636.628H-95.5711C-95.3801 631.102 -98.0412 626.671 -100.741 622.024Z" fill="#F4B905" fill-opacity="0.2"/>
<path d="M-239.22 621.807C-234.687 618.497 -228.728 617.746 -221.522 619.566C-215.435 621.107 -208.636 628.046 -200.92 636.59H-206.102C-212.278 629.88 -217.982 624.405 -222.451 623.271C-228.601 621.718 -233.337 622.253 -236.966 624.889C-240.328 627.359 -242.518 631.497 -244.007 636.59H-248.018C-246.337 630.351 -243.663 625.054 -239.22 621.807Z" fill="#F4B905" fill-opacity="0.2"/>
<path d="M-62.39 608.489C-63.5614 600.722 -65.3949 590.663 -69.2401 581.751C-75.9027 566.659 -84.5572 552.527 -94.9726 539.733C-100.066 533.481 -107.107 528.019 -113.957 522.722C-115.829 521.284 -117.662 519.87 -119.406 518.457C-125.594 513.441 -132.7 509.679 -140.326 507.38C-182.076 494.762 -201.264 528.541 -219.815 561.213C-234.012 586.194 -247.42 609.851 -270.16 612.64C-281.619 614.066 -292.989 612.729 -304.309 610.221V606.299C-293.066 608.845 -281.772 610.246 -270.631 608.845C-249.788 606.299 -236.839 583.457 -223.139 559.329C-207.414 531.635 -189.894 500.759 -157.222 500.759C-151.106 500.82 -145.032 501.776 -139.193 503.598C-131.095 506.029 -123.551 510.021 -116.987 515.35C-115.256 516.738 -113.435 518.139 -111.589 519.578C-104.56 525.002 -97.3027 530.604 -91.9677 537.199C-81.3292 550.291 -72.4907 564.748 -65.6877 580.185C-61.6642 589.556 -59.7798 599.933 -58.5829 607.929C-56.9666 617.406 -56.8635 627.08 -58.2774 636.59H-62.0971C-60.7475 628.785 -60.6966 619.579 -62.39 608.489Z" fill="#F4B905" fill-opacity="0.2"/>
<path d="M332.319 234.241C327.566 234.603 322.794 234.662 318.033 234.419C292.365 232.904 269.319 220.413 247.024 208.394C230.93 199.697 214.276 190.696 196.972 186.086C154.331 174.703 120.157 188.06 98.1676 224.717C91.1774 236.354 86.3263 245.535 87.4595 257.936C89.0765 275.762 95.5574 291.041 102.42 307.148C105.833 315.169 109.359 323.471 112.237 332.116C116.197 344.008 116.795 355.404 117.432 367.474C117.636 371.294 117.839 375.369 118.183 379.367C118.769 386.51 121.035 393.742 123.276 400.732C125.09 406.132 126.57 411.638 127.707 417.22C131.209 436.447 121.583 470.57 108.264 486.091C91.4575 505.712 67.1129 514.179 35.9181 511.263C4.21402 508.296 -24.587 494.494 -38.9366 486.524C-60.2636 474.67 -98.0157 457.239 -111.117 473.613C-111.918 474.589 -112.502 475.723 -112.831 476.941C-113.161 478.159 -113.227 479.434 -113.027 480.68C-111.92 489.465 -100.944 499.778 -94.6416 504.54C-89.7268 508.22 -84.4555 511.887 -79.3625 515.427C-54.4576 532.718 -28.7124 550.607 -23.683 583.304C-20.5381 603.778 -22.7281 619.999 -29.0816 636.539H-33.2069C-26.6624 620.076 -24.2942 604.096 -27.4646 583.89C-32.2902 552.86 -57.297 535.455 -81.5907 518.61C-86.6837 515.057 -92.0186 511.365 -96.9843 507.647C-98.856 506.234 -115.294 493.641 -116.873 481.214C-117.135 479.46 -117.028 477.671 -116.559 475.961C-116.09 474.251 -115.269 472.657 -114.148 471.283C-107.145 462.523 -94.0177 460.906 -75.1098 466.483C-64.0197 469.755 -51.249 475.396 -37.1286 483.239C-23.0082 491.082 5.20718 504.617 36.2237 507.507C66.107 510.308 89.3567 502.274 105.323 483.659C117.801 469.106 127.172 435.937 123.9 417.959C122.787 412.533 121.345 407.18 119.584 401.929C117.33 394.735 115 387.299 114.376 379.736C114.032 375.674 113.816 371.625 113.612 367.716C113.001 355.913 112.415 344.798 108.608 333.338C105.782 324.846 102.242 316.621 98.906 308.675C92.2342 292.963 85.3204 276.717 83.627 258.305C82.3537 244.783 87.7396 234.636 94.8571 222.782C112.517 193.357 137.651 178.307 168.54 178.307C178.474 178.389 188.353 179.771 197.927 182.419C215.676 187.143 232.522 196.26 248.857 205.058C270.783 216.912 293.421 229.173 318.275 230.625C322.943 230.865 327.621 230.806 332.281 230.447L332.319 234.241Z" fill="#F4B905" fill-opacity="0.2"/>
<path d="M332.319 297.496C312.269 290.788 292.842 282.344 274.259 272.26C267.665 268.551 261.327 264.403 255.287 259.846C248.756 255.148 242.007 250.284 234.801 246.681C211.958 235.221 170.527 235.221 151.351 252.257C125.275 275.443 132.877 303.952 140.223 331.53C143.024 342.022 147.723 355.073 152.714 368.9C169.852 416.469 191.192 475.676 167.764 510.818C141.675 549.945 84.1618 547.818 39.0376 532.781C35.447 531.584 30.9906 529.573 26.3051 527.434C11.7263 520.851 -8.2002 511.811 -19.2011 520.061C-22.4989 522.531 -24.2942 525.154 -24.7016 527.981C-25.491 533.609 -20.7927 539.822 -16.2599 545.807C-14.4774 548.149 -12.7967 550.378 -11.4088 552.606C-9.54987 555.572 -7.58905 558.565 -5.55182 561.735C7.49905 581.891 22.307 604.72 19.595 629.218C19.3094 631.707 18.8369 634.171 18.1817 636.59H14.2218C14.9639 634.032 15.492 631.417 15.8007 628.772C18.3472 605.675 3.94666 583.457 -8.76044 563.836C-10.8231 560.653 -12.7712 557.648 -14.6429 554.656C-15.9161 552.568 -17.5841 550.416 -19.303 548.124C-24.3196 541.503 -29.489 534.653 -28.4832 527.446C-27.9357 523.626 -25.5801 520.074 -21.493 517.006C-8.76044 507.405 11.6116 516.585 27.8584 523.958C32.4803 526.046 36.8349 528.019 40.2345 529.152C84.0218 543.744 139.688 546.036 164.581 508.691C186.939 475.154 165.968 416.953 149.111 370.199C144.107 356.295 139.37 343.155 136.531 332.511C128.891 303.824 120.972 274.145 148.818 249.405C158.494 240.798 173.799 235.667 191.879 234.954C193.28 234.954 194.68 234.865 196.081 234.865C210.978 234.865 225.824 237.933 236.507 243.268C243.994 247.012 250.869 251.965 257.516 256.752C263.421 261.204 269.614 265.262 276.054 268.899C294.082 278.664 312.904 286.885 332.319 293.473V297.496Z" fill="#F4B905" fill-opacity="0.2"/>
<path d="M332.319 636.59H332.014C332.014 631.497 329.136 626.531 323.547 621.642C297.942 599.283 263.322 603.052 229.81 606.706C213.448 608.489 196.539 610.335 181.273 608.947C167.866 607.674 156.394 601.512 145.291 595.515C134.188 589.517 123.964 583.966 111.753 582.616C95.7994 580.834 78.6487 582.196 65.9161 586.232C48.5362 591.746 38.8212 601.779 37.0387 616.065C36.1729 622.953 37.497 629.638 39.1523 636.59H35.2307C33.6391 629.778 32.3403 622.788 33.2444 615.581C36.9241 585.901 70.7163 578.02 97.5693 578.02C102.448 578.02 107.323 578.284 112.174 578.809C125.123 580.248 136.302 586.296 147.112 592.153C158.367 598.239 168.999 603.994 181.617 605.14C196.501 606.49 212.481 604.758 229.389 602.912C263.767 599.169 299.24 595.273 326.068 618.777C328.458 620.814 330.561 623.165 332.319 625.767L332.319 636.59Z" fill="#F4B905" fill-opacity="0.2"/>
<path d="M169.164 636.59C166.923 635.851 164.619 635.087 162.251 634.272C142.502 627.601 120.119 620.025 102.408 630.631C99.7746 632.125 97.4843 634.155 95.6848 636.59H91.1266C93.3156 632.69 96.559 629.487 100.485 627.346C107.298 623.362 115.08 621.34 122.971 621.502C136.416 621.502 150.486 626.264 163.473 630.656C167.56 632.044 171.431 633.356 175.149 634.476C178.323 635.397 181.556 636.104 184.825 636.59H169.164Z" fill="#F4B905" fill-opacity="0.2"/>
<path d="M332.319 544.915C332.167 544.406 331.988 543.884 331.836 543.362C327.023 526.504 327.748 507.711 332.319 489.083V544.915Z" fill="#F4B905" fill-opacity="0.2"/>
<path d="M332.319 315.475L330.359 314.953C321.446 312.508 313.424 307.835 305.721 303.328C301.901 301.125 298.081 298.833 294.109 296.872C271.343 285.489 218.108 271.802 198.182 291.779C152.663 337.247 180.955 407.951 201.607 459.607C203.097 463.427 204.994 467.081 206.993 471.066C210.94 478.846 215.014 486.893 216.084 495.424C218.019 510.907 205.376 519.616 194.222 527.37C181.324 536.283 170.183 543.922 178.204 560.029C180.331 564.294 183.692 568.305 186.952 572.201C187.97 573.474 188.989 574.633 189.957 575.843C194.719 581.802 203.504 580.465 211.245 579.293C212.595 579.09 213.894 578.886 215.142 578.733C232.089 576.607 271.789 569.044 274.513 544.521C276.525 526.479 268.045 513.249 259.082 499.256C255.418 493.736 252.043 488.028 248.972 482.157C246.12 476.389 243.331 471.066 240.645 465.973C222.73 432.092 210.902 409.708 235.883 365.997C241.829 355.582 254.625 337.273 273.482 331.62C289.016 326.959 310.827 329.684 332.332 337.986V342.188C311.158 333.771 289.436 330.805 274.577 335.261C256.993 340.532 244.859 357.963 239.193 367.882C215.256 409.772 226.079 430.271 244.019 464.178C246.731 469.271 249.532 474.619 252.41 480.361C255.405 486.121 258.703 491.719 262.29 497.13C271.203 511.136 280.447 525.498 278.295 544.877C275.277 572.099 233.451 580.223 215.613 582.451C214.339 582.604 213.066 582.807 211.793 582.998C203.466 584.272 193.089 585.85 186.939 578.16C185.997 576.976 185.004 575.792 183.998 574.582C180.433 570.649 177.335 566.317 174.767 561.671C165.255 542.662 178.867 533.252 192.019 524.161C203.275 516.369 213.919 509.022 212.264 495.831C211.284 487.963 207.362 480.221 203.555 472.734C201.607 468.915 199.595 464.904 198.029 461.008C176.982 408.384 148.156 336.331 195.483 289.029C203.682 280.817 216.644 277.735 230.904 277.735C254.103 277.735 280.727 285.91 295.841 293.447C299.89 295.472 303.849 297.789 307.669 300.03C315.156 304.423 322.948 308.943 331.39 311.26L332.345 311.528L332.319 315.475Z" fill="#F4B905" fill-opacity="0.2"/>
<path d="M332.319 41.8392C327.405 40.757 322.503 39.7129 317.677 38.6943C294.695 33.8177 272.998 29.2085 258.471 21.9382C247.572 16.4977 237.804 9.04059 229.682 -0.038208H234.954C242.241 7.54266 250.772 13.8212 260.177 18.5259C274.272 25.567 295.739 30.1252 318.466 34.9509C323.037 35.9186 327.672 36.9117 332.319 37.9303V41.8392Z" fill="#F4B905" fill-opacity="0.2"/>
<path d="M88.0708 13.5857C83.6781 35.5366 61.6889 41.8392 42.2336 47.3906C27.6675 51.5669 13.9036 55.5012 10.313 65.2926C7.33362 73.3777 11.2298 85.3336 22.2307 101.835C27.2616 109.59 34.3025 115.834 42.6028 119.903C53.5019 125.352 63.1531 133.424 72.0914 144.591C74.8926 148.08 76.8661 152.511 78.776 156.789C83.3215 166.975 87.6888 176.702 102.7 176.702C104.957 176.689 107.209 176.501 109.436 176.142C120.895 174.385 126.854 168.936 133.182 163.168C142.795 154.395 152.739 145.342 181.655 150.142C211.144 155.057 242.771 169.165 270.783 181.604L275.723 183.807C281.612 186.569 287.335 189.672 292.861 193.102C302.016 198.539 311.489 204.179 322.146 206.293C325.571 206.98 328.996 207.49 332.332 207.834V211.653C328.691 211.284 325.024 210.749 321.344 210.011C310.088 207.77 300.335 201.964 290.9 196.362C285.502 193.006 279.911 189.971 274.157 187.27L269.204 185.068C241.485 172.717 210.049 158.711 181.031 153.886C153.974 149.366 145.125 157.425 135.767 165.969C129.299 171.864 122.614 177.95 110.034 179.898C86.5302 183.527 80.5586 170.132 75.3 158.317C73.7162 154.287 71.6422 150.469 69.1247 146.946C60.5302 136.226 51.2991 128.484 40.9094 123.289C32.0411 118.908 24.5095 112.229 19.0985 103.949C7.20627 86.123 3.28464 73.3904 6.76062 63.9684C11.026 52.369 25.694 48.1673 41.2149 43.7236C60.4666 38.2104 80.3803 32.5062 84.3147 12.8344C85.1602 8.58521 85.7259 4.28516 86.0081 -0.038208H89.8279C89.5408 4.53662 88.9539 9.08771 88.0708 13.5857Z" fill="#F4B905" fill-opacity="0.2"/>
<path d="M332.319 76.1152C328.334 74.4218 324.4 72.7156 320.529 71.0222C295.802 60.2887 272.451 50.1536 244.936 44.6404C230.23 41.6992 213.104 38.7834 210.252 39.0635C200.575 45.7481 187.334 68.7813 184.787 79.1074C179.299 101.046 200.397 116.452 217.357 128.828C220.222 130.929 222.934 132.902 225.429 134.851C234.839 142.159 244.757 143.407 255.262 144.731C261.879 145.35 268.418 146.629 274.781 148.551C282.71 151.43 290.438 154.833 297.916 158.737C307.147 163.295 316.684 168.006 326.106 170.362C328.13 170.871 330.218 171.253 332.332 171.571V175.391C329.925 175.057 327.536 174.598 325.176 174.016C315.359 171.559 305.632 166.758 296.222 162.111C288.901 158.29 281.334 154.959 273.571 152.141C267.445 150.292 261.149 149.059 254.778 148.462C244.223 147.125 233.324 145.75 223.087 137.792C220.642 135.895 217.994 133.972 215.103 131.846C197.278 118.795 174.97 102.561 181.082 78.1143C183.883 66.8842 197.52 42.9088 208.38 35.6639C208.61 35.5111 208.979 35.2692 210.698 35.2692C214.072 35.2692 222.692 36.2369 245.687 40.8333C273.609 46.4229 297.139 56.6345 322.082 67.4572L332.357 71.888L332.319 76.1152Z" fill="#F4B905" fill-opacity="0.2"/>
<path d="M332.319 103.363C327.697 101.593 323.126 99.7596 318.594 97.9516C299.66 90.3121 280.065 82.4815 259.285 80.5971C245.089 79.3239 236.545 80.9791 235.832 85.1808C234.317 94.0936 261.208 114.198 277.073 118.171C292.25 121.991 308.357 126.294 323.33 132.279C325.584 133.183 328.678 134.303 332.319 135.538V139.523C327.608 137.957 323.916 136.633 321.917 135.831C307.147 129.923 291.193 125.645 276.143 121.825C261.093 118.005 229.937 97.0603 232.076 84.4933C233.235 77.6304 242.58 76.2426 250.474 76.2426C254.192 76.2426 257.579 76.5482 259.629 76.7391C280.969 78.6745 300.819 86.6451 320.02 94.3483C324.081 95.978 328.181 97.6205 332.319 99.2249V103.363Z" fill="#F4B905" fill-opacity="0.2"/>
<path d="M289.245 -0.038208H289.029C287.012 0.439209 284.91 0.417358 282.904 -0.101807L289.245 -0.038208Z" fill="#F4B905" fill-opacity="0.2"/>
<path d="M332.319 10.9882C328.114 8.50201 324.812 4.73676 322.897 0.241943C322.862 0.150513 322.832 0.0569458 322.808 -0.038208H326.959C328.242 2.46149 330.075 4.63806 332.319 6.32812V10.9882Z" fill="#F4B905" fill-opacity="0.2"/>
<path d="M173.417 49.7843C163.473 57.2328 157.31 64.4904 152.141 74.842C147.634 83.8566 145.24 93.4697 142.923 102.764C139.969 114.657 136.9 126.956 129.401 138.212C126.268 142.91 121.354 145.622 114.784 146.284C102.879 147.456 89.675 141.484 87.4723 139.281C83.3724 135.182 79.5526 131.833 76.1785 128.879C66.1962 120.119 58.9896 113.791 55.0043 97.8497C51.8721 85.3464 67.1257 76.3954 83.2705 66.9224C97.0981 58.799 111.397 50.3701 113.459 40.0822C114.593 34.7854 113.319 22.8804 112.046 9.15472C111.753 6.18805 111.448 3.10675 111.155 -0.038208H114.975C115.255 2.97943 115.548 5.93341 115.828 8.78546C117.266 23.4152 118.374 34.9764 117.241 40.8333C114.835 52.8401 99.7847 61.6638 85.2314 70.2201C70.347 78.9419 56.303 87.1926 58.7349 96.9584C62.4274 111.741 68.921 117.432 78.725 126.04C82.1373 129.032 86.008 132.406 90.1843 136.62C91.6104 138.046 101.962 142.643 111.677 142.643C112.606 142.643 113.523 142.643 114.427 142.516C119.788 141.981 123.773 139.829 126.243 136.149C133.373 125.454 136.213 114.02 139.23 101.911C141.598 92.413 144.03 82.5961 148.729 73.1995C154.191 62.275 160.685 54.6227 171.125 46.7922C182.139 38.5414 180.191 17.5837 177.16 0.0254517H180.98C184.151 18.3731 185.959 40.3749 173.417 49.7843Z" fill="#F4B905" fill-opacity="0.2"/>
<path d="M70.296 216.645C53.8328 227.62 28.7242 212.825 4.44318 198.615C-9.2316 190.581 -22.1552 183.005 -31.8192 181.248C-57.4371 176.588 -80.6994 177.887 -107.718 181.248C-113.32 181.948 -119.712 184.393 -126.46 186.978C-138.365 191.536 -150.652 196.234 -161.462 192.631C-173.583 188.595 -176.907 164.619 -179.568 145.368C-180.841 136.608 -181.936 128.319 -183.629 124.843C-184.342 124.028 -188.43 121.863 -192.364 119.75C-210.992 109.831 -249.75 89.1916 -263.361 52.5345C-267.983 40.0948 -272.108 24.6375 -262.915 15.4573C-251.456 3.99805 -227.888 15.2027 -213.806 21.8873C-211.514 22.9823 -209.527 23.9245 -207.91 24.6121C-177.913 37.4719 -136.137 49.7971 -107.54 35.4984C-93.2028 28.33 -78.7386 14.1841 -67.9669 -0.0636597H-63.1412C-74.3841 15.4446 -89.9942 30.9911 -105.834 38.9107C-115.485 43.7363 -126.486 45.6972 -137.996 45.6972C-162.188 45.6972 -188.595 37.0518 -209.413 28.1262C-211.094 27.4132 -213.105 26.4456 -215.448 25.3378C-228.626 19.0861 -250.679 8.62 -260.216 18.1567C-267.855 25.7962 -264.036 39.802 -259.783 51.1976C-246.668 86.5432 -208.814 106.699 -190.569 116.401C-183.337 120.221 -181.007 121.494 -180.243 123.073C-178.256 127.058 -177.11 135.309 -175.786 144.858C-173.392 162.111 -170.12 185.743 -160.252 189.028C-150.754 192.198 -139.104 187.754 -127.835 183.425C-120.845 180.751 -114.262 178.23 -108.202 177.466C-80.814 174.054 -57.2715 172.743 -31.1316 177.466C-20.8055 179.338 -7.60184 187.092 6.37851 195.292C28.5586 208.317 53.7054 223.087 68.1696 213.449C80.1 205.491 71.2509 188.416 65.3939 177.123C64.7827 175.951 64.2098 174.844 63.7005 173.825C56.1374 158.699 33.8427 130.993 17.4686 123.722L15.1895 122.716C-0.573456 115.764 -26.9426 104.127 -29.54 85.9193C-33.0033 61.7275 -11.0014 44.4749 12.2864 26.2545C23.0582 17.8383 33.9318 9.2948 42.2843 -0.0636597H47.3773C38.5537 10.5681 26.445 20.0411 14.6547 29.2213C-7.74188 46.7285 -28.8907 63.2681 -25.7457 85.3209C-23.4411 101.44 2.69879 112.976 16.7428 119.164L19.0347 120.183C36.4146 127.911 59.1295 156.076 67.1255 172.068L68.7935 175.315C74.8797 187.13 85.0657 206.789 70.296 216.645Z" fill="#F4B905" fill-opacity="0.2"/>
<path d="M-14.2736 12.2233C-19.6085 19.6973 -24.345 27.9734 -28.9287 35.9822C-31.7809 40.9607 -34.7348 46.1683 -37.8416 51.0067C-43.3165 59.7667 -45.7612 69.8508 -48.1167 79.6167C-50.7396 90.3884 -53.4389 101.529 -60.2126 111.015C-69.5965 124.168 -82.0872 130.114 -94.1576 135.971C-101.479 139.498 -109.067 143.152 -116.07 148.398C-118.337 150.104 -120.832 153.415 -123.468 156.916C-130.089 165.727 -138.34 176.69 -149.939 170.922C-155.949 167.917 -159.603 164.225 -161.105 159.628C-163.652 151.989 -159.336 143.687 -155.58 136.391C-152.651 130.725 -149.888 125.352 -151.429 122.258C-154.141 116.834 -162.302 114.275 -169.509 112.072C-172.847 111.136 -176.107 109.944 -179.262 108.507C-185.705 105.286 -242.072 76.3062 -236.317 51.4905C-236.131 50.4083 -235.666 49.3934 -234.967 48.5468C-234.268 47.7003 -233.359 47.0514 -232.331 46.6649C-224.539 43.7873 -208.305 55.0302 -190.938 67.8137C-187.872 70.2106 -184.68 72.442 -181.376 74.4982C-157.617 86.365 -122.933 93.457 -102.93 80.9536C-65.6112 57.6276 -56.7621 41.1007 -43.3675 16.094C-40.6936 11.1028 -37.8415 5.78058 -34.5693 0.038208H-30.1638C-33.8817 6.4809 -37.0521 12.3888 -40.0061 17.8638C-53.197 42.5013 -62.721 60.3015 -100.906 84.175C-109.322 89.4208 -119.419 91.4453 -129.834 91.4453C-149.659 91.4453 -170.578 84.124 -183.082 77.8851C-186.614 75.7524 -190.016 73.4097 -193.268 70.8694C-204.205 62.8098 -224.565 47.8235 -231.071 50.23C-231.503 50.4017 -231.879 50.6882 -232.16 51.0585C-232.44 51.4288 -232.614 51.8688 -232.662 52.3308C-236.8 70.1564 -198.463 94.6411 -177.62 105.069C-174.64 106.403 -171.568 107.518 -168.427 108.405C-160.507 110.888 -151.518 113.702 -148.055 120.577C-145.635 125.403 -148.831 131.604 -152.218 138.174C-155.605 144.744 -159.514 152.307 -157.502 158.469C-156.343 162.035 -153.313 165.001 -148.271 167.522C-140.148 171.597 -134.151 164.759 -126.549 154.675C-123.748 150.945 -121.1 147.418 -118.4 145.393C-111.105 139.918 -103.351 136.187 -95.8511 132.584C-83.6787 126.727 -72.1812 121.201 -63.3576 108.851C-56.9913 99.9379 -54.5212 89.6627 -51.8983 78.7637C-49.4664 68.7049 -46.9453 58.3151 -41.1393 49.0331C-38.1216 44.2075 -35.1932 39.089 -32.3665 34.136C-27.7319 26.0508 -22.9445 17.6855 -17.4949 10.0587C-14.8234 6.51385 -11.8819 3.18073 -8.69672 0.0891724L-8.62033 0.0127563H-3.2981C-4.17664 0.942261 -5.08066 1.85901 -5.9592 2.763C-8.96283 5.70453 -11.7421 8.86682 -14.2736 12.2233Z" fill="#F4B905" fill-opacity="0.2"/>
<path d="M-200.895 4.06171C-206.189 3.46942 -211.365 2.08746 -216.25 -0.038208H-202.983C-202.181 0.0891724 -201.379 0.203735 -200.589 0.2547C-193.15 0.803345 -185.678 0.705322 -178.256 -0.038208H-155.694C-170.45 3.70465 -185.706 5.08838 -200.895 4.06171Z" fill="#F4B905" fill-opacity="0.2"/>
<path d="M-214.047 204.701C-218.071 206.866 -221.865 208.916 -225.252 210.953C-232.37 215.394 -239.177 220.316 -245.624 225.685C-261.387 238.226 -276.297 250.08 -304.309 248.247V244.427C-277.57 246.235 -263.87 235.323 -248.018 222.692C-241.433 217.223 -234.486 212.203 -227.226 207.668C-223.75 205.593 -219.917 203.53 -215.856 201.302C-206.357 196.209 -196.527 190.887 -190.62 184.979C-189.486 183.845 -189.716 179.249 -189.83 177.034C-189.83 176.206 -189.907 175.455 -189.907 174.856C-189.907 158.953 -194.121 144.998 -214.684 128.535C-218.504 125.479 -223.151 123.722 -228.066 121.876C-233.401 119.852 -238.927 117.763 -243.434 113.829C-277.188 84.3278 -313.081 40.9606 -295.956 -0.038208H-291.78C-309.542 39.3054 -274.12 81.934 -240.85 110.99C-236.877 114.478 -231.937 116.35 -226.653 118.336C-221.674 120.221 -216.467 122.156 -212.239 125.594C-196.502 138.186 -186.023 151.377 -186.023 174.894C-186.023 175.442 -186.023 176.168 -185.947 176.881C-185.756 180.701 -185.527 185.386 -187.857 187.716C-194.223 194.019 -204.294 199.443 -214.047 204.701Z" fill="#F4B905" fill-opacity="0.2"/>
<path d="M-304.309 102.548V98.2572C-303.459 97.7485 -302.673 97.1416 -301.966 96.4492C-301.024 95.4942 -300.693 93.3424 -301.227 90.4012C-301.871 87.0207 -302.905 83.7264 -304.309 80.5844V71.8116C-301.024 77.936 -298.299 84.6078 -297.458 89.79C-296.758 94.1063 -297.369 97.2513 -299.267 99.1484C-300.729 100.576 -302.437 101.727 -304.309 102.548Z" fill="#F4B905" fill-opacity="0.2"/>
<path d="M-262.151 188.302C-264.698 192.605 -267.32 197.062 -272.464 200.143C-280.002 204.663 -291.194 207.222 -304.296 207.503V203.683C-292.76 203.403 -281.785 201.302 -274.413 196.884C-270.109 194.337 -267.843 190.517 -265.436 186.366C-264.097 183.969 -262.586 181.671 -260.916 179.491C-251.341 167.522 -247.929 157.846 -250.73 150.715C-256.103 137.346 -282.256 133.424 -304.207 130.509V126.689C-281.123 129.758 -253.378 133.832 -247.152 149.327C-243.689 157.947 -247.152 168.605 -257.835 181.923C-259.424 183.943 -260.867 186.075 -262.151 188.302Z" fill="#F4B905" fill-opacity="0.2"/>
<path d="M25.4647 453.827C22.8163 454.807 20.3716 455.915 17.9779 456.984C12.1973 459.594 6.73508 462.077 -0.637085 462.714C-19.5449 464.433 -42.6545 460.842 -67.0628 457.048C-109.437 450.452 -153.262 443.653 -184.915 461.734C-208.063 474.963 -219.421 498.187 -230.409 520.634C-241.104 542.471 -251.188 563.097 -271.153 575.091C-280.435 580.668 -292.111 582.731 -304.258 582.4V578.58C-293.753 578.848 -282.332 577.307 -273.05 571.806C-254.028 560.347 -244.173 540.255 -233.745 518.941C-222.502 496.022 -210.826 472.225 -186.711 458.41C-153.886 439.655 -107.4 446.951 -66.3753 453.317C-42.1834 457.137 -19.2648 460.639 -0.878998 458.958C5.85654 458.347 11.0387 456.017 16.5137 453.559C18.9456 452.464 21.4666 451.331 24.2169 450.3C50.6242 440.394 65.3558 430.857 73.4919 418.392C82.5065 404.577 84.0854 386.217 78.5849 358.842C75.7073 344.492 70.0286 333.173 64.0189 321.191C59.8971 313.348 56.2367 305.27 53.0561 297C51.0789 291.205 49.4086 285.31 48.0522 279.34C45.0219 267.04 41.8897 254.333 33.6644 244.962C9.68903 217.549 -26.0767 201.938 -69.7621 199.799C-106.967 197.991 -148.704 206.357 -184.253 222.718C-197.355 228.702 -209.833 236.787 -221.865 244.656C-238.099 255.224 -254.792 266.149 -273.75 272.439C-282.663 275.418 -293.002 276.36 -304.309 275.291V271.471C-293.359 272.54 -283.44 271.662 -274.922 268.823C-256.472 262.673 -239.933 251.888 -223.992 241.46C-211.807 233.541 -199.265 225.328 -185.896 219.166C-152.626 203.947 -116.519 195.92 -79.9355 195.61C-76.4552 195.61 -73.0132 195.695 -69.6093 195.865C-24.8671 198.042 11.879 214.111 36.5038 242.326C45.3402 252.41 48.587 265.588 51.7192 278.321C53.042 284.159 54.674 289.922 56.6085 295.586C59.7364 303.735 63.3374 311.693 67.393 319.422C73.2499 331.11 79.3234 343.181 82.2901 358.04C87.9815 386.471 86.2244 405.71 76.6241 420.429C68.0169 433.633 52.7378 443.615 25.4647 453.827Z" fill="#F4B905" fill-opacity="0.2"/>
<path d="M-32.2011 427.776C-48.6643 431.888 -65.1784 429.278 -81.1578 426.757C-85.9325 426.006 -90.86 425.229 -95.6729 424.644C-99.7091 424.16 -103.771 423.65 -107.845 423.141C-140.632 419.029 -174.526 414.776 -206.65 422.072C-232.522 427.916 -263.259 449.88 -269.931 476.452C-271.688 483.481 -271.459 491.731 -271.204 500.644C-270.682 519.387 -270.083 540.637 -292.034 548.875C-295.975 550.273 -300.127 550.984 -304.309 550.976V547.156C-300.576 547.162 -296.871 546.52 -293.359 545.259C-273.967 537.976 -274.476 519.883 -275.011 500.695C-275.253 492.024 -275.495 483.073 -273.61 475.523C-269.434 458.83 -257.351 446.238 -247.942 438.598C-235.96 428.845 -221.203 421.473 -207.49 418.354C-174.717 410.905 -140.479 415.196 -107.374 419.347C-103.3 419.869 -99.238 420.365 -95.2272 420.849C-90.3379 421.435 -85.3723 422.224 -80.5594 422.988C-64.962 425.446 -48.8298 427.992 -33.1306 424.071C-16.922 420.022 -0.191437 409.479 11.6244 395.868C24.5988 380.945 30.494 364.037 28.1767 348.185C24.6243 323.267 10.5676 301.482 -13.6116 283.452C-56.9023 251.201 -120.565 240.416 -161.182 246.426C-179.53 249.113 -196.655 257.771 -213.233 266.072C-219.459 269.217 -225.965 272.439 -232.331 275.354C-242.326 279.849 -251.239 288.087 -260.687 296.77C-273.75 308.956 -287.298 321.383 -304.309 323.623V319.727C-288.597 317.384 -275.749 305.543 -263.233 294.084C-253.99 285.553 -244.415 276.729 -233.859 271.98C-227.493 269.141 -221.127 265.907 -214.951 262.775C-198.106 254.269 -180.701 245.471 -161.691 242.657C-120.298 236.533 -55.3489 247.521 -11.2688 280.396C13.3942 298.795 28.3549 322.057 32.0219 347.663C34.4284 364.597 28.2021 382.613 14.5146 398.389C2.20227 412.497 -15.2795 423.498 -32.2011 427.776Z" fill="#F4B905" fill-opacity="0.2"/>
<path d="M-125.785 383.899C-133.871 387.133 -142.338 390.266 -150.499 393.283C-166.797 399.331 -183.731 405.583 -198.628 413.006C-203.365 415.374 -209.578 415.132 -215.588 414.89C-218.982 414.629 -222.393 414.693 -225.774 415.081C-234.534 416.546 -245.268 422.505 -253.646 427.521C-268.416 436.434 -286.343 457.799 -289.526 476.936C-290.226 481.1 -290.596 485.543 -291.003 490.242C-292.162 504.171 -293.486 519.743 -304.309 528.592V523.27C-296.936 515.134 -295.841 502.363 -294.785 489.898C-294.377 485.123 -293.982 480.616 -293.269 476.3C-289.895 456.08 -271.089 433.531 -255.581 424.236C-246.923 419.041 -235.782 412.866 -226.373 411.3C-222.726 410.864 -219.046 410.783 -215.384 411.058C-209.858 411.274 -204.142 411.504 -200.284 409.581C-185.259 402.069 -168.261 395.779 -151.823 389.693C-143.675 386.675 -135.271 383.556 -127.199 380.334C-111.512 374.057 -84.5701 351.852 -89.001 331.785C-92.0568 318.008 -103.847 308.421 -113.193 302.818C-124.62 296.143 -137.181 291.633 -150.245 289.513C-184.482 284.242 -238.481 313.106 -277.901 334.166C-285.974 338.482 -293.588 342.544 -300.043 345.778C-301.482 346.504 -302.908 347.204 -304.309 347.892V343.626L-301.762 342.353C-295.396 339.144 -287.756 335.083 -279.722 330.792C-243.129 311.235 -194.146 285.057 -158.89 285.057C-155.809 285.044 -152.731 285.27 -149.684 285.731C-127.071 289.207 -91.2802 304.117 -85.3213 330.957C-80.3174 353.43 -108.558 377.011 -125.785 383.899Z" fill="#F4B905" fill-opacity="0.2"/>
<path d="M-210.011 394.671L-212.558 395.346L-220.477 397.46C-243.014 403.444 -273.878 411.631 -289.233 424.758C-294.887 429.698 -300.311 438.216 -304.309 447.027V438.484C-300.654 431.876 -296.287 425.879 -291.576 421.932C-275.597 408.244 -244.249 399.917 -221.356 393.844C-218.568 393.105 -215.919 392.405 -213.462 391.73L-210.915 391.055C-197.444 387.465 -185.807 384.358 -188.799 367.907C-190.072 361.248 -194.108 355.417 -200.653 351.037C-210.521 344.428 -225.57 341.564 -237.259 344.072C-255.759 347.955 -273.75 362.7 -291.079 376.973C-295.536 380.627 -299.992 384.243 -304.309 387.655V382.792C-300.743 379.952 -297.14 376.998 -293.499 374.019C-275.788 359.466 -257.466 344.416 -238.137 340.278C-234.881 339.591 -231.56 339.254 -228.232 339.272C-217.752 339.232 -207.48 342.192 -198.628 347.803C-191.205 352.768 -186.545 359.466 -185.145 367.169C-181.49 387.032 -196.642 391.119 -210.011 394.671Z" fill="#F4B905" fill-opacity="0.2"/>
</g>
</svg>
