<svg width="303" height="199" viewBox="0 0 303 199" fill="none" xmlns="http://www.w3.org/2000/svg">
<mask id="mask0_1_15377" style="mask-type:alpha" maskUnits="userSpaceOnUse" x="0" y="0" width="304" height="199">
<path d="M37.4484 164.326L73.2201 198.421H303.5V0H276.671L221.896 31.3002L141.41 41.361L89.988 22.9162L62.0414 65.395L15.6501 102.285L0 127.995L37.4484 164.326Z" fill="#0A102F"/>
</mask>
<g mask="url(#mask0_1_15377)">
<path d="M-22.8496 95.242C-40.5118 95.242 -45.8105 84.2534 -51.914 63.1928C-52.2952 61.7375 -52.3858 60.2213 -52.1805 58.7309C-51.9753 57.2405 -51.4783 55.8052 -50.7179 54.507C-49.9185 52.877 -48.5087 51.6277 -46.7942 51.0305C-39.4163 49.186 -31.8484 49.0519 -24.5264 48.9177C-14.4656 48.7389 -4.94139 48.5712 4.40393 44.4463C7.50226 42.9028 10.4903 41.1473 13.3469 39.1923C21.8873 33.7036 31.5569 27.4883 40.2762 30.3947C46.145 32.351 49.3868 35.2127 49.9234 38.9016C51.1642 47.4533 37.0009 57.3464 27.6331 63.8971C25.9675 65.015 24.5255 66.0658 23.4076 66.9042C19.7308 69.8367 16.2401 72.9952 12.9556 76.3613C4.94052 84.1863 -4.15889 93.1292 -14.8568 94.6384C-17.5034 95.0284 -20.1744 95.2301 -22.8496 95.242ZM-45.967 54.2835C-46.7716 54.6913 -47.4168 55.3562 -47.8003 56.1727C-48.8704 58.0134 -49.1831 60.198 -48.6722 62.265C-41.8756 85.8184 -37.2253 94.4372 -15.2705 91.3295C-5.65683 89.9657 2.61536 81.8388 10.664 73.9802C14.0514 70.5075 17.6543 67.2518 21.4514 64.2325C22.5692 63.3605 24.0784 62.3433 25.7663 61.1583C33.4013 55.8261 47.5982 45.8995 46.6592 39.3935C46.3127 37.0572 43.831 35.1121 39.2701 33.5918C32.0711 31.1884 23.117 36.9454 15.2137 42.0205C12.21 44.0798 9.06046 45.918 5.7901 47.5204C-4.18126 51.9919 -14.4768 52.1371 -24.3922 52.316C-31.5689 52.3943 -38.958 52.5732 -45.967 54.2835Z" fill="#221F1A" fill-opacity="0.1"/>
<path d="M274.39 -124.15C269.568 -124.177 264.876 -125.718 260.976 -128.554C246.444 -138.805 240.363 -163.532 239.189 -175.18C237.568 -191.423 243.817 -204.435 249.853 -217C253.117 -223.796 256.482 -230.817 258.64 -238.351C260.451 -244.678 260.629 -252.771 260.875 -261.334C261.334 -281.12 261.859 -303.545 283.523 -310.766C288.33 -312.376 290.23 -311.426 292.12 -310.04C292.354 -309.872 292.589 -309.693 292.846 -309.525C292.958 -309.457 293.062 -309.378 293.159 -309.291L295.261 -307.144C295.337 -307.074 295.404 -306.995 295.462 -306.909C298.223 -302.807 297.038 -294.68 295.652 -290.51C289.817 -273.016 283.859 -252.112 283.859 -229.755C283.859 -219.112 288.699 -210.874 293.83 -202.143C302.091 -188.069 311.459 -172.117 300.001 -143.455C296.021 -133.506 289.347 -127.101 280.717 -124.944C278.649 -124.42 276.524 -124.153 274.39 -124.15ZM287.659 -308.262C286.577 -308.198 285.511 -307.972 284.496 -307.591C265.067 -301.108 264.598 -280.852 264.14 -261.256C263.938 -252.47 263.748 -244.175 261.814 -237.423C259.579 -229.598 256.147 -222.466 252.871 -215.558C246.768 -202.836 241 -190.831 242.531 -175.516C243.828 -162.593 250.356 -140.158 262.899 -131.304C265.312 -129.548 268.089 -128.358 271.024 -127.82C273.959 -127.282 276.978 -127.411 279.857 -128.197C289.392 -130.578 294.389 -138.492 296.837 -144.707C307.691 -171.838 299.151 -186.381 290.89 -200.444C285.759 -209.175 280.46 -218.196 280.46 -229.755C280.46 -252.592 286.508 -273.821 292.421 -291.572C293.696 -295.384 294.478 -302.069 292.712 -304.909L290.856 -306.798C290.599 -306.965 290.353 -307.144 290.107 -307.323C289.433 -307.924 288.563 -308.258 287.659 -308.262Z" fill="#221F1A" fill-opacity="0.1"/>
<path d="M-27.9469 -54.194C-28.6464 -54.1916 -29.345 -54.2401 -30.0374 -54.3394C-35.269 -55.0883 -38.9803 -58.6096 -41.0371 -64.8138C-43.094 -71.0179 -39.4498 -76.9649 -35.9173 -82.6995C-33.6816 -86.299 -31.6135 -89.7086 -31.0882 -92.8833C-26.4378 -120.83 -42.6692 -139.051 -79.3463 -147.2L-80.8666 -147.536C-86.2994 -148.732 -91.9111 -149.961 -96.7515 -152.756C-97.099 -152.96 -97.4184 -153.208 -97.7016 -153.494C-98.3417 -154.111 -98.7834 -154.904 -98.9702 -155.773C-99.1571 -156.643 -99.0807 -157.548 -98.7507 -158.373C-98.4208 -159.198 -97.8523 -159.907 -97.1179 -160.408C-96.3835 -160.908 -95.5164 -161.179 -94.6275 -161.185C-86.4 -161.397 -79.324 -162.001 -73.0751 -162.526C-52.4058 -164.259 -37.4823 -165.511 -5.91385 -151.482C14.9902 -142.192 22.0327 -125.67 16.1975 -99.4787C14.406 -91.3199 11.1077 -83.5671 6.47208 -76.6184C1.94473 -70.1012 -14.9015 -54.194 -27.9469 -54.194ZM-54.5633 -160.246C-60.4321 -160.246 -66.2673 -159.754 -72.7845 -159.206C-79.078 -158.67 -86.1988 -158.088 -94.5381 -157.854C-94.7724 -157.868 -95.0054 -157.809 -95.2039 -157.683C-95.4025 -157.558 -95.5567 -157.374 -95.6445 -157.156C-95.7323 -156.938 -95.7494 -156.699 -95.6933 -156.471C-95.6371 -156.243 -95.5107 -156.038 -95.3318 -155.886C-95.2539 -155.81 -95.1677 -155.742 -95.0747 -155.685C-90.6815 -153.147 -85.3269 -151.974 -80.1512 -150.833L-78.6197 -150.498C-39.8857 -141.89 -22.7265 -122.328 -27.7793 -92.3691C-28.4165 -88.546 -30.7751 -84.7117 -33.0556 -80.9892C-36.3421 -75.657 -39.4386 -70.6154 -37.8624 -65.8981C-36.208 -60.9348 -33.4916 -58.2519 -29.5567 -57.6818C-18.4451 -56.0832 -0.972885 -71.8004 3.71097 -78.5634C8.08011 -85.1691 11.202 -92.5193 12.9221 -100.25C18.4109 -124.944 12.1844 -139.822 -7.27765 -148.463C-28.45 -157.854 -41.6072 -160.246 -54.5633 -160.246Z" fill="#221F1A" fill-opacity="0.1"/>
<path d="M-77.2672 -351.602C-79.6594 -347.566 -82.1411 -343.385 -82.1411 -338.187C-82.1411 -334.107 -80.4308 -330.452 -78.7875 -326.908C-77.4124 -324.309 -76.4006 -321.533 -75.7804 -318.658C-74.4949 -310.833 -79.134 -304.126 -83.1807 -299.8C-95.5443 -286.777 -121.087 -277.007 -137.844 -278.885C-146.284 -279.835 -151.84 -282.663 -154.825 -287.515C-160.66 -296.983 -155.607 -312.722 -150.42 -326.729C-149.638 -328.831 -148.878 -331.134 -148.073 -333.571C-145.267 -342.033 -142.092 -351.635 -136.894 -356.956C-136.335 -357.515 -135.664 -358.164 -134.904 -358.89C-133.306 -360.444 -131.372 -362.311 -129.46 -364.39H-134.032C-135.15 -363.272 -136.268 -362.221 -137.174 -361.305C-137.945 -360.556 -138.638 -359.885 -139.208 -359.315C-145.021 -353.435 -148.33 -343.441 -151.247 -334.621C-152.041 -332.207 -152.79 -329.937 -153.55 -327.914C-159.017 -313.147 -164.326 -296.513 -157.619 -285.76C-154.098 -280.047 -147.558 -276.615 -138.146 -275.553C-136.62 -275.385 -135.087 -275.303 -133.552 -275.307C-116.135 -275.307 -92.5819 -284.966 -80.6767 -297.497C-74.0701 -304.45 -71.2084 -311.951 -72.4045 -319.195C-73.072 -322.375 -74.1741 -325.448 -75.6798 -328.328C-77.2448 -331.681 -78.7316 -334.845 -78.7316 -338.187C-78.7316 -342.469 -76.5965 -346.012 -74.3272 -349.891C-71.8791 -354.027 -69.1739 -358.622 -69.3751 -364.424H-72.7287C-72.561 -359.572 -74.8973 -355.682 -77.2672 -351.602Z" fill="#221F1A" fill-opacity="0.1"/>
<path d="M-198.846 -351.412C-194.866 -348.505 -189.635 -347.846 -183.308 -349.444C-177.964 -350.797 -171.995 -356.889 -165.221 -364.39H-169.77C-175.192 -358.499 -180.2 -353.692 -184.124 -352.697C-189.523 -351.333 -193.682 -351.803 -196.867 -354.117C-199.819 -356.286 -201.741 -359.919 -203.049 -364.39H-206.57C-205.095 -358.913 -202.747 -354.262 -198.846 -351.412Z" fill="#221F1A" fill-opacity="0.1"/>
<path d="M-43.5971 -339.719C-44.6255 -332.9 -46.2353 -324.069 -49.6112 -316.244C-55.4607 -302.993 -63.059 -290.587 -72.2032 -279.354C-76.6747 -273.865 -82.8565 -269.07 -88.8706 -264.419C-90.5138 -263.156 -92.1236 -261.915 -93.655 -260.675C-99.0878 -256.271 -105.326 -252.968 -112.022 -250.949C-148.676 -239.871 -165.522 -269.528 -181.81 -298.213C-194.274 -320.145 -206.045 -340.915 -226.01 -343.363C-236.071 -344.615 -246.053 -343.441 -255.991 -341.239V-337.796C-246.12 -340.032 -236.205 -341.261 -226.424 -340.032C-208.124 -337.796 -196.756 -317.742 -184.727 -296.558C-170.922 -272.245 -155.54 -245.136 -126.856 -245.136C-121.486 -245.19 -116.153 -246.03 -111.027 -247.629C-103.917 -249.763 -97.2941 -253.269 -91.5311 -257.947C-90.0108 -259.166 -88.4122 -260.395 -86.7914 -261.658C-80.6207 -266.42 -74.2489 -271.339 -69.5651 -277.13C-60.2249 -288.624 -52.4651 -301.316 -46.4924 -314.869C-42.9599 -323.096 -41.3055 -332.207 -40.2547 -339.227C-38.8356 -347.548 -38.7451 -356.041 -39.9864 -364.39H-43.34C-42.1551 -357.538 -42.1103 -349.455 -43.5971 -339.719Z" fill="#221F1A" fill-opacity="0.1"/>
<path d="M302.941 -11.1451C298.767 -11.4627 294.578 -11.515 290.398 -11.3016C267.862 -9.97134 247.629 0.994904 228.055 11.5475C213.925 19.1825 199.304 27.0858 184.112 31.1325C146.674 41.1262 116.671 29.3998 97.3655 -2.78348C91.2285 -13.0007 86.9694 -21.0605 87.9643 -31.9485C89.384 -47.5986 95.0739 -61.013 101.099 -75.154C104.095 -82.1965 107.192 -89.485 109.718 -97.0753C113.194 -107.516 113.72 -117.521 114.279 -128.118C114.458 -131.472 114.637 -135.049 114.938 -138.559C115.453 -144.83 117.442 -151.18 119.41 -157.317C121.003 -162.058 122.302 -166.893 123.3 -171.793C126.374 -188.673 117.923 -218.632 106.23 -232.259C91.4744 -249.485 70.1008 -256.919 42.7132 -254.359C14.8784 -251.754 -10.4077 -239.636 -23.006 -232.639C-41.7302 -222.231 -74.8749 -206.928 -86.3777 -221.303C-87.0805 -222.16 -87.5934 -223.156 -87.8825 -224.225C-88.1715 -225.295 -88.2302 -226.414 -88.0545 -227.508C-87.082 -235.221 -77.446 -244.276 -71.9126 -248.456C-67.5976 -251.687 -62.9697 -254.906 -58.4982 -258.014C-36.6328 -273.195 -14.0296 -288.901 -9.61404 -317.607C-6.85292 -335.583 -8.77563 -349.824 -14.3538 -364.345H-17.9756C-12.2298 -349.891 -10.1506 -335.862 -12.9341 -318.122C-17.1708 -290.879 -39.1256 -275.598 -60.4545 -260.809C-64.9259 -257.69 -69.6098 -254.448 -73.9695 -251.184C-75.6127 -249.943 -90.0443 -238.887 -91.4305 -227.977C-91.6609 -226.437 -91.5672 -224.866 -91.1553 -223.365C-90.7433 -221.863 -90.0222 -220.464 -89.0383 -219.258C-82.89 -211.567 -71.3648 -210.147 -54.7645 -215.043C-45.028 -217.916 -33.8158 -222.868 -21.4187 -229.755C-9.02158 -236.641 15.7503 -248.523 42.9815 -251.061C69.2177 -253.52 89.6299 -246.467 103.648 -230.123C114.603 -217.346 122.83 -188.226 119.958 -172.442C118.98 -167.678 117.715 -162.978 116.168 -158.368C114.189 -152.052 112.144 -145.523 111.596 -138.883C111.294 -135.317 111.104 -131.763 110.925 -128.331C110.389 -117.968 109.874 -108.209 106.532 -98.1484C104.05 -90.6923 100.943 -83.4709 98.0139 -76.4954C92.1563 -62.701 86.0863 -48.437 84.5995 -32.2727C83.4817 -20.401 88.2102 -11.4916 94.4591 -1.08432C109.964 24.7495 132.03 37.9626 159.15 37.9626C167.871 37.8906 176.545 36.6768 184.95 34.352C200.533 30.2047 215.323 22.2008 229.665 14.4763C248.914 4.06903 268.79 -6.69601 290.611 -7.97037C294.709 -8.18158 298.816 -8.12927 302.907 -7.81384L302.941 -11.1451Z" fill="#221F1A" fill-opacity="0.1"/>
<path d="M302.941 -66.6806C285.337 -60.7909 268.281 -53.3775 251.966 -44.5245C246.177 -41.2676 240.612 -37.6264 235.31 -33.6253C229.575 -29.5004 223.651 -25.2302 217.324 -22.0666C197.269 -12.0058 160.894 -12.0059 144.059 -26.9629C121.165 -47.3192 127.839 -72.3481 134.289 -96.5611C136.748 -105.772 140.873 -117.23 145.255 -129.37C160.301 -171.134 179.037 -223.114 158.468 -253.967C135.563 -288.319 85.0691 -286.453 45.452 -273.251C42.2996 -272.2 38.3871 -270.434 34.2733 -268.556C21.4738 -262.776 3.97922 -254.839 -5.67914 -262.083C-8.5744 -264.252 -10.1506 -266.555 -10.5083 -269.036C-11.2014 -273.977 -7.07648 -279.432 -3.09688 -284.686C-1.53186 -286.743 -0.0562897 -288.699 1.16217 -290.656C2.79425 -293.26 4.51578 -295.887 6.30435 -298.671C17.7625 -316.367 30.7632 -336.41 28.3822 -357.918C28.1314 -360.103 27.7166 -362.267 27.1413 -364.39H23.6648C24.3163 -362.145 24.7799 -359.849 25.0509 -357.526C27.2867 -337.248 14.6436 -317.742 3.48734 -300.515C1.67639 -297.721 -0.0339203 -295.082 -1.67719 -292.456C-2.79504 -290.622 -4.25946 -288.733 -5.76857 -286.721C-10.173 -280.908 -14.7115 -274.894 -13.8284 -268.567C-13.3477 -265.213 -11.2796 -262.094 -7.6913 -259.4C3.48734 -250.972 21.3732 -259.031 35.6371 -265.504C39.6949 -267.337 43.5181 -269.07 46.5028 -270.065C84.9461 -282.875 133.819 -284.888 155.673 -252.101C175.303 -222.656 156.892 -171.559 142.091 -130.511C137.698 -118.304 133.54 -106.767 131.047 -97.4218C124.34 -72.2363 117.386 -46.179 141.834 -24.4589C150.33 -16.9021 163.767 -12.3971 179.64 -11.7711C180.87 -11.7711 182.1 -11.6928 183.329 -11.6928C196.408 -11.6928 209.443 -14.3869 218.821 -19.0707C225.394 -22.3573 231.431 -26.7057 237.266 -30.9089C242.451 -34.818 247.888 -38.3805 253.542 -41.5734C269.37 -50.1471 285.895 -57.3645 302.941 -63.1481V-66.6806Z" fill="#221F1A" fill-opacity="0.1"/>
<path d="M302.941 -364.39H302.672C302.672 -359.919 300.146 -355.559 295.239 -351.266C272.758 -331.637 242.364 -334.946 212.942 -338.154C198.577 -339.719 183.732 -341.34 170.329 -340.121C158.557 -339.003 148.486 -333.593 138.738 -328.328C128.99 -323.063 120.014 -318.189 109.293 -317.004C95.2864 -315.439 80.2288 -316.635 69.0501 -320.179C53.7913 -325.019 45.262 -333.828 43.697 -346.37C42.9368 -352.418 44.0994 -358.287 45.5526 -364.39H42.1096C40.7123 -358.409 39.5721 -352.272 40.3658 -345.945C43.5964 -319.888 73.2645 -312.968 96.8402 -312.968C101.124 -312.968 105.404 -313.2 109.662 -313.661C121.031 -314.925 130.846 -320.234 140.336 -325.377C150.218 -330.72 159.552 -335.773 170.63 -336.779C183.698 -337.964 197.727 -336.443 212.573 -334.823C242.755 -331.536 273.899 -328.115 297.452 -348.751C299.551 -350.539 301.397 -352.604 302.941 -354.888L302.941 -364.39Z" fill="#221F1A" fill-opacity="0.1"/>
<path d="M159.698 -364.39C157.73 -363.742 155.707 -363.071 153.628 -362.356C136.29 -356.498 116.638 -349.847 101.088 -359.158C98.7764 -360.47 96.7657 -362.253 95.1858 -364.39H91.1838C93.1057 -360.967 95.9532 -358.154 99.4001 -356.274C105.382 -352.777 112.214 -351.001 119.142 -351.143C130.946 -351.143 143.299 -355.324 154.701 -359.181C158.289 -360.399 161.687 -361.551 164.952 -362.534C167.739 -363.343 170.577 -363.963 173.447 -364.39H159.698Z" fill="#221F1A" fill-opacity="0.1"/>
<path d="M302.941 -283.904C302.807 -283.457 302.65 -282.998 302.516 -282.54C298.29 -267.74 298.928 -251.24 302.941 -234.886V-283.904Z" fill="#221F1A" fill-opacity="0.1"/>
<path d="M302.941 -82.4648L301.219 -82.0065C293.394 -79.8602 286.352 -75.7576 279.589 -71.8004C276.235 -69.8665 272.881 -67.8543 269.394 -66.1328C249.406 -56.1391 202.668 -44.1221 185.174 -61.6614C145.21 -101.58 170.049 -163.655 188.181 -209.007C189.489 -212.361 191.154 -215.569 192.909 -219.068C196.375 -225.898 199.952 -232.963 200.891 -240.452C202.59 -254.046 191.49 -261.692 181.697 -268.5C170.373 -276.325 160.592 -283.032 167.634 -297.173C169.501 -300.918 172.452 -304.439 175.314 -307.86C176.208 -308.978 177.103 -309.995 177.952 -311.057C182.133 -316.288 189.846 -315.115 196.643 -314.086C197.828 -313.907 198.968 -313.728 200.064 -313.594C214.942 -311.727 249.797 -305.087 252.19 -283.557C253.956 -267.717 246.511 -256.103 238.641 -243.817C235.424 -238.97 232.462 -233.959 229.765 -228.804C227.261 -223.74 224.813 -219.068 222.454 -214.596C206.726 -184.85 196.341 -165.198 218.274 -126.822C223.494 -117.678 234.729 -101.603 251.284 -96.6393C264.922 -92.5479 284.071 -94.9402 302.952 -102.229V-105.918C284.362 -98.5285 265.291 -95.9239 252.246 -99.8364C236.808 -104.464 226.155 -119.768 221.18 -128.476C200.164 -165.254 209.666 -183.251 225.417 -213.02C227.798 -217.492 230.257 -222.187 232.784 -227.228C235.413 -232.285 238.309 -237.2 241.458 -241.95C249.283 -254.247 257.399 -266.856 255.51 -283.87C252.86 -307.77 216.139 -314.902 200.477 -316.858C199.359 -316.993 198.242 -317.171 197.124 -317.339C189.813 -318.457 180.702 -319.843 175.303 -313.091C174.476 -312.052 173.604 -311.012 172.721 -309.95C169.591 -306.497 166.871 -302.694 164.616 -298.615C156.266 -281.925 168.216 -273.664 179.763 -265.683C189.645 -258.841 198.991 -252.391 197.537 -240.81C196.677 -233.902 193.234 -227.105 189.891 -220.532C188.181 -217.179 186.415 -213.657 185.04 -210.237C166.561 -164.035 141.253 -100.775 182.804 -59.2468C190.003 -52.0366 201.383 -49.3313 213.903 -49.3313C234.27 -49.3313 257.645 -56.508 270.914 -63.1258C274.469 -64.9032 277.945 -66.9377 281.299 -68.9051C287.872 -72.7617 294.713 -76.7302 302.125 -78.7647L302.963 -78.9994L302.941 -82.4648Z" fill="#221F1A" fill-opacity="0.1"/>
<path d="M302.941 157.775C298.626 158.725 294.322 159.642 290.085 160.536C269.908 164.818 250.86 168.865 238.105 175.247C228.536 180.024 219.96 186.571 212.83 194.542H217.458C223.856 187.886 231.346 182.374 239.603 178.243C251.977 172.062 270.825 168.06 290.778 163.823C294.792 162.973 298.861 162.101 302.941 161.207V157.775Z" fill="#221F1A" fill-opacity="0.1"/>
<path d="M88.501 182.581C84.6443 163.309 65.3388 157.775 48.2579 152.901C35.4695 149.235 23.3854 145.781 20.233 137.184C17.6172 130.086 21.0379 119.589 30.6962 105.102C35.1132 98.2932 41.2947 92.8109 48.582 89.239C58.151 84.4546 66.6244 77.3674 74.4718 67.5637C76.9311 64.5008 78.6638 60.6106 80.3405 56.8546C84.3313 47.9116 88.1656 39.3712 101.345 39.3712C103.326 39.3832 105.303 39.5477 107.259 39.863C117.32 41.4057 122.551 46.1902 128.107 51.2541C136.547 58.9561 145.277 66.9041 170.664 62.6898C196.554 58.3748 224.321 45.9889 248.914 35.0674L253.252 33.1335C258.422 30.7089 263.446 27.9841 268.298 24.9731C276.336 20.1998 284.653 15.2477 294.009 13.392C297.016 12.7884 300.023 12.3412 302.952 12.0394V8.68579C299.755 9.00998 296.535 9.47949 293.305 10.1278C283.423 12.0953 274.86 17.1927 266.577 22.1114C261.837 25.0569 256.929 27.722 251.877 30.0929L247.528 32.0268C223.192 42.8701 195.592 55.1666 170.116 59.4033C146.362 63.3717 138.592 56.2956 130.376 48.7947C124.697 43.619 118.829 38.2757 107.784 36.5653C87.1484 33.3794 81.9056 45.1393 77.2888 55.5131C75.8983 59.0506 74.0774 62.4034 71.8672 65.4956C64.3216 74.9081 56.2171 81.7047 47.0953 86.2656C39.3094 90.1124 32.6969 95.976 27.9463 103.246C17.5054 118.896 14.0624 130.075 17.1142 138.347C20.859 148.531 33.7368 152.22 47.3636 156.121C64.2657 160.961 81.7491 165.969 85.2033 183.24C85.9456 186.971 86.4423 190.746 86.69 194.542H90.0436C89.7916 190.525 89.2763 186.53 88.501 182.581Z" fill="#221F1A" fill-opacity="0.1"/>
<path d="M302.941 127.682C299.442 129.169 295.987 130.667 292.589 132.154C270.88 141.577 250.379 150.476 226.222 155.316C213.31 157.898 198.275 160.458 195.771 160.212C187.275 154.343 175.649 134.121 173.414 125.055C168.596 105.795 187.119 92.2685 202.009 81.4029C204.524 79.5584 206.905 77.8257 209.096 76.1154C217.357 69.6988 226.065 68.6033 235.287 67.4407C241.097 66.8976 246.838 65.7741 252.424 64.0871C259.385 61.5594 266.171 58.5718 272.736 55.1442C280.84 51.1423 289.213 47.0062 297.485 44.9381C299.263 44.491 301.096 44.1556 302.952 43.8762V40.5226C300.838 40.8161 298.741 41.2191 296.669 41.7299C288.051 43.8873 279.51 48.1017 271.249 52.1819C264.821 55.5368 258.178 58.4609 251.362 60.9348C245.984 62.5583 240.456 63.6406 234.863 64.1654C225.596 65.3391 216.027 66.5464 207.039 73.5331C204.893 75.1987 202.568 76.8867 200.03 78.7535C184.38 90.2116 164.795 104.464 170.161 125.927C172.62 135.787 184.592 156.836 194.128 163.197C194.329 163.331 194.653 163.543 196.162 163.543C199.125 163.543 206.693 162.694 226.881 158.658C251.396 153.751 272.054 144.786 293.953 135.284L302.974 131.394L302.941 127.682Z" fill="#221F1A" fill-opacity="0.1"/>
<path d="M302.941 103.76C298.883 105.314 294.87 106.924 290.89 108.511C274.268 115.218 257.064 122.093 238.82 123.748C226.356 124.865 218.855 123.412 218.229 119.723C216.899 111.898 240.508 94.2471 254.437 90.7594C267.762 87.4058 281.903 83.6274 295.049 78.3734C297.027 77.5797 299.744 76.596 302.941 75.5117V72.0128C298.805 73.3878 295.563 74.5504 293.808 75.2546C280.841 80.4415 266.834 84.1975 253.621 87.5511C240.407 90.9047 213.053 109.294 214.931 120.327C215.949 126.352 224.154 127.571 231.084 127.571C234.349 127.571 237.322 127.302 239.122 127.135C257.857 125.436 275.285 118.438 292.142 111.675C295.708 110.244 299.308 108.802 302.941 107.393V103.76Z" fill="#221F1A" fill-opacity="0.1"/>
<path d="M265.123 194.542H264.933C263.163 194.123 261.317 194.142 259.556 194.598L265.123 194.542Z" fill="#221F1A" fill-opacity="0.1"/>
<path d="M302.941 184.861C299.248 187.044 296.35 190.35 294.669 194.296C294.637 194.376 294.611 194.458 294.59 194.542H298.234C299.361 192.347 300.97 190.436 302.941 188.953V184.861Z" fill="#221F1A" fill-opacity="0.1"/>
<path d="M163.431 150.8C154.701 144.26 149.29 137.889 144.752 128.8C140.795 120.886 138.693 112.446 136.659 104.286C134.065 93.8447 131.371 83.0461 124.787 73.1642C122.037 69.0393 117.722 66.6582 111.954 66.0769C101.502 65.0485 89.9095 70.2913 87.9756 72.2252C84.376 75.8247 81.0224 78.7647 78.0601 81.3581C69.296 89.049 62.9689 94.6048 59.47 108.6C56.7201 119.578 70.1121 127.436 84.2866 135.753C96.4266 142.885 108.98 150.286 110.791 159.318C111.786 163.968 110.668 174.42 109.55 186.471C109.293 189.076 109.025 191.781 108.768 194.542H112.121C112.367 191.893 112.624 189.299 112.87 186.795C114.134 173.951 115.106 163.801 114.111 158.658C111.998 148.117 98.7853 140.37 86.0081 132.858C72.9403 125.201 60.6102 117.957 62.7454 109.383C65.9872 96.4046 71.6883 91.4077 80.2958 83.851C83.2917 81.224 86.69 78.2617 90.3566 74.5615C91.6086 73.3095 100.697 69.274 109.226 69.274C110.042 69.274 110.847 69.274 111.641 69.3858C116.347 69.8553 119.846 71.7445 122.014 74.9751C128.275 84.3652 130.767 94.4036 133.417 105.034C135.496 113.374 137.631 121.992 141.756 130.242C146.552 139.834 152.253 146.552 161.419 153.427C171.089 160.671 169.378 179.071 166.718 194.486H170.071C172.855 178.378 174.442 159.061 163.431 150.8Z" fill="#221F1A" fill-opacity="0.1"/>
<path d="M72.8954 4.3038C58.4415 -5.33218 36.3972 7.65738 15.0796 20.1328C3.0737 27.1865 -8.27264 33.8377 -16.7572 35.3804C-39.2486 39.4718 -59.672 38.3315 -83.3931 35.3804C-88.3117 34.7656 -93.9234 32.6193 -99.848 30.35C-110.3 26.3481 -121.087 22.2231 -130.578 25.3867C-141.22 28.9303 -144.138 49.9797 -146.474 66.8818C-147.592 74.5727 -148.553 81.85 -150.04 84.9018C-150.666 85.6172 -154.254 87.5176 -157.709 89.3732C-174.063 98.0814 -208.091 116.202 -220.041 148.385C-224.099 159.307 -227.72 172.878 -219.649 180.937C-209.589 190.998 -188.897 181.161 -176.533 175.292C-174.521 174.331 -172.777 173.504 -171.358 172.9C-145.021 161.61 -108.344 150.789 -83.2366 163.342C-70.6494 169.636 -57.9505 182.055 -48.4934 194.564H-44.2567C-54.1274 180.949 -67.8324 167.299 -81.7386 160.346C-90.212 156.11 -99.8704 154.388 -109.976 154.388C-131.215 154.388 -154.4 161.978 -172.677 169.815C-174.152 170.441 -175.919 171.29 -177.976 172.263C-189.545 177.752 -208.907 186.94 -217.28 178.568C-223.987 171.86 -220.633 159.564 -216.9 149.559C-205.386 118.527 -172.151 100.831 -156.132 92.3132C-149.783 88.9596 -147.737 87.8417 -147.067 86.4556C-145.323 82.9567 -144.317 75.7129 -143.154 67.3289C-141.052 52.1819 -138.18 31.4344 -129.516 28.5503C-121.177 25.7668 -110.948 29.6681 -101.055 33.4688C-94.9182 35.8164 -89.1389 38.0297 -83.8179 38.7004C-59.7726 41.6963 -39.1033 42.8477 -16.1536 38.7004C-7.08769 37.0572 4.50455 30.2494 16.7787 23.0504C36.2519 11.6146 58.3297 -1.35263 71.0286 7.10959C81.503 14.0963 73.7338 29.0868 68.5917 39.0023C68.0551 40.0307 67.5521 41.0033 67.1049 41.8976C60.4648 55.1778 40.891 79.5025 26.5153 85.8855L24.5143 86.7686C10.6751 92.8721 -12.4758 103.089 -14.7562 119.075C-17.7968 140.314 1.51984 155.461 21.9656 171.458C31.4227 178.847 40.9693 186.348 48.3024 194.564H52.7739C45.0271 185.23 34.3962 176.913 24.0448 168.853C4.38159 153.483 -14.1861 138.962 -11.425 119.6C-9.40167 105.448 13.5481 95.3203 25.8781 89.8875L27.8903 88.9931C43.1491 82.2077 63.0918 57.4806 70.112 43.4402L71.5764 40.5896C76.9198 30.2159 85.8627 12.9561 72.8954 4.3038Z" fill="#221F1A" fill-opacity="0.1"/>
<path d="M-1.35297 183.777C-6.0368 177.215 -10.1953 169.949 -14.2196 162.917C-16.7236 158.547 -19.317 153.975 -22.0446 149.727C-26.8514 142.036 -28.9977 133.182 -31.0658 124.608C-33.3686 115.151 -35.7384 105.37 -41.6855 97.0417C-49.9241 85.4942 -60.8904 80.2738 -71.4877 75.1316C-77.9154 72.0351 -84.5779 68.8269 -90.7262 64.2213C-92.716 62.7234 -94.907 59.8169 -97.2209 56.7428C-103.034 49.0072 -110.278 39.3824 -120.461 44.4463C-125.738 47.0844 -128.946 50.3262 -130.265 54.3617C-132.501 61.0689 -128.711 68.3574 -125.413 74.7628C-122.842 79.7372 -120.417 84.4546 -121.769 87.1711C-124.15 91.9331 -131.316 94.1801 -137.643 96.114C-140.573 96.9358 -143.436 97.9822 -146.206 99.244C-151.862 102.072 -201.35 127.515 -196.297 149.302C-196.135 150.252 -195.726 151.143 -195.112 151.886C-194.498 152.63 -193.701 153.199 -192.798 153.539C-185.957 156.065 -171.704 146.194 -156.457 134.971C-153.765 132.866 -150.962 130.907 -148.061 129.102C-127.202 118.684 -96.7514 112.457 -79.1898 123.435C-46.4252 143.914 -38.6561 158.424 -26.8961 180.378C-24.5486 184.76 -22.0446 189.433 -19.1717 194.475H-15.3039C-18.5681 188.818 -21.3515 183.631 -23.945 178.825C-35.526 157.194 -43.8877 141.566 -77.4124 120.606C-84.8015 116.001 -93.6661 114.223 -102.81 114.223C-120.215 114.223 -138.582 120.651 -149.559 126.129C-152.661 128.001 -155.647 130.058 -158.502 132.288C-168.105 139.364 -185.979 152.521 -191.692 150.409C-192.071 150.258 -192.401 150.006 -192.647 149.681C-192.894 149.356 -193.046 148.97 -193.089 148.564C-196.722 132.914 -163.063 111.418 -144.764 102.262C-142.148 101.091 -139.451 100.112 -136.693 99.3334C-129.74 97.1535 -121.847 94.683 -118.807 88.6466C-116.683 84.4099 -119.489 78.9659 -122.462 73.1978C-125.436 67.4296 -128.868 60.7895 -127.101 55.379C-126.084 52.249 -123.424 49.6443 -118.997 47.431C-111.865 43.8538 -106.6 49.8567 -99.9262 58.7102C-97.4669 61.9855 -95.1417 65.082 -92.7719 66.8594C-86.3665 71.6663 -79.5587 74.9416 -72.9745 78.1051C-62.2877 83.2473 -52.1934 88.0988 -44.4466 98.9421C-38.8573 106.767 -36.6886 115.788 -34.3858 125.357C-32.2507 134.188 -30.0373 143.31 -24.9399 151.459C-22.2905 155.696 -19.7195 160.19 -17.2378 164.538C-13.1688 171.637 -8.96561 178.981 -4.18115 185.677C-1.83568 188.789 0.746826 191.716 3.54327 194.43L3.61035 194.497H8.28305C7.51172 193.681 6.71802 192.876 5.94672 192.083C3.30963 189.5 0.869598 186.724 -1.35297 183.777Z" fill="#221F1A" fill-opacity="0.1"/>
<path d="M-165.198 190.942C-169.847 191.462 -174.391 192.676 -178.68 194.542H-167.032C-166.327 194.43 -165.623 194.329 -164.93 194.285C-158.399 193.803 -151.839 193.889 -145.323 194.542H-125.514C-138.469 191.256 -151.863 190.041 -165.198 190.942Z" fill="#221F1A" fill-opacity="0.1"/>
<path d="M-176.746 14.7894C-180.278 12.889 -183.61 11.0892 -186.583 9.30063C-192.832 5.4014 -198.808 1.08011 -204.469 -3.63306C-218.308 -14.644 -231.398 -25.0513 -255.991 -23.4416V-20.088C-232.516 -21.6754 -220.488 -12.0953 -206.57 -1.00607C-200.789 3.79617 -194.69 8.20309 -188.316 12.1847C-185.264 14.0068 -181.899 15.8178 -178.333 17.774C-169.994 22.2455 -161.364 26.9182 -156.177 32.105C-155.182 33.0999 -155.383 37.1354 -155.484 39.0805C-155.484 39.8071 -155.551 40.4667 -155.551 40.9921C-155.551 54.9542 -159.251 67.206 -177.305 81.6599C-180.658 84.3428 -184.739 85.8855 -189.054 87.5064C-193.737 89.2838 -198.589 91.1171 -202.546 94.5713C-232.181 120.472 -263.693 158.547 -248.658 194.542H-244.991C-260.586 160 -229.487 122.574 -200.277 97.0641C-196.789 94.0012 -192.452 92.3579 -187.813 90.614C-183.442 88.9596 -178.87 87.2604 -175.158 84.2422C-161.342 73.1865 -152.142 61.6055 -152.142 40.9585C-152.142 40.4778 -152.142 39.8407 -152.075 39.2147C-151.907 35.8611 -151.706 31.7473 -153.751 29.7017C-159.341 24.1682 -168.183 19.4061 -176.746 14.7894Z" fill="#221F1A" fill-opacity="0.1"/>
<path d="M-255.991 104.476V108.243C-255.246 108.689 -254.555 109.222 -253.934 109.83C-253.107 110.669 -252.816 112.558 -253.286 115.14C-253.851 118.108 -254.759 121 -255.991 123.759V131.461C-253.107 126.084 -250.715 120.226 -249.977 115.677C-249.362 111.887 -249.899 109.126 -251.564 107.46C-252.849 106.207 -254.348 105.196 -255.991 104.476Z" fill="#221F1A" fill-opacity="0.1"/>
<path d="M-218.979 29.1874C-221.214 25.409 -223.517 21.4965 -228.033 18.7913C-234.651 14.8229 -244.477 12.576 -255.98 12.33V15.6836C-245.852 15.9296 -236.216 17.774 -229.744 21.653C-225.965 23.8888 -223.976 27.2423 -221.863 30.8866C-220.687 32.9915 -219.361 35.0089 -217.894 36.923C-209.488 47.431 -206.492 55.9267 -208.951 62.1868C-213.669 73.9243 -236.63 77.3674 -255.902 79.9273V83.2809C-235.635 80.5868 -211.277 77.0096 -205.81 63.4052C-202.77 55.8373 -205.81 46.4808 -215.189 34.7879C-216.585 33.0141 -217.851 31.1425 -218.979 29.1874Z" fill="#221F1A" fill-opacity="0.1"/>
<path d="M33.5355 -203.932C31.2104 -204.793 29.0641 -205.765 26.9625 -206.704C21.8874 -208.996 17.0917 -211.176 10.6193 -211.735C-5.98097 -213.244 -26.2702 -210.091 -47.6996 -206.76C-84.9022 -200.97 -123.379 -195 -151.169 -210.874C-171.492 -222.488 -181.463 -242.878 -191.11 -262.586C-200.5 -281.758 -209.354 -299.867 -226.882 -310.397C-235.031 -315.293 -245.282 -317.104 -255.946 -316.814V-313.46C-246.724 -313.695 -236.697 -312.342 -228.548 -307.513C-211.847 -297.452 -203.195 -279.812 -194.039 -261.099C-184.168 -240.978 -173.918 -220.085 -152.745 -207.956C-123.927 -191.49 -83.1136 -197.895 -47.096 -203.485C-25.8566 -206.838 -5.73505 -209.912 10.4069 -208.437C16.3204 -207.9 20.8701 -205.855 25.6769 -203.697C27.812 -202.736 30.0254 -201.741 32.44 -200.835C55.6245 -192.138 68.5582 -183.766 75.7013 -172.822C83.6158 -160.693 85.002 -144.573 80.1728 -120.539C77.6464 -107.941 72.6607 -98.0031 67.3844 -87.484C63.7657 -80.5974 60.552 -73.5056 57.7596 -66.2446C56.0237 -61.1572 54.5573 -55.9817 53.3664 -50.7398C50.7059 -39.9413 47.956 -28.785 40.7346 -20.5575C19.6852 3.51007 -11.7156 17.2151 -50.0695 19.0931C-82.7335 20.6805 -119.377 13.3361 -150.588 -1.02844C-162.091 -6.28241 -173.046 -13.3808 -183.61 -20.2892C-197.862 -29.5675 -212.517 -39.1588 -229.162 -44.681C-236.988 -47.2968 -246.065 -48.124 -255.991 -47.185V-43.8314C-246.378 -44.7704 -237.669 -43.9991 -230.191 -41.5063C-213.993 -36.107 -199.472 -26.6387 -185.476 -17.4834C-174.778 -10.5303 -163.767 -3.32007 -152.03 2.09039C-122.821 15.4517 -91.1204 22.4987 -59.0013 22.7709C-55.9458 22.7709 -52.9238 22.6964 -49.9354 22.5473C-10.6536 20.6358 21.6079 6.52832 43.2274 -18.2435C50.9854 -27.097 53.8359 -38.6669 56.5858 -49.8455C57.7472 -54.9708 59.1801 -60.0306 60.8784 -65.0038C63.6246 -72.1575 66.7861 -79.1449 70.3467 -85.9302C75.4889 -96.1922 80.8211 -106.789 83.4258 -119.835C88.4226 -144.797 86.8799 -161.688 78.4513 -174.61C70.8945 -186.203 57.4802 -194.967 33.5355 -203.932Z" fill="#221F1A" fill-opacity="0.1"/>
<path d="M-17.0925 -181.06C-31.5465 -184.671 -46.0452 -182.379 -60.0744 -180.166C-64.2664 -179.507 -68.5925 -178.825 -72.8181 -178.31C-76.3617 -177.886 -79.9277 -177.439 -83.5048 -176.991C-112.29 -173.381 -142.047 -169.647 -170.251 -176.052C-192.966 -181.183 -219.951 -200.467 -225.809 -223.796C-227.352 -229.967 -227.15 -237.211 -226.927 -245.036C-226.468 -261.491 -225.943 -280.148 -245.215 -287.38C-248.675 -288.608 -252.32 -289.232 -255.991 -289.225V-285.871C-252.714 -285.876 -249.462 -285.313 -246.378 -284.206C-229.353 -277.811 -229.8 -261.927 -230.269 -245.08C-230.482 -237.468 -230.694 -229.609 -229.04 -222.98C-225.373 -208.325 -214.764 -197.269 -206.503 -190.562C-195.984 -181.999 -183.028 -175.527 -170.989 -172.788C-142.215 -166.249 -112.156 -170.016 -83.0912 -173.66C-79.5141 -174.118 -75.9481 -174.554 -72.4268 -174.979C-68.1342 -175.493 -63.7745 -176.187 -59.549 -176.857C-45.8552 -179.015 -31.6918 -181.25 -17.9086 -177.807C-3.67818 -174.253 11.0106 -164.997 21.3843 -153.047C32.7754 -139.945 37.9511 -125.1 35.9166 -111.183C32.7977 -89.3062 20.4565 -70.1795 -0.771729 -54.3505C-38.7791 -26.035 -94.6723 -16.5667 -130.332 -21.843C-146.441 -24.2018 -161.476 -31.8032 -176.03 -39.0917C-181.497 -41.8528 -187.209 -44.681 -192.798 -47.2409C-201.574 -51.187 -209.399 -58.4195 -217.693 -66.0434C-229.162 -76.7413 -241.057 -87.6517 -255.991 -89.6191V-86.1985C-242.197 -84.1416 -230.918 -73.7455 -219.929 -63.6847C-211.813 -56.195 -203.407 -48.4482 -194.14 -44.2786C-188.55 -41.7858 -182.961 -38.9464 -177.54 -36.1964C-162.75 -28.7291 -147.469 -21.0046 -130.779 -18.5341C-94.4375 -13.1572 -37.4153 -22.8044 1.28513 -51.6677C22.9381 -67.8208 36.0731 -88.2442 39.2925 -110.724C41.4053 -125.592 35.9389 -141.41 23.9219 -155.26C13.1121 -167.646 -2.23613 -177.304 -17.0925 -181.06Z" fill="#221F1A" fill-opacity="0.1"/>
<path d="M-99.2555 -142.539C-106.354 -145.378 -113.788 -148.128 -120.953 -150.777C-135.262 -156.087 -150.13 -161.576 -163.209 -168.093C-167.367 -170.172 -172.822 -169.96 -178.098 -169.748C-181.078 -169.518 -184.073 -169.574 -187.041 -169.915C-194.732 -171.201 -204.156 -176.432 -211.511 -180.837C-224.479 -188.662 -240.218 -207.42 -243.013 -224.221C-243.628 -227.877 -243.952 -231.778 -244.31 -235.903C-245.327 -248.132 -246.489 -261.804 -255.991 -269.573V-264.9C-249.519 -257.757 -248.557 -246.545 -247.63 -235.601C-247.272 -231.409 -246.925 -227.452 -246.299 -223.662C-243.337 -205.911 -226.826 -186.113 -213.211 -177.953C-205.609 -173.392 -195.828 -167.97 -187.567 -166.595C-184.365 -166.213 -181.135 -166.142 -177.92 -166.383C-173.068 -166.573 -168.049 -166.774 -164.662 -165.086C-151.471 -158.491 -136.547 -152.968 -122.116 -147.625C-114.962 -144.976 -107.584 -142.237 -100.496 -139.409C-86.7243 -133.898 -63.0703 -114.402 -66.9604 -96.7846C-69.6433 -84.6893 -79.9947 -76.2718 -88.1998 -71.3532C-98.2328 -65.4927 -109.26 -61.5326 -120.73 -59.6716C-150.789 -55.0436 -198.198 -80.3856 -232.807 -98.875C-239.894 -102.665 -246.579 -106.231 -252.246 -109.07C-253.51 -109.707 -254.762 -110.322 -255.991 -110.926V-107.181L-253.755 -106.063C-248.166 -103.246 -241.459 -99.6799 -234.405 -95.9127C-202.278 -78.7423 -159.274 -55.759 -128.32 -55.759C-125.615 -55.7482 -122.913 -55.9462 -120.238 -56.3515C-100.385 -59.4033 -68.9614 -72.4934 -63.7298 -96.058C-59.3366 -115.788 -84.1308 -136.491 -99.2555 -142.539Z" fill="#221F1A" fill-opacity="0.1"/>
<path d="M-173.202 -151.996L-175.438 -152.588L-182.391 -154.444C-202.177 -159.698 -229.274 -166.886 -242.756 -178.411C-247.719 -182.748 -252.481 -190.227 -255.991 -197.962V-190.462C-252.783 -184.66 -248.949 -179.395 -244.813 -175.929C-230.783 -163.912 -203.262 -156.602 -183.162 -151.269C-180.714 -150.621 -178.389 -150.006 -176.232 -149.414L-173.996 -148.821C-162.169 -145.669 -151.952 -142.941 -154.579 -128.498C-155.696 -122.652 -159.24 -117.532 -164.986 -113.687C-173.649 -107.885 -186.863 -105.37 -197.125 -107.572C-213.367 -110.982 -229.162 -123.926 -244.377 -136.458C-248.289 -139.666 -252.202 -142.841 -255.991 -145.837V-141.566C-252.861 -139.073 -249.698 -136.48 -246.501 -133.864C-230.951 -121.087 -214.865 -107.874 -197.896 -104.241C-195.037 -103.638 -192.121 -103.342 -189.199 -103.358C-179.998 -103.323 -170.98 -105.921 -163.209 -110.847C-156.691 -115.207 -152.6 -121.087 -151.37 -127.85C-148.162 -145.289 -161.465 -148.877 -173.202 -151.996Z" fill="#221F1A" fill-opacity="0.1"/>
</g>
</svg>
